<svg width="20" height="21" viewBox="0 0 20 21" fill="none" xmlns="http://www.w3.org/2000/svg">
<mask id="mask0_4003_1111" style="mask-type:luminance" maskUnits="userSpaceOnUse" x="0" y="0" width="20" height="21">
<path d="M0 0.810547H20V20.8105H0V0.810547Z" fill="white"/>
</mask>
<g mask="url(#mask0_4003_1111)">
<path d="M10.2547 0.960955C10.7547 0.960955 11.2147 1.24595 11.4347 1.69595L15.5447 9.90595L19.8697 18.561C19.9574 18.7351 20.0054 18.9266 20.0102 19.1215C20.0151 19.3164 19.9767 19.51 19.8978 19.6883C19.8189 19.8667 19.7015 20.0253 19.554 20.1528C19.4065 20.2804 19.2326 20.3736 19.0447 20.426L18.9597 20.446C18.8997 20.461 18.8397 20.466 18.7797 20.471H18.6897L10.2497 18.806L4.96973 9.90595L9.06973 1.69595C9.17932 1.47427 9.34898 1.28783 9.55937 1.15788C9.76977 1.02793 10.0124 0.959699 10.2597 0.960955H10.2547Z" fill="#FFBB00"/>
<path d="M10.2548 0.960955C10.7548 0.960955 11.2148 1.24595 11.4348 1.69595L15.5448 9.90595L10.2498 18.801L1.82476 20.476C1.59875 20.4771 1.37623 20.4202 1.17851 20.3107C0.980791 20.2012 0.814502 20.0428 0.695572 19.8506C0.576642 19.6584 0.509054 19.4388 0.499281 19.213C0.489509 18.9872 0.537881 18.7627 0.639762 18.561L4.96976 9.91095L9.06976 1.69595C9.17935 1.47427 9.34901 1.28783 9.55941 1.15788C9.76981 1.02793 10.0125 0.959699 10.2598 0.960955H10.2548Z" fill="url(#paint0_linear_4003_1111)"/>
<path d="M10.2547 0.960938C10.7547 0.960938 11.2147 1.24594 11.4347 1.69594L15.5447 9.90594L10.2497 18.8009L4.96973 9.90594L9.06973 1.69594C9.17219 1.48747 9.32786 1.30974 9.521 1.18068C9.71414 1.05163 9.93792 0.97583 10.1697 0.960938H10.2597H10.2547Z" fill="url(#paint1_linear_4003_1111)"/>
</g>
<defs>
<linearGradient id="paint0_linear_4003_1111" x1="8.01476" y1="9.81596" x2="7.96976" y2="20.476" gradientUnits="userSpaceOnUse">
<stop stop-color="#FFD748"/>
<stop offset="0.54" stop-color="#FFCD48"/>
<stop offset="1" stop-color="#FFCB48"/>
</linearGradient>
<linearGradient id="paint1_linear_4003_1111" x1="10.2547" y1="18.1709" x2="10.2547" y2="8.31594" gradientUnits="userSpaceOnUse">
<stop stop-color="#FFAD00"/>
<stop offset="1" stop-color="#FF7600"/>
</linearGradient>
</defs>
</svg>
