<svg width="93" height="29" viewBox="0 0 93 29" fill="none" xmlns="http://www.w3.org/2000/svg">
<path fill-rule="evenodd" clip-rule="evenodd" d="M57.5927 22.3311C52.1927 26.3211 44.3827 28.4211 37.6527 28.4211C28.6574 28.4694 19.9675 25.1604 13.2827 19.1411C12.7827 18.6911 13.2327 18.0611 13.8427 18.4211C21.265 22.6597 29.6654 24.8865 38.2127 24.8811C44.1927 24.8811 50.7627 23.6411 56.8127 21.0811C57.7127 20.6911 58.4827 21.6811 57.5927 22.3311Z" fill="white"/>
<path fill-rule="evenodd" clip-rule="evenodd" d="M59.8327 19.7806C59.1427 18.9006 55.2727 19.3606 53.5327 19.5706C53.0127 19.6306 52.9327 19.1706 53.4027 18.8406C56.4927 16.6706 61.5527 17.3006 62.1327 18.0206C62.7327 18.7606 61.9827 23.8206 59.0927 26.2306C58.6427 26.6106 58.2227 26.4106 58.4227 25.9206C59.0727 24.2906 60.5227 20.6606 59.8327 19.7806Z" fill="white"/>
<path fill-rule="evenodd" clip-rule="evenodd" d="M53.6629 3.55047V1.45047C53.6629 1.12047 53.9029 0.910468 54.1929 0.910468H63.6429C63.9429 0.910468 64.1829 1.13047 64.1829 1.44047V3.24047C64.1829 3.54047 63.9229 3.94047 63.4729 4.57047L58.5729 11.5405C60.3929 11.5005 62.3129 11.7705 63.9729 12.7005C64.3329 12.9005 64.4429 13.2105 64.4729 13.5205V15.7605C64.4729 16.0705 64.1329 16.4305 63.7729 16.2405C62.2282 15.4481 60.5165 15.0364 58.7805 15.0399C57.0444 15.0434 55.3344 15.4619 53.7929 16.2605C53.4629 16.4305 53.1229 16.0805 53.1229 15.7705V13.6405C53.1229 13.3005 53.1229 12.7105 53.4729 12.1905L59.1429 4.08047H54.2029C54.1325 4.0818 54.0625 4.06907 53.997 4.04303C53.9315 4.01699 53.8719 3.97816 53.8216 3.92881C53.7714 3.87947 53.7314 3.82059 53.7042 3.75563C53.6769 3.69066 53.6629 3.62092 53.6629 3.55047ZM19.2129 16.6805H16.3329C16.2065 16.6718 16.0871 16.619 15.9957 16.5313C15.9043 16.4435 15.8467 16.3264 15.8329 16.2005V1.48047C15.8329 1.18047 16.0729 0.950468 16.3829 0.950468H19.0529C19.3329 0.960468 19.5529 1.18047 19.5729 1.45047V3.37047H19.6329C20.3329 1.51047 21.6329 0.640469 23.4129 0.640469C25.2129 0.640469 26.3329 1.51047 27.1429 3.37047C27.4286 2.55459 27.9661 1.85054 28.6778 1.35989C29.3896 0.869225 30.2387 0.617309 31.1029 0.640469C32.3029 0.640469 33.6229 1.14047 34.4329 2.25047C35.3329 3.49047 35.1529 5.29047 35.1529 6.87047V16.1505C35.1529 16.4505 34.9029 16.6805 34.6029 16.6805H31.7329C31.5966 16.6755 31.4672 16.6191 31.3707 16.5227C31.2742 16.4262 31.2178 16.2968 31.2129 16.1605V8.36047C31.2129 7.73047 31.2729 6.18047 31.1329 5.60047C30.9129 4.60047 30.2729 4.33047 29.4429 4.33047C28.7429 4.33047 28.0229 4.79047 27.7229 5.53047C27.4329 6.28047 27.4629 7.52047 27.4629 8.35047V16.1505C27.4629 16.4505 27.2129 16.6805 26.9029 16.6805H24.0329C23.8983 16.6731 23.7714 16.6156 23.677 16.5194C23.5827 16.4232 23.5277 16.2952 23.5229 16.1605V8.36047C23.5229 6.71047 23.7829 4.30047 21.7529 4.30047C19.6829 4.30047 19.7629 6.65047 19.7629 8.35047V16.1505C19.7629 16.4505 19.5129 16.6805 19.2129 16.6805ZM72.3229 3.65047C70.2129 3.65047 70.0729 6.53047 70.0729 8.32047C70.0729 10.1205 70.0529 13.9605 72.3029 13.9605C74.5229 13.9605 74.6329 10.8605 74.6329 8.97047C74.6329 7.73047 74.5829 6.25047 74.2029 5.07047C73.8829 4.05047 73.2429 3.65047 72.3229 3.65047ZM72.3029 0.640469C76.5629 0.640469 78.8729 4.30047 78.8729 8.94047C78.8729 13.4405 76.3229 16.9905 72.3029 16.9905C68.1129 16.9905 65.8429 13.3405 65.8429 8.79047C65.8429 4.20047 68.1429 0.640469 72.3029 0.640469ZM84.4029 16.6805H81.5329C81.3983 16.6731 81.2714 16.6156 81.177 16.5194C81.0827 16.4232 81.0277 16.2952 81.0229 16.1605V1.42047C81.04 1.28704 81.1054 1.16452 81.2068 1.07607C81.3081 0.987617 81.4384 0.939375 81.5729 0.940469H84.2329C84.4829 0.950469 84.6929 1.12047 84.7429 1.35047V3.60047H84.7929C85.6029 1.59047 86.7329 0.630468 88.7129 0.630468C90.0029 0.630468 91.2629 1.10047 92.0629 2.37047C92.8129 3.54047 92.8129 5.53047 92.8129 6.95047V16.2105C92.7914 16.3402 92.7241 16.458 92.6231 16.5424C92.5222 16.6268 92.3944 16.6722 92.2629 16.6705H89.3829C89.2595 16.6626 89.1425 16.6127 89.0515 16.529C88.9605 16.4452 88.901 16.3328 88.8829 16.2105V8.21047C88.8829 6.61047 89.0629 4.26047 87.0829 4.26047C86.3829 4.26047 85.7329 4.72047 85.4129 5.43047C85.0129 6.33047 84.9529 7.23047 84.9529 8.22047V16.1405C84.9529 16.4405 84.7029 16.6705 84.4029 16.6705M49.0229 16.6405C48.9291 16.7184 48.8137 16.7659 48.6923 16.7766C48.5708 16.7873 48.4489 16.7608 48.3429 16.7005C47.3829 15.9105 47.2129 15.5505 46.6929 14.8005C45.1229 16.4005 43.9929 16.8805 41.9629 16.8805C39.5429 16.8805 37.6629 15.3805 37.6629 12.4105C37.6284 11.4089 37.9037 10.421 38.4514 9.58165C38.999 8.74231 39.7922 8.09235 40.7229 7.72047C42.2829 7.04047 44.4629 6.92047 46.1229 6.72047V6.36047C46.1229 5.67047 46.1829 4.86047 45.7729 4.28047C45.4229 3.75047 44.7529 3.53047 44.1629 3.53047C43.0629 3.53047 42.0929 4.09047 41.8529 5.25047C41.8029 5.51047 41.6129 5.77047 41.3529 5.78047L38.5729 5.48047C38.3329 5.43047 38.0729 5.24047 38.1429 4.88047C38.7829 1.51047 41.8329 0.480469 44.5629 0.480469C45.9629 0.480469 47.7929 0.860468 48.8929 1.92047C50.2929 3.22047 50.1529 4.96047 50.1529 6.85047V11.3205C50.1529 12.6605 50.7129 13.2505 51.2429 13.9805C51.4229 14.2405 51.4629 14.5505 51.2329 14.7405C50.6429 15.2305 49.6029 16.1405 49.0329 16.6405H49.0229ZM46.1229 9.64047C46.1229 10.7605 46.1529 11.6905 45.5829 12.6905C45.1329 13.4905 44.4029 13.9905 43.6029 13.9905C42.5029 13.9905 41.8529 13.1505 41.8529 11.9105C41.8529 9.47047 44.0529 9.03047 46.1229 9.03047V9.64047ZM11.3629 16.6405C11.2691 16.7184 11.1537 16.7659 11.0323 16.7766C10.9108 16.7873 10.7889 16.7608 10.6829 16.7005C9.73289 15.9105 9.56289 15.5505 9.03289 14.8005C7.46289 16.4005 6.34289 16.8805 4.30289 16.8805C1.88289 16.8805 0.00288917 15.3805 0.00288917 12.4105C-0.0316208 11.4089 0.243723 10.421 0.791357 9.58165C1.33899 8.74231 2.13224 8.09235 3.06289 7.72047C4.62289 7.04047 6.80289 6.92047 8.46289 6.72047V6.36047C8.46289 5.67047 8.52289 4.86047 8.11289 4.28047C7.77289 3.75047 7.09289 3.53047 6.51289 3.53047C5.41289 3.53047 4.43289 4.09047 4.19289 5.25047C4.14289 5.51047 3.95289 5.77047 3.69289 5.78047L0.912889 5.48047C0.682889 5.43047 0.412889 5.24047 0.482889 4.88047C1.12289 1.51047 4.18289 0.480469 6.91289 0.480469C8.31289 0.480469 10.1329 0.860468 11.2329 1.92047C12.6329 3.22047 12.5029 4.96047 12.5029 6.85047V11.3205C12.5029 12.6605 13.0529 13.2505 13.5829 13.9805C13.7629 14.2405 13.8029 14.5505 13.5729 14.7405C12.9829 15.2305 11.9429 16.1405 11.3729 16.6405H11.3629ZM8.46289 9.64047C8.46289 10.7605 8.49289 11.6905 7.93289 12.6905C7.47289 13.4905 6.75289 13.9905 5.93289 13.9905C4.83289 13.9905 4.19289 13.1505 4.19289 11.9105C4.19289 9.47047 6.39289 9.03047 8.47289 9.03047V9.64047H8.46289Z" fill="white"/>
</svg>
