<svg width="200" height="41" viewBox="0 0 200 41" fill="none" xmlns="http://www.w3.org/2000/svg">
<path fill-rule="evenodd" clip-rule="evenodd" d="M111.58 34.3917C106.18 38.3817 98.37 40.4817 91.64 40.4817C82.6447 40.53 73.9548 37.2209 67.27 31.2017C66.77 30.7517 67.22 30.1217 67.83 30.4817C75.2523 34.7203 83.6528 36.9471 92.2 36.9417C98.18 36.9417 104.75 35.7017 110.8 33.1417C111.7 32.7517 112.47 33.7417 111.58 34.3917Z" fill="#EFA82E"/>
<path fill-rule="evenodd" clip-rule="evenodd" d="M113.82 31.8412C113.13 30.9612 109.26 31.4212 107.52 31.6312C107 31.6912 106.92 31.2312 107.39 30.9012C110.48 28.7312 115.54 29.3612 116.12 30.0812C116.72 30.8212 115.97 35.8812 113.08 38.2912C112.63 38.6712 112.21 38.4712 112.41 37.9812C113.06 36.3512 114.51 32.7212 113.82 31.8412Z" fill="#EFA82E"/>
<path fill-rule="evenodd" clip-rule="evenodd" d="M107.65 15.611V13.511C107.65 13.181 107.89 12.971 108.18 12.971H117.63C117.93 12.971 118.17 13.191 118.17 13.501V15.301C118.17 15.601 117.91 16.001 117.46 16.631L112.56 23.601C114.38 23.561 116.3 23.831 117.96 24.761C118.32 24.961 118.43 25.271 118.46 25.581V27.821C118.46 28.131 118.12 28.491 117.76 28.301C116.216 27.5086 114.504 27.097 112.768 27.1005C111.032 27.104 109.322 27.5224 107.78 28.321C107.45 28.491 107.11 28.141 107.11 27.831V25.701C107.11 25.361 107.11 24.771 107.46 24.251L113.13 16.141H108.19C108.12 16.1423 108.05 16.1296 107.984 16.1036C107.919 16.0775 107.859 16.0387 107.809 15.9894C107.759 15.94 107.719 15.8811 107.691 15.8162C107.664 15.7512 107.65 15.6815 107.65 15.611ZM73.2002 28.741H70.3202C70.1938 28.7324 70.0744 28.6796 69.983 28.5918C69.8916 28.5041 69.834 28.387 69.8202 28.261V13.541C69.8202 13.241 70.0602 13.011 70.3702 13.011H73.0402C73.3202 13.021 73.5402 13.241 73.5602 13.511V15.431H73.6202C74.3202 13.571 75.6202 12.701 77.4002 12.701C79.2002 12.701 80.3202 13.571 81.1302 15.431C81.4159 14.6151 81.9534 13.9111 82.6651 13.4204C83.3769 12.9298 84.226 12.6779 85.0902 12.701C86.2902 12.701 87.6102 13.201 88.4202 14.311C89.3202 15.551 89.1402 17.351 89.1402 18.931V28.211C89.1402 28.511 88.8902 28.741 88.5902 28.741H85.7202C85.5839 28.7361 85.4545 28.6797 85.358 28.5832C85.2615 28.4867 85.2052 28.3573 85.2002 28.221V20.421C85.2002 19.791 85.2602 18.241 85.1202 17.661C84.9002 16.661 84.2602 16.391 83.4302 16.391C82.7302 16.391 82.0102 16.851 81.7102 17.591C81.4202 18.341 81.4502 19.581 81.4502 20.411V28.211C81.4502 28.511 81.2002 28.741 80.8902 28.741H78.0202C77.8856 28.7336 77.7587 28.6762 77.6643 28.5799C77.57 28.4837 77.515 28.3557 77.5102 28.221V20.421C77.5102 18.771 77.7702 16.361 75.7402 16.361C73.6702 16.361 73.7502 18.711 73.7502 20.411V28.211C73.7502 28.511 73.5002 28.741 73.2002 28.741ZM126.31 15.711C124.2 15.711 124.06 18.591 124.06 20.381C124.06 22.181 124.04 26.021 126.29 26.021C128.51 26.021 128.62 22.921 128.62 21.031C128.62 19.791 128.57 18.311 128.19 17.131C127.87 16.111 127.23 15.711 126.31 15.711ZM126.29 12.701C130.55 12.701 132.86 16.361 132.86 21.001C132.86 25.501 130.31 29.051 126.29 29.051C122.1 29.051 119.83 25.401 119.83 20.851C119.83 16.261 122.13 12.701 126.29 12.701ZM138.39 28.741H135.52C135.386 28.7336 135.259 28.6762 135.164 28.5799C135.07 28.4837 135.015 28.3557 135.01 28.221V13.481C135.027 13.3476 135.093 13.2251 135.194 13.1366C135.295 13.0482 135.426 12.9999 135.56 13.001H138.22C138.47 13.011 138.68 13.181 138.73 13.411V15.661H138.78C139.59 13.651 140.72 12.691 142.7 12.691C143.99 12.691 145.25 13.161 146.05 14.431C146.8 15.601 146.8 17.591 146.8 19.011V28.271C146.779 28.4008 146.711 28.5186 146.61 28.603C146.51 28.6874 146.382 28.7328 146.25 28.731H143.37C143.247 28.7232 143.13 28.6732 143.039 28.5895C142.948 28.5058 142.888 28.3934 142.87 28.271V20.271C142.87 18.671 143.05 16.321 141.07 16.321C140.37 16.321 139.72 16.781 139.4 17.491C139 18.391 138.94 19.291 138.94 20.281V28.201C138.94 28.501 138.69 28.731 138.39 28.731M103.01 28.701C102.916 28.7789 102.801 28.8264 102.68 28.8371C102.558 28.8479 102.436 28.8213 102.33 28.761C101.37 27.971 101.2 27.611 100.68 26.861C99.1102 28.461 97.9802 28.941 95.9502 28.941C93.5302 28.941 91.6502 27.441 91.6502 24.471C91.6157 23.4694 91.891 22.4815 92.4387 21.6422C92.9863 20.8029 93.7795 20.1529 94.7102 19.781C96.2702 19.101 98.4502 18.981 100.11 18.781V18.421C100.11 17.731 100.17 16.921 99.7602 16.341C99.4102 15.811 98.7402 15.591 98.1502 15.591C97.0502 15.591 96.0802 16.151 95.8402 17.311C95.7902 17.571 95.6002 17.831 95.3402 17.841L92.5602 17.541C92.3202 17.491 92.0602 17.301 92.1302 16.941C92.7702 13.571 95.8202 12.541 98.5502 12.541C99.9502 12.541 101.78 12.921 102.88 13.981C104.28 15.281 104.14 17.021 104.14 18.911V23.381C104.14 24.721 104.7 25.311 105.23 26.041C105.41 26.301 105.45 26.611 105.22 26.801C104.63 27.291 103.59 28.201 103.02 28.701H103.01ZM100.11 21.701C100.11 22.821 100.14 23.751 99.5702 24.751C99.1202 25.551 98.3902 26.051 97.5902 26.051C96.4902 26.051 95.8402 25.211 95.8402 23.971C95.8402 21.531 98.0402 21.091 100.11 21.091V21.701ZM65.3502 28.701C65.2564 28.7789 65.141 28.8264 65.0196 28.8371C64.8981 28.8479 64.7762 28.8213 64.6702 28.761C63.7202 27.971 63.5502 27.611 63.0202 26.861C61.4502 28.461 60.3302 28.941 58.2902 28.941C55.8702 28.941 53.9902 27.441 53.9902 24.471C53.9557 23.4694 54.231 22.4815 54.7787 21.6422C55.3263 20.8029 56.1195 20.1529 57.0502 19.781C58.6102 19.101 60.7902 18.981 62.4502 18.781V18.421C62.4502 17.731 62.5102 16.921 62.1002 16.341C61.7602 15.811 61.0802 15.591 60.5002 15.591C59.4002 15.591 58.4202 16.151 58.1802 17.311C58.1302 17.571 57.9402 17.831 57.6802 17.841L54.9002 17.541C54.6702 17.491 54.4002 17.301 54.4702 16.941C55.1102 13.571 58.1702 12.541 60.9002 12.541C62.3002 12.541 64.1202 12.921 65.2202 13.981C66.6202 15.281 66.4902 17.021 66.4902 18.911V23.381C66.4902 24.721 67.0402 25.311 67.5702 26.041C67.7502 26.301 67.7902 26.611 67.5602 26.801C66.9702 27.291 65.9302 28.201 65.3602 28.701H65.3502ZM62.4502 21.701C62.4502 22.821 62.4802 23.751 61.9202 24.751C61.4602 25.551 60.7402 26.051 59.9202 26.051C58.8202 26.051 58.1802 25.211 58.1802 23.971C58.1802 21.531 60.3802 21.091 62.4602 21.091V21.701H62.4502Z" fill="#1B1A19"/>
</svg>
