<svg width="97" height="97" viewBox="0 0 97 97" fill="none" xmlns="http://www.w3.org/2000/svg">
<path d="M42.1426 39.8511V50.7411C42.1426 51.5044 41.9241 52.2519 41.513 52.8951C41.1019 53.5383 40.5154 54.0505 39.8226 54.3711L30.8226 58.5211C30.296 58.7648 29.7228 58.891 29.1426 58.891C28.5624 58.891 27.9891 58.7648 27.4626 58.5211L18.4626 54.3711C17.7698 54.0505 17.1832 53.5383 16.7721 52.8951C16.3611 52.2519 16.1426 51.5044 16.1426 50.7411V39.8511C16.1449 39.2926 16.2641 38.7407 16.4926 38.2311L29.1426 44.0711L41.7926 38.2311C42.0211 38.7407 42.1403 39.2926 42.1426 39.8511ZM30.8226 32.0711L39.8226 36.2211C40.2594 36.425 40.6558 36.7062 40.9926 37.0511L29.1426 42.5211L17.2826 37.0511C17.6224 36.7052 18.0222 36.4239 18.4626 36.2211L27.4626 32.0711C27.9891 31.8274 28.5624 31.7012 29.1426 31.7012C29.7228 31.7012 30.296 31.8274 30.8226 32.0711Z" fill="#00D4FF"/>
<path d="M55.1426 45.8511V56.7411C55.1426 57.5044 54.9241 58.2519 54.513 58.8951C54.1019 59.5383 53.5154 60.0505 52.8226 60.3711L43.8226 64.5211C43.296 64.7648 42.7228 64.891 42.1426 64.891C41.5624 64.891 40.9891 64.7648 40.4626 64.5211L31.4626 60.3711C30.7698 60.0505 30.1832 59.5383 29.7721 58.8951C29.3611 58.2519 29.1426 57.5044 29.1426 56.7411V45.8511C29.1449 45.2926 29.2641 44.7407 29.4926 44.2311L42.1426 50.0711L54.7926 44.2311C55.0211 44.7407 55.1403 45.2926 55.1426 45.8511ZM43.8226 38.0711L52.8226 42.2211C53.2594 42.425 53.6558 42.7062 53.9926 43.0511L42.1426 48.5211L30.2826 43.0511C30.6224 42.7052 31.0222 42.4239 31.4626 42.2211L40.4626 38.0711C40.9891 37.8274 41.5624 37.7012 42.1426 37.7012C42.7228 37.7012 43.296 37.8274 43.8226 38.0711Z" fill="#7A73FF"/>
<mask id="mask0_4003_3730" style="mask-type:luminance" maskUnits="userSpaceOnUse" x="-36" y="7" width="79" height="52">
<path d="M42.1426 39.8511V50.7411C42.1426 51.5044 41.9241 52.2519 41.513 52.8951C41.1019 53.5383 40.5154 54.0505 39.8226 54.3711L30.8226 58.5211C30.296 58.7648 29.7228 58.891 29.1426 58.891C28.5624 58.891 27.9891 58.7648 27.4626 58.5211L18.4626 54.3711C17.7698 54.0505 17.1832 53.5383 16.7721 52.8951C16.3611 52.2519 16.1426 51.5044 16.1426 50.7411V39.8511C16.1449 39.2926 16.2641 38.7407 16.4926 38.2311L29.1426 44.0711L41.7926 38.2311C42.0211 38.7407 42.1403 39.2926 42.1426 39.8511ZM30.8226 32.0711L39.8226 36.2211C40.2594 36.425 40.6558 36.7062 40.9926 37.0511L29.1426 42.5211L17.2826 37.0511C17.6224 36.7052 18.0222 36.4239 18.4626 36.2211L27.4626 32.0711C27.9891 31.8274 28.5624 31.7012 29.1426 31.7012C29.7228 31.7012 30.296 31.8274 30.8226 32.0711Z" fill="white"/>
</mask>
<g mask="url(#mask0_4003_3730)">
<path d="M55.1426 45.8511V56.7411C55.1426 57.5044 54.9241 58.2519 54.513 58.8951C54.1019 59.5383 53.5154 60.0505 52.8226 60.3711L43.8226 64.5211C43.296 64.7648 42.7228 64.891 42.1426 64.891C41.5624 64.891 40.9891 64.7648 40.4626 64.5211L31.4626 60.3711C30.7698 60.0505 30.1832 59.5383 29.7721 58.8951C29.3611 58.2519 29.1426 57.5044 29.1426 56.7411V45.8511C29.1449 45.2926 29.2641 44.7407 29.4926 44.2311L42.1426 50.0711L54.7926 44.2311C55.0211 44.7407 55.1403 45.2926 55.1426 45.8511ZM43.8226 38.0711L52.8226 42.2211C53.2594 42.425 53.6558 42.7062 53.9926 43.0511L42.1426 48.5211L30.2826 43.0511C30.6224 42.7052 31.0222 42.4239 31.4626 42.2211L40.4626 38.0711C40.9891 37.8274 41.5624 37.7012 42.1426 37.7012C42.7228 37.7012 43.296 37.8274 43.8226 38.0711Z" fill="#CCFFFF"/>
</g>
</svg>
