<svg width="41" height="41" viewBox="0 0 41 41" fill="none" xmlns="http://www.w3.org/2000/svg">
<path fill-rule="evenodd" clip-rule="evenodd" d="M4.14258 2.70117C1.93344 2.70117 0.142578 4.49203 0.142578 6.70117V26.7012C0.142578 28.9103 1.93344 30.7012 4.14258 30.7012H32.1426C34.3517 30.7012 36.1426 28.9103 36.1426 26.7012V6.70117C36.1426 4.49203 34.3517 2.70117 32.1426 2.70117H4.14258ZM4.64258 8.70117C5.47101 8.70117 6.14258 8.0296 6.14258 7.20117C6.14258 6.37274 5.47101 5.70117 4.64258 5.70117C3.81415 5.70117 3.14258 6.37274 3.14258 7.20117C3.14258 8.0296 3.81415 8.70117 4.64258 8.70117ZM11.1426 7.20117C11.1426 8.0296 10.471 8.70117 9.64258 8.70117C8.81415 8.70117 8.14258 8.0296 8.14258 7.20117C8.14258 6.37274 8.81415 5.70117 9.64258 5.70117C10.471 5.70117 11.1426 6.37274 11.1426 7.20117ZM14.6426 8.70117C15.471 8.70117 16.1426 8.0296 16.1426 7.20117C16.1426 6.37274 15.471 5.70117 14.6426 5.70117C13.8142 5.70117 13.1426 6.37274 13.1426 7.20117C13.1426 8.0296 13.8142 8.70117 14.6426 8.70117Z" fill="#00D4FF"/>
<path fill-rule="evenodd" clip-rule="evenodd" d="M24.6994 17.7012C24.3682 17.7012 24.0762 17.9185 23.9811 18.2357L18.4311 36.7357C18.2867 37.2169 18.647 37.7012 19.1494 37.7012H21.5834C21.9146 37.7012 22.2066 37.4839 22.3018 37.1667L27.8518 18.6667C27.9961 18.1855 27.6358 17.7012 27.1334 17.7012H24.6994ZM13.8849 20.4023C14.1659 20.098 14.6404 20.079 14.9447 20.3599L16.7817 22.0556C17.0861 22.3366 17.1051 22.8111 16.8241 23.1154L12.5851 27.7078L16.8241 32.3001C17.1051 32.6045 17.0861 33.079 16.7817 33.3599L14.9447 35.0556C14.6404 35.3366 14.1659 35.3176 13.8849 35.0132L7.61101 28.2165C7.34581 27.9292 7.34582 27.4864 7.61101 27.1991L13.8849 20.4023ZM32.3979 20.4023C32.117 20.098 31.6425 20.079 31.3381 20.3599L29.5011 22.0556C29.1967 22.3366 29.1778 22.8111 29.4587 23.1154L33.6978 27.7078L29.4587 32.3001C29.1778 32.6045 29.1967 33.079 29.5011 33.3599L31.3381 35.0556C31.6425 35.3366 32.117 35.3176 32.3979 35.0132L38.6718 28.2165C38.937 27.9292 38.937 27.4864 38.6718 27.1991L32.3979 20.4023Z" fill="#7A73FF"/>
<mask id="mask0_4003_3772" style="mask-type:luminance" maskUnits="userSpaceOnUse" x="0" y="2" width="37" height="29">
<path fill-rule="evenodd" clip-rule="evenodd" d="M4.14258 2.70117C1.93344 2.70117 0.142578 4.49203 0.142578 6.70117V26.7012C0.142578 28.9103 1.93344 30.7012 4.14258 30.7012H32.1426C34.3517 30.7012 36.1426 28.9103 36.1426 26.7012V6.70117C36.1426 4.49203 34.3517 2.70117 32.1426 2.70117H4.14258ZM4.64258 8.70117C5.47101 8.70117 6.14258 8.0296 6.14258 7.20117C6.14258 6.37274 5.47101 5.70117 4.64258 5.70117C3.81415 5.70117 3.14258 6.37274 3.14258 7.20117C3.14258 8.0296 3.81415 8.70117 4.64258 8.70117ZM11.1426 7.20117C11.1426 8.0296 10.471 8.70117 9.64258 8.70117C8.81415 8.70117 8.14258 8.0296 8.14258 7.20117C8.14258 6.37274 8.81415 5.70117 9.64258 5.70117C10.471 5.70117 11.1426 6.37274 11.1426 7.20117ZM14.6426 8.70117C15.471 8.70117 16.1426 8.0296 16.1426 7.20117C16.1426 6.37274 15.471 5.70117 14.6426 5.70117C13.8142 5.70117 13.1426 6.37274 13.1426 7.20117C13.1426 8.0296 13.8142 8.70117 14.6426 8.70117Z" fill="white"/>
</mask>
<g mask="url(#mask0_4003_3772)">
<path fill-rule="evenodd" clip-rule="evenodd" d="M24.6994 17.7012C24.3682 17.7012 24.0762 17.9185 23.9811 18.2357L18.4311 36.7357C18.2867 37.2169 18.647 37.7012 19.1494 37.7012H21.5834C21.9146 37.7012 22.2066 37.4839 22.3018 37.1667L27.8518 18.6667C27.9961 18.1855 27.6358 17.7012 27.1334 17.7012H24.6994ZM13.8849 20.4023C14.1659 20.098 14.6404 20.079 14.9447 20.3599L16.7817 22.0556C17.0861 22.3366 17.1051 22.8111 16.8241 23.1154L12.5851 27.7078L16.8241 32.3001C17.1051 32.6045 17.0861 33.079 16.7817 33.3599L14.9447 35.0556C14.6404 35.3366 14.1659 35.3176 13.8849 35.0132L7.61101 28.2165C7.34581 27.9292 7.34582 27.4864 7.61101 27.1991L13.8849 20.4023ZM32.3979 20.4023C32.117 20.098 31.6425 20.079 31.3381 20.3599L29.5011 22.0556C29.1967 22.3366 29.1778 22.8111 29.4587 23.1154L33.6978 27.7078L29.4587 32.3001C29.1778 32.6045 29.1967 33.079 29.5011 33.3599L31.3381 35.0556C31.6425 35.3366 32.117 35.3176 32.3979 35.0132L38.6718 28.2165C38.937 27.9292 38.937 27.4864 38.6718 27.1991L32.3979 20.4023Z" fill="#CCFFFF"/>
</g>
</svg>
