<svg width="508" height="338" viewBox="0 0 508 338" fill="none" xmlns="http://www.w3.org/2000/svg">
<g clip-path="url(#clip0_4003_1050)">
<rect x="4" y="4.48047" width="500" height="333.33" rx="4" fill="#F6F9FC"/>
<g clip-path="url(#clip1_4003_1050)">
<g clip-path="url(#clip2_4003_1050)">
<g clip-path="url(#clip3_4003_1050)">
<rect x="74" y="71.1406" width="434" height="272" rx="8" fill="white"/>
<g clip-path="url(#clip4_4003_1050)">
<g clip-path="url(#clip5_4003_1050)">
<g clip-path="url(#clip6_4003_1050)">
<mask id="mask0_4003_1050" style="mask-type:luminance" maskUnits="userSpaceOnUse" x="74" y="71" width="434" height="273">
<path d="M74 79.1406C74 77.0189 74.8429 74.9841 76.3431 73.4838C77.8434 71.9835 79.8783 71.1406 82 71.1406H508V343.141H74V79.1406Z" fill="white"/>
</mask>
<g mask="url(#mask0_4003_1050)">
<path d="M74 79.1406C74 77.0189 74.8429 74.9841 76.3431 73.4838C77.8434 71.9835 79.8783 71.1406 82 71.1406H508V343.141H74V79.1406Z" fill="white"/>
<path d="M281.086 122.05H282.869L285.83 126.813H288.827L285.634 121.801C287.436 121.284 288.488 119.981 288.488 118.038C288.488 115.398 286.651 114.006 283.708 114.006H278.464V126.813H281.086V122.05ZM281.086 119.857V116.236H283.565C285.099 116.236 285.884 116.896 285.884 118.056C285.884 119.197 285.099 119.856 283.565 119.856L281.086 119.857ZM298.895 122.122C298.895 119.215 297.004 117.252 294.293 117.252C291.582 117.252 289.691 119.215 289.691 122.122C289.691 125.047 291.582 127.01 294.293 127.01C297.004 127.01 298.895 125.048 298.895 122.122ZM292.171 122.122C292.171 120.356 292.991 119.322 294.293 119.322C295.595 119.322 296.398 120.356 296.398 122.122C296.398 123.906 295.595 124.941 294.293 124.941C292.991 124.941 292.171 123.906 292.171 122.122ZM302.664 122.122C302.664 120.374 303.538 119.34 304.858 119.34C305.893 119.34 306.517 120.053 306.749 121.016L308.871 120.018C308.426 118.501 306.999 117.253 304.84 117.253C302.111 117.253 300.185 119.233 300.185 122.123C300.185 125.03 302.111 127.01 304.84 127.01C307.016 127.01 308.479 125.725 308.907 124.191L306.749 123.228C306.517 124.191 305.893 124.905 304.858 124.905C303.538 124.905 302.664 123.888 302.664 122.122ZM312.91 114.006H310.413V126.813H312.91V123.942L314.016 122.8L316.602 126.813H319.456L315.746 120.998L319.189 117.431H316.192L312.91 121.07V114.006ZM324.33 127.01C326.202 127.01 327.79 126.046 328.468 124.334L326.363 123.584C326.078 124.494 325.311 124.958 324.347 124.958C323.117 124.958 322.243 124.102 322.064 122.675H328.521V121.944C328.521 119.322 327.023 117.253 324.24 117.253C321.583 117.253 319.674 119.358 319.674 122.123C319.674 125.03 321.565 127.01 324.33 127.01ZM324.223 119.25C325.435 119.25 326.024 120.053 326.042 120.98H322.153C322.457 119.84 323.224 119.25 324.223 119.25ZM330.552 124.37C330.552 126.296 331.551 126.92 333.442 126.92C334.066 126.92 334.601 126.867 335.047 126.778V124.708C334.763 124.745 334.477 124.763 334.191 124.762C333.46 124.762 333.014 124.655 333.014 123.852V119.518H334.922V117.431H333.014V114.756H330.552V117.431H329.304V119.518H330.552V124.37ZM339.553 122.05H341.337L344.298 126.813H347.295L344.102 121.801C345.903 121.284 346.956 119.981 346.956 118.038C346.956 115.398 345.119 114.006 342.175 114.006H336.931V126.813H339.553V122.05ZM339.553 119.857V116.236H342.033C343.567 116.236 344.352 116.896 344.352 118.056C344.352 119.197 343.567 119.856 342.033 119.856L339.553 119.857ZM348.798 116.325H351.349V114.006H348.798V116.325ZM351.331 117.431H348.834V126.813H351.331V117.431ZM357.198 127.01C358.375 127.01 359.267 126.546 359.82 125.85V126.813H362.317V114.006H359.82V118.394C359.267 117.717 358.375 117.253 357.198 117.253C354.611 117.253 353.113 119.465 353.113 122.123C353.113 124.798 354.611 127.01 357.198 127.01ZM359.873 121.873V122.39C359.873 123.977 358.981 124.87 357.786 124.87C356.377 124.87 355.628 123.745 355.628 122.122C355.628 120.517 356.377 119.393 357.786 119.393C358.981 119.393 359.873 120.267 359.873 121.873ZM368.785 127.01C370.658 127.01 372.245 126.046 372.923 124.334L370.819 123.584C370.533 124.494 369.766 124.958 368.803 124.958C367.572 124.958 366.698 124.102 366.52 122.675H372.977V121.944C372.977 119.322 371.478 117.253 368.696 117.253C366.038 117.253 364.13 119.358 364.13 122.123C364.13 125.03 366.02 127.01 368.785 127.01ZM368.678 119.25C369.891 119.25 370.48 120.053 370.497 120.98H366.609C366.912 119.84 367.679 119.25 368.678 119.25ZM373.848 125.226C374.704 126.386 376.488 127.01 378.182 127.01C380.43 127.01 382.249 125.797 382.249 123.835C382.249 121.712 380.305 121.337 378.664 120.998C377.505 120.767 376.88 120.66 376.88 120.053C376.88 119.536 377.398 119.197 378.182 119.197C379.163 119.197 380.073 119.643 380.697 120.445L382.124 118.875C381.393 117.931 379.913 117.253 378.254 117.253C376.006 117.253 374.419 118.501 374.419 120.303C374.419 122.318 376.096 122.711 377.612 123.014C379.11 123.299 379.806 123.389 379.806 124.102C379.806 124.78 379.074 125.065 378.236 125.065C377.184 125.065 376.042 124.512 375.4 123.638L373.848 125.226ZM383.554 126.813H384.785V126.938C384.785 127.705 384.374 128.062 383.554 128.115V129.435C385.32 129.435 386.479 128.437 386.479 126.76V123.924H383.554V126.813ZM395.12 114.006H392.498V126.813H395.12V114.006ZM397.572 126.813H400.069V121.391C400.069 120.161 400.925 119.536 401.799 119.536C402.87 119.536 403.298 120.285 403.298 121.337V126.813H405.795V120.623C405.795 118.591 404.6 117.253 402.638 117.253C401.443 117.253 400.586 117.788 400.069 118.394V117.431H397.572V126.813ZM410.027 122.123C410.027 120.374 410.901 119.34 412.221 119.34C413.255 119.34 413.88 120.053 414.112 121.016L416.234 120.018C415.788 118.501 414.361 117.253 412.203 117.253C409.474 117.253 407.548 119.233 407.548 122.123C407.548 125.03 409.474 127.01 412.203 127.01C414.379 127.01 415.842 125.725 416.27 124.191L414.112 123.228C413.88 124.191 413.255 124.905 412.221 124.905C410.901 124.905 410.027 123.888 410.027 122.122V122.123ZM417.558 126.813H420.483V123.923H417.558V126.813Z" fill="#0A2540"/>
<path d="M869.527 142.518H284.475C280.534 142.518 277.34 145.712 277.34 149.653V174.787C277.34 178.727 280.534 181.922 284.475 181.922H869.527C873.467 181.922 876.662 178.727 876.662 174.787V149.653C876.662 145.712 873.467 142.518 869.527 142.518Z" fill="white"/>
<path fill-rule="evenodd" clip-rule="evenodd" d="M307.662 162.219C307.662 164.111 306.91 165.926 305.572 167.264C304.234 168.602 302.419 169.354 300.527 169.354C298.635 169.354 296.82 168.602 295.482 167.264C294.144 165.926 293.392 164.111 293.392 162.219C293.392 160.327 294.144 158.512 295.482 157.174C296.82 155.836 298.635 155.084 300.527 155.084C302.419 155.084 304.234 155.836 305.572 157.174C306.91 158.512 307.662 160.327 307.662 162.219ZM304.538 159.539C304.371 159.372 304.144 159.278 303.908 159.278C303.671 159.278 303.444 159.372 303.277 159.539L299.636 163.187L298.037 161.588C297.867 161.433 297.645 161.35 297.415 161.355C297.186 161.361 296.967 161.454 296.805 161.616C296.642 161.779 296.548 161.997 296.543 162.227C296.538 162.456 296.621 162.679 296.775 162.849L299.005 165.079C299.172 165.246 299.399 165.34 299.636 165.34C299.872 165.34 300.099 165.246 300.266 165.079L304.538 160.8C304.621 160.717 304.687 160.619 304.732 160.511C304.777 160.403 304.8 160.287 304.8 160.169C304.8 160.052 304.777 159.936 304.732 159.828C304.687 159.72 304.621 159.622 304.538 159.539Z" fill="#15BE53"/>
<g filter="url(#filter0_d_4003_1050)">
<path d="M323.717 142.518H862.393V181.922H323.717V142.518Z" fill="white"/>
<path d="M326.339 158.254V167.219H324.503V158.254H326.339ZM327.706 167.219V160.651H329.454V161.325C329.816 160.901 330.415 160.526 331.252 160.526C332.625 160.526 333.462 161.463 333.462 162.886V167.219H331.714V163.385C331.714 162.649 331.414 162.125 330.665 162.125C330.053 162.125 329.454 162.561 329.454 163.423V167.219H327.706ZM336.074 163.935C336.074 165.171 336.686 165.883 337.61 165.883C338.334 165.883 338.771 165.383 338.933 164.709L340.444 165.383C340.144 166.457 339.121 167.356 337.597 167.356C335.687 167.356 334.339 165.97 334.339 163.935C334.339 161.912 335.687 160.526 337.597 160.526C339.108 160.526 340.107 161.4 340.419 162.461L338.933 163.161C338.771 162.487 338.334 161.987 337.61 161.987C336.686 161.987 336.074 162.711 336.074 163.935ZM347.204 163.935C347.204 165.982 345.88 167.356 343.983 167.356C342.085 167.356 340.761 165.982 340.761 163.935C340.761 161.9 342.085 160.526 343.983 160.526C345.88 160.526 347.204 161.9 347.204 163.935ZM342.497 163.935C342.497 165.183 343.071 165.908 343.983 165.908C344.894 165.908 345.456 165.183 345.456 163.935C345.456 162.699 344.894 161.975 343.983 161.975C343.071 161.975 342.497 162.699 342.497 163.935ZM352.052 160.639V162.349C351.866 162.324 351.678 162.311 351.49 162.312C350.579 162.312 349.88 162.874 349.88 163.885V167.219H348.132V160.651H349.88V161.575C350.167 161.001 350.816 160.614 351.628 160.614C351.803 160.614 351.927 160.626 352.052 160.639ZM356.455 167.356C355.631 167.356 355.007 167.031 354.62 166.544V169.441H352.872V160.651H354.62V161.325C355.007 160.851 355.631 160.526 356.455 160.526C358.266 160.526 359.314 162.074 359.314 163.935C359.314 165.808 358.266 167.356 356.455 167.356ZM354.582 163.76V164.122C354.582 165.233 355.207 165.858 356.043 165.858C357.029 165.858 357.554 165.071 357.554 163.935C357.554 162.811 357.029 162.025 356.043 162.025C355.207 162.025 354.582 162.636 354.582 163.76ZM366.289 163.935C366.289 165.982 364.965 167.356 363.067 167.356C361.17 167.356 359.846 165.982 359.846 163.935C359.846 161.9 361.17 160.526 363.067 160.526C364.965 160.526 366.289 161.9 366.289 163.935ZM361.582 163.935C361.582 165.183 362.156 165.908 363.067 165.908C363.979 165.908 364.541 165.183 364.541 163.935C364.541 162.699 363.979 161.975 363.067 161.975C362.156 161.975 361.582 162.699 361.582 163.935ZM371.137 160.639V162.349C370.951 162.324 370.763 162.311 370.575 162.312C369.664 162.312 368.965 162.874 368.965 163.885V167.219H367.217V160.651H368.965V161.575C369.252 161.001 369.901 160.614 370.713 160.614C370.888 160.614 371.012 160.626 371.137 160.639ZM377.092 165.608C377.092 166.17 377.117 166.732 377.192 167.218H375.507C375.492 167.044 375.483 166.869 375.482 166.694C375.057 167.106 374.42 167.331 373.621 167.331C372.335 167.331 371.374 166.557 371.374 165.396C371.374 164.085 372.41 163.536 373.746 163.298L375.382 162.986V162.699C375.382 162.174 375.032 161.962 374.408 161.962C373.696 161.962 373.397 162.249 373.359 162.774H371.661C371.724 161.263 372.872 160.526 374.495 160.526C376.119 160.526 377.092 161.213 377.092 162.474V165.608ZM375.382 164.884V164.21L374.108 164.46C373.521 164.572 373.097 164.759 373.097 165.283C373.097 165.745 373.434 165.995 373.958 165.995C374.695 165.995 375.382 165.62 375.382 164.884ZM378.53 165.508V162.112H377.656V160.652H378.53V158.778H380.253V160.651H381.589V162.111H380.253V165.146C380.253 165.708 380.565 165.783 381.077 165.783C381.327 165.783 381.451 165.77 381.676 165.745V167.194C381.364 167.256 380.989 167.294 380.552 167.294C379.229 167.294 378.53 166.856 378.53 165.508ZM385.406 167.356C383.47 167.356 382.147 165.97 382.147 163.935C382.147 162 383.483 160.526 385.343 160.526C387.291 160.526 388.34 161.975 388.34 163.81V164.322H383.82C383.945 165.321 384.557 165.92 385.418 165.92C386.092 165.92 386.629 165.595 386.829 164.959L388.302 165.483C387.828 166.682 386.717 167.356 385.406 167.356ZM385.331 161.925C384.632 161.925 384.095 162.337 383.882 163.135H386.604C386.592 162.487 386.18 161.925 385.331 161.925ZM394.82 167.593C394.396 168.754 393.796 169.503 392.348 169.503C392.011 169.503 391.886 169.491 391.661 169.466V168.056C391.848 168.068 391.961 168.08 392.161 168.08C392.623 168.08 392.872 167.955 393.06 167.48L393.272 166.956L390.912 160.651H392.722L394.208 164.971L395.657 160.651H397.417L394.82 167.593ZM403.785 163.935C403.785 165.982 402.461 167.356 400.564 167.356C398.666 167.356 397.342 165.982 397.342 163.935C397.342 161.9 398.666 160.526 400.564 160.526C402.461 160.526 403.785 161.9 403.785 163.935ZM399.078 163.935C399.078 165.183 399.652 165.908 400.564 165.908C401.475 165.908 402.037 165.183 402.037 163.935C402.037 162.699 401.475 161.975 400.564 161.975C399.652 161.975 399.078 162.699 399.078 163.935ZM410.419 160.651V167.219H408.671V166.544C408.455 166.803 408.183 167.01 407.876 167.151C407.57 167.291 407.235 167.361 406.898 167.356C405.537 167.356 404.663 166.419 404.663 164.996V160.651H406.411V164.609C406.411 165.333 406.735 165.808 407.46 165.808C408.071 165.808 408.671 165.358 408.671 164.509V160.651H410.419ZM415.653 160.639V162.349C415.467 162.324 415.28 162.311 415.092 162.312C414.18 162.312 413.481 162.874 413.481 163.885V167.219H411.733V160.651H413.481V161.575C413.768 161.001 414.417 160.614 415.229 160.614C415.404 160.614 415.529 160.626 415.653 160.639ZM420.208 163.935C420.208 165.171 420.82 165.883 421.744 165.883C422.468 165.883 422.905 165.383 423.067 164.709L424.578 165.383C424.278 166.457 423.254 167.356 421.731 167.356C419.821 167.356 418.472 165.97 418.472 163.935C418.472 161.912 419.821 160.526 421.731 160.526C423.242 160.526 424.241 161.4 424.553 162.461L423.067 163.161C422.905 162.487 422.468 161.987 421.744 161.987C420.82 161.987 420.208 162.711 420.208 163.935ZM431.338 163.935C431.338 165.982 430.014 167.356 428.116 167.356C426.218 167.356 424.895 165.982 424.895 163.935C424.895 161.9 426.218 160.526 428.116 160.526C430.014 160.526 431.338 161.9 431.338 163.935ZM426.631 163.935C426.631 165.183 427.205 165.908 428.116 165.908C429.028 165.908 429.59 165.183 429.59 163.935C429.59 162.699 429.028 161.975 428.116 161.975C427.205 161.975 426.631 162.699 426.631 163.935ZM434.014 163.423V167.219H432.266V160.651H434.014V161.325C434.363 160.901 434.95 160.526 435.799 160.526C436.598 160.526 437.21 160.863 437.572 161.426C437.972 161.013 438.596 160.526 439.607 160.526C440.956 160.526 441.83 161.463 441.83 162.886V167.219H440.082V163.385C440.082 162.649 439.807 162.125 439.083 162.125C438.508 162.125 437.922 162.561 437.922 163.423V167.219H436.174V163.385C436.174 162.649 435.899 162.125 435.175 162.125C434.6 162.125 434.014 162.561 434.014 163.423ZM446.686 167.356C445.861 167.356 445.237 167.031 444.85 166.544V169.441H443.102V160.651H444.85V161.325C445.237 160.851 445.861 160.526 446.686 160.526C448.496 160.526 449.545 162.074 449.545 163.935C449.545 165.808 448.496 167.356 446.686 167.356ZM444.813 163.76V164.122C444.813 165.233 445.437 165.858 446.274 165.858C447.26 165.858 447.784 165.071 447.784 163.935C447.784 162.811 447.26 162.025 446.274 162.025C445.437 162.025 444.813 162.636 444.813 163.76ZM455.758 165.608C455.758 166.17 455.783 166.732 455.858 167.218H454.172C454.16 167.056 454.147 166.881 454.147 166.694C453.723 167.106 453.086 167.331 452.287 167.331C451.001 167.331 450.039 166.557 450.039 165.396C450.039 164.085 451.076 163.536 452.412 163.298L454.047 162.986V162.699C454.047 162.174 453.698 161.962 453.073 161.962C452.362 161.962 452.062 162.249 452.025 162.774H450.327C450.389 161.263 451.538 160.526 453.161 160.526C454.784 160.526 455.758 161.213 455.758 162.474V165.608ZM454.047 164.884V164.21L452.774 164.46C452.187 164.572 451.762 164.759 451.762 165.283C451.762 165.745 452.1 165.995 452.624 165.995C453.361 165.995 454.047 165.62 454.047 164.884ZM457.02 167.219V160.651H458.768V161.325C459.13 160.901 459.73 160.526 460.566 160.526C461.94 160.526 462.776 161.463 462.776 162.886V167.219H461.028V163.385C461.028 162.649 460.729 162.125 459.98 162.125C459.368 162.125 458.768 162.561 458.768 163.423V167.219H457.02ZM467.151 167.593C466.727 168.754 466.128 169.503 464.679 169.503C464.342 169.503 464.217 169.491 463.993 169.466V168.056C464.18 168.068 464.292 168.08 464.492 168.08C464.954 168.08 465.204 167.955 465.391 167.48L465.603 166.956L463.243 160.651H465.054L466.54 164.971L467.988 160.651H469.749L467.151 167.593Z" fill="#4F5B76"/>
</g>
<path d="M869.527 182.812H284.475C280.534 182.812 277.34 186.007 277.34 189.948V215.081C277.34 219.022 280.534 222.217 284.475 222.217H869.527C873.467 222.217 876.662 219.022 876.662 215.081V189.948C876.662 186.007 873.467 182.812 869.527 182.812Z" fill="white"/>
<path fill-rule="evenodd" clip-rule="evenodd" d="M307.662 202.514C307.662 204.406 306.91 206.221 305.572 207.559C304.234 208.897 302.419 209.649 300.527 209.649C298.635 209.649 296.82 208.897 295.482 207.559C294.144 206.221 293.392 204.406 293.392 202.514C293.392 200.622 294.144 198.807 295.482 197.469C296.82 196.131 298.635 195.379 300.527 195.379C302.419 195.379 304.234 196.131 305.572 197.469C306.91 198.807 307.662 200.622 307.662 202.514ZM304.538 199.834C304.371 199.667 304.144 199.573 303.908 199.573C303.671 199.573 303.444 199.667 303.277 199.834L299.636 203.482L298.037 201.883C297.867 201.728 297.645 201.645 297.415 201.65C297.186 201.656 296.967 201.749 296.805 201.911C296.642 202.074 296.548 202.292 296.543 202.522C296.538 202.751 296.621 202.974 296.775 203.144L299.005 205.374C299.172 205.541 299.399 205.635 299.636 205.635C299.872 205.635 300.099 205.541 300.266 205.374L304.538 201.095C304.621 201.012 304.687 200.914 304.732 200.806C304.777 200.698 304.8 200.582 304.8 200.464C304.8 200.347 304.777 200.231 304.732 200.123C304.687 200.015 304.621 199.917 304.538 199.834Z" fill="#15BE53"/>
<g filter="url(#filter1_d_4003_1050)">
<path d="M323.717 182.812H862.393V222.217H323.717V182.812Z" fill="white"/>
<path d="M323.604 205.878L324.865 204.655C325.527 205.591 326.489 206.115 327.475 206.115C328.411 206.115 329.098 205.703 329.098 204.942C329.098 204.118 328.249 204.005 326.901 203.706C325.565 203.393 324.116 202.969 324.116 201.196C324.116 199.485 325.59 198.412 327.45 198.412C328.998 198.412 330.209 199.098 330.834 199.997L329.623 201.183C329.098 200.447 328.399 199.947 327.4 199.947C326.526 199.947 325.927 200.372 325.927 201.021C325.927 201.72 326.576 201.858 327.75 202.12C329.173 202.432 330.921 202.794 330.921 204.754C330.921 206.565 329.323 207.651 327.413 207.651C325.902 207.651 324.329 206.964 323.604 205.878ZM332.014 205.803V202.407H331.14V200.946H332.014V199.073H333.737V200.946H335.073V202.407H333.737V205.441C333.737 206.003 334.049 206.078 334.561 206.078C334.811 206.078 334.936 206.065 335.16 206.04V207.489C334.848 207.551 334.474 207.589 334.037 207.589C332.713 207.589 332.014 207.152 332.014 205.803ZM342.074 204.23C342.074 206.278 340.75 207.651 338.852 207.651C336.955 207.651 335.631 206.278 335.631 204.23C335.631 202.195 336.955 200.821 338.852 200.821C340.75 200.821 342.074 202.195 342.074 204.23ZM337.367 204.23C337.367 205.479 337.941 206.203 338.852 206.203C339.764 206.203 340.326 205.479 340.326 204.23C340.326 202.994 339.764 202.27 338.852 202.27C337.941 202.27 337.367 202.994 337.367 204.23ZM344.362 204.23C344.362 205.466 344.974 206.178 345.898 206.178C346.622 206.178 347.059 205.678 347.222 205.004L348.732 205.678C348.433 206.752 347.409 207.651 345.886 207.651C343.975 207.651 342.627 206.265 342.627 204.23C342.627 202.207 343.975 200.821 345.886 200.821C347.396 200.821 348.395 201.695 348.707 202.757L347.222 203.456C347.059 202.782 346.622 202.282 345.898 202.282C344.974 202.282 344.362 203.006 344.362 204.23ZM351.184 198.549V203.493L353.482 200.946H355.579L353.17 203.443L355.767 207.514H353.769L351.959 204.704L351.184 205.504V207.514H349.436V198.549H351.184ZM358.672 200.172V198.549H360.457V200.172H358.672ZM360.445 200.946V207.514H358.697V200.946H360.445ZM361.093 206.403L362.179 205.291C362.628 205.903 363.428 206.29 364.164 206.29C364.751 206.29 365.263 206.09 365.263 205.616C365.263 205.116 364.776 205.054 363.727 204.854C362.666 204.642 361.492 204.367 361.492 202.956C361.492 201.695 362.603 200.821 364.177 200.821C365.338 200.821 366.374 201.296 366.886 201.958L365.887 203.056C365.681 202.785 365.415 202.564 365.109 202.413C364.804 202.261 364.468 202.182 364.127 202.182C363.577 202.182 363.215 202.42 363.215 202.782C363.215 203.206 363.652 203.281 364.464 203.443C365.613 203.681 366.974 203.943 366.974 205.429C366.974 206.802 365.7 207.651 364.127 207.651C362.941 207.651 361.692 207.214 361.093 206.403ZM367.21 206.403L368.297 205.291C368.746 205.903 369.545 206.29 370.282 206.29C370.869 206.29 371.381 206.09 371.381 205.616C371.381 205.116 370.894 205.054 369.845 204.854C368.784 204.642 367.61 204.367 367.61 202.956C367.61 201.695 368.721 200.821 370.294 200.821C371.456 200.821 372.492 201.296 373.004 201.958L372.005 203.056C371.799 202.785 371.533 202.564 371.227 202.413C370.922 202.261 370.586 202.182 370.245 202.182C369.695 202.182 369.333 202.42 369.333 202.782C369.333 203.206 369.77 203.281 370.582 203.443C371.73 203.681 373.091 203.943 373.091 205.429C373.091 206.802 371.818 207.651 370.245 207.651C369.058 207.651 367.81 207.214 367.21 206.403ZM379.671 200.946V207.514H377.923V206.84C377.707 207.099 377.435 207.306 377.128 207.446C376.822 207.587 376.487 207.657 376.15 207.651C374.789 207.651 373.915 206.715 373.915 205.291V200.946H375.663V204.904C375.663 205.628 375.988 206.103 376.712 206.103C377.324 206.103 377.923 205.653 377.923 204.804V200.946H379.671ZM383.857 207.651C381.922 207.651 380.598 206.265 380.598 204.23C380.598 202.295 381.934 200.821 383.795 200.821C385.743 200.821 386.791 202.27 386.791 204.105V204.617H382.271C382.396 205.616 383.008 206.215 383.87 206.215C384.544 206.215 385.081 205.891 385.281 205.254L386.754 205.778C386.279 206.977 385.168 207.651 383.857 207.651ZM383.782 202.22C383.083 202.22 382.546 202.632 382.334 203.431H385.056C385.043 202.782 384.631 202.22 383.782 202.22ZM390.16 207.651C388.35 207.651 387.301 206.103 387.301 204.23C387.301 202.37 388.35 200.821 390.16 200.821C390.984 200.821 391.609 201.146 391.996 201.62V198.549H393.744V207.514H391.996V206.84C391.609 207.326 390.984 207.651 390.16 207.651ZM392.033 204.055C392.033 202.931 391.409 202.32 390.572 202.32C389.586 202.32 389.062 203.106 389.062 204.23C389.062 205.366 389.586 206.153 390.572 206.153C391.409 206.153 392.033 205.529 392.033 204.417V204.055ZM400.683 198.449V199.885C400.521 199.872 400.421 199.872 400.233 199.872C399.684 199.872 399.397 200.035 399.397 200.684V200.946H400.67V202.407H399.397V207.514H397.649V202.407H396.762V200.946H397.649V200.584C397.649 199.198 398.398 198.424 400.009 198.424C400.258 198.424 400.408 198.424 400.683 198.449ZM407.33 204.23C407.33 206.278 406.006 207.651 404.109 207.651C402.211 207.651 400.887 206.278 400.887 204.23C400.887 202.195 402.211 200.821 404.109 200.821C406.006 200.821 407.33 202.195 407.33 204.23ZM402.623 204.23C402.623 205.479 403.197 206.203 404.109 206.203C405.02 206.203 405.582 205.479 405.582 204.23C405.582 202.994 405.02 202.27 404.109 202.27C403.197 202.27 402.623 202.994 402.623 204.23ZM412.178 200.934V202.644C411.992 202.619 411.804 202.607 411.616 202.607C410.705 202.607 410.006 203.169 410.006 204.18V207.514H408.258V200.946H410.006V201.87C410.293 201.296 410.942 200.909 411.754 200.909C411.929 200.909 412.053 200.921 412.178 200.934ZM418.631 198.449V199.885C418.468 199.872 418.368 199.872 418.181 199.872C417.632 199.872 417.345 200.035 417.345 200.684V200.946H418.618V202.407H417.345V207.514H415.597V202.407H414.71V200.946H415.597V200.584C415.597 199.198 416.346 198.424 417.956 198.424C418.206 198.424 418.356 198.424 418.631 198.449ZM425.278 204.23C425.278 206.278 423.954 207.651 422.056 207.651C420.158 207.651 418.835 206.278 418.835 204.23C418.835 202.195 420.158 200.821 422.056 200.821C423.954 200.821 425.278 202.195 425.278 204.23ZM420.57 204.23C420.57 205.479 421.145 206.203 422.056 206.203C422.968 206.203 423.53 205.479 423.53 204.23C423.53 202.994 422.968 202.27 422.056 202.27C421.145 202.27 420.57 202.994 420.57 204.23ZM431.912 200.946V207.514H430.164V206.84C429.947 207.099 429.676 207.306 429.369 207.446C429.062 207.586 428.728 207.656 428.391 207.651C427.03 207.651 426.156 206.715 426.156 205.291V200.946H427.904V204.904C427.904 205.628 428.228 206.103 428.952 206.103C429.564 206.103 430.164 205.653 430.164 204.804V200.946H431.912ZM433.226 207.514V200.946H434.974V201.62C435.336 201.196 435.935 200.821 436.772 200.821C438.145 200.821 438.982 201.758 438.982 203.181V207.514H437.234V203.681C437.234 202.944 436.934 202.42 436.185 202.42C435.573 202.42 434.974 202.857 434.974 203.718V207.514H433.226ZM442.705 207.651C440.895 207.651 439.846 206.103 439.846 204.23C439.846 202.37 440.895 200.821 442.705 200.821C443.529 200.821 444.154 201.146 444.541 201.62V198.549H446.289V207.514H444.541V206.84C444.154 207.326 443.529 207.651 442.705 207.651ZM444.578 204.055C444.578 202.931 443.954 202.32 443.117 202.32C442.131 202.32 441.607 203.106 441.607 204.23C441.607 205.366 442.131 206.153 443.117 206.153C443.954 206.153 444.578 205.529 444.578 204.417V204.055ZM450.467 207.651C448.531 207.651 447.208 206.265 447.208 204.23C447.208 202.295 448.544 200.821 450.404 200.821C452.352 200.821 453.401 202.27 453.401 204.105V204.617H448.881C449.006 205.616 449.618 206.215 450.479 206.215C451.153 206.215 451.69 205.891 451.89 205.254L453.363 205.778C452.889 206.977 451.778 207.651 450.467 207.651ZM450.392 202.22C449.693 202.22 449.156 202.632 448.943 203.431H451.665C451.653 202.782 451.241 202.22 450.392 202.22ZM458.219 200.934V202.644C458.019 202.619 457.869 202.607 457.657 202.607C456.745 202.607 456.046 203.169 456.046 204.18V207.514H454.298V200.946H456.046V201.87C456.333 201.296 456.982 200.909 457.794 200.909C457.969 200.909 458.094 200.921 458.219 200.934ZM458.291 206.403L459.377 205.291C459.827 205.903 460.626 206.29 461.363 206.29C461.95 206.29 462.461 206.09 462.461 205.616C462.461 205.116 461.975 205.054 460.926 204.854C459.864 204.642 458.691 204.367 458.691 202.956C458.691 201.695 459.802 200.821 461.375 200.821C462.536 200.821 463.573 201.296 464.085 201.958L463.086 203.056C462.88 202.784 462.613 202.564 462.308 202.413C462.002 202.261 461.666 202.182 461.325 202.182C460.776 202.182 460.414 202.42 460.414 202.782C460.414 203.206 460.851 203.281 461.662 203.443C462.811 203.681 464.172 203.943 464.172 205.429C464.172 206.802 462.898 207.651 461.325 207.651C460.139 207.651 458.89 207.214 458.291 206.403Z" fill="#4F5B76"/>
</g>
<path d="M869.527 223.109H284.475C280.534 223.109 277.34 226.304 277.34 230.244V255.378C277.34 259.319 280.534 262.513 284.475 262.513H869.527C873.467 262.513 876.662 259.319 876.662 255.378V230.244C876.662 226.304 873.467 223.109 869.527 223.109Z" fill="white"/>
<path fill-rule="evenodd" clip-rule="evenodd" d="M307.662 242.811C307.662 244.703 306.91 246.518 305.572 247.856C304.234 249.194 302.419 249.946 300.527 249.946C298.635 249.946 296.82 249.194 295.482 247.856C294.144 246.518 293.392 244.703 293.392 242.811C293.392 240.918 294.144 239.104 295.482 237.766C296.82 236.427 298.635 235.676 300.527 235.676C302.419 235.676 304.234 236.427 305.572 237.766C306.91 239.104 307.662 240.918 307.662 242.811ZM304.538 240.131C304.371 239.964 304.144 239.87 303.908 239.87C303.671 239.87 303.444 239.964 303.277 240.131L299.636 243.779L298.037 242.18C297.868 242.023 297.644 241.937 297.413 241.942C297.182 241.946 296.962 242.04 296.798 242.203C296.635 242.366 296.541 242.587 296.537 242.818C296.533 243.049 296.618 243.272 296.775 243.442L299.005 245.671C299.172 245.838 299.399 245.932 299.636 245.932C299.872 245.932 300.099 245.838 300.266 245.671L304.538 241.392C304.621 241.309 304.687 241.211 304.732 241.103C304.777 240.994 304.8 240.878 304.8 240.761C304.8 240.644 304.777 240.528 304.732 240.42C304.687 240.312 304.621 240.213 304.538 240.131Z" fill="#15BE53"/>
<g filter="url(#filter2_d_4003_1050)">
<path d="M323.717 223.109H862.393V262.513H323.717V223.109Z" fill="white"/>
<path d="M326.339 244.515V247.811H324.503V238.846H328.174C330.234 238.846 331.52 239.82 331.52 241.68C331.52 243.528 330.234 244.515 328.174 244.515H326.339ZM326.339 242.954H328.074C329.148 242.954 329.698 242.479 329.698 241.68C329.698 240.869 329.148 240.407 328.074 240.407H326.339V242.954ZM337.887 241.243V247.811H336.138V247.137C335.922 247.395 335.65 247.603 335.343 247.743C335.036 247.883 334.702 247.953 334.365 247.948C333.005 247.948 332.131 247.012 332.131 245.588V241.243H333.879V245.201C333.879 245.926 334.203 246.4 334.927 246.4C335.539 246.4 336.138 245.951 336.138 245.101V241.243H337.887ZM343.121 241.231V242.941C342.935 242.916 342.747 242.903 342.559 242.904C341.648 242.904 340.949 243.466 340.949 244.477V247.811H339.201V241.243H340.949V242.167C341.236 241.593 341.885 241.206 342.697 241.206C342.871 241.206 342.996 241.218 343.121 241.231ZM345.009 244.527C345.009 245.763 345.62 246.475 346.544 246.475C347.268 246.475 347.705 245.975 347.868 245.301L349.379 245.975C349.079 247.049 348.055 247.948 346.532 247.948C344.621 247.948 343.273 246.562 343.273 244.527C343.273 242.504 344.621 241.118 346.532 241.118C348.043 241.118 349.041 241.993 349.354 243.054L347.868 243.753C347.705 243.079 347.268 242.579 346.544 242.579C345.62 242.579 345.009 243.304 345.009 244.527ZM350.083 247.811V238.846H351.831V241.918C352.193 241.493 352.792 241.118 353.629 241.118C355.002 241.118 355.839 242.055 355.839 243.478V247.811H354.091V243.978C354.091 243.241 353.791 242.717 353.042 242.717C352.43 242.717 351.831 243.154 351.831 244.015V247.811H350.083ZM362.409 246.2C362.409 246.762 362.434 247.324 362.509 247.811H360.824C360.809 247.636 360.8 247.462 360.799 247.287C360.374 247.699 359.737 247.923 358.938 247.923C357.652 247.923 356.691 247.149 356.691 245.988C356.691 244.677 357.727 244.128 359.063 243.89L360.699 243.578V243.291C360.699 242.767 360.349 242.554 359.725 242.554C359.013 242.554 358.713 242.842 358.676 243.366H356.978C357.04 241.855 358.189 241.118 359.812 241.118C361.435 241.118 362.409 241.805 362.409 243.066V246.2ZM360.699 245.476V244.802L359.425 245.052C358.838 245.164 358.414 245.351 358.414 245.876C358.414 246.338 358.751 246.587 359.275 246.587C360.012 246.587 360.699 246.213 360.699 245.476ZM363.022 246.7L364.109 245.588C364.558 246.2 365.357 246.587 366.094 246.587C366.681 246.587 367.193 246.388 367.193 245.913C367.193 245.414 366.706 245.351 365.657 245.151C364.596 244.939 363.422 244.664 363.422 243.254C363.422 241.993 364.533 241.118 366.106 241.118C367.268 241.118 368.304 241.593 368.816 242.255L367.817 243.353C367.611 243.081 367.344 242.861 367.039 242.71C366.733 242.558 366.397 242.479 366.056 242.479C365.507 242.479 365.145 242.717 365.145 243.079C365.145 243.503 365.582 243.578 366.394 243.741C367.542 243.978 368.903 244.24 368.903 245.726C368.903 247.099 367.63 247.948 366.056 247.948C364.87 247.948 363.622 247.511 363.022 246.7ZM372.661 247.948C370.726 247.948 369.402 246.562 369.402 244.527C369.402 242.592 370.738 241.118 372.599 241.118C374.547 241.118 375.595 242.567 375.595 244.402V244.914H371.076C371.2 245.913 371.812 246.512 372.674 246.512C373.348 246.512 373.885 246.188 374.085 245.551L375.558 246.075C375.083 247.274 373.972 247.948 372.661 247.948ZM372.586 242.517C371.887 242.517 371.35 242.929 371.138 243.728H373.86C373.847 243.079 373.435 242.517 372.586 242.517ZM382.076 248.185C381.651 249.347 381.052 250.096 379.603 250.096C379.266 250.096 379.141 250.083 378.917 250.058V248.647C379.104 248.66 379.216 248.672 379.416 248.672C379.878 248.672 380.128 248.548 380.315 248.073L380.527 247.549L378.167 241.243H379.978L381.464 245.563L382.912 241.243H384.673L382.076 248.185ZM391.04 244.527C391.04 246.575 389.717 247.948 387.819 247.948C385.921 247.948 384.598 246.575 384.598 244.527C384.598 242.492 385.921 241.118 387.819 241.118C389.717 241.118 391.04 242.492 391.04 244.527ZM386.333 244.527C386.333 245.776 386.908 246.5 387.819 246.5C388.731 246.5 389.292 245.776 389.292 244.527C389.292 243.291 388.731 242.567 387.819 242.567C386.908 242.567 386.333 243.291 386.333 244.527ZM397.674 241.243V247.811H395.926V247.137C395.71 247.395 395.438 247.603 395.131 247.743C394.824 247.883 394.49 247.953 394.153 247.948C392.792 247.948 391.918 247.012 391.918 245.588V241.243H393.666V245.201C393.666 245.926 393.991 246.4 394.715 246.4C395.327 246.4 395.926 245.951 395.926 245.101V241.243H397.674ZM402.909 241.231V242.941C402.709 242.916 402.559 242.904 402.347 242.904C401.436 242.904 400.736 243.466 400.736 244.477V247.811H398.988V241.243H400.736V242.167C401.024 241.593 401.673 241.206 402.484 241.206C402.659 241.206 402.784 241.218 402.909 241.231ZM405.466 246.7L406.552 245.588C407.001 246.2 407.801 246.587 408.537 246.587C409.124 246.587 409.636 246.388 409.636 245.913C409.636 245.414 409.149 245.351 408.1 245.151C407.039 244.939 405.865 244.664 405.865 243.254C405.865 241.993 406.976 241.118 408.55 241.118C409.711 241.118 410.747 241.593 411.259 242.255L410.26 243.353C410.054 243.081 409.787 242.861 409.482 242.71C409.177 242.558 408.841 242.479 408.5 242.479C407.95 242.479 407.588 242.717 407.588 243.079C407.588 243.503 408.025 243.578 408.837 243.741C409.986 243.978 411.347 244.24 411.347 245.726C411.347 247.099 410.073 247.948 408.5 247.948C407.314 247.948 406.065 247.511 405.466 246.7ZM412.233 247.811V238.846H413.981V241.918C414.343 241.493 414.942 241.118 415.779 241.118C417.152 241.118 417.989 242.055 417.989 243.478V247.811H416.241V243.978C416.241 243.241 415.941 242.717 415.192 242.717C414.58 242.717 413.981 243.154 413.981 244.015V247.811H412.233ZM424.559 246.2C424.559 246.762 424.584 247.324 424.659 247.811H422.974C422.959 247.636 422.95 247.462 422.949 247.287C422.524 247.699 421.887 247.923 421.088 247.923C419.802 247.923 418.841 247.149 418.841 245.988C418.841 244.677 419.877 244.128 421.213 243.89L422.849 243.578V243.291C422.849 242.767 422.499 242.554 421.875 242.554C421.163 242.554 420.864 242.842 420.826 243.366H419.128C419.19 241.855 420.339 241.118 421.962 241.118C423.585 241.118 424.559 241.805 424.559 243.066V246.2ZM422.849 245.476V244.802L421.575 245.052C420.988 245.164 420.564 245.351 420.564 245.876C420.564 246.338 420.901 246.587 421.425 246.587C422.162 246.587 422.849 246.213 422.849 245.476ZM429.742 241.231V242.941C429.556 242.915 429.368 242.903 429.18 242.904C428.269 242.904 427.57 243.466 427.57 244.477V247.811H425.822V241.243H427.57V242.167C427.857 241.593 428.506 241.206 429.318 241.206C429.493 241.206 429.617 241.218 429.742 241.231ZM433.153 247.948C431.218 247.948 429.894 246.562 429.894 244.527C429.894 242.592 431.23 241.118 433.091 241.118C435.038 241.118 436.087 242.567 436.087 244.402V244.914H431.567C431.692 245.913 432.304 246.512 433.166 246.512C433.84 246.512 434.377 246.188 434.576 245.551L436.05 246.075C435.575 247.274 434.464 247.948 433.153 247.948ZM433.078 242.517C432.379 242.517 431.842 242.929 431.63 243.728H434.352C434.339 243.079 433.927 242.517 433.078 242.517ZM436.347 246.7L437.434 245.588C437.883 246.2 438.682 246.587 439.419 246.587C440.006 246.587 440.518 246.388 440.518 245.913C440.518 245.414 440.031 245.351 438.982 245.151C437.92 244.939 436.747 244.664 436.747 243.254C436.747 241.993 437.858 241.118 439.431 241.118C440.592 241.118 441.629 241.593 442.141 242.255L441.142 243.353C440.936 243.081 440.669 242.861 440.364 242.71C440.058 242.558 439.722 242.479 439.381 242.479C438.832 242.479 438.47 242.717 438.47 243.079C438.47 243.503 438.907 243.578 439.718 243.741C440.867 243.978 442.228 244.24 442.228 245.726C442.228 247.099 440.955 247.948 439.381 247.948C438.195 247.948 436.947 247.511 436.347 246.7Z" fill="#4F5B76"/>
</g>
<path d="M869.527 263.404H284.475C280.534 263.404 277.34 266.599 277.34 270.539V295.673C277.34 299.614 280.534 302.808 284.475 302.808H869.527C873.467 302.808 876.662 299.614 876.662 295.673V270.539C876.662 266.599 873.467 263.404 869.527 263.404Z" fill="white"/>
<path fill-rule="evenodd" clip-rule="evenodd" d="M294.26 288.681C294.26 288.312 294.56 288.012 294.93 288.012H306.1C306.191 288.007 306.282 288.021 306.367 288.052C306.453 288.084 306.531 288.132 306.597 288.195C306.663 288.258 306.716 288.333 306.752 288.417C306.788 288.5 306.806 288.59 306.806 288.681C306.806 288.773 306.788 288.863 306.752 288.946C306.716 289.03 306.663 289.105 306.597 289.168C306.531 289.231 306.453 289.279 306.367 289.31C306.282 289.342 306.191 289.355 306.1 289.35H294.93C294.752 289.35 294.582 289.28 294.456 289.155C294.331 289.029 294.26 288.859 294.26 288.681ZM300.515 281.547C300.515 281.177 300.815 280.878 301.185 280.878H306.1C306.191 280.872 306.283 280.885 306.37 280.916C306.456 280.947 306.535 280.995 306.602 281.058C306.669 281.12 306.723 281.196 306.759 281.28C306.796 281.364 306.815 281.455 306.815 281.547C306.815 281.639 306.796 281.73 306.759 281.814C306.723 281.898 306.669 281.974 306.602 282.036C306.535 282.099 306.456 282.147 306.37 282.178C306.283 282.209 306.191 282.222 306.1 282.215H301.185C301.097 282.216 301.01 282.198 300.929 282.165C300.847 282.131 300.774 282.082 300.711 282.02C300.649 281.958 300.6 281.885 300.566 281.803C300.532 281.722 300.515 281.635 300.515 281.547ZM294.26 285.114C294.26 284.745 294.56 284.445 294.93 284.445H306.1C306.191 284.44 306.282 284.454 306.367 284.485C306.453 284.517 306.531 284.565 306.597 284.628C306.663 284.691 306.716 284.766 306.752 284.85C306.788 284.933 306.806 285.023 306.806 285.114C306.806 285.206 306.788 285.296 306.752 285.379C306.716 285.463 306.663 285.538 306.597 285.601C306.531 285.664 306.453 285.712 306.367 285.743C306.282 285.775 306.191 285.788 306.1 285.783H294.93C294.752 285.783 294.582 285.713 294.456 285.588C294.331 285.462 294.26 285.292 294.26 285.114Z" fill="#0A2540"/>
<path d="M301.412 278.003C301.537 277.877 301.606 277.706 301.604 277.528C301.603 277.351 301.531 277.181 301.405 277.056C301.278 276.932 301.108 276.862 300.93 276.863C300.753 276.864 300.583 276.936 300.458 277.062L296.26 281.299L294.568 279.359C294.449 279.233 294.287 279.157 294.114 279.148C293.94 279.139 293.771 279.198 293.64 279.312C293.509 279.425 293.427 279.585 293.412 279.758C293.396 279.93 293.448 280.102 293.557 280.237L295.711 282.707C295.771 282.777 295.845 282.833 295.928 282.872C296.181 283.002 296.5 282.96 296.711 282.747L301.412 278.003Z" fill="#0A2540"/>
<g filter="url(#filter3_d_4003_1050)">
<path d="M323.717 263.404H862.393V302.808H323.717V263.404Z" fill="white"/>
<path d="M323.717 274.105H708.995V292.105H323.717V274.105Z" fill="white"/>
<path d="M326.314 288.107H324.503V279.142H330.621V280.728H326.314V282.963H329.91V284.549H326.314V288.107ZM331.339 280.766V279.142H333.124V280.766H331.339ZM333.112 281.54V288.107H331.364V281.54H333.112ZM336.157 279.142V288.107H334.409V279.142H336.157ZM340.325 288.245C338.39 288.245 337.067 286.859 337.067 284.824C337.067 282.888 338.403 281.415 340.263 281.415C342.211 281.415 343.26 282.863 343.26 284.699V285.211H338.74C338.865 286.209 339.476 286.809 340.338 286.809C341.012 286.809 341.549 286.484 341.749 285.847L343.222 286.372C342.748 287.57 341.636 288.245 340.325 288.245ZM340.251 282.813C339.551 282.813 339.014 283.225 338.802 284.024H341.524C341.512 283.375 341.1 282.813 340.251 282.813ZM349.602 279.005C351.263 279.005 352.612 279.967 352.612 281.527C352.612 282.376 352.15 283.038 351.375 283.425C352.312 283.75 353.036 284.536 353.036 285.61C353.036 287.221 351.563 288.245 349.602 288.245C347.642 288.245 346.156 287.221 346.156 285.61C346.156 284.536 346.893 283.75 347.829 283.425C347.043 283.038 346.593 282.376 346.593 281.527C346.593 279.967 347.942 279.005 349.602 279.005ZM349.602 282.701C350.414 282.701 350.963 282.239 350.963 281.552C350.963 280.866 350.414 280.404 349.602 280.404C348.791 280.404 348.241 280.866 348.241 281.552C348.241 282.239 348.791 282.701 349.602 282.701ZM349.602 284.149C348.629 284.149 347.967 284.699 347.967 285.473C347.967 286.284 348.629 286.809 349.602 286.809C350.564 286.809 351.238 286.284 351.238 285.473C351.238 284.699 350.564 284.149 349.602 284.149ZM356.888 288.245C355.066 288.245 353.655 287.283 353.392 285.485L355.178 285.173C355.315 286.16 356.002 286.721 356.863 286.721C357.725 286.721 358.349 286.272 358.349 285.435C358.349 284.611 357.688 284.262 356.751 284.262H355.89V282.751H356.726C357.6 282.751 358.137 282.401 358.137 281.665C358.137 280.965 357.675 280.528 356.876 280.528C356.014 280.528 355.453 281.14 355.303 282.014L353.63 281.764C353.854 280.241 355.053 279.005 356.938 279.005C358.786 279.005 359.898 280.079 359.898 281.552C359.898 282.464 359.361 283.2 358.649 283.475C359.486 283.762 360.135 284.424 360.135 285.56C360.135 287.021 358.886 288.245 356.888 288.245ZM362.546 284.112C362.546 286.097 363.382 288.007 364.531 289.331H362.82C361.672 288.145 360.61 286.347 360.61 284.112C360.61 281.877 361.672 280.079 362.82 278.893H364.531C363.382 280.241 362.546 282.127 362.546 284.112ZM368.7 288.245C367.876 288.245 367.251 287.92 366.864 287.433V288.107H365.116V279.142H366.864V282.214C367.251 281.74 367.876 281.415 368.7 281.415C370.51 281.415 371.559 282.963 371.559 284.824C371.559 286.696 370.51 288.245 368.7 288.245ZM366.827 284.649V285.011C366.827 286.122 367.451 286.746 368.288 286.746C369.274 286.746 369.798 285.96 369.798 284.824C369.798 283.7 369.274 282.913 368.288 282.913C367.451 282.913 366.827 283.525 366.827 284.649ZM373.727 284.112C373.727 282.127 372.89 280.241 371.741 278.893H373.452C374.601 280.079 375.662 281.877 375.662 284.112C375.662 286.347 374.601 288.145 373.452 289.331H371.741C372.89 288.007 373.727 286.097 373.727 284.112ZM381.805 288.245C379.87 288.245 378.547 286.859 378.547 284.824C378.547 282.888 379.883 281.415 381.743 281.415C383.691 281.415 384.74 282.863 384.74 284.699V285.211H380.22C380.345 286.209 380.956 286.809 381.818 286.809C382.492 286.809 383.029 286.484 383.229 285.847L384.702 286.372C384.228 287.57 383.116 288.245 381.805 288.245ZM381.731 282.813C381.031 282.813 380.494 283.225 380.282 284.024H383.004C382.992 283.375 382.58 282.813 381.731 282.813ZM387.385 279.142V288.107H385.637V279.142H387.385ZM391.554 288.245C389.618 288.245 388.295 286.859 388.295 284.824C388.295 282.888 389.631 281.415 391.491 281.415C393.439 281.415 394.488 282.863 394.488 284.699V285.211H389.968C390.093 286.209 390.705 286.809 391.566 286.809C392.24 286.809 392.777 286.484 392.977 285.847L394.45 286.372C393.976 287.57 392.865 288.245 391.554 288.245ZM391.479 282.813C390.779 282.813 390.243 283.225 390.03 284.024H392.752C392.74 283.375 392.328 282.813 391.479 282.813ZM396.746 284.824C396.746 286.06 397.357 286.771 398.281 286.771C399.006 286.771 399.443 286.272 399.605 285.598L401.116 286.272C400.816 287.346 399.792 288.245 398.269 288.245C396.359 288.245 395.01 286.859 395.01 284.824C395.01 282.801 396.359 281.415 398.269 281.415C399.78 281.415 400.779 282.289 401.091 283.35L399.605 284.049C399.443 283.375 399.006 282.876 398.281 282.876C397.357 282.876 396.746 283.6 396.746 284.824ZM402.019 286.397V283.001H401.145V281.54H402.019V279.667H403.742V281.54H405.078V283.001H403.742V286.035C403.742 286.597 404.054 286.671 404.566 286.671C404.816 286.671 404.941 286.659 405.165 286.634V288.082C404.853 288.145 404.479 288.182 404.042 288.182C402.718 288.182 402.019 287.745 402.019 286.397ZM406.047 280.766V279.142H407.832V280.766H406.047ZM407.82 281.54V288.107H406.072V281.54H407.82ZM415.173 284.824C415.173 286.871 413.849 288.245 411.951 288.245C410.053 288.245 408.73 286.871 408.73 284.824C408.73 282.788 410.053 281.415 411.951 281.415C413.849 281.415 415.173 282.788 415.173 284.824ZM410.466 284.824C410.466 286.072 411.04 286.796 411.951 286.796C412.863 286.796 413.425 286.072 413.425 284.824C413.425 283.587 412.863 282.863 411.951 282.863C411.04 282.863 410.466 283.587 410.466 284.824ZM416.101 288.107V281.54H417.849V282.214C418.211 281.789 418.81 281.415 419.647 281.415C421.02 281.415 421.857 282.351 421.857 283.775V288.107H420.109V284.274C420.109 283.537 419.809 283.013 419.06 283.013C418.448 283.013 417.849 283.45 417.849 284.312V288.107H416.101Z" fill="#0A2540"/>
</g>
<path d="M869.527 303.701H284.475C280.534 303.701 277.34 306.896 277.34 310.836V335.97C277.34 339.911 280.534 343.105 284.475 343.105H869.527C873.467 343.105 876.662 339.911 876.662 335.97V310.836C876.662 306.896 873.467 303.701 869.527 303.701Z" fill="white"/>
<path fill-rule="evenodd" clip-rule="evenodd" d="M306.519 323.404H305.415V327.042L306.711 328.051C307.576 328.697 307.14 330.092 306.039 330.092H294.969C293.868 330.092 293.432 328.697 294.297 328.051L295.593 327.042V323.404H294.523C293.434 323.404 292.965 322 293.865 321.356L300.125 316.841C300.24 316.758 300.379 316.713 300.521 316.715C300.663 316.713 300.802 316.758 300.917 316.841L307.177 321.356C308.077 322 307.608 323.404 306.519 323.404ZM295.168 322.066L300.521 318.205L305.874 322.066H295.168ZM301.419 323.404H299.636V326.748C299.627 326.919 299.552 327.08 299.428 327.198C299.303 327.316 299.138 327.381 298.967 327.381C298.796 327.381 298.631 327.316 298.506 327.198C298.382 327.08 298.307 326.919 298.298 326.748V323.404H296.931V327.369C296.931 327.471 296.908 327.571 296.863 327.663C296.818 327.754 296.753 327.834 296.673 327.897L295.571 328.755H305.437L304.335 327.897C304.254 327.834 304.189 327.754 304.145 327.663C304.1 327.571 304.077 327.471 304.077 327.369V323.404H302.757V326.748C302.757 326.925 302.686 327.095 302.561 327.221C302.435 327.346 302.265 327.417 302.088 327.417C301.91 327.417 301.74 327.346 301.615 327.221C301.489 327.095 301.419 326.925 301.419 326.748V323.404Z" fill="#0A2540"/>
<g filter="url(#filter4_d_4003_1050)">
<path d="M323.717 303.701H862.393V343.105H323.717V303.701Z" fill="white"/>
<path d="M323.717 314.402H708.995V332.402H323.717V314.402Z" fill="white"/>
<path d="M324.054 323.921C324.054 321.212 325.827 319.301 328.299 319.301C330.759 319.301 332.532 321.212 332.532 323.921C332.532 326.63 330.759 328.541 328.299 328.541C325.827 328.541 324.054 326.63 324.054 323.921ZM330.684 323.921C330.684 322.086 329.698 320.912 328.299 320.912C326.888 320.912 325.902 322.086 325.902 323.921C325.902 325.756 326.888 326.93 328.299 326.93C329.698 326.93 330.684 325.756 330.684 323.921ZM337.044 328.541C336.22 328.541 335.596 328.216 335.209 327.729V330.626H333.461V321.836H335.209V322.51C335.596 322.036 336.22 321.711 337.044 321.711C338.855 321.711 339.903 323.259 339.903 325.12C339.903 326.993 338.855 328.541 337.044 328.541ZM335.171 324.945V325.307C335.171 326.418 335.796 327.042 336.632 327.042C337.619 327.042 338.143 326.256 338.143 325.12C338.143 323.996 337.619 323.209 336.632 323.209C335.796 323.209 335.171 323.821 335.171 324.945ZM343.694 328.541C341.759 328.541 340.435 327.155 340.435 325.12C340.435 323.184 341.771 321.711 343.632 321.711C345.579 321.711 346.628 323.159 346.628 324.995V325.507H342.108C342.233 326.506 342.845 327.105 343.706 327.105C344.381 327.105 344.918 326.78 345.117 326.144L346.591 326.668C346.116 327.867 345.005 328.541 343.694 328.541ZM343.619 323.109C342.92 323.109 342.383 323.521 342.171 324.321H344.893C344.88 323.671 344.468 323.109 343.619 323.109ZM347.525 328.403V321.836H349.273V322.51C349.635 322.086 350.235 321.711 351.071 321.711C352.445 321.711 353.281 322.647 353.281 324.071V328.403H351.533V324.57C351.533 323.834 351.234 323.309 350.484 323.309C349.873 323.309 349.273 323.746 349.273 324.608V328.403H347.525ZM362.239 326.793C362.239 327.355 362.264 327.917 362.338 328.403H360.653C360.637 328.229 360.629 328.054 360.628 327.879C360.203 328.291 359.567 328.516 358.767 328.516C357.481 328.516 356.52 327.742 356.52 326.581C356.52 325.269 357.556 324.72 358.892 324.483L360.528 324.171V323.884C360.528 323.359 360.178 323.147 359.554 323.147C358.842 323.147 358.543 323.434 358.505 323.958H356.807C356.87 322.448 358.018 321.711 359.641 321.711C361.265 321.711 362.239 322.398 362.239 323.659V326.793ZM360.528 326.069V325.394L359.254 325.644C358.668 325.756 358.243 325.944 358.243 326.468C358.243 326.93 358.58 327.18 359.105 327.18C359.841 327.18 360.528 326.805 360.528 326.069ZM369.471 328.541C368.647 328.541 368.023 328.216 367.636 327.729V328.403H365.888V319.439H367.636V322.51C368.023 322.036 368.647 321.711 369.471 321.711C371.282 321.711 372.33 323.259 372.33 325.12C372.33 326.993 371.282 328.541 369.471 328.541ZM367.598 324.945V325.307C367.598 326.418 368.222 327.042 369.059 327.042C370.045 327.042 370.57 326.256 370.57 325.12C370.57 323.996 370.045 323.209 369.059 323.209C368.222 323.209 367.598 323.821 367.598 324.945ZM378.543 326.793C378.543 327.355 378.568 327.917 378.643 328.403H376.958C376.942 328.229 376.934 328.054 376.933 327.879C376.508 328.291 375.871 328.516 375.072 328.516C373.786 328.516 372.825 327.742 372.825 326.581C372.825 325.269 373.861 324.72 375.197 324.483L376.833 324.171V323.884C376.833 323.359 376.483 323.147 375.859 323.147C375.147 323.147 374.848 323.434 374.81 323.958H373.112C373.175 322.448 374.323 321.711 375.946 321.711C377.57 321.711 378.543 322.398 378.543 323.659V326.793ZM376.833 326.069V325.394L375.559 325.644C374.972 325.756 374.548 325.944 374.548 326.468C374.548 326.93 374.885 327.18 375.409 327.18C376.146 327.18 376.833 326.805 376.833 326.069ZM379.806 328.403V321.836H381.554V322.51C381.916 322.086 382.515 321.711 383.352 321.711C384.725 321.711 385.562 322.647 385.562 324.071V328.403H383.814V324.57C383.814 323.834 383.514 323.309 382.765 323.309C382.153 323.309 381.554 323.746 381.554 324.608V328.403H379.806ZM388.574 319.439V324.383L390.871 321.836H392.969L390.559 324.333L393.156 328.403H391.159L389.348 325.594L388.574 326.393V328.403H386.826V319.439H388.574ZM401.393 326.793C401.393 327.355 401.418 327.917 401.493 328.403H399.807C399.795 328.241 399.782 328.066 399.782 327.879C399.358 328.291 398.721 328.516 397.922 328.516C396.636 328.516 395.674 327.742 395.674 326.581C395.674 325.269 396.711 324.72 398.047 324.483L399.682 324.171V323.884C399.682 323.359 399.333 323.147 398.708 323.147C397.997 323.147 397.697 323.434 397.66 323.958H395.962C396.024 322.448 397.173 321.711 398.796 321.711C400.419 321.711 401.393 322.398 401.393 323.659V326.793ZM399.682 326.069V325.394L398.409 325.644C397.822 325.756 397.397 325.944 397.397 326.468C397.397 326.93 397.735 327.18 398.259 327.18C398.996 327.18 399.682 326.805 399.682 326.069ZM404.004 325.12C404.004 326.356 404.616 327.067 405.54 327.067C406.264 327.067 406.701 326.568 406.863 325.894L408.374 326.568C408.074 327.642 407.05 328.541 405.527 328.541C403.617 328.541 402.268 327.155 402.268 325.12C402.268 323.097 403.617 321.711 405.527 321.711C407.038 321.711 408.037 322.585 408.349 323.646L406.863 324.346C406.701 323.671 406.264 323.172 405.54 323.172C404.616 323.172 404.004 323.896 404.004 325.12ZM410.426 325.12C410.426 326.356 411.038 327.067 411.962 327.067C412.686 327.067 413.123 326.568 413.286 325.894L414.796 326.568C414.497 327.642 413.473 328.541 411.95 328.541C410.039 328.541 408.691 327.155 408.691 325.12C408.691 323.097 410.039 321.711 411.95 321.711C413.46 321.711 414.459 322.585 414.771 323.646L413.286 324.346C413.123 323.671 412.686 323.172 411.962 323.172C411.038 323.172 410.426 323.896 410.426 325.12ZM421.556 325.12C421.556 327.167 420.233 328.541 418.335 328.541C416.437 328.541 415.113 327.167 415.113 325.12C415.113 323.084 416.437 321.711 418.335 321.711C420.233 321.711 421.556 323.084 421.556 325.12ZM416.849 325.12C416.849 326.368 417.423 327.092 418.335 327.092C419.246 327.092 419.808 326.368 419.808 325.12C419.808 323.884 419.246 323.159 418.335 323.159C417.423 323.159 416.849 323.884 416.849 325.12ZM428.19 321.836V328.403H426.442V327.729C426.226 327.988 425.954 328.195 425.647 328.336C425.34 328.476 425.006 328.546 424.669 328.541C423.308 328.541 422.434 327.604 422.434 326.181V321.836H424.182V325.794C424.182 326.518 424.507 326.993 425.231 326.993C425.843 326.993 426.442 326.543 426.442 325.694V321.836H428.19ZM429.504 328.403V321.836H431.252V322.51C431.614 322.086 432.214 321.711 433.05 321.711C434.424 321.711 435.26 322.647 435.26 324.071V328.403H433.512V324.57C433.512 323.834 433.212 323.309 432.463 323.309C431.851 323.309 431.252 323.746 431.252 324.608V328.403H429.504ZM436.699 326.693V323.297H435.825V321.836H436.699V319.963H438.422V321.836H439.758V323.297H438.422V326.331C438.422 326.893 438.734 326.968 439.246 326.968C439.496 326.968 439.621 326.955 439.845 326.93V328.378C439.533 328.441 439.159 328.478 438.722 328.478C437.398 328.478 436.699 328.041 436.699 326.693Z" fill="#0A2540"/>
</g>
<path d="M113.61 110.965L109.786 121.21H111.869L112.683 119.013H116.907L117.72 121.21H119.846L116.008 110.965H113.61ZM114.78 113.291L116.236 117.229H113.339L114.78 113.291ZM120.415 119.255C120.415 120.797 121.215 121.296 122.727 121.296C123.227 121.296 123.655 121.253 124.011 121.182V119.527C123.754 119.555 123.611 119.569 123.326 119.569C122.741 119.569 122.385 119.484 122.385 118.842V115.374H123.911V113.704H122.385V111.564H120.415V113.704H119.417V115.374H120.415V119.255ZM126.899 110.965H124.9V121.21H126.9V110.965H126.899ZM134.299 119.37V115.788C134.299 114.347 133.187 113.562 131.331 113.562C129.476 113.562 128.164 114.404 128.092 116.13H130.033C130.076 115.531 130.418 115.203 131.232 115.203C131.945 115.203 132.345 115.445 132.345 116.045V116.373L130.475 116.73C128.949 117 127.765 117.629 127.765 119.127C127.765 120.454 128.863 121.339 130.333 121.339C131.246 121.339 131.973 121.082 132.459 120.611C132.459 120.825 132.473 121.025 132.487 121.211H134.414C134.328 120.654 134.299 120.011 134.299 119.37ZM132.345 118.542C132.345 119.384 131.56 119.812 130.718 119.812C130.118 119.812 129.733 119.527 129.733 118.999C129.733 118.399 130.219 118.185 130.889 118.057L132.345 117.771V118.542ZM134.855 119.94C135.539 120.868 136.966 121.367 138.322 121.367C140.12 121.367 141.575 120.397 141.575 118.827C141.575 117.129 140.02 116.83 138.707 116.558C137.779 116.373 137.28 116.288 137.28 115.802C137.28 115.388 137.694 115.117 138.322 115.117C139.106 115.117 139.834 115.474 140.334 116.117L141.475 114.86C140.89 114.104 139.705 113.562 138.379 113.562C136.581 113.562 135.311 114.561 135.311 116.002C135.311 117.614 136.652 117.928 137.865 118.171C139.064 118.399 139.62 118.471 139.62 119.041C139.62 119.584 139.035 119.811 138.364 119.811C137.522 119.811 136.609 119.37 136.095 118.671L134.855 119.94Z" fill="#0A2540"/>
<g filter="url(#filter5_d_4003_1050)">
<path d="M109.672 142.488H180.942V235.892H109.672V142.488Z" fill="white"/>
<path d="M109.672 142.488H174.942V160.488H109.672V142.488Z" fill="white"/>
<path d="M124.328 152.005C124.328 154.727 126.076 156.625 128.498 156.625C130.921 156.625 132.669 154.727 132.669 152.005C132.669 149.283 130.921 147.385 128.499 147.385C126.077 147.385 124.328 149.283 124.328 152.005ZM131.071 152.005C131.071 153.953 130.01 155.215 128.499 155.215C126.988 155.215 125.927 153.953 125.927 152.005C125.927 150.057 126.988 148.796 128.499 148.796C130.009 148.796 131.071 150.056 131.071 152.005ZM136.858 156.488L139.255 149.933H137.707L136.12 154.69L134.522 149.933H132.95L135.347 156.488H136.857H136.858ZM142.54 156.625C143.85 156.625 144.887 155.938 145.35 154.79L144.063 154.303C143.863 154.977 143.277 155.351 142.54 155.351C141.578 155.351 140.904 154.665 140.792 153.541H145.387V153.041C145.387 151.244 144.375 149.808 142.477 149.808C140.654 149.808 139.356 151.293 139.356 153.216C139.356 155.239 140.667 156.625 142.54 156.625ZM142.465 151.069C143.414 151.069 143.863 151.693 143.875 152.417H140.867C141.091 151.531 141.691 151.069 142.465 151.069ZM150.095 149.92C149.954 149.903 149.812 149.895 149.67 149.895C148.833 149.895 148.159 150.295 147.872 150.906V149.933H146.374V156.488H147.872V153.042C147.872 151.992 148.596 151.381 149.545 151.381C149.757 151.381 149.907 151.393 150.095 151.418V149.92ZM154.26 156.488L156.657 149.933H155.11L153.524 154.69L151.926 149.933H150.353L152.75 156.488H154.26ZM157.304 149.058H158.852V147.523H157.304V149.058ZM158.827 149.933H157.33V156.488H158.828L158.827 149.933ZM163.036 156.625C164.347 156.625 165.383 155.938 165.846 154.79L164.559 154.303C164.359 154.977 163.773 155.351 163.036 155.351C162.075 155.351 161.4 154.665 161.288 153.541H165.883V153.041C165.883 151.244 164.872 149.808 162.973 149.808C161.151 149.808 159.853 151.293 159.853 153.216C159.853 155.239 161.163 156.625 163.036 156.625ZM162.961 151.069C163.911 151.069 164.359 151.693 164.372 152.417H161.362C161.588 151.531 162.186 151.069 162.961 151.069ZM169.931 149.933L168.769 154.278L167.583 149.933H166.047L168.02 156.488H169.318L170.517 152.192L171.716 156.488H173.014L174.987 149.933H173.501L172.34 154.278L171.166 149.933H169.931Z" fill="#635BFF"/>
<path d="M109.672 167.623H176.942V185.623H109.672V167.623Z" fill="white"/>
<path d="M125.602 177.14C125.602 175.017 126.776 173.582 128.436 173.582C129.597 173.582 130.434 174.256 130.759 175.392L131.895 175.017C131.37 173.469 130.147 172.52 128.436 172.52C126.114 172.52 124.403 174.406 124.403 177.14C124.403 179.874 126.113 181.76 128.436 181.76C130.146 181.76 131.37 180.811 131.895 179.263L130.759 178.888C130.434 180.024 129.597 180.698 128.436 180.698C126.776 180.698 125.602 179.263 125.602 177.14ZM138.59 178.364C138.59 176.341 137.341 174.967 135.555 174.967C133.77 174.967 132.521 176.341 132.521 178.364C132.521 180.386 133.77 181.76 135.556 181.76C137.341 181.76 138.59 180.386 138.59 178.364ZM133.658 178.364C133.658 176.865 134.407 175.916 135.556 175.916C136.704 175.916 137.453 176.865 137.453 178.364C137.453 179.849 136.704 180.798 135.555 180.798C134.407 180.798 133.658 179.849 133.658 178.364ZM141.005 177.714C141.005 176.653 141.805 176.016 142.553 176.016C143.477 176.016 143.852 176.703 143.852 177.614V181.622H144.975V177.714C144.975 176.653 145.775 176.016 146.524 176.016C147.448 176.016 147.822 176.703 147.822 177.614V181.622H148.946V177.315C148.946 175.929 148.134 174.967 146.786 174.967C146.373 174.965 145.967 175.066 145.603 175.26C145.239 175.454 144.929 175.735 144.701 176.079C144.376 175.404 143.764 174.967 142.891 174.967C141.979 174.967 141.355 175.442 141.005 175.979V175.092H139.881V181.622H141.005V177.714ZM153.767 181.76C155.577 181.76 156.614 180.212 156.614 178.364C156.614 176.503 155.577 174.967 153.767 174.967C152.855 174.967 152.131 175.404 151.744 176.041V175.092H150.62V183.87H151.744V180.673C152.131 181.323 152.855 181.76 153.767 181.76ZM151.719 178.139C151.719 176.616 152.643 175.954 153.567 175.954C154.791 175.954 155.477 176.953 155.477 178.364C155.477 179.762 154.791 180.773 153.567 180.773C152.643 180.773 151.719 180.099 151.719 178.601V178.139ZM162.604 180.199V176.828C162.604 175.629 161.704 174.967 160.256 174.967C158.858 174.967 157.772 175.629 157.672 177.015H158.771C158.858 176.316 159.332 175.954 160.194 175.954C160.993 175.954 161.517 176.266 161.517 176.99V177.39L159.894 177.714C158.434 178.002 157.409 178.551 157.409 179.849C157.409 181.023 158.383 181.735 159.569 181.735C160.419 181.735 161.143 181.423 161.542 180.948C161.555 181.21 161.567 181.435 161.592 181.622H162.704C162.641 181.21 162.604 180.686 162.604 180.199ZM161.517 179.4C161.517 180.236 160.681 180.823 159.719 180.823C159.008 180.823 158.533 180.436 158.533 179.799C158.533 179.013 159.195 178.738 160.193 178.538L161.517 178.264V179.4ZM164.283 181.622H165.406V177.727C165.406 176.641 166.23 176.016 167.042 176.016C168.016 176.016 168.402 176.703 168.402 177.614V181.622H169.526V177.315C169.526 175.929 168.74 174.967 167.354 174.967C166.43 174.967 165.781 175.442 165.406 175.979V175.092H164.282L164.283 181.622ZM173.579 182.334L176.388 175.092H175.214L173.404 180.087L171.568 175.092H170.382L172.804 181.385L172.492 182.159C172.23 182.809 171.968 182.983 171.481 182.983C171.294 182.983 171.156 182.971 170.944 182.921V183.895C171.144 183.932 171.281 183.945 171.556 183.945C172.692 183.945 173.204 183.321 173.579 182.334Z" fill="#4F5B76"/>
<path d="M109.672 192.758H180.942V210.758H109.672V192.758Z" fill="white"/>
<path d="M131.42 198.842V197.793H124.154V198.842H127.188V206.758H128.386V198.842H131.42ZM133.654 206.896C134.952 206.896 135.939 206.184 136.338 205.023L135.352 204.673C135.152 205.447 134.528 205.922 133.654 205.922C132.518 205.922 131.731 205.048 131.669 203.674H136.389V203.3C136.389 201.489 135.427 200.103 133.604 200.103C131.831 200.103 130.594 201.552 130.594 203.499C130.594 205.51 131.844 206.896 133.654 206.896ZM133.591 201.065C134.728 201.065 135.227 201.889 135.252 202.813H131.732C131.931 201.701 132.641 201.065 133.591 201.065ZM138.774 202.85C138.774 201.789 139.573 201.152 140.322 201.152C141.246 201.152 141.62 201.839 141.62 202.75V206.758H142.744V202.85C142.744 201.789 143.544 201.152 144.292 201.152C145.216 201.152 145.591 201.839 145.591 202.75V206.758H146.715V202.451C146.715 201.065 145.903 200.103 144.555 200.103C144.142 200.101 143.736 200.202 143.372 200.396C143.008 200.59 142.698 200.871 142.469 201.214C142.145 200.54 141.533 200.103 140.659 200.103C139.747 200.103 139.123 200.578 138.774 201.115V200.228H137.65V206.758H138.774V202.85ZM151.535 206.896C153.345 206.896 154.382 205.347 154.382 203.499C154.382 201.639 153.346 200.103 151.535 200.103C150.624 200.103 149.9 200.54 149.513 201.177V200.228H148.389V209.006H149.513V205.809C149.9 206.459 150.623 206.896 151.535 206.896ZM149.488 203.275C149.488 201.751 150.412 201.09 151.336 201.09C152.559 201.09 153.246 202.088 153.246 203.499C153.246 204.898 152.559 205.909 151.336 205.909C150.412 205.909 149.488 205.235 149.488 203.737V203.275ZM156.788 197.793H155.665V206.758H156.789L156.788 197.793ZM163.234 205.335V201.964C163.234 200.765 162.336 200.103 160.887 200.103C159.489 200.103 158.402 200.765 158.302 202.151H159.402C159.489 201.452 159.963 201.09 160.825 201.09C161.624 201.09 162.148 201.402 162.148 202.126V202.525L160.525 202.85C159.065 203.137 158.04 203.687 158.04 204.985C158.04 206.159 159.014 206.871 160.2 206.871C161.05 206.871 161.774 206.558 162.173 206.084C162.186 206.346 162.198 206.571 162.223 206.758H163.334C163.272 206.346 163.234 205.822 163.234 205.335ZM162.148 204.536C162.148 205.372 161.312 205.959 160.35 205.959C159.638 205.959 159.164 205.572 159.164 204.935C159.164 204.149 159.826 203.874 160.824 203.674L162.148 203.399V204.536ZM165.088 205.197C165.088 206.446 165.725 206.821 166.836 206.821C167.211 206.821 167.536 206.783 167.823 206.721V205.759C167.56 205.822 167.373 205.834 167.111 205.834C166.536 205.834 166.199 205.709 166.199 205.023V201.189H167.685V200.228H166.2V198.318H165.09V200.228H164.078V201.189H165.089L165.088 205.197ZM171.592 206.896C172.891 206.896 173.877 206.184 174.277 205.023L173.29 204.673C173.09 205.447 172.466 205.922 171.592 205.922C170.456 205.922 169.669 205.048 169.607 203.674H174.327V203.3C174.327 201.489 173.365 200.103 171.542 200.103C169.769 200.103 168.533 201.552 168.533 203.499C168.533 205.51 169.781 206.896 171.592 206.896ZM171.53 201.065C172.666 201.065 173.165 201.889 173.19 202.813H169.67C169.87 201.701 170.58 201.065 171.53 201.065ZM174.864 205.372C175.363 206.384 176.55 206.896 177.736 206.896C179.134 206.896 180.27 206.071 180.27 204.823C180.27 203.399 178.984 203.175 177.861 202.913C176.949 202.713 176.375 202.6 176.375 201.989C176.375 201.402 176.874 201.027 177.623 201.027C178.447 201.027 179.059 201.439 179.396 202.088L180.195 201.452C179.808 200.678 178.847 200.103 177.673 200.103C176.287 200.103 175.276 200.915 175.276 202.076C175.276 203.412 176.4 203.649 177.474 203.886C178.547 204.111 179.172 204.211 179.172 204.923C179.172 205.634 178.497 205.959 177.736 205.959C176.887 205.959 176.088 205.497 175.738 204.735L174.864 205.372Z" fill="#4F5B76"/>
<path d="M109.672 217.893H170.942V235.893H109.672V217.893Z" fill="white"/>
<path d="M126.126 228.135H128.349C130.247 228.135 131.458 227.211 131.458 225.525C131.458 223.815 130.247 222.928 128.348 222.928H124.928V231.893H126.126V228.135ZM126.126 227.098V223.964H128.286C129.56 223.964 130.272 224.514 130.272 225.525C130.272 226.537 129.56 227.098 128.286 227.098H126.126ZM137.02 230.47V227.098C137.02 225.9 136.12 225.238 134.672 225.238C133.274 225.238 132.188 225.9 132.088 227.286H133.187C133.274 226.586 133.748 226.224 134.61 226.224C135.409 226.224 135.933 226.537 135.933 227.261V227.66L134.31 227.985C132.85 228.272 131.826 228.821 131.826 230.12C131.826 231.294 132.8 232.005 133.986 232.005C134.835 232.005 135.559 231.693 135.958 231.219C135.971 231.481 135.983 231.706 136.008 231.893H137.12C137.057 231.481 137.02 230.957 137.02 230.47ZM135.933 229.67C135.933 230.507 135.097 231.094 134.135 231.094C133.424 231.094 132.949 230.707 132.949 230.07C132.949 229.283 133.611 229.009 134.609 228.809L135.933 228.534V229.67ZM142.083 225.338C141.933 225.321 141.783 225.313 141.633 225.313C140.746 225.313 140.109 225.812 139.823 226.474V225.363H138.699V231.893H139.822V228.322C139.822 227.173 140.584 226.424 141.532 226.424C141.745 226.424 141.895 226.437 142.082 226.474L142.083 225.338ZM143.43 230.332C143.43 231.581 144.067 231.955 145.178 231.955C145.553 231.955 145.878 231.918 146.165 231.855V230.894C145.903 230.957 145.715 230.969 145.453 230.969C144.879 230.969 144.542 230.844 144.542 230.157V226.324H146.028V225.363H144.542V223.453H143.43V225.363H142.42V226.324H143.431L143.43 230.332ZM147.361 231.893H148.485V227.997C148.485 226.911 149.309 226.287 150.121 226.287C151.095 226.287 151.481 226.974 151.481 227.885V231.893H152.606V227.585C152.606 226.199 151.819 225.238 150.433 225.238C149.509 225.238 148.86 225.712 148.485 226.249V225.363H147.362L147.361 231.893ZM156.881 232.03C158.18 232.03 159.166 231.319 159.566 230.157L158.579 229.808C158.379 230.582 157.755 231.056 156.881 231.056C155.745 231.056 154.959 230.182 154.896 228.809H159.616V228.434C159.616 226.624 158.654 225.238 156.831 225.238C155.058 225.238 153.822 226.686 153.822 228.634C153.822 230.644 155.071 232.03 156.882 232.03H156.881ZM156.819 226.199C157.955 226.199 158.455 227.023 158.479 227.947H154.959C155.159 226.836 155.87 226.199 156.819 226.199ZM164.261 225.338C164.111 225.321 163.961 225.313 163.811 225.313C162.925 225.313 162.288 225.812 162.001 226.474V225.363H160.877V231.893H162.001V228.322C162.001 227.173 162.763 226.424 163.711 226.424C163.924 226.424 164.074 226.437 164.261 226.474V225.338ZM164.515 230.507C165.015 231.518 166.201 232.03 167.387 232.03C168.785 232.03 169.921 231.206 169.921 229.958C169.921 228.534 168.635 228.31 167.511 228.047C166.601 227.848 166.026 227.735 166.026 227.123C166.026 226.537 166.526 226.162 167.275 226.162C168.099 226.162 168.71 226.574 169.047 227.223L169.847 226.586C169.46 225.812 168.498 225.238 167.324 225.238C165.939 225.238 164.927 226.05 164.927 227.211C164.927 228.547 166.051 228.784 167.125 229.021C168.198 229.246 168.823 229.346 168.823 230.058C168.823 230.769 168.149 231.094 167.387 231.094C166.537 231.094 165.739 230.632 165.389 229.87L164.515 230.507Z" fill="#4F5B76"/>
</g>
<path d="M110.564 142.488V160.325" stroke="#635BFF" stroke-width="1.784"/>
</g>
</g>
</g>
</g>
</g>
</g>
</g>
<g opacity="0.3">
<path d="M4 4.48047H504V333.81C504 336.02 502.209 337.81 500 337.81H8.00001C5.79087 337.81 4 336.02 4 333.81V4.48047Z" fill="url(#paint0_linear_4003_1050)"/>
</g>
</g>
<defs>
<filter id="filter0_d_4003_1050" x="323.717" y="142.518" width="538.676" height="40.2963" filterUnits="userSpaceOnUse" color-interpolation-filters="sRGB">
<feFlood flood-opacity="0" result="BackgroundImageFix"/>
<feColorMatrix in="SourceAlpha" type="matrix" values="0 0 0 0 0 0 0 0 0 0 0 0 0 0 0 0 0 0 127 0" result="hardAlpha"/>
<feOffset dy="0.892"/>
<feComposite in2="hardAlpha" operator="out"/>
<feColorMatrix type="matrix" values="0 0 0 0 0.898039 0 0 0 0 0.917647 0 0 0 0 0.941176 0 0 0 1 0"/>
<feBlend mode="normal" in2="BackgroundImageFix" result="effect1_dropShadow_4003_1050"/>
<feBlend mode="normal" in="SourceGraphic" in2="effect1_dropShadow_4003_1050" result="shape"/>
</filter>
<filter id="filter1_d_4003_1050" x="323.604" y="182.812" width="538.789" height="40.2963" filterUnits="userSpaceOnUse" color-interpolation-filters="sRGB">
<feFlood flood-opacity="0" result="BackgroundImageFix"/>
<feColorMatrix in="SourceAlpha" type="matrix" values="0 0 0 0 0 0 0 0 0 0 0 0 0 0 0 0 0 0 127 0" result="hardAlpha"/>
<feOffset dy="0.892"/>
<feComposite in2="hardAlpha" operator="out"/>
<feColorMatrix type="matrix" values="0 0 0 0 0.898039 0 0 0 0 0.917647 0 0 0 0 0.941176 0 0 0 1 0"/>
<feBlend mode="normal" in2="BackgroundImageFix" result="effect1_dropShadow_4003_1050"/>
<feBlend mode="normal" in="SourceGraphic" in2="effect1_dropShadow_4003_1050" result="shape"/>
</filter>
<filter id="filter2_d_4003_1050" x="323.717" y="223.109" width="538.676" height="40.2963" filterUnits="userSpaceOnUse" color-interpolation-filters="sRGB">
<feFlood flood-opacity="0" result="BackgroundImageFix"/>
<feColorMatrix in="SourceAlpha" type="matrix" values="0 0 0 0 0 0 0 0 0 0 0 0 0 0 0 0 0 0 127 0" result="hardAlpha"/>
<feOffset dy="0.892"/>
<feComposite in2="hardAlpha" operator="out"/>
<feColorMatrix type="matrix" values="0 0 0 0 0.898039 0 0 0 0 0.917647 0 0 0 0 0.941176 0 0 0 1 0"/>
<feBlend mode="normal" in2="BackgroundImageFix" result="effect1_dropShadow_4003_1050"/>
<feBlend mode="normal" in="SourceGraphic" in2="effect1_dropShadow_4003_1050" result="shape"/>
</filter>
<filter id="filter3_d_4003_1050" x="323.717" y="263.404" width="538.676" height="40.2963" filterUnits="userSpaceOnUse" color-interpolation-filters="sRGB">
<feFlood flood-opacity="0" result="BackgroundImageFix"/>
<feColorMatrix in="SourceAlpha" type="matrix" values="0 0 0 0 0 0 0 0 0 0 0 0 0 0 0 0 0 0 127 0" result="hardAlpha"/>
<feOffset dy="0.892"/>
<feComposite in2="hardAlpha" operator="out"/>
<feColorMatrix type="matrix" values="0 0 0 0 0.898039 0 0 0 0 0.917647 0 0 0 0 0.941176 0 0 0 1 0"/>
<feBlend mode="normal" in2="BackgroundImageFix" result="effect1_dropShadow_4003_1050"/>
<feBlend mode="normal" in="SourceGraphic" in2="effect1_dropShadow_4003_1050" result="shape"/>
</filter>
<filter id="filter4_d_4003_1050" x="323.717" y="303.701" width="538.676" height="40.2963" filterUnits="userSpaceOnUse" color-interpolation-filters="sRGB">
<feFlood flood-opacity="0" result="BackgroundImageFix"/>
<feColorMatrix in="SourceAlpha" type="matrix" values="0 0 0 0 0 0 0 0 0 0 0 0 0 0 0 0 0 0 127 0" result="hardAlpha"/>
<feOffset dy="0.892"/>
<feComposite in2="hardAlpha" operator="out"/>
<feColorMatrix type="matrix" values="0 0 0 0 0.898039 0 0 0 0 0.917647 0 0 0 0 0.941176 0 0 0 1 0"/>
<feBlend mode="normal" in2="BackgroundImageFix" result="effect1_dropShadow_4003_1050"/>
<feBlend mode="normal" in="SourceGraphic" in2="effect1_dropShadow_4003_1050" result="shape"/>
</filter>
<filter id="filter5_d_4003_1050" x="109.672" y="142.488" width="73.054" height="93.4043" filterUnits="userSpaceOnUse" color-interpolation-filters="sRGB">
<feFlood flood-opacity="0" result="BackgroundImageFix"/>
<feColorMatrix in="SourceAlpha" type="matrix" values="0 0 0 0 0 0 0 0 0 0 0 0 0 0 0 0 0 0 127 0" result="hardAlpha"/>
<feOffset dx="1.784"/>
<feComposite in2="hardAlpha" operator="out"/>
<feColorMatrix type="matrix" values="0 0 0 0 0.423529 0 0 0 0 0.54902 0 0 0 0 0.670588 0 0 0 0.15 0"/>
<feBlend mode="normal" in2="BackgroundImageFix" result="effect1_dropShadow_4003_1050"/>
<feBlend mode="normal" in="SourceGraphic" in2="effect1_dropShadow_4003_1050" result="shape"/>
</filter>
<linearGradient id="paint0_linear_4003_1050" x1="254" y1="4.48047" x2="254" y2="337.81" gradientUnits="userSpaceOnUse">
<stop stop-color="#BEC9DC" stop-opacity="0"/>
<stop offset="1" stop-color="#BEC9DC" stop-opacity="0.4"/>
</linearGradient>
<clipPath id="clip0_4003_1050">
<rect x="4" y="4.48047" width="500" height="333.33" rx="4" fill="white"/>
</clipPath>
<clipPath id="clip1_4003_1050">
<rect x="4" y="4.48047" width="500" height="333.33" rx="4" fill="white"/>
</clipPath>
<clipPath id="clip2_4003_1050">
<rect width="500" height="333.33" fill="white" transform="translate(74 71.1406)"/>
</clipPath>
<clipPath id="clip3_4003_1050">
<rect x="74" y="71.1406" width="434" height="272" rx="8" fill="white"/>
</clipPath>
<clipPath id="clip4_4003_1050">
<rect width="434" height="272" fill="white" transform="translate(74 71.1406)"/>
</clipPath>
<clipPath id="clip5_4003_1050">
<rect width="434" height="272" fill="white" transform="translate(74 71.1406)"/>
</clipPath>
<clipPath id="clip6_4003_1050">
<rect width="434" height="272" fill="white" transform="translate(74 71.1406)"/>
</clipPath>
</defs>
</svg>
