<svg width="200" height="41" viewBox="0 0 200 41" fill="none" xmlns="http://www.w3.org/2000/svg">
<path d="M111.852 20.4809C111.852 27.0309 106.55 32.3329 99.9999 32.3329V20.4809H111.852ZM99.9999 8.62891V20.4809H88.1479C88.1479 13.9309 93.4499 8.62891 99.9999 8.62891Z" fill="#AAB4C1"/>
<path d="M99.9999 8.62891C106.55 8.62891 111.852 13.9309 111.852 20.4789H99.9999V8.62891ZM88.1479 20.4789H99.9999V32.3319C93.4499 32.3319 88.1479 27.0289 88.1479 20.4789Z" fill="white"/>
<path d="M100 8.62847V9.27847C106.176 9.27847 111.202 14.3035 111.202 20.4805H111.851C111.851 13.9355 106.546 8.62847 100 8.62847ZM100 31.6825C93.824 31.6825 88.798 26.6575 88.798 20.4805H88.148C88.148 27.0255 93.454 32.3325 100 32.3325M100 0.480469C88.955 0.480469 80 9.43547 80 20.4805C80 31.5255 88.955 40.4805 100 40.4805C111.045 40.4805 120 31.5255 120 20.4805C120 9.43547 111.045 0.480469 100 0.480469ZM118.7 20.4805C118.7 30.8075 110.328 39.1805 100 39.1805C89.672 39.1805 81.3 30.8075 81.3 20.4805C81.3 10.1535 89.673 1.78047 100 1.78047C110.327 1.78047 118.7 10.1535 118.7 20.4805Z" fill="#AAB4C1"/>
<path d="M91.4528 10.8312C92.0928 10.1632 92.4538 9.39122 91.8158 8.65322C91.4678 8.25322 90.8828 8.16622 90.3998 8.36322L90.3508 8.38122L90.3668 8.33922C90.4378 8.14922 90.4838 7.54222 89.9628 7.12422C89.8376 7.02591 89.6941 6.95338 89.5406 6.91081C89.3872 6.86825 89.2268 6.85649 89.0688 6.87622C88.4688 6.93622 88.0068 7.34422 86.7508 8.73622C86.3128 9.22622 85.8908 9.73022 85.4868 10.2472L88.9398 13.5002C90.0838 12.2422 90.5498 11.7762 91.4528 10.8312ZM86.9478 10.0362C87.6438 9.19022 88.3818 8.42422 88.7168 8.12122C88.8218 8.02522 88.9368 7.93122 89.0768 7.89222C89.3038 7.83022 89.5368 7.99022 89.5908 8.22222C89.6438 8.45422 89.4968 8.67422 89.3338 8.85622C88.9658 9.26822 87.6168 10.6692 87.6168 10.6692L86.9468 10.0352L86.9478 10.0362ZM88.2998 11.3102C88.2998 11.3102 89.6128 9.93022 90.0418 9.49022C90.2118 9.31522 90.3218 9.20922 90.4388 9.15122C90.5908 9.07822 90.7558 9.06322 90.9048 9.16122C90.9744 9.20641 91.0285 9.27185 91.0598 9.34874C91.0911 9.42562 91.0981 9.51025 91.0798 9.59122C91.0368 9.78722 90.8748 9.97522 90.7398 10.1192L88.9998 11.9692L88.2998 11.3102ZM100.395 6.95222L101.5 4.49222L101.571 4.27422L101.551 4.50222L101.667 7.78822C102.063 7.82622 102.458 7.87822 102.85 7.94422L102.67 3.07622C102.121 3.01637 101.57 2.97402 101.019 2.94922L99.9298 5.63322L99.8918 5.83322L99.8518 5.63322L98.7638 2.94922C98.2138 2.97222 97.6638 3.01522 97.1118 3.07622L96.9318 7.94422C97.3248 7.87922 97.7198 7.82722 98.1158 7.78822L98.2318 4.50222L98.2118 4.27422L98.2818 4.49422L99.3878 6.95222H100.395ZM109.576 12.0402C109.848 12.3302 110.239 12.7962 110.459 13.0802L114.504 10.5292C114.256 10.2095 114.001 9.89545 113.739 9.58722L111.177 11.2692L111.003 11.4192L111.133 11.2292L112.265 8.98722L111.465 8.19222L109.205 9.31622L109.015 9.44522L109.166 9.27122L110.862 6.72822C110.551 6.46641 110.234 6.21233 109.911 5.96622L107.343 9.98022C107.668 10.2282 108.097 10.5942 108.371 10.8422L110.788 9.59622L110.944 9.48322L110.83 9.63622L109.576 12.0402Z" fill="#AAB4C1"/>
</svg>
