<svg width="508" height="339" viewBox="0 0 508 339" fill="none" xmlns="http://www.w3.org/2000/svg">
<g clip-path="url(#clip0_4003_1132)">
<rect x="4" y="4.80078" width="500" height="333.33" rx="4" fill="#F6F9FC"/>
<g clip-path="url(#clip1_4003_1132)">
<g clip-path="url(#clip2_4003_1132)">
<g clip-path="url(#clip3_4003_1132)">
<rect x="74" y="71.4512" width="460" height="363" rx="8" fill="white"/>
<rect width="460" height="363" transform="translate(74 71.4512)" fill="white"/>
<path d="M112.958 111.451V102.735H118.422V103.867H114.273V106.523H118.137V107.651H114.273V110.319H118.473V111.451H112.958ZM120.276 111.451V104.914H121.498V105.978H121.579C121.715 105.618 121.938 105.337 122.247 105.136C122.556 104.931 122.926 104.829 123.358 104.829C123.795 104.829 124.161 104.931 124.456 105.136C124.754 105.34 124.973 105.621 125.115 105.978H125.183C125.339 105.629 125.588 105.351 125.928 105.144C126.269 104.934 126.674 104.829 127.145 104.829C127.738 104.829 128.222 105.015 128.597 105.387C128.974 105.758 129.163 106.319 129.163 107.068V111.451H127.89V107.187C127.89 106.744 127.77 106.424 127.528 106.225C127.287 106.026 126.999 105.927 126.664 105.927C126.25 105.927 125.928 106.055 125.698 106.31C125.469 106.563 125.354 106.888 125.354 107.285V111.451H124.085V107.106C124.085 106.751 123.975 106.466 123.753 106.251C123.532 106.035 123.244 105.927 122.89 105.927C122.648 105.927 122.426 105.991 122.221 106.119C122.02 106.243 121.857 106.418 121.732 106.642C121.61 106.866 121.549 107.126 121.549 107.421V111.451H120.276ZM132.97 111.596C132.556 111.596 132.182 111.519 131.847 111.366C131.512 111.21 131.247 110.984 131.051 110.689C130.858 110.394 130.762 110.033 130.762 109.604C130.762 109.235 130.833 108.932 130.975 108.693C131.116 108.455 131.308 108.266 131.549 108.127C131.79 107.988 132.06 107.883 132.358 107.812C132.656 107.742 132.959 107.688 133.268 107.651C133.66 107.605 133.978 107.568 134.222 107.54C134.466 107.509 134.643 107.459 134.754 107.391C134.864 107.323 134.92 107.212 134.92 107.059V107.029C134.92 106.658 134.815 106.37 134.605 106.165C134.398 105.961 134.088 105.859 133.677 105.859C133.249 105.859 132.911 105.954 132.664 106.144C132.42 106.331 132.251 106.54 132.158 106.77L130.962 106.497C131.104 106.1 131.311 105.78 131.583 105.536C131.858 105.289 132.175 105.11 132.532 104.999C132.89 104.886 133.266 104.829 133.66 104.829C133.921 104.829 134.198 104.86 134.49 104.923C134.785 104.982 135.06 105.093 135.315 105.255C135.574 105.416 135.785 105.648 135.95 105.948C136.114 106.246 136.196 106.634 136.196 107.11V111.451H134.954V110.557H134.903C134.82 110.722 134.697 110.884 134.532 111.043C134.368 111.201 134.156 111.333 133.898 111.438C133.64 111.543 133.331 111.596 132.97 111.596ZM133.247 110.574C133.599 110.574 133.9 110.505 134.149 110.366C134.402 110.227 134.593 110.045 134.724 109.821C134.857 109.594 134.924 109.352 134.924 109.093V108.251C134.879 108.296 134.791 108.339 134.66 108.378C134.532 108.415 134.386 108.448 134.222 108.476C134.057 108.502 133.897 108.526 133.741 108.549C133.585 108.569 133.454 108.586 133.349 108.6C133.102 108.631 132.877 108.683 132.673 108.757C132.471 108.831 132.309 108.937 132.187 109.076C132.068 109.213 132.009 109.394 132.009 109.621C132.009 109.936 132.125 110.174 132.358 110.336C132.59 110.495 132.887 110.574 133.247 110.574ZM138.091 111.451V104.914H139.364V111.451H138.091ZM138.734 103.906C138.513 103.906 138.323 103.832 138.164 103.684C138.008 103.534 137.93 103.355 137.93 103.148C137.93 102.938 138.008 102.759 138.164 102.612C138.323 102.461 138.513 102.386 138.734 102.386C138.955 102.386 139.144 102.461 139.3 102.612C139.459 102.759 139.538 102.938 139.538 103.148C139.538 103.355 139.459 103.534 139.3 103.684C139.144 103.832 138.955 103.906 138.734 103.906ZM142.548 102.735V111.451H141.276V102.735H142.548Z" fill="#0A2540"/>
<rect x="112.5" y="121.951" width="383" height="39" rx="5.5" fill="white"/>
<rect x="112.5" y="121.951" width="383" height="39" rx="5.5" stroke="#E6EBF1"/>
<path d="M125.776 139.019H126.931V145.337C126.931 145.734 126.859 146.069 126.715 146.341C126.573 146.614 126.362 146.822 126.081 146.963C125.803 147.105 125.46 147.176 125.05 147.176C125.009 147.176 124.97 147.176 124.934 147.176C124.896 147.176 124.856 147.174 124.815 147.172V146.179C124.851 146.179 124.883 146.179 124.911 146.179C124.937 146.179 124.967 146.179 125 146.179C125.273 146.179 125.47 146.106 125.591 145.959C125.714 145.815 125.776 145.605 125.776 145.33V139.019ZM126.348 138.104C126.147 138.104 125.974 138.037 125.83 137.903C125.689 137.767 125.618 137.605 125.618 137.417C125.618 137.226 125.689 137.064 125.83 136.93C125.974 136.794 126.147 136.725 126.348 136.725C126.549 136.725 126.72 136.794 126.861 136.93C127.006 137.064 127.078 137.226 127.078 137.417C127.078 137.605 127.006 137.767 126.861 137.903C126.72 138.037 126.549 138.104 126.348 138.104ZM130.411 145.082C130.035 145.082 129.695 145.013 129.391 144.874C129.087 144.732 128.847 144.528 128.669 144.26C128.494 143.992 128.406 143.664 128.406 143.275C128.406 142.94 128.471 142.665 128.599 142.449C128.728 142.232 128.902 142.061 129.121 141.935C129.34 141.809 129.584 141.714 129.855 141.649C130.125 141.585 130.4 141.536 130.681 141.503C131.036 141.461 131.325 141.428 131.546 141.402C131.767 141.374 131.928 141.329 132.029 141.267C132.129 141.205 132.179 141.105 132.179 140.966V140.939C132.179 140.601 132.084 140.34 131.894 140.155C131.706 139.969 131.425 139.877 131.052 139.877C130.663 139.877 130.357 139.963 130.133 140.135C129.911 140.305 129.758 140.495 129.673 140.703L128.588 140.456C128.717 140.096 128.904 139.805 129.152 139.583C129.401 139.359 129.688 139.197 130.013 139.097C130.337 138.994 130.678 138.942 131.036 138.942C131.273 138.942 131.524 138.97 131.789 139.027C132.057 139.081 132.307 139.182 132.539 139.328C132.773 139.475 132.965 139.685 133.114 139.958C133.263 140.228 133.338 140.58 133.338 141.012V144.951H132.21V144.14H132.164C132.089 144.29 131.977 144.436 131.828 144.58C131.679 144.725 131.487 144.844 131.253 144.94C131.018 145.035 130.738 145.082 130.411 145.082ZM130.662 144.156C130.981 144.156 131.254 144.093 131.48 143.966C131.709 143.84 131.883 143.675 132.002 143.472C132.123 143.266 132.183 143.046 132.183 142.812V142.047C132.142 142.088 132.062 142.127 131.944 142.163C131.828 142.196 131.695 142.226 131.546 142.252C131.397 142.275 131.251 142.297 131.11 142.317C130.968 142.335 130.85 142.351 130.754 142.364C130.53 142.392 130.326 142.44 130.14 142.507C129.957 142.574 129.811 142.67 129.7 142.796C129.592 142.92 129.538 143.085 129.538 143.291C129.538 143.576 129.643 143.793 129.855 143.939C130.066 144.084 130.335 144.156 130.662 144.156ZM136.231 141.429V144.951H135.076V139.019H136.184V139.985H136.258C136.394 139.671 136.608 139.418 136.899 139.228C137.192 139.037 137.562 138.942 138.007 138.942C138.411 138.942 138.765 139.027 139.069 139.197C139.373 139.364 139.608 139.614 139.776 139.946C139.943 140.278 140.027 140.689 140.027 141.178V144.951H138.872V141.317C138.872 140.887 138.76 140.551 138.536 140.309C138.312 140.065 138.004 139.942 137.613 139.942C137.345 139.942 137.107 140 136.899 140.116C136.693 140.232 136.529 140.402 136.408 140.626C136.29 140.847 136.231 141.115 136.231 141.429ZM144.332 145.071C143.748 145.071 143.244 144.946 142.822 144.696C142.402 144.444 142.078 144.09 141.849 143.634C141.622 143.176 141.509 142.639 141.509 142.024C141.509 141.416 141.622 140.881 141.849 140.417C142.078 139.954 142.397 139.592 142.807 139.332C143.218 139.072 143.7 138.942 144.251 138.942C144.586 138.942 144.91 138.997 145.224 139.108C145.538 139.219 145.82 139.393 146.07 139.63C146.32 139.866 146.516 140.174 146.661 140.553C146.805 140.928 146.877 141.385 146.877 141.923V142.333H142.162V141.468H145.745C145.745 141.164 145.684 140.895 145.56 140.661C145.436 140.424 145.263 140.237 145.039 140.101C144.817 139.964 144.557 139.896 144.259 139.896C143.934 139.896 143.651 139.976 143.409 140.135C143.17 140.292 142.984 140.498 142.853 140.753C142.724 141.006 142.66 141.28 142.66 141.576V142.252C142.66 142.648 142.729 142.985 142.868 143.264C143.01 143.542 143.207 143.754 143.459 143.901C143.711 144.045 144.006 144.117 144.344 144.117C144.562 144.117 144.762 144.086 144.942 144.024C145.122 143.96 145.278 143.865 145.409 143.739C145.541 143.612 145.641 143.457 145.711 143.271L146.804 143.468C146.716 143.79 146.559 144.072 146.332 144.314C146.108 144.553 145.826 144.74 145.487 144.874C145.149 145.005 144.764 145.071 144.332 145.071ZM149.119 145.025C148.908 145.025 148.726 144.95 148.574 144.801C148.422 144.649 148.347 144.466 148.347 144.252C148.347 144.041 148.422 143.861 148.574 143.712C148.726 143.56 148.908 143.484 149.119 143.484C149.33 143.484 149.512 143.56 149.663 143.712C149.815 143.861 149.891 144.041 149.891 144.252C149.891 144.394 149.855 144.524 149.783 144.642C149.714 144.758 149.621 144.851 149.505 144.92C149.389 144.99 149.26 145.025 149.119 145.025ZM153.858 145.067C153.38 145.067 152.952 144.945 152.576 144.7C152.203 144.453 151.91 144.102 151.696 143.646C151.485 143.188 151.379 142.638 151.379 141.997C151.379 141.356 151.486 140.807 151.7 140.352C151.916 139.896 152.212 139.547 152.588 139.305C152.964 139.063 153.39 138.942 153.866 138.942C154.234 138.942 154.53 139.004 154.754 139.127C154.981 139.248 155.156 139.39 155.28 139.552C155.406 139.714 155.504 139.857 155.573 139.981H155.643V137.042H156.797V144.951H155.67V144.028H155.573C155.504 144.154 155.403 144.299 155.272 144.461C155.143 144.623 154.966 144.765 154.739 144.886C154.512 145.007 154.219 145.067 153.858 145.067ZM154.113 144.082C154.446 144.082 154.726 143.995 154.955 143.82C155.187 143.642 155.362 143.396 155.48 143.082C155.601 142.768 155.662 142.402 155.662 141.985C155.662 141.573 155.603 141.213 155.484 140.904C155.366 140.595 155.192 140.354 154.963 140.182C154.734 140.009 154.451 139.923 154.113 139.923C153.766 139.923 153.476 140.013 153.244 140.193C153.013 140.374 152.838 140.619 152.719 140.931C152.603 141.242 152.545 141.594 152.545 141.985C152.545 142.382 152.605 142.738 152.723 143.055C152.842 143.372 153.017 143.623 153.248 143.808C153.483 143.991 153.771 144.082 154.113 144.082ZM158.645 144.951V139.019H159.8V144.951H158.645ZM159.229 138.104C159.028 138.104 158.855 138.037 158.711 137.903C158.569 137.767 158.499 137.605 158.499 137.417C158.499 137.226 158.569 137.064 158.711 136.93C158.855 136.794 159.028 136.725 159.229 136.725C159.429 136.725 159.601 136.794 159.742 136.93C159.886 137.064 159.958 137.226 159.958 137.417C159.958 137.605 159.886 137.767 159.742 137.903C159.601 138.037 159.429 138.104 159.229 138.104ZM163.28 145.082C162.904 145.082 162.564 145.013 162.26 144.874C161.956 144.732 161.716 144.528 161.538 144.26C161.363 143.992 161.276 143.664 161.276 143.275C161.276 142.94 161.34 142.665 161.469 142.449C161.597 142.232 161.771 142.061 161.99 141.935C162.209 141.809 162.453 141.714 162.724 141.649C162.994 141.585 163.27 141.536 163.55 141.503C163.905 141.461 164.194 141.428 164.415 141.402C164.637 141.374 164.798 141.329 164.898 141.267C164.998 141.205 165.049 141.105 165.049 140.966V140.939C165.049 140.601 164.953 140.34 164.763 140.155C164.575 139.969 164.294 139.877 163.921 139.877C163.532 139.877 163.226 139.963 163.002 140.135C162.78 140.305 162.627 140.495 162.542 140.703L161.457 140.456C161.586 140.096 161.774 139.805 162.021 139.583C162.271 139.359 162.558 139.197 162.882 139.097C163.206 138.994 163.548 138.942 163.905 138.942C164.142 138.942 164.393 138.97 164.658 139.027C164.926 139.081 165.176 139.182 165.408 139.328C165.642 139.475 165.834 139.685 165.983 139.958C166.132 140.228 166.207 140.58 166.207 141.012V144.951H165.079V144.14H165.033C164.958 144.29 164.846 144.436 164.697 144.58C164.548 144.725 164.356 144.844 164.122 144.94C163.887 145.035 163.607 145.082 163.28 145.082ZM163.531 144.156C163.85 144.156 164.123 144.093 164.35 143.966C164.579 143.84 164.752 143.675 164.871 143.472C164.992 143.266 165.052 143.046 165.052 142.812V142.047C165.011 142.088 164.931 142.127 164.813 142.163C164.697 142.196 164.565 142.226 164.415 142.252C164.266 142.275 164.12 142.297 163.979 142.317C163.837 142.335 163.719 142.351 163.624 142.364C163.4 142.392 163.195 142.44 163.009 142.507C162.827 142.574 162.68 142.67 162.569 142.796C162.461 142.92 162.407 143.085 162.407 143.291C162.407 143.576 162.513 143.793 162.724 143.939C162.935 144.084 163.204 144.156 163.531 144.156ZM167.822 144.951V144.159L171.035 140.078V140.023H167.926V139.019H172.475V139.861L169.386 143.893V143.947H172.583V144.951H167.822ZM178.907 147.102C178.109 147.102 177.401 146.993 176.783 146.774C176.168 146.558 175.649 146.238 175.227 145.816C174.805 145.397 174.484 144.882 174.265 144.271C174.046 143.661 173.937 142.965 173.937 142.182C173.937 141.42 174.048 140.735 174.269 140.128C174.49 139.52 174.812 139.003 175.234 138.575C175.659 138.145 176.175 137.817 176.783 137.59C177.391 137.364 178.081 137.251 178.853 137.251C179.592 137.251 180.243 137.366 180.807 137.598C181.371 137.83 181.845 138.148 182.228 138.552C182.615 138.956 182.905 139.42 183.101 139.942C183.297 140.465 183.395 141.017 183.395 141.599C183.395 142.006 183.369 142.404 183.317 142.792C183.266 143.179 183.171 143.529 183.032 143.843C182.895 144.154 182.697 144.404 182.437 144.592C182.179 144.777 181.845 144.874 181.433 144.882C181.214 144.889 181.002 144.864 180.796 144.804C180.59 144.745 180.415 144.65 180.27 144.519C180.126 144.385 180.039 144.215 180.008 144.009H179.961C179.9 144.161 179.797 144.302 179.652 144.434C179.508 144.562 179.324 144.665 179.1 144.743C178.879 144.817 178.621 144.848 178.328 144.835C178.003 144.822 177.711 144.749 177.451 144.615C177.191 144.481 176.968 144.296 176.783 144.059C176.6 143.822 176.46 143.542 176.362 143.217C176.264 142.893 176.215 142.532 176.215 142.136C176.215 141.755 176.271 141.414 176.381 141.112C176.492 140.809 176.643 140.547 176.833 140.329C177.026 140.107 177.248 139.932 177.498 139.803C177.747 139.675 178.011 139.593 178.289 139.56C178.56 139.529 178.808 139.537 179.035 139.583C179.261 139.63 179.449 139.7 179.598 139.796C179.75 139.891 179.846 139.995 179.884 140.108H179.934V139.676H180.884V143.26C180.884 143.463 180.937 143.636 181.043 143.777C181.151 143.919 181.304 143.99 181.502 143.99C181.737 143.99 181.919 143.903 182.051 143.731C182.185 143.558 182.279 143.293 182.333 142.935C182.389 142.577 182.418 142.119 182.418 141.56C182.418 141.169 182.365 140.801 182.259 140.456C182.156 140.108 182.003 139.794 181.8 139.514C181.599 139.23 181.352 138.987 181.058 138.784C180.765 138.58 180.43 138.423 180.054 138.313C179.681 138.202 179.268 138.147 178.814 138.147C178.199 138.147 177.652 138.242 177.173 138.432C176.694 138.62 176.29 138.892 175.961 139.247C175.634 139.602 175.385 140.029 175.215 140.525C175.048 141.02 174.964 141.575 174.964 142.19C174.964 142.831 175.05 143.4 175.223 143.897C175.395 144.391 175.65 144.808 175.988 145.148C176.325 145.488 176.742 145.745 177.239 145.92C177.736 146.098 178.309 146.187 178.957 146.187C179.246 146.187 179.529 146.161 179.807 146.11C180.085 146.061 180.332 146.004 180.548 145.94C180.767 145.878 180.931 145.828 181.039 145.789L181.309 146.635C181.15 146.71 180.937 146.783 180.672 146.855C180.409 146.927 180.124 146.986 179.815 147.033C179.508 147.079 179.206 147.102 178.907 147.102ZM178.552 143.889C178.887 143.889 179.156 143.822 179.359 143.688C179.565 143.554 179.713 143.355 179.803 143.09C179.896 142.822 179.942 142.487 179.942 142.086C179.94 141.694 179.889 141.383 179.791 141.151C179.696 140.917 179.547 140.749 179.344 140.649C179.143 140.546 178.884 140.495 178.567 140.495C178.276 140.495 178.028 140.565 177.822 140.707C177.619 140.849 177.463 141.04 177.355 141.282C177.249 141.524 177.195 141.793 177.192 142.09C177.195 142.401 177.239 142.695 177.324 142.97C177.411 143.243 177.553 143.464 177.749 143.634C177.947 143.804 178.215 143.889 178.552 143.889ZM187.427 145.071C186.842 145.071 186.339 144.946 185.917 144.696C185.497 144.444 185.172 144.09 184.943 143.634C184.717 143.176 184.604 142.639 184.604 142.024C184.604 141.416 184.717 140.881 184.943 140.417C185.172 139.954 185.492 139.592 185.901 139.332C186.313 139.072 186.794 138.942 187.345 138.942C187.68 138.942 188.005 138.997 188.319 139.108C188.633 139.219 188.915 139.393 189.164 139.63C189.414 139.866 189.611 140.174 189.755 140.553C189.899 140.928 189.972 141.385 189.972 141.923V142.333H185.256V141.468H188.84C188.84 141.164 188.778 140.895 188.655 140.661C188.531 140.424 188.357 140.237 188.133 140.101C187.912 139.964 187.652 139.896 187.353 139.896C187.029 139.896 186.746 139.976 186.504 140.135C186.264 140.292 186.079 140.498 185.947 140.753C185.819 141.006 185.754 141.28 185.754 141.576V142.252C185.754 142.648 185.824 142.985 185.963 143.264C186.104 143.542 186.301 143.754 186.554 143.901C186.806 144.045 187.101 144.117 187.438 144.117C187.657 144.117 187.856 144.086 188.037 144.024C188.217 143.96 188.373 143.865 188.504 143.739C188.635 143.612 188.736 143.457 188.805 143.271L189.898 143.468C189.811 143.79 189.654 144.072 189.427 144.314C189.203 144.553 188.921 144.74 188.581 144.874C188.244 145.005 187.859 145.071 187.427 145.071ZM192.226 139.019L193.535 141.329L194.856 139.019H196.119L194.269 141.985L196.134 144.951H194.871L193.535 142.734L192.203 144.951H190.936L192.782 141.985L190.959 139.019H192.226ZM199.22 145.082C198.844 145.082 198.504 145.013 198.2 144.874C197.897 144.732 197.656 144.528 197.478 144.26C197.303 143.992 197.216 143.664 197.216 143.275C197.216 142.94 197.28 142.665 197.409 142.449C197.538 142.232 197.711 142.061 197.93 141.935C198.149 141.809 198.394 141.714 198.664 141.649C198.934 141.585 199.21 141.536 199.49 141.503C199.846 141.461 200.134 141.428 200.355 141.402C200.577 141.374 200.738 141.329 200.838 141.267C200.939 141.205 200.989 141.105 200.989 140.966V140.939C200.989 140.601 200.893 140.34 200.703 140.155C200.515 139.969 200.234 139.877 199.861 139.877C199.472 139.877 199.166 139.963 198.942 140.135C198.721 140.305 198.567 140.495 198.482 140.703L197.397 140.456C197.526 140.096 197.714 139.805 197.961 139.583C198.211 139.359 198.498 139.197 198.822 139.097C199.147 138.994 199.488 138.942 199.846 138.942C200.082 138.942 200.333 138.97 200.599 139.027C200.866 139.081 201.116 139.182 201.348 139.328C201.582 139.475 201.774 139.685 201.923 139.958C202.073 140.228 202.147 140.58 202.147 141.012V144.951H201.02V144.14H200.973C200.899 144.29 200.787 144.436 200.637 144.58C200.488 144.725 200.296 144.844 200.062 144.94C199.828 145.035 199.547 145.082 199.22 145.082ZM199.471 144.156C199.79 144.156 200.063 144.093 200.29 143.966C200.519 143.84 200.693 143.675 200.811 143.472C200.932 143.266 200.993 143.046 200.993 142.812V142.047C200.951 142.088 200.872 142.127 200.753 142.163C200.637 142.196 200.505 142.226 200.355 142.252C200.206 142.275 200.061 142.297 199.919 142.317C199.777 142.335 199.659 142.351 199.564 142.364C199.34 142.392 199.135 142.44 198.95 142.507C198.767 142.574 198.62 142.67 198.509 142.796C198.401 142.92 198.347 143.085 198.347 143.291C198.347 143.576 198.453 143.793 198.664 143.939C198.875 144.084 199.144 144.156 199.471 144.156ZM203.885 144.951V139.019H204.994V139.985H205.067C205.191 139.658 205.393 139.403 205.673 139.22C205.954 139.035 206.29 138.942 206.681 138.942C207.078 138.942 207.41 139.035 207.678 139.22C207.948 139.406 208.147 139.66 208.276 139.985H208.338C208.48 139.668 208.705 139.416 209.014 139.228C209.323 139.037 209.691 138.942 210.118 138.942C210.656 138.942 211.095 139.111 211.435 139.448C211.778 139.785 211.949 140.294 211.949 140.973V144.951H210.794V141.082C210.794 140.68 210.685 140.389 210.466 140.209C210.247 140.029 209.986 139.938 209.682 139.938C209.306 139.938 209.014 140.054 208.805 140.286C208.597 140.515 208.492 140.81 208.492 141.17V144.951H207.342V141.008C207.342 140.686 207.241 140.428 207.04 140.232C206.84 140.036 206.578 139.938 206.256 139.938C206.038 139.938 205.836 139.996 205.65 140.112C205.467 140.226 205.319 140.384 205.206 140.587C205.095 140.791 205.04 141.026 205.04 141.294V144.951H203.885ZM213.696 147.176V139.019H214.824V139.981H214.921C214.988 139.857 215.084 139.714 215.21 139.552C215.336 139.39 215.512 139.248 215.736 139.127C215.96 139.004 216.256 138.942 216.624 138.942C217.103 138.942 217.53 139.063 217.906 139.305C218.282 139.547 218.577 139.896 218.79 140.352C219.007 140.807 219.115 141.356 219.115 141.997C219.115 142.638 219.008 143.188 218.794 143.646C218.58 144.102 218.287 144.453 217.914 144.7C217.54 144.945 217.114 145.067 216.635 145.067C216.275 145.067 215.98 145.007 215.751 144.886C215.524 144.765 215.347 144.623 215.218 144.461C215.089 144.299 214.99 144.154 214.921 144.028H214.851V147.176H213.696ZM214.828 141.985C214.828 142.402 214.889 142.768 215.01 143.082C215.131 143.396 215.306 143.642 215.535 143.82C215.764 143.995 216.044 144.082 216.377 144.082C216.722 144.082 217.01 143.991 217.242 143.808C217.473 143.623 217.648 143.372 217.767 143.055C217.888 142.738 217.948 142.382 217.948 141.985C217.948 141.594 217.889 141.242 217.771 140.931C217.655 140.619 217.48 140.374 217.246 140.193C217.014 140.013 216.724 139.923 216.377 139.923C216.042 139.923 215.759 140.009 215.527 140.182C215.298 140.354 215.124 140.595 215.006 140.904C214.887 141.213 214.828 141.573 214.828 141.985ZM221.763 137.042V144.951H220.608V137.042H221.763ZM226.073 145.071C225.489 145.071 224.985 144.946 224.563 144.696C224.143 144.444 223.819 144.09 223.59 143.634C223.363 143.176 223.25 142.639 223.25 142.024C223.25 141.416 223.363 140.881 223.59 140.417C223.819 139.954 224.138 139.592 224.548 139.332C224.96 139.072 225.441 138.942 225.992 138.942C226.327 138.942 226.651 138.997 226.965 139.108C227.279 139.219 227.561 139.393 227.811 139.63C228.061 139.866 228.258 140.174 228.402 140.553C228.546 140.928 228.618 141.385 228.618 141.923V142.333H223.903V141.468H227.487C227.487 141.164 227.425 140.895 227.301 140.661C227.178 140.424 227.004 140.237 226.78 140.101C226.558 139.964 226.298 139.896 226 139.896C225.675 139.896 225.392 139.976 225.15 140.135C224.911 140.292 224.725 140.498 224.594 140.753C224.465 141.006 224.401 141.28 224.401 141.576V142.252C224.401 142.648 224.47 142.985 224.609 143.264C224.751 143.542 224.948 143.754 225.2 143.901C225.453 144.045 225.747 144.117 226.085 144.117C226.303 144.117 226.503 144.086 226.683 144.024C226.863 143.96 227.019 143.865 227.151 143.739C227.282 143.612 227.382 143.457 227.452 143.271L228.545 143.468C228.457 143.79 228.3 144.072 228.074 144.314C227.85 144.553 227.568 144.74 227.228 144.874C226.89 145.005 226.506 145.071 226.073 145.071ZM230.86 145.025C230.649 145.025 230.467 144.95 230.315 144.801C230.164 144.649 230.088 144.466 230.088 144.252C230.088 144.041 230.164 143.861 230.315 143.712C230.467 143.56 230.649 143.484 230.86 143.484C231.071 143.484 231.253 143.56 231.405 143.712C231.556 143.861 231.632 144.041 231.632 144.252C231.632 144.394 231.596 144.524 231.524 144.642C231.455 144.758 231.362 144.851 231.246 144.92C231.13 144.99 231.002 145.025 230.86 145.025ZM235.878 145.071C235.304 145.071 234.809 144.941 234.395 144.681C233.983 144.418 233.666 144.057 233.445 143.596C233.223 143.135 233.113 142.607 233.113 142.012C233.113 141.41 233.226 140.878 233.452 140.417C233.679 139.954 233.998 139.592 234.41 139.332C234.822 139.072 235.307 138.942 235.866 138.942C236.317 138.942 236.718 139.026 237.071 139.193C237.424 139.358 237.708 139.59 237.924 139.888C238.143 140.187 238.273 140.536 238.314 140.935H237.191C237.129 140.657 236.987 140.417 236.766 140.217C236.547 140.016 236.254 139.915 235.885 139.915C235.564 139.915 235.282 140 235.04 140.17C234.8 140.338 234.614 140.577 234.48 140.888C234.346 141.197 234.279 141.563 234.279 141.985C234.279 142.418 234.345 142.791 234.476 143.105C234.607 143.419 234.792 143.663 235.032 143.835C235.274 144.008 235.558 144.094 235.885 144.094C236.104 144.094 236.302 144.054 236.48 143.974C236.66 143.892 236.811 143.775 236.932 143.623C237.056 143.471 237.142 143.288 237.191 143.074H238.314C238.273 143.458 238.148 143.8 237.94 144.102C237.731 144.403 237.452 144.64 237.102 144.812C236.754 144.985 236.346 145.071 235.878 145.071ZM242.248 145.071C241.692 145.071 241.207 144.943 240.792 144.689C240.378 144.434 240.056 144.077 239.827 143.619C239.597 143.161 239.483 142.625 239.483 142.012C239.483 141.397 239.597 140.859 239.827 140.398C240.056 139.937 240.378 139.579 240.792 139.324C241.207 139.07 241.692 138.942 242.248 138.942C242.804 138.942 243.289 139.07 243.704 139.324C244.118 139.579 244.44 139.937 244.669 140.398C244.898 140.859 245.013 141.397 245.013 142.012C245.013 142.625 244.898 143.161 244.669 143.619C244.44 144.077 244.118 144.434 243.704 144.689C243.289 144.943 242.804 145.071 242.248 145.071ZM242.252 144.102C242.612 144.102 242.911 144.006 243.148 143.816C243.385 143.625 243.56 143.372 243.673 143.055C243.789 142.738 243.847 142.389 243.847 142.008C243.847 141.63 243.789 141.282 243.673 140.966C243.56 140.646 243.385 140.39 243.148 140.197C242.911 140.004 242.612 139.908 242.252 139.908C241.889 139.908 241.588 140.004 241.348 140.197C241.111 140.39 240.935 140.646 240.819 140.966C240.706 141.282 240.649 141.63 240.649 142.008C240.649 142.389 240.706 142.738 240.819 143.055C240.935 143.372 241.111 143.625 241.348 143.816C241.588 144.006 241.889 144.102 242.252 144.102ZM246.502 144.951V139.019H247.61V139.985H247.684C247.807 139.658 248.009 139.403 248.29 139.22C248.571 139.035 248.907 138.942 249.298 138.942C249.694 138.942 250.027 139.035 250.294 139.22C250.565 139.406 250.764 139.66 250.893 139.985H250.955C251.096 139.668 251.322 139.416 251.63 139.228C251.939 139.037 252.308 138.942 252.735 138.942C253.273 138.942 253.712 139.111 254.052 139.448C254.394 139.785 254.566 140.294 254.566 140.973V144.951H253.411V141.082C253.411 140.68 253.301 140.389 253.083 140.209C252.864 140.029 252.602 139.938 252.299 139.938C251.923 139.938 251.63 140.054 251.422 140.286C251.213 140.515 251.109 140.81 251.109 141.17V144.951H249.958V141.008C249.958 140.686 249.858 140.428 249.657 140.232C249.456 140.036 249.195 139.938 248.873 139.938C248.654 139.938 248.452 139.996 248.267 140.112C248.084 140.226 247.936 140.384 247.823 140.587C247.712 140.791 247.657 141.026 247.657 141.294V144.951H246.502Z" fill="#425466"/>
<path d="M119.988 187.719H118.694C118.644 187.443 118.552 187.199 118.416 186.989C118.281 186.779 118.115 186.601 117.919 186.454C117.722 186.308 117.503 186.197 117.259 186.122C117.019 186.048 116.763 186.01 116.492 186.01C116.002 186.01 115.564 186.133 115.177 186.379C114.793 186.626 114.489 186.986 114.265 187.462C114.043 187.938 113.933 188.518 113.933 189.204C113.933 189.895 114.043 190.479 114.265 190.954C114.489 191.43 114.794 191.789 115.181 192.033C115.568 192.276 116.004 192.398 116.488 192.398C116.756 192.398 117.01 192.362 117.251 192.29C117.494 192.215 117.714 192.106 117.91 191.962C118.107 191.818 118.273 191.643 118.408 191.435C118.546 191.225 118.642 190.985 118.694 190.714L119.988 190.718C119.919 191.135 119.785 191.52 119.586 191.871C119.39 192.219 119.137 192.521 118.827 192.775C118.52 193.027 118.169 193.222 117.773 193.36C117.378 193.498 116.947 193.567 116.479 193.567C115.744 193.567 115.089 193.393 114.513 193.045C113.938 192.694 113.485 192.192 113.153 191.539C112.824 190.887 112.659 190.108 112.659 189.204C112.659 188.297 112.825 187.519 113.157 186.869C113.489 186.216 113.942 185.716 114.518 185.367C115.093 185.016 115.747 184.841 116.479 184.841C116.93 184.841 117.35 184.906 117.74 185.036C118.133 185.163 118.485 185.351 118.798 185.6C119.11 185.846 119.369 186.147 119.574 186.504C119.778 186.858 119.916 187.263 119.988 187.719ZM123.476 193.592C123.073 193.592 122.708 193.518 122.381 193.368C122.055 193.216 121.797 192.996 121.606 192.709C121.418 192.421 121.324 192.069 121.324 191.651C121.324 191.292 121.393 190.996 121.531 190.764C121.669 190.531 121.856 190.347 122.091 190.212C122.326 190.076 122.589 189.974 122.879 189.905C123.169 189.836 123.465 189.783 123.767 189.747C124.148 189.703 124.458 189.667 124.696 189.64C124.934 189.609 125.106 189.561 125.214 189.494C125.322 189.428 125.376 189.32 125.376 189.171V189.142C125.376 188.78 125.274 188.499 125.069 188.3C124.867 188.101 124.566 188.001 124.165 188.001C123.747 188.001 123.418 188.094 123.178 188.279C122.94 188.462 122.775 188.665 122.684 188.889L121.519 188.623C121.657 188.236 121.859 187.924 122.124 187.686C122.392 187.445 122.701 187.271 123.049 187.163C123.398 187.053 123.764 186.997 124.148 186.997C124.403 186.997 124.672 187.028 124.957 187.089C125.245 187.147 125.513 187.255 125.762 187.412C126.013 187.57 126.219 187.795 126.38 188.088C126.54 188.379 126.62 188.756 126.62 189.221V193.451H125.409V192.58H125.359C125.279 192.741 125.159 192.898 124.999 193.053C124.838 193.208 124.632 193.336 124.381 193.439C124.129 193.541 123.827 193.592 123.476 193.592ZM123.746 192.597C124.089 192.597 124.382 192.529 124.625 192.394C124.871 192.258 125.058 192.081 125.185 191.863C125.315 191.641 125.38 191.405 125.38 191.153V190.332C125.336 190.376 125.25 190.418 125.123 190.457C124.999 190.493 124.856 190.524 124.696 190.552C124.535 190.577 124.379 190.6 124.227 190.622C124.075 190.642 123.948 190.658 123.845 190.672C123.605 190.703 123.385 190.754 123.186 190.826C122.99 190.898 122.832 191.001 122.713 191.137C122.597 191.27 122.539 191.446 122.539 191.668C122.539 191.975 122.652 192.207 122.879 192.364C123.106 192.519 123.395 192.597 123.746 192.597ZM128.472 193.451V187.08H129.671V188.092H129.737C129.853 187.75 130.058 187.48 130.351 187.284C130.647 187.085 130.981 186.985 131.355 186.985C131.432 186.985 131.523 186.988 131.628 186.993C131.736 186.999 131.821 187.006 131.881 187.014V188.2C131.832 188.186 131.743 188.171 131.616 188.155C131.489 188.135 131.362 188.126 131.234 188.126C130.941 188.126 130.68 188.188 130.45 188.312C130.224 188.434 130.044 188.604 129.911 188.822C129.779 189.038 129.712 189.284 129.712 189.561V193.451H128.472ZM135.311 193.576C134.797 193.576 134.338 193.444 133.934 193.182C133.533 192.916 133.218 192.539 132.989 192.049C132.762 191.557 132.649 190.967 132.649 190.278C132.649 189.59 132.763 189.001 132.993 188.511C133.225 188.022 133.543 187.647 133.947 187.387C134.35 187.127 134.808 186.997 135.32 186.997C135.715 186.997 136.033 187.064 136.274 187.197C136.517 187.327 136.705 187.479 136.838 187.653C136.973 187.827 137.078 187.98 137.153 188.113H137.228V184.957H138.468V193.451H137.257V192.46H137.153C137.078 192.595 136.97 192.75 136.829 192.924C136.691 193.099 136.5 193.251 136.257 193.381C136.014 193.511 135.698 193.576 135.311 193.576ZM135.585 192.518C135.942 192.518 136.243 192.424 136.489 192.236C136.738 192.045 136.926 191.781 137.053 191.444C137.183 191.106 137.248 190.714 137.248 190.266C137.248 189.823 137.185 189.436 137.057 189.104C136.93 188.773 136.744 188.514 136.498 188.329C136.251 188.144 135.947 188.051 135.585 188.051C135.212 188.051 134.901 188.148 134.652 188.341C134.403 188.535 134.215 188.799 134.088 189.134C133.963 189.468 133.901 189.846 133.901 190.266C133.901 190.692 133.965 191.075 134.092 191.415C134.219 191.755 134.407 192.024 134.656 192.223C134.908 192.42 135.217 192.518 135.585 192.518ZM143.729 193.451V187.08H144.969V193.451H143.729ZM144.355 186.097C144.139 186.097 143.954 186.026 143.799 185.882C143.647 185.735 143.571 185.561 143.571 185.359C143.571 185.155 143.647 184.98 143.799 184.837C143.954 184.69 144.139 184.617 144.355 184.617C144.571 184.617 144.754 184.69 144.907 184.837C145.061 184.98 145.139 185.155 145.139 185.359C145.139 185.561 145.061 185.735 144.907 185.882C144.754 186.026 144.571 186.097 144.355 186.097ZM148.077 189.669V193.451H146.837V187.08H148.028V188.117H148.106C148.253 187.78 148.482 187.509 148.795 187.304C149.11 187.1 149.507 186.997 149.985 186.997C150.419 186.997 150.8 187.089 151.126 187.271C151.452 187.451 151.705 187.719 151.885 188.076C152.065 188.433 152.154 188.874 152.154 189.399V193.451H150.914V189.548C150.914 189.086 150.794 188.726 150.553 188.466C150.313 188.203 149.982 188.072 149.562 188.072C149.275 188.072 149.019 188.134 148.795 188.258C148.574 188.383 148.398 188.565 148.268 188.806C148.141 189.044 148.077 189.331 148.077 189.669ZM157.05 187.08V188.076H153.449V187.08H157.05ZM154.437 193.451V186.342C154.437 185.944 154.524 185.614 154.698 185.351C154.872 185.085 155.103 184.888 155.39 184.758C155.678 184.625 155.99 184.559 156.328 184.559C156.577 184.559 156.79 184.579 156.967 184.621C157.144 184.66 157.275 184.696 157.361 184.729L157.07 185.732C157.012 185.716 156.938 185.697 156.846 185.674C156.755 185.65 156.644 185.637 156.514 185.637C156.213 185.637 155.997 185.712 155.867 185.861C155.74 186.01 155.677 186.226 155.677 186.508V193.451H154.437ZM160.962 193.58C160.364 193.58 159.843 193.443 159.398 193.169C158.953 192.895 158.607 192.512 158.361 192.02C158.115 191.528 157.992 190.953 157.992 190.295C157.992 189.634 158.115 189.056 158.361 188.561C158.607 188.066 158.953 187.682 159.398 187.408C159.843 187.134 160.364 186.997 160.962 186.997C161.559 186.997 162.08 187.134 162.525 187.408C162.97 187.682 163.316 188.066 163.562 188.561C163.808 189.056 163.931 189.634 163.931 190.295C163.931 190.953 163.808 191.528 163.562 192.02C163.316 192.512 162.97 192.895 162.525 193.169C162.08 193.443 161.559 193.58 160.962 193.58ZM160.966 192.539C161.353 192.539 161.674 192.436 161.928 192.232C162.182 192.027 162.37 191.755 162.492 191.415C162.617 191.075 162.679 190.7 162.679 190.291C162.679 189.884 162.617 189.511 162.492 189.171C162.37 188.828 162.182 188.553 161.928 188.345C161.674 188.138 161.353 188.034 160.966 188.034C160.576 188.034 160.252 188.138 159.995 188.345C159.741 188.553 159.551 188.828 159.427 189.171C159.305 189.511 159.245 189.884 159.245 190.291C159.245 190.7 159.305 191.075 159.427 191.415C159.551 191.755 159.741 192.027 159.995 192.232C160.252 192.436 160.576 192.539 160.966 192.539ZM165.516 193.451V187.08H166.714V188.092H166.781C166.897 187.75 167.101 187.48 167.394 187.284C167.69 187.085 168.025 186.985 168.398 186.985C168.476 186.985 168.567 186.988 168.672 186.993C168.78 186.999 168.864 187.006 168.925 187.014V188.2C168.875 188.186 168.787 188.171 168.659 188.155C168.532 188.135 168.405 188.126 168.278 188.126C167.985 188.126 167.724 188.188 167.494 188.312C167.267 188.434 167.088 188.604 166.955 188.822C166.822 189.038 166.756 189.284 166.756 189.561V193.451H165.516ZM170.198 193.451V187.08H171.388V188.117H171.467C171.6 187.766 171.817 187.492 172.118 187.296C172.42 187.097 172.781 186.997 173.201 186.997C173.627 186.997 173.984 187.097 174.271 187.296C174.561 187.495 174.776 187.769 174.914 188.117H174.98C175.132 187.777 175.374 187.506 175.706 187.304C176.038 187.1 176.433 186.997 176.892 186.997C177.47 186.997 177.942 187.179 178.307 187.541C178.674 187.903 178.858 188.449 178.858 189.179V193.451H177.618V189.295C177.618 188.864 177.501 188.551 177.266 188.358C177.031 188.164 176.75 188.068 176.424 188.068C176.02 188.068 175.706 188.192 175.482 188.441C175.258 188.687 175.146 189.004 175.146 189.391V193.451H173.91V189.216C173.91 188.871 173.802 188.593 173.587 188.383C173.371 188.173 173.09 188.068 172.745 188.068C172.51 188.068 172.293 188.13 172.094 188.254C171.897 188.376 171.738 188.546 171.617 188.764C171.498 188.983 171.438 189.236 171.438 189.523V193.451H170.198ZM182.574 193.592C182.171 193.592 181.806 193.518 181.48 193.368C181.153 193.216 180.895 192.996 180.704 192.709C180.516 192.421 180.422 192.069 180.422 191.651C180.422 191.292 180.491 190.996 180.629 190.764C180.768 190.531 180.954 190.347 181.189 190.212C181.424 190.076 181.687 189.974 181.977 189.905C182.268 189.836 182.563 189.783 182.865 189.747C183.246 189.703 183.556 189.667 183.794 189.64C184.032 189.609 184.205 189.561 184.312 189.494C184.42 189.428 184.474 189.32 184.474 189.171V189.142C184.474 188.78 184.372 188.499 184.167 188.3C183.965 188.101 183.664 188.001 183.263 188.001C182.845 188.001 182.516 188.094 182.276 188.279C182.038 188.462 181.874 188.665 181.782 188.889L180.617 188.623C180.755 188.236 180.957 187.924 181.222 187.686C181.491 187.445 181.799 187.271 182.147 187.163C182.496 187.053 182.862 186.997 183.246 186.997C183.501 186.997 183.77 187.028 184.055 187.089C184.343 187.147 184.611 187.255 184.86 187.412C185.111 187.57 185.317 187.795 185.478 188.088C185.638 188.379 185.718 188.756 185.718 189.221V193.451H184.507V192.58H184.458C184.377 192.741 184.257 192.898 184.097 193.053C183.936 193.208 183.73 193.336 183.479 193.439C183.227 193.541 182.926 193.592 182.574 193.592ZM182.844 192.597C183.187 192.597 183.48 192.529 183.723 192.394C183.969 192.258 184.156 192.081 184.283 191.863C184.413 191.641 184.478 191.405 184.478 191.153V190.332C184.434 190.376 184.348 190.418 184.221 190.457C184.097 190.493 183.954 190.524 183.794 190.552C183.634 190.577 183.477 190.6 183.325 190.622C183.173 190.642 183.046 190.658 182.944 190.672C182.703 190.703 182.483 190.754 182.284 190.826C182.088 190.898 181.93 191.001 181.811 191.137C181.695 191.27 181.637 191.446 181.637 191.668C181.637 191.975 181.75 192.207 181.977 192.364C182.204 192.519 182.493 192.597 182.844 192.597ZM190.544 187.08V188.076H187.064V187.08H190.544ZM187.997 185.554H189.238V191.581C189.238 191.821 189.273 192.002 189.345 192.124C189.417 192.243 189.51 192.324 189.623 192.369C189.739 192.41 189.865 192.431 190.001 192.431C190.1 192.431 190.187 192.424 190.262 192.41C190.337 192.396 190.395 192.385 190.436 192.377L190.66 193.401C190.588 193.429 190.486 193.457 190.353 193.484C190.221 193.515 190.055 193.531 189.856 193.534C189.529 193.54 189.225 193.482 188.943 193.36C188.661 193.238 188.433 193.05 188.259 192.796C188.084 192.541 187.997 192.222 187.997 191.838V185.554ZM192.116 193.451V187.08H193.356V193.451H192.116ZM192.742 186.097C192.526 186.097 192.341 186.026 192.186 185.882C192.034 185.735 191.958 185.561 191.958 185.359C191.958 185.155 192.034 184.98 192.186 184.837C192.341 184.69 192.526 184.617 192.742 184.617C192.958 184.617 193.142 184.69 193.294 184.837C193.449 184.98 193.526 185.155 193.526 185.359C193.526 185.561 193.449 185.735 193.294 185.882C193.142 186.026 192.958 186.097 192.742 186.097ZM197.908 193.58C197.311 193.58 196.789 193.443 196.344 193.169C195.899 192.895 195.553 192.512 195.307 192.02C195.061 191.528 194.938 190.953 194.938 190.295C194.938 189.634 195.061 189.056 195.307 188.561C195.553 188.066 195.899 187.682 196.344 187.408C196.789 187.134 197.311 186.997 197.908 186.997C198.505 186.997 199.026 187.134 199.472 187.408C199.917 187.682 200.262 188.066 200.508 188.561C200.755 189.056 200.878 189.634 200.878 190.295C200.878 190.953 200.755 191.528 200.508 192.02C200.262 192.512 199.917 192.895 199.472 193.169C199.026 193.443 198.505 193.58 197.908 193.58ZM197.912 192.539C198.299 192.539 198.62 192.436 198.874 192.232C199.129 192.027 199.317 191.755 199.438 191.415C199.563 191.075 199.625 190.7 199.625 190.291C199.625 189.884 199.563 189.511 199.438 189.171C199.317 188.828 199.129 188.553 198.874 188.345C198.62 188.138 198.299 188.034 197.912 188.034C197.522 188.034 197.199 188.138 196.941 188.345C196.687 188.553 196.498 188.828 196.373 189.171C196.252 189.511 196.191 189.884 196.191 190.291C196.191 190.7 196.252 191.075 196.373 191.415C196.498 191.755 196.687 192.027 196.941 192.232C197.199 192.436 197.522 192.539 197.912 192.539ZM203.702 189.669V193.451H202.462V187.08H203.652V188.117H203.731C203.878 187.78 204.107 187.509 204.419 187.304C204.735 187.1 205.132 186.997 205.61 186.997C206.044 186.997 206.424 187.089 206.75 187.271C207.077 187.451 207.33 187.719 207.509 188.076C207.689 188.433 207.779 188.874 207.779 189.399V193.451H206.539V189.548C206.539 189.086 206.419 188.726 206.178 188.466C205.938 188.203 205.607 188.072 205.187 188.072C204.899 188.072 204.643 188.134 204.419 188.258C204.198 188.383 204.023 188.565 203.893 188.806C203.766 189.044 203.702 189.331 203.702 189.669Z" fill="#0A2540"/>
<mask id="path-9-inside-1_4003_1132" fill="white">
<path d="M112 209.451C112 206.137 114.686 203.451 118 203.451H490C493.314 203.451 496 206.137 496 209.451V242.451H112V209.451Z"/>
</mask>
<path d="M112 209.451C112 206.137 114.686 203.451 118 203.451H490C493.314 203.451 496 206.137 496 209.451V242.451H112V209.451Z" fill="white"/>
<path d="M111 209.451C111 205.585 114.134 202.451 118 202.451H490C493.866 202.451 497 205.585 497 209.451H495C495 206.69 492.761 204.451 490 204.451H118C115.239 204.451 113 206.69 113 209.451H111ZM496 242.451H112H496ZM111 242.451V209.451C111 205.585 114.134 202.451 118 202.451V204.451C115.239 204.451 113 206.69 113 209.451V242.451H111ZM490 202.451C493.866 202.451 497 205.585 497 209.451V242.451H495V209.451C495 206.69 492.761 204.451 490 204.451V202.451Z" fill="#E6EBF1" mask="url(#path-9-inside-1_4003_1132)"/>
<path d="M128.826 218.906V226.951H127.608V220.124H127.561L125.636 221.381V220.218L127.644 218.906H128.826ZM131.203 226.951V226.071L133.925 223.251C134.216 222.944 134.455 222.676 134.644 222.445C134.835 222.212 134.978 221.991 135.072 221.781C135.166 221.572 135.214 221.349 135.214 221.114C135.214 220.846 135.151 220.616 135.025 220.422C134.899 220.226 134.728 220.075 134.51 219.97C134.293 219.863 134.048 219.809 133.776 219.809C133.488 219.809 133.236 219.868 133.022 219.986C132.807 220.104 132.642 220.27 132.527 220.485C132.411 220.7 132.354 220.951 132.354 221.239H131.195C131.195 220.749 131.307 220.321 131.533 219.955C131.758 219.588 132.067 219.304 132.46 219.102C132.853 218.898 133.299 218.796 133.799 218.796C134.305 218.796 134.75 218.897 135.135 219.098C135.523 219.297 135.825 219.57 136.043 219.915C136.26 220.258 136.369 220.646 136.369 221.078C136.369 221.377 136.312 221.669 136.2 221.954C136.09 222.24 135.897 222.558 135.622 222.909C135.347 223.257 134.965 223.68 134.475 224.178L132.876 225.851V225.91H136.498V226.951H131.203ZM140.988 227.061C140.449 227.061 139.967 226.968 139.542 226.782C139.121 226.596 138.787 226.338 138.541 226.008C138.297 225.676 138.166 225.291 138.148 224.853H139.381C139.397 225.092 139.477 225.299 139.621 225.474C139.768 225.647 139.959 225.78 140.195 225.875C140.43 225.969 140.692 226.016 140.98 226.016C141.297 226.016 141.577 225.961 141.821 225.851C142.067 225.741 142.26 225.588 142.398 225.392C142.537 225.193 142.607 224.963 142.607 224.704C142.607 224.434 142.537 224.197 142.398 223.993C142.262 223.786 142.062 223.624 141.797 223.506C141.535 223.388 141.219 223.329 140.847 223.329H140.167V222.339H140.847C141.145 222.339 141.407 222.285 141.632 222.178C141.86 222.071 142.038 221.921 142.167 221.73C142.295 221.536 142.359 221.31 142.359 221.051C142.359 220.802 142.303 220.586 142.19 220.402C142.08 220.217 141.923 220.071 141.719 219.966C141.517 219.862 141.279 219.809 141.004 219.809C140.742 219.809 140.497 219.858 140.269 219.955C140.044 220.049 139.861 220.185 139.719 220.363C139.578 220.539 139.502 220.749 139.491 220.996H138.317C138.33 220.561 138.458 220.179 138.702 219.849C138.948 219.519 139.273 219.261 139.676 219.075C140.079 218.889 140.527 218.796 141.019 218.796C141.535 218.796 141.981 218.897 142.355 219.098C142.732 219.297 143.023 219.563 143.227 219.896C143.434 220.228 143.536 220.592 143.534 220.988C143.536 221.438 143.411 221.821 143.157 222.135C142.905 222.449 142.57 222.66 142.151 222.767V222.83C142.685 222.911 143.099 223.124 143.392 223.467C143.688 223.81 143.835 224.235 143.832 224.743C143.835 225.186 143.712 225.583 143.463 225.934C143.217 226.285 142.88 226.561 142.453 226.763C142.026 226.962 141.538 227.061 140.988 227.061ZM145.348 225.38V224.398L148.825 218.906H149.599V220.351H149.108L146.621 224.288V224.351H151.386V225.38H145.348ZM149.163 226.951V225.081L149.171 224.633V218.906H150.322V226.951H149.163ZM159.135 218.906V226.951H157.918V220.124H157.87L155.946 221.381V220.218L157.953 218.906H159.135ZM161.512 226.951V226.071L164.234 223.251C164.525 222.944 164.765 222.676 164.953 222.445C165.144 222.212 165.287 221.991 165.381 221.781C165.476 221.572 165.523 221.349 165.523 221.114C165.523 220.846 165.46 220.616 165.334 220.422C165.208 220.226 165.037 220.075 164.82 219.97C164.602 219.863 164.357 219.809 164.085 219.809C163.797 219.809 163.545 219.868 163.331 219.986C163.116 220.104 162.951 220.27 162.836 220.485C162.72 220.7 162.663 220.951 162.663 221.239H161.504C161.504 220.749 161.617 220.321 161.842 219.955C162.067 219.588 162.376 219.304 162.769 219.102C163.162 218.898 163.608 218.796 164.109 218.796C164.614 218.796 165.059 218.897 165.444 219.098C165.832 219.297 166.134 219.57 166.352 219.915C166.569 220.258 166.678 220.646 166.678 221.078C166.678 221.377 166.621 221.669 166.509 221.954C166.399 222.24 166.206 222.558 165.931 222.909C165.656 223.257 165.274 223.68 164.784 224.178L163.185 225.851V225.91H166.807V226.951H161.512ZM171.297 227.061C170.758 227.061 170.276 226.968 169.852 226.782C169.43 226.596 169.096 226.338 168.85 226.008C168.606 225.676 168.475 225.291 168.457 224.853H169.69C169.706 225.092 169.786 225.299 169.93 225.474C170.077 225.647 170.268 225.78 170.504 225.875C170.739 225.969 171.001 226.016 171.289 226.016C171.606 226.016 171.886 225.961 172.13 225.851C172.376 225.741 172.569 225.588 172.708 225.392C172.846 225.193 172.916 224.963 172.916 224.704C172.916 224.434 172.846 224.197 172.708 223.993C172.571 223.786 172.371 223.624 172.106 223.506C171.845 223.388 171.528 223.329 171.156 223.329H170.476V222.339H171.156C171.454 222.339 171.716 222.285 171.941 222.178C172.169 222.071 172.347 221.921 172.476 221.73C172.604 221.536 172.668 221.31 172.668 221.051C172.668 220.802 172.612 220.586 172.499 220.402C172.389 220.217 172.232 220.071 172.028 219.966C171.826 219.862 171.588 219.809 171.313 219.809C171.051 219.809 170.806 219.858 170.578 219.955C170.353 220.049 170.17 220.185 170.028 220.363C169.887 220.539 169.811 220.749 169.8 220.996H168.626C168.639 220.561 168.767 220.179 169.011 219.849C169.257 219.519 169.582 219.261 169.985 219.075C170.388 218.889 170.836 218.796 171.329 218.796C171.845 218.796 172.29 218.897 172.664 219.098C173.041 219.297 173.332 219.563 173.536 219.896C173.743 220.228 173.845 220.592 173.843 220.988C173.845 221.438 173.72 221.821 173.466 222.135C173.214 222.449 172.879 222.66 172.46 222.767V222.83C172.994 222.911 173.408 223.124 173.701 223.467C173.997 223.81 174.144 224.235 174.141 224.743C174.144 225.186 174.021 225.583 173.772 225.934C173.526 226.285 173.189 226.561 172.763 226.763C172.336 226.962 171.847 227.061 171.297 227.061ZM175.657 225.38V224.398L179.134 218.906H179.908V220.351H179.417L176.93 224.288V224.351H181.695V225.38H175.657ZM179.472 226.951V225.081L179.48 224.633V218.906H180.631V226.951H179.472ZM189.445 218.906V226.951H188.227V220.124H188.18L186.255 221.381V220.218L188.262 218.906H189.445ZM191.821 226.951V226.071L194.543 223.251C194.834 222.944 195.074 222.676 195.262 222.445C195.453 222.212 195.596 221.991 195.69 221.781C195.785 221.572 195.832 221.349 195.832 221.114C195.832 220.846 195.769 220.616 195.643 220.422C195.518 220.226 195.346 220.075 195.129 219.97C194.911 219.863 194.666 219.809 194.394 219.809C194.106 219.809 193.855 219.868 193.64 219.986C193.425 220.104 193.26 220.27 193.145 220.485C193.03 220.7 192.972 220.951 192.972 221.239H191.813C191.813 220.749 191.926 220.321 192.151 219.955C192.376 219.588 192.685 219.304 193.078 219.102C193.471 218.898 193.917 218.796 194.418 218.796C194.923 218.796 195.368 218.897 195.753 219.098C196.141 219.297 196.443 219.57 196.661 219.915C196.878 220.258 196.987 220.646 196.987 221.078C196.987 221.377 196.931 221.669 196.818 221.954C196.708 222.24 196.515 222.558 196.24 222.909C195.965 223.257 195.583 223.68 195.093 224.178L193.494 225.851V225.91H197.116V226.951H191.821ZM201.606 227.061C201.067 227.061 200.585 226.968 200.161 226.782C199.739 226.596 199.405 226.338 199.159 226.008C198.915 225.676 198.784 225.291 198.766 224.853H200C200.015 225.092 200.095 225.299 200.239 225.474C200.386 225.647 200.577 225.78 200.813 225.875C201.049 225.969 201.31 226.016 201.598 226.016C201.915 226.016 202.196 225.961 202.439 225.851C202.685 225.741 202.878 225.588 203.017 225.392C203.155 225.193 203.225 224.963 203.225 224.704C203.225 224.434 203.155 224.197 203.017 223.993C202.88 223.786 202.68 223.624 202.416 223.506C202.154 223.388 201.837 223.329 201.465 223.329H200.785V222.339H201.465C201.763 222.339 202.025 222.285 202.251 222.178C202.478 222.071 202.657 221.921 202.785 221.73C202.913 221.536 202.977 221.31 202.977 221.051C202.977 220.802 202.921 220.586 202.808 220.402C202.698 220.217 202.541 220.071 202.337 219.966C202.135 219.862 201.897 219.809 201.622 219.809C201.36 219.809 201.115 219.858 200.887 219.955C200.662 220.049 200.479 220.185 200.337 220.363C200.196 220.539 200.12 220.749 200.11 220.996H198.935C198.948 220.561 199.076 220.179 199.32 219.849C199.566 219.519 199.891 219.261 200.294 219.075C200.698 218.889 201.145 218.796 201.638 218.796C202.154 218.796 202.599 218.897 202.973 219.098C203.351 219.297 203.641 219.563 203.846 219.896C204.052 220.228 204.155 220.592 204.152 220.988C204.155 221.438 204.029 221.821 203.775 222.135C203.523 222.449 203.188 222.66 202.769 222.767V222.83C203.303 222.911 203.717 223.124 204.011 223.467C204.307 223.81 204.453 224.235 204.451 224.743C204.453 225.186 204.33 225.583 204.081 225.934C203.835 226.285 203.499 226.561 203.072 226.763C202.645 226.962 202.156 227.061 201.606 227.061ZM205.967 225.38V224.398L209.443 218.906H210.217V220.351H209.726L207.239 224.288V224.351H212.005V225.38H205.967ZM209.781 226.951V225.081L209.789 224.633V218.906H210.94V226.951H209.781ZM219.754 218.906V226.951H218.536V220.124H218.489L216.564 221.381V220.218L218.571 218.906H219.754ZM222.13 226.951V226.071L224.853 223.251C225.143 222.944 225.383 222.676 225.571 222.445C225.763 222.212 225.905 221.991 226 221.781C226.094 221.572 226.141 221.349 226.141 221.114C226.141 220.846 226.078 220.616 225.952 220.422C225.827 220.226 225.655 220.075 225.438 219.97C225.22 219.863 224.976 219.809 224.703 219.809C224.415 219.809 224.164 219.868 223.949 219.986C223.734 220.104 223.569 220.27 223.454 220.485C223.339 220.7 223.281 220.951 223.281 221.239H222.122C222.122 220.749 222.235 220.321 222.46 219.955C222.685 219.588 222.994 219.304 223.387 219.102C223.78 218.898 224.227 218.796 224.727 218.796C225.232 218.796 225.677 218.897 226.062 219.098C226.45 219.297 226.753 219.57 226.97 219.915C227.187 220.258 227.296 220.646 227.296 221.078C227.296 221.377 227.24 221.669 227.127 221.954C227.017 222.24 226.825 222.558 226.55 222.909C226.275 223.257 225.892 223.68 225.402 224.178L223.804 225.851V225.91H227.426V226.951H222.13ZM231.915 227.061C231.376 227.061 230.894 226.968 230.47 226.782C230.048 226.596 229.714 226.338 229.468 226.008C229.225 225.676 229.094 225.291 229.075 224.853H230.309C230.324 225.092 230.404 225.299 230.548 225.474C230.695 225.647 230.886 225.78 231.122 225.875C231.358 225.969 231.62 226.016 231.908 226.016C232.225 226.016 232.505 225.961 232.748 225.851C232.995 225.741 233.187 225.588 233.326 225.392C233.465 225.193 233.534 224.963 233.534 224.704C233.534 224.434 233.465 224.197 233.326 223.993C233.19 223.786 232.989 223.624 232.725 223.506C232.463 223.388 232.146 223.329 231.774 223.329H231.094V222.339H231.774C232.073 222.339 232.335 222.285 232.56 222.178C232.788 222.071 232.966 221.921 233.094 221.73C233.222 221.536 233.287 221.31 233.287 221.051C233.287 220.802 233.23 220.586 233.118 220.402C233.008 220.217 232.85 220.071 232.646 219.966C232.445 219.862 232.206 219.809 231.931 219.809C231.669 219.809 231.424 219.858 231.197 219.955C230.971 220.049 230.788 220.185 230.647 220.363C230.505 220.539 230.429 220.749 230.419 220.996H229.244C229.257 220.561 229.386 220.179 229.629 219.849C229.875 219.519 230.2 219.261 230.603 219.075C231.007 218.889 231.455 218.796 231.947 218.796C232.463 218.796 232.908 218.897 233.283 219.098C233.66 219.297 233.95 219.563 234.155 219.896C234.362 220.228 234.464 220.592 234.461 220.988C234.464 221.438 234.338 221.821 234.084 222.135C233.833 222.449 233.497 222.66 233.078 222.767V222.83C233.613 222.911 234.026 223.124 234.32 223.467C234.616 223.81 234.762 224.235 234.76 224.743C234.762 225.186 234.639 225.583 234.39 225.934C234.144 226.285 233.808 226.561 233.381 226.763C232.954 226.962 232.465 227.061 231.915 227.061ZM236.276 225.38V224.398L239.752 218.906H240.526V220.351H240.035L237.549 224.288V224.351H242.314V225.38H236.276ZM240.09 226.951V225.081L240.098 224.633V218.906H241.249V226.951H240.09Z" fill="#425466"/>
<path d="M396.75 215.701H377.25C376.145 215.701 375.25 216.597 375.25 217.701V229.201C375.25 230.306 376.145 231.201 377.25 231.201H396.75C397.855 231.201 398.75 230.306 398.75 229.201V217.701C398.75 216.597 397.855 215.701 396.75 215.701Z" fill="white" stroke="black" stroke-opacity="0.2" stroke-width="0.5"/>
<path d="M377.79 221.361C377.226 221.059 376.624 220.834 376 220.691L376.03 220.561H378.76C379.14 220.571 379.44 220.691 379.53 221.081L380.13 223.921L380.31 224.771L381.98 220.571H383.78L381.1 226.721H379.3L377.8 221.351L377.79 221.361ZM385.1 226.731H383.4L384.46 220.561H386.16L385.1 226.731ZM391.27 220.711L391.04 222.051L390.88 221.981C390.58 221.861 390.17 221.731 389.61 221.741C388.94 221.741 388.64 222.011 388.63 222.281C388.63 222.561 389 222.751 389.59 223.041C390.57 223.481 391.03 224.021 391.02 224.721C391.01 226.001 389.85 226.821 388.06 226.821C387.3 226.821 386.56 226.671 386.16 226.501L386.4 225.111L386.63 225.211C387.18 225.441 387.54 225.541 388.23 225.541C388.71 225.541 389.23 225.341 389.24 224.941C389.24 224.671 389.02 224.471 388.36 224.171C387.72 223.871 386.86 223.371 386.87 222.491C386.87 221.291 388.07 220.451 389.74 220.451C390.4 220.451 390.94 220.591 391.27 220.711ZM393.53 224.551H394.94L394.55 222.761L394.43 222.231L394.21 222.831L393.53 224.551ZM395.63 220.561L397 226.731H395.42L395.22 225.811H393.04L392.68 226.731H390.9L393.42 221.071C393.6 220.671 393.91 220.571 394.32 220.571H395.62L395.63 220.561Z" fill="#1434CB"/>
<path d="M425 215.451H405C403.895 215.451 403 216.347 403 217.451V229.451C403 230.556 403.895 231.451 405 231.451H425C426.105 231.451 427 230.556 427 229.451V217.451C427 216.347 426.105 215.451 425 215.451Z" fill="#252525"/>
<path d="M412 228.451C414.761 228.451 417 226.213 417 223.451C417 220.69 414.761 218.451 412 218.451C409.239 218.451 407 220.69 407 223.451C407 226.213 409.239 228.451 412 228.451Z" fill="#EB001B"/>
<path d="M418 228.451C420.761 228.451 423 226.213 423 223.451C423 220.69 420.761 218.451 418 218.451C415.239 218.451 413 220.69 413 223.451C413 226.213 415.239 228.451 418 228.451Z" fill="#F79E1B"/>
<path fill-rule="evenodd" clip-rule="evenodd" d="M415 219.451C415.621 219.917 416.125 220.521 416.472 221.215C416.819 221.909 417 222.675 417 223.451C417 224.227 416.819 224.993 416.472 225.687C416.125 226.382 415.621 226.985 415 227.451C414.379 226.985 413.875 226.382 413.528 225.687C413.181 224.993 413 224.227 413 223.451C413 222.675 413.181 221.909 413.528 221.215C413.875 220.521 414.379 219.917 415 219.451Z" fill="#FF5F00"/>
<path d="M453 215.451H433C431.895 215.451 431 216.347 431 217.451V229.451C431 230.556 431.895 231.451 433 231.451H453C454.105 231.451 455 230.556 455 229.451V217.451C455 216.347 454.105 215.451 453 215.451Z" fill="#016FD0"/>
<path fill-rule="evenodd" clip-rule="evenodd" d="M444.76 228.85V223.15H454.91V224.73L453.74 225.98L454.91 227.24V228.85H453.04L452.04 227.75L451.06 228.85H444.76Z" fill="#FFFFFE"/>
<path fill-rule="evenodd" clip-rule="evenodd" d="M445.44 228.221V223.771H449.21V224.791H446.66V225.491H449.16V226.491H446.66V227.191H449.21V228.221H445.44Z" fill="#016FD0"/>
<path fill-rule="evenodd" clip-rule="evenodd" d="M449.2 228.221L451.28 225.991L449.2 223.771H450.81L452.09 225.181L453.37 223.771H454.91V223.811L452.87 225.991L454.91 228.161V228.221H453.35L452.05 226.791L450.77 228.221H449.2Z" fill="#016FD0"/>
<path fill-rule="evenodd" clip-rule="evenodd" d="M445.24 218.082H447.68L448.54 220.032V218.082H451.56L452.08 219.542L452.61 218.082H454.91V223.782H442.73L445.24 218.082Z" fill="#FFFFFE"/>
<path fill-rule="evenodd" clip-rule="evenodd" d="M445.7 218.701L443.73 223.151H445.08L445.45 222.251H447.47L447.84 223.151H449.23L447.26 218.701H445.7ZM445.87 221.261L446.47 219.841L447.05 221.261H445.87Z" fill="#016FD0"/>
<path fill-rule="evenodd" clip-rule="evenodd" d="M449.21 223.151V218.701H451.11L452.1 221.451L453.09 218.711H454.92V223.151H453.74V220.111L452.62 223.151H451.54L450.41 220.091V223.151H449.21Z" fill="#016FD0"/>
<path d="M463.7 215.451H469.7C469.888 215.441 470.076 215.478 470.246 215.557C470.417 215.636 470.566 215.756 470.68 215.905C470.794 216.055 470.87 216.23 470.902 216.416C470.933 216.601 470.919 216.792 470.86 216.971L468.07 228.971C467.958 229.387 467.715 229.756 467.376 230.023C467.037 230.289 466.621 230.44 466.19 230.451H460.19C460.003 230.462 459.815 230.427 459.644 230.35C459.473 230.274 459.322 230.157 459.206 230.01C459.089 229.863 459.009 229.69 458.974 229.505C458.938 229.321 458.947 229.131 459 228.951L461.79 216.951C461.9 216.526 462.146 216.149 462.491 215.878C462.837 215.606 463.261 215.456 463.7 215.451Z" fill="#E21836"/>
<path d="M469.19 215.451H476.08C476.92 215.451 476.54 216.131 476.34 216.971L473.55 228.971C473.36 229.801 473.42 230.481 472.55 230.481H465.69C465.502 230.489 465.314 230.451 465.144 230.37C464.973 230.29 464.825 230.169 464.711 230.019C464.597 229.869 464.521 229.693 464.49 229.507C464.458 229.321 464.472 229.131 464.53 228.951L467.32 216.951C467.428 216.533 467.668 216.16 468.006 215.89C468.343 215.62 468.758 215.466 469.19 215.451Z" fill="#00447C"/>
<path d="M475.81 215.451H481.81C482.001 215.436 482.192 215.469 482.367 215.546C482.541 215.623 482.694 215.742 482.812 215.892C482.93 216.043 483.009 216.22 483.042 216.408C483.074 216.596 483.06 216.789 483 216.971L480.21 228.971C480.097 229.392 479.849 229.764 479.504 230.032C479.159 230.299 478.737 230.446 478.3 230.451H472.3C472.114 230.459 471.927 230.423 471.758 230.344C471.588 230.265 471.44 230.147 471.326 229.999C471.212 229.85 471.136 229.677 471.103 229.492C471.071 229.308 471.084 229.119 471.14 228.941L473.93 216.941C474.041 216.522 474.283 216.151 474.622 215.882C474.961 215.614 475.378 215.462 475.81 215.451Z" fill="#007B84"/>
<path d="M465.26 219.291C464.977 219.313 464.693 219.313 464.41 219.291C464.41 219.401 463.97 221.291 463.97 221.291C463.942 221.606 463.808 221.902 463.59 222.131C463.469 222.239 463.312 222.296 463.15 222.291C463.093 222.297 463.036 222.29 462.982 222.273C462.927 222.256 462.877 222.227 462.834 222.19C462.791 222.152 462.756 222.107 462.731 222.055C462.707 222.004 462.692 221.948 462.69 221.891V221.821L462.77 221.291C462.77 221.291 463.21 219.551 463.29 219.291C462.958 219.328 462.622 219.328 462.29 219.291C462.292 219.334 462.292 219.378 462.29 219.421L461.85 221.421V221.591L461.78 222.131C461.763 222.237 461.766 222.346 461.79 222.451C461.99 222.811 462.57 222.861 462.9 222.861C463.28 222.888 463.66 222.812 464 222.641C464.183 222.518 464.338 222.358 464.457 222.173C464.576 221.987 464.655 221.779 464.69 221.561L464.74 221.371C464.74 221.371 465.19 219.551 465.27 219.311L465.26 219.291ZM466.79 220.751C466.623 220.757 466.46 220.798 466.31 220.871L466.12 220.971L466.18 220.771C465.8 220.851 465.71 220.861 465.37 220.911C465.319 221.332 465.242 221.749 465.14 222.161L464.96 222.891C465.22 222.876 465.48 222.876 465.74 222.891L465.87 222.231C465.87 222.041 466 221.611 466.04 221.461C466.112 221.425 466.19 221.402 466.27 221.391C466.44 221.391 466.42 221.541 466.42 221.601C466.42 221.661 466.34 222.041 466.28 222.321V222.501C466.28 222.641 466.21 222.771 466.18 222.911C466.433 222.896 466.687 222.896 466.94 222.911C467 222.541 467 222.451 467.1 221.991L467.15 221.781C467.24 221.371 467.29 221.161 467.22 220.991C467.183 220.911 467.121 220.844 467.044 220.801C466.967 220.758 466.878 220.741 466.79 220.751ZM468.5 221.181L468.08 221.261L467.66 221.321L467.6 221.711C467.573 221.893 467.536 222.073 467.49 222.251C467.49 222.421 467.43 222.481 467.41 222.551C467.368 222.645 467.335 222.742 467.31 222.841H468.15C468.15 222.691 468.15 222.641 468.15 222.571C468.15 222.501 468.15 222.371 468.26 222.071C468.26 221.921 468.33 221.781 468.36 221.641C468.39 221.501 468.43 221.351 468.46 221.211L468.5 221.181ZM468.5 220.601C468.392 220.553 468.273 220.535 468.156 220.547C468.038 220.559 467.926 220.602 467.83 220.671C467.63 220.811 467.6 221.001 467.77 221.101C467.878 221.149 467.997 221.167 468.114 221.155C468.232 221.143 468.344 221.1 468.44 221.031C468.65 220.891 468.67 220.701 468.51 220.601H468.5ZM469.5 222.921C469.683 222.934 469.868 222.908 470.04 222.844C470.213 222.78 470.369 222.68 470.5 222.551C470.658 222.34 470.771 222.098 470.83 221.841C470.879 221.709 470.897 221.567 470.883 221.427C470.869 221.286 470.824 221.151 470.75 221.031C470.653 220.933 470.535 220.859 470.405 220.814C470.275 220.769 470.137 220.754 470 220.771C469.671 220.756 469.35 220.867 469.1 221.081C468.888 221.293 468.748 221.566 468.7 221.861C468.63 222.141 468.56 222.661 469.03 222.861C469.192 222.912 469.361 222.932 469.53 222.921H469.5ZM469.5 221.921C469.58 221.571 469.67 221.281 469.91 221.281C470.15 221.281 470.11 221.501 470.03 221.851C469.995 222.022 469.934 222.188 469.85 222.341C469.828 222.382 469.797 222.417 469.758 222.443C469.72 222.469 469.676 222.485 469.63 222.491C469.63 222.491 469.45 222.491 469.45 222.271C469.453 222.139 469.473 222.008 469.51 221.881L469.5 221.921ZM471.68 222.921L471.81 222.261C471.81 222.071 471.94 221.641 471.98 221.491C472.052 221.454 472.13 221.431 472.21 221.421C472.38 221.421 472.36 221.571 472.35 221.631C472.321 221.873 472.277 222.114 472.22 222.351V222.531C472.22 222.671 472.15 222.801 472.12 222.941C472.373 222.926 472.627 222.926 472.88 222.941C472.93 222.631 472.95 222.541 473.05 222.081V221.871C473.15 221.461 473.2 221.251 473.13 221.081C473.093 221.001 473.031 220.934 472.954 220.891C472.877 220.848 472.788 220.831 472.7 220.841C472.533 220.846 472.369 220.887 472.22 220.961L472.03 221.071L472.08 220.861C471.7 220.941 471.61 220.951 471.26 221.001C471.209 221.422 471.132 221.839 471.03 222.251C470.97 222.491 470.91 222.741 470.86 222.981C471.12 222.966 471.38 222.966 471.64 222.981L471.68 222.921ZM474.27 222.921L474.42 222.171C474.42 222.171 474.54 221.701 474.54 221.681L474.61 221.621H474.67C475.182 221.676 475.698 221.564 476.14 221.301C476.444 221.069 476.653 220.735 476.73 220.361C476.745 220.255 476.745 220.147 476.73 220.041C476.738 219.892 476.696 219.744 476.61 219.621C476.39 219.311 475.95 219.301 475.44 219.301H475.19C474.54 219.301 474.28 219.301 474.19 219.301C474.1 219.301 474.19 219.431 474.19 219.431L474 220.451C474 220.451 473.45 222.751 473.42 222.861C474 222.881 474.18 222.881 474.28 222.891L474.27 222.921ZM474.7 221.001L475 219.901V219.801H475.1H475.62C475.722 219.845 475.803 219.927 475.846 220.03C475.889 220.132 475.89 220.247 475.85 220.351C475.826 220.466 475.777 220.574 475.706 220.667C475.635 220.761 475.544 220.837 475.44 220.891C475.259 220.963 475.064 220.993 474.87 220.981H474.7V221.001ZM476.25 221.931C476.18 222.211 476.11 222.721 476.57 222.931C476.709 222.976 476.858 222.983 477 222.951C477.149 222.933 477.288 222.871 477.4 222.771V222.891H478.2C478.26 222.571 478.31 222.271 478.45 221.671C478.51 221.391 478.58 221.101 478.65 220.821L477.81 220.951V221.041C477.751 220.941 477.659 220.863 477.55 220.821C477.392 220.802 477.231 220.821 477.081 220.877C476.932 220.932 476.797 221.023 476.69 221.141C476.481 221.35 476.341 221.619 476.29 221.911L476.25 221.931ZM477.04 221.931C477.12 221.591 477.21 221.291 477.45 221.291C477.69 221.291 477.68 221.431 477.66 221.671C477.664 221.734 477.664 221.798 477.66 221.861C477.639 221.966 477.613 222.069 477.58 222.171C477.563 222.235 477.536 222.296 477.5 222.351C477.462 222.393 477.416 222.428 477.364 222.452C477.313 222.476 477.257 222.489 477.2 222.491C477.2 222.491 477 222.451 477 222.261C477.003 222.146 477.019 222.032 477.05 221.921L477.04 221.931ZM481.16 220.791C480.79 220.861 480.72 220.881 480.38 220.921C480.12 221.501 480.13 221.381 479.92 221.841V221.781L479.87 220.781C479.48 220.851 479.47 220.871 479.11 220.911C479.11 221.141 479.11 221.091 479.19 221.451C479.19 221.631 479.19 221.811 479.26 221.991C479.33 222.171 479.31 222.431 479.35 222.871C479.11 223.281 479.05 223.431 478.82 223.781L478.66 224.041C478.645 224.066 478.625 224.086 478.6 224.101H478.4L478.26 224.551H478.73C478.838 224.557 478.945 224.533 479.039 224.479C479.133 224.426 479.21 224.347 479.26 224.251L479.56 223.751C479.76 223.331 481.26 220.751 481.26 220.751L481.16 220.791ZM476.25 226.721H476.05L476.78 224.301H477L477.08 224.051V224.331C477.08 224.501 477.2 224.651 477.56 224.631H478L478.14 224.161H478C477.91 224.161 477.87 224.161 477.88 224.091V223.801H477.1C476.86 223.801 476.1 223.801 475.98 223.861C475.848 223.905 475.723 223.969 475.61 224.051L475.68 223.801H475L474.85 224.291L474.11 226.741H473.96L473.82 227.211H475.23V227.361H475.92L475.97 227.211H476.16L476.32 226.711L476.25 226.721ZM475.67 224.791C475.557 224.826 475.447 224.87 475.34 224.921L475.53 224.301H476.09L476 224.741C475.904 224.733 475.807 224.733 475.71 224.741L475.67 224.791ZM475.67 225.671H475.37C475.26 225.671 475.05 225.821 475.05 225.821L475.24 225.171H475.8L475.67 225.621V225.671ZM475.35 226.671H474.79L474.95 226.131H475.51L475.35 226.671ZM476.71 225.171H477.53L477.41 225.551H476.6L476.48 225.971H477.2L476.66 226.741C476.629 226.777 476.592 226.808 476.55 226.831C476.501 226.843 476.449 226.843 476.4 226.831H476.2L476.06 227.281H476.58C476.689 227.285 476.798 227.262 476.896 227.213C476.994 227.164 477.078 227.091 477.14 227.001L477.51 226.491L477.59 227.011C477.599 227.048 477.616 227.083 477.64 227.112C477.665 227.142 477.695 227.165 477.73 227.181C477.783 227.221 477.845 227.249 477.91 227.261H478.35L478.5 226.751H478.4C478.341 226.764 478.279 226.764 478.22 226.751C478.216 226.714 478.216 226.678 478.22 226.641L478.14 226.121H477.8L477.95 225.951H478.77L478.9 225.531H478.14L478.25 225.151H479L479.15 224.691H476.87L476.73 225.151L476.71 225.171ZM469.84 226.781L470.03 226.151H470.81L470.95 225.681H470.17L470.29 225.291H471.05L471.19 224.831H469.3L469.17 225.291H469.6L469.48 225.681H469.05L468.9 226.151H469.34L469.08 226.991C469.08 227.101 469.08 227.141 469.13 227.201C469.163 227.251 469.213 227.286 469.27 227.301H469.47H470.35L470.51 226.781L470.12 226.841C470 226.901 469.84 226.891 469.86 226.821L469.84 226.781ZM469.93 223.781L469.73 224.141C469.705 224.199 469.668 224.25 469.62 224.291C469.561 224.306 469.499 224.306 469.44 224.291H469.34L469.2 224.741H469.54C469.662 224.738 469.782 224.708 469.89 224.651C469.96 224.651 469.97 224.651 470.02 224.591L470.14 224.491H471.21L471.35 224.011H470.57L470.71 223.751L469.93 223.781ZM471.51 226.781C471.51 226.781 471.51 226.711 471.51 226.611L471.8 225.611H473.18C473.268 225.6 473.352 225.573 473.43 225.531C473.503 225.49 473.565 225.432 473.61 225.361C473.69 225.234 473.751 225.096 473.79 224.951L474.16 223.731H473.12C472.957 223.754 472.797 223.79 472.64 223.841C472.512 223.904 472.391 223.981 472.28 224.071L472.38 223.731H471.71L470.77 226.831L470.71 227.091C470.71 227.091 470.79 227.201 470.83 227.241C470.902 227.262 470.978 227.262 471.05 227.241H471.93L472.09 226.711H471.63C471.63 226.74 471.621 226.768 471.602 226.79C471.584 226.812 471.558 226.826 471.53 226.831L471.51 226.781ZM472 225.041H473.1L473.03 225.251C473.03 225.251 473.03 225.251 472.88 225.251H472V225.041ZM472.22 224.311H473.32L473.24 224.571C473.24 224.571 472.73 224.571 472.64 224.571C472.427 224.605 472.227 224.695 472.06 224.831L472.22 224.311ZM473.05 225.981C473.05 225.981 473.05 226.041 473.05 226.051C473.05 226.061 472.99 226.051 472.94 226.051H472.78V225.791H472.13V227.081C472.13 227.181 472.13 227.231 472.21 227.271C472.389 227.335 472.581 227.355 472.77 227.331H473.18L473.33 226.851H472.97H472.86H472.81C472.81 226.851 472.81 226.851 472.81 226.761V226.451H473.19C473.254 226.455 473.319 226.446 473.379 226.423C473.439 226.401 473.494 226.366 473.54 226.321C473.604 226.264 473.647 226.186 473.66 226.101L473.73 225.811H473.22L473.15 226.011L473.05 225.981Z" fill="#FEFEFE"/>
<mask id="path-29-inside-2_4003_1132" fill="white">
<path d="M112 242.451H304V282.451H118C114.686 282.451 112 279.765 112 276.451V242.451Z"/>
</mask>
<path d="M112 242.451H304V282.451H118C114.686 282.451 112 279.765 112 276.451V242.451Z" fill="white"/>
<path d="M111 241.451H304V243.451H113L111 241.451ZM304 283.451H118C114.134 283.451 111 280.317 111 276.451H113C113 279.213 115.239 281.451 118 281.451H304V283.451ZM118 283.451C114.134 283.451 111 280.317 111 276.451V241.451L113 243.451V276.451C113 279.213 115.239 281.451 118 281.451V283.451ZM304 242.451V282.451V242.451Z" fill="#E6EBF1" mask="url(#path-29-inside-2_4003_1132)"/>
<path d="M125.914 257.633H127.437L130.085 264.099H130.183L132.831 257.633H134.354V265.951H133.16V259.932H133.083L130.629 265.939H129.638L127.185 259.928H127.108V265.951H125.914V257.633ZM136.379 257.633H137.902L140.55 264.099H140.647L143.295 257.633H144.819V265.951H143.624V259.932H143.547L141.094 265.939H140.103L137.65 259.928H137.573V265.951H136.379V257.633ZM149.914 257.243L147.233 267.202H146.149L148.829 257.243H149.914ZM150.601 257.633H152.027L154.2 261.414H154.289L156.462 257.633H157.888L154.87 262.686V265.951H153.619V262.686L150.601 257.633ZM158.631 257.633H160.057L162.23 261.414H162.319L164.492 257.633H165.918L162.9 262.686V265.951H161.649V262.686L158.631 257.633Z" fill="#425466"/>
<path d="M304.5 242.951H495.5V276.451C495.5 279.489 493.038 281.951 490 281.951H304.5V242.951Z" fill="white"/>
<path d="M304.5 242.951H495.5V276.451C495.5 279.489 493.038 281.951 490 281.951H304.5V242.951Z" stroke="#E6EBF1"/>
<path d="M324.951 260.246H323.663C323.613 259.971 323.521 259.729 323.386 259.519C323.251 259.31 323.086 259.133 322.891 258.987C322.696 258.841 322.477 258.731 322.235 258.657C321.995 258.582 321.741 258.545 321.471 258.545C320.984 258.545 320.547 258.668 320.162 258.913C319.78 259.158 319.477 259.517 319.254 259.99C319.034 260.463 318.924 261.041 318.924 261.724C318.924 262.412 319.034 262.993 319.254 263.466C319.477 263.939 319.781 264.297 320.166 264.539C320.552 264.782 320.985 264.903 321.467 264.903C321.734 264.903 321.987 264.867 322.226 264.795C322.468 264.721 322.687 264.612 322.883 264.469C323.078 264.326 323.243 264.151 323.378 263.945C323.516 263.736 323.611 263.496 323.663 263.227L324.951 263.231C324.882 263.646 324.749 264.029 324.55 264.378C324.355 264.725 324.103 265.025 323.795 265.278C323.49 265.529 323.14 265.723 322.746 265.86C322.353 265.998 321.924 266.067 321.458 266.067C320.726 266.067 320.074 265.893 319.502 265.547C318.929 265.197 318.478 264.698 318.148 264.048C317.82 263.399 317.656 262.624 317.656 261.724C317.656 260.821 317.822 260.046 318.152 259.4C318.482 258.75 318.933 258.252 319.506 257.905C320.078 257.556 320.729 257.381 321.458 257.381C321.907 257.381 322.325 257.446 322.713 257.575C323.104 257.702 323.455 257.889 323.766 258.136C324.077 258.381 324.334 258.681 324.538 259.036C324.742 259.389 324.879 259.792 324.951 260.246ZM327.416 257.497L329.769 264.382H329.864L332.217 257.497H333.596L330.554 265.951H329.08L326.037 257.497H327.416ZM341.619 260.246H340.331C340.282 259.971 340.189 259.729 340.055 259.519C339.92 259.31 339.755 259.133 339.559 258.987C339.364 258.841 339.145 258.731 338.903 258.657C338.663 258.582 338.409 258.545 338.139 258.545C337.652 258.545 337.216 258.668 336.83 258.913C336.448 259.158 336.145 259.517 335.922 259.99C335.702 260.463 335.592 261.041 335.592 261.724C335.592 262.412 335.702 262.993 335.922 263.466C336.145 263.939 336.449 264.297 336.835 264.539C337.22 264.782 337.653 264.903 338.135 264.903C338.402 264.903 338.655 264.867 338.894 264.795C339.137 264.721 339.355 264.612 339.551 264.469C339.746 264.326 339.911 264.151 340.046 263.945C340.184 263.736 340.279 263.496 340.331 263.227L341.619 263.231C341.55 263.646 341.417 264.029 341.219 264.378C341.023 264.725 340.771 265.025 340.463 265.278C340.158 265.529 339.808 265.723 339.415 265.86C339.021 265.998 338.592 266.067 338.127 266.067C337.395 266.067 336.742 265.893 336.17 265.547C335.597 265.197 335.146 264.698 334.816 264.048C334.488 263.399 334.325 262.624 334.325 261.724C334.325 260.821 334.49 260.046 334.82 259.4C335.15 258.75 335.602 258.252 336.174 257.905C336.746 257.556 337.397 257.381 338.127 257.381C338.575 257.381 338.994 257.446 339.382 257.575C339.772 257.702 340.123 257.889 340.434 258.136C340.745 258.381 341.003 258.681 341.206 259.036C341.41 259.389 341.548 259.792 341.619 260.246Z" fill="#425466"/>
<path opacity="0.2" fill-rule="evenodd" clip-rule="evenodd" d="M475.992 256.68H462.628C462.003 256.68 461.27 257.4 461.27 258.038V268.226C461.27 268.865 462.003 269.584 462.628 269.584H479.605C480.229 269.584 480.963 268.865 480.963 268.226V263.112C480.391 263.626 479.684 263.968 478.926 264.097V264.151C478.926 264.599 478.681 264.83 478.247 264.83H463.307C462.873 264.83 462.628 264.599 462.628 264.151V263.472C462.628 263.023 462.873 262.792 463.307 262.792H475.211C474.819 262.358 474.526 261.844 474.351 261.285C474.176 260.727 474.124 260.137 474.198 259.557C474.272 258.976 474.471 258.419 474.781 257.922C475.09 257.425 475.503 257.002 475.992 256.68Z" fill="#565656"/>
<path opacity="0.3" fill-rule="evenodd" clip-rule="evenodd" d="M474.403 258.717H461.27V260.754H474.227C474.112 260.071 474.173 259.37 474.403 258.717Z" fill="#565656"/>
<path fill-rule="evenodd" clip-rule="evenodd" d="M478.247 264.829C476.986 264.829 475.777 264.328 474.885 263.437C473.994 262.545 473.493 261.336 473.493 260.075C473.493 258.814 473.994 257.604 474.885 256.713C475.777 255.821 476.986 255.32 478.247 255.32C479.507 255.32 480.716 255.821 481.608 256.713C482.499 257.604 483 258.814 483 260.075C483 261.336 482.499 262.545 481.608 263.437C480.716 264.328 479.507 264.829 478.247 264.829ZM476.359 258.105H475.822L474.512 258.771V259.45L475.551 258.906V262.044H476.366V258.105H476.359ZM477.921 258.648C478.308 258.648 478.579 258.866 478.579 259.178C478.579 259.518 478.26 259.755 477.798 259.755H477.595V260.333H477.839C478.328 260.333 478.661 260.577 478.661 260.931C478.661 261.27 478.335 261.501 477.873 261.501C477.534 261.501 477.194 261.392 476.841 261.182V261.861C477.221 262.024 477.601 262.112 477.975 262.112C478.865 262.112 479.476 261.657 479.476 260.998C479.476 260.537 479.19 260.163 478.715 260.014C479.123 259.878 479.387 259.518 479.387 259.11C479.387 258.472 478.824 258.037 478.009 258.037C477.642 258.041 477.279 258.12 476.943 258.268V258.934C477.269 258.75 477.601 258.648 477.921 258.648ZM480.854 260.129C481.35 260.129 481.696 260.421 481.696 260.801C481.696 261.202 481.35 261.481 480.854 261.481C480.555 261.481 480.243 261.386 479.924 261.189V261.888C480.257 262.038 480.596 262.112 480.929 262.112C481.105 262.112 481.268 262.085 481.425 262.044C481.778 261.467 481.981 260.801 481.981 260.088L481.968 259.803C481.715 259.654 481.426 259.578 481.133 259.586C481.01 259.586 480.881 259.592 480.746 259.613V258.73H481.723C481.639 258.512 481.534 258.303 481.411 258.105H480.039V260.245C480.311 260.177 480.583 260.129 480.854 260.129Z" fill="#565656"/>
<path d="M120.128 305.588V314.451H118.899L114.393 307.951H114.311V314.451H112.974V305.588H114.212L118.721 312.097H118.804V305.588H120.128ZM124.109 314.598C123.688 314.598 123.307 314.52 122.967 314.365C122.626 314.206 122.357 313.977 122.158 313.676C121.961 313.376 121.863 313.009 121.863 312.573C121.863 312.198 121.935 311.889 122.08 311.647C122.224 311.404 122.419 311.212 122.664 311.071C122.909 310.93 123.183 310.823 123.486 310.751C123.789 310.679 124.098 310.624 124.412 310.586C124.811 310.54 125.134 310.503 125.382 310.474C125.63 310.442 125.81 310.392 125.923 310.322C126.035 310.253 126.092 310.141 126.092 309.985V309.954C126.092 309.576 125.985 309.284 125.771 309.076C125.561 308.868 125.246 308.764 124.828 308.764C124.392 308.764 124.049 308.861 123.798 309.054C123.55 309.245 123.378 309.457 123.283 309.69L122.067 309.413C122.211 309.009 122.422 308.683 122.699 308.435C122.978 308.184 123.3 308.003 123.664 307.89C124.027 307.775 124.41 307.717 124.811 307.717C125.076 307.717 125.357 307.749 125.655 307.812C125.955 307.873 126.234 307.985 126.494 308.15C126.757 308.314 126.972 308.549 127.139 308.855C127.306 309.158 127.39 309.552 127.39 310.037V314.451H126.126V313.542H126.074C125.991 313.71 125.865 313.874 125.698 314.036C125.53 314.197 125.315 314.331 125.053 314.438C124.79 314.545 124.476 314.598 124.109 314.598ZM124.391 313.56C124.749 313.56 125.054 313.489 125.308 313.348C125.565 313.206 125.76 313.022 125.893 312.794C126.028 312.563 126.096 312.316 126.096 312.053V311.197C126.05 311.243 125.96 311.286 125.828 311.326C125.698 311.364 125.549 311.397 125.382 311.426C125.214 311.452 125.051 311.476 124.893 311.5C124.734 311.52 124.601 311.537 124.495 311.551C124.244 311.583 124.014 311.637 123.806 311.712C123.602 311.787 123.437 311.895 123.313 312.036C123.192 312.175 123.131 312.359 123.131 312.59C123.131 312.91 123.25 313.153 123.486 313.317C123.723 313.479 124.024 313.56 124.391 313.56ZM129.314 314.451V307.803H130.556V308.885H130.638C130.776 308.519 131.003 308.233 131.317 308.028C131.632 307.821 132.008 307.717 132.447 307.717C132.891 307.717 133.264 307.821 133.564 308.028C133.867 308.236 134.09 308.522 134.234 308.885H134.304C134.462 308.531 134.715 308.248 135.061 308.037C135.407 307.824 135.82 307.717 136.299 307.717C136.902 307.717 137.394 307.906 137.775 308.284C138.159 308.662 138.35 309.232 138.35 309.993V314.451H137.056V310.115C137.056 309.664 136.934 309.338 136.688 309.136C136.443 308.934 136.15 308.833 135.81 308.833C135.389 308.833 135.061 308.963 134.827 309.223C134.594 309.48 134.477 309.81 134.477 310.214V314.451H133.187V310.032C133.187 309.672 133.075 309.382 132.85 309.162C132.624 308.943 132.332 308.833 131.971 308.833C131.726 308.833 131.499 308.898 131.291 309.028C131.087 309.155 130.921 309.333 130.794 309.561C130.67 309.789 130.608 310.053 130.608 310.353V314.451H129.314ZM143.15 314.585C142.495 314.585 141.931 314.445 141.458 314.166C140.987 313.883 140.624 313.486 140.367 312.975C140.113 312.462 139.986 311.86 139.986 311.171C139.986 310.49 140.113 309.89 140.367 309.37C140.624 308.851 140.982 308.445 141.44 308.154C141.902 307.863 142.442 307.717 143.059 307.717C143.434 307.717 143.798 307.779 144.15 307.903C144.502 308.027 144.818 308.222 145.097 308.487C145.377 308.753 145.598 309.098 145.76 309.522C145.921 309.943 146.002 310.455 146.002 311.058V311.517H140.718V310.547H144.734C144.734 310.207 144.665 309.905 144.526 309.643C144.388 309.377 144.193 309.168 143.942 309.015C143.694 308.862 143.402 308.786 143.068 308.786C142.704 308.786 142.387 308.875 142.116 309.054C141.847 309.23 141.639 309.461 141.492 309.747C141.348 310.029 141.276 310.337 141.276 310.669V311.426C141.276 311.87 141.354 312.248 141.51 312.56C141.668 312.871 141.889 313.11 142.172 313.274C142.455 313.436 142.785 313.516 143.163 313.516C143.408 313.516 143.632 313.482 143.834 313.412C144.036 313.34 144.21 313.234 144.357 313.092C144.505 312.951 144.617 312.776 144.695 312.569L145.92 312.789C145.822 313.15 145.646 313.466 145.392 313.737C145.141 314.005 144.825 314.215 144.444 314.365C144.066 314.512 143.635 314.585 143.15 314.585ZM153.863 314.585C153.24 314.585 152.696 314.443 152.232 314.157C151.767 313.871 151.407 313.472 151.15 312.958C150.893 312.444 150.765 311.844 150.765 311.158C150.765 310.468 150.893 309.865 151.15 309.349C151.407 308.832 151.767 308.431 152.232 308.145C152.696 307.86 153.24 307.717 153.863 307.717C154.487 307.717 155.031 307.86 155.495 308.145C155.96 308.431 156.32 308.832 156.577 309.349C156.834 309.865 156.962 310.468 156.962 311.158C156.962 311.844 156.834 312.444 156.577 312.958C156.32 313.472 155.96 313.871 155.495 314.157C155.031 314.443 154.487 314.585 153.863 314.585ZM153.868 313.499C154.272 313.499 154.606 313.392 154.872 313.179C155.137 312.965 155.333 312.681 155.46 312.326C155.59 311.971 155.655 311.58 155.655 311.153C155.655 310.729 155.59 310.34 155.46 309.985C155.333 309.627 155.137 309.34 154.872 309.123C154.606 308.907 154.272 308.799 153.868 308.799C153.461 308.799 153.123 308.907 152.855 309.123C152.59 309.34 152.392 309.627 152.262 309.985C152.135 310.34 152.072 310.729 152.072 311.153C152.072 311.58 152.135 311.971 152.262 312.326C152.392 312.681 152.59 312.965 152.855 313.179C153.123 313.392 153.461 313.499 153.868 313.499ZM159.901 310.504V314.451H158.607V307.803H159.849V308.885H159.931C160.084 308.533 160.323 308.251 160.649 308.037C160.978 307.824 161.392 307.717 161.892 307.717C162.345 307.717 162.741 307.812 163.082 308.003C163.422 308.19 163.686 308.47 163.874 308.842C164.061 309.214 164.155 309.675 164.155 310.223V314.451H162.861V310.379C162.861 309.897 162.736 309.52 162.485 309.249C162.233 308.975 161.889 308.838 161.45 308.838C161.15 308.838 160.883 308.903 160.649 309.033C160.419 309.162 160.235 309.353 160.1 309.604C159.967 309.852 159.901 310.152 159.901 310.504ZM172.316 314.585C171.673 314.585 171.119 314.44 170.654 314.148C170.193 313.854 169.838 313.449 169.59 312.932C169.341 312.416 169.217 311.824 169.217 311.158C169.217 310.482 169.344 309.887 169.598 309.37C169.852 308.851 170.21 308.445 170.672 308.154C171.133 307.863 171.677 307.717 172.303 307.717C172.808 307.717 173.258 307.811 173.654 307.998C174.049 308.183 174.368 308.443 174.61 308.777C174.855 309.112 175.001 309.503 175.047 309.95H173.788C173.718 309.638 173.56 309.37 173.312 309.145C173.066 308.92 172.737 308.808 172.325 308.808C171.964 308.808 171.648 308.903 171.377 309.093C171.109 309.281 170.899 309.549 170.749 309.898C170.599 310.244 170.524 310.654 170.524 311.127C170.524 311.612 170.598 312.03 170.745 312.382C170.892 312.734 171.1 313.007 171.368 313.2C171.64 313.394 171.958 313.49 172.325 313.49C172.57 313.49 172.792 313.446 172.991 313.356C173.193 313.264 173.362 313.133 173.498 312.962C173.636 312.792 173.733 312.587 173.788 312.348H175.047C175.001 312.778 174.861 313.161 174.627 313.499C174.394 313.837 174.081 314.102 173.688 314.295C173.299 314.489 172.841 314.585 172.316 314.585ZM178.566 314.598C178.144 314.598 177.763 314.52 177.423 314.365C177.083 314.206 176.813 313.977 176.614 313.676C176.417 313.376 176.319 313.009 176.319 312.573C176.319 312.198 176.391 311.889 176.536 311.647C176.68 311.404 176.875 311.212 177.12 311.071C177.365 310.93 177.639 310.823 177.942 310.751C178.245 310.679 178.554 310.624 178.869 310.586C179.267 310.54 179.59 310.503 179.838 310.474C180.086 310.442 180.266 310.392 180.379 310.322C180.492 310.253 180.548 310.141 180.548 309.985V309.954C180.548 309.576 180.441 309.284 180.228 309.076C180.017 308.868 179.702 308.764 179.284 308.764C178.848 308.764 178.505 308.861 178.254 309.054C178.006 309.245 177.834 309.457 177.739 309.69L176.523 309.413C176.667 309.009 176.878 308.683 177.155 308.435C177.435 308.184 177.756 308.003 178.12 307.89C178.483 307.775 178.866 307.717 179.267 307.717C179.532 307.717 179.813 307.749 180.111 307.812C180.411 307.873 180.691 307.985 180.95 308.15C181.213 308.314 181.428 308.549 181.595 308.855C181.762 309.158 181.846 309.552 181.846 310.037V314.451H180.582V313.542H180.53C180.447 313.71 180.321 313.874 180.154 314.036C179.987 314.197 179.772 314.331 179.509 314.438C179.246 314.545 178.932 314.598 178.566 314.598ZM178.847 313.56C179.205 313.56 179.511 313.489 179.764 313.348C180.021 313.206 180.216 313.022 180.349 312.794C180.484 312.563 180.552 312.316 180.552 312.053V311.197C180.506 311.243 180.416 311.286 180.284 311.326C180.154 311.364 180.005 311.397 179.838 311.426C179.671 311.452 179.508 311.476 179.349 311.5C179.19 311.52 179.058 311.537 178.951 311.551C178.7 311.583 178.47 311.637 178.263 311.712C178.058 311.787 177.893 311.895 177.769 312.036C177.648 312.175 177.587 312.359 177.587 312.59C177.587 312.91 177.706 313.153 177.942 313.317C178.179 313.479 178.48 313.56 178.847 313.56ZM183.77 314.451V307.803H185.021V308.859H185.09C185.211 308.502 185.424 308.22 185.73 308.016C186.039 307.808 186.388 307.704 186.778 307.704C186.858 307.704 186.954 307.707 187.063 307.713C187.176 307.718 187.264 307.726 187.327 307.734V308.972C187.275 308.958 187.183 308.942 187.05 308.924C186.918 308.904 186.785 308.894 186.652 308.894C186.346 308.894 186.074 308.959 185.834 309.089C185.598 309.216 185.41 309.393 185.272 309.621C185.133 309.846 185.064 310.103 185.064 310.392V314.451H183.77ZM190.898 314.581C190.361 314.581 189.882 314.444 189.461 314.17C189.042 313.893 188.714 313.499 188.474 312.988C188.237 312.475 188.119 311.859 188.119 311.14C188.119 310.422 188.239 309.807 188.478 309.297C188.721 308.786 189.053 308.395 189.474 308.124C189.895 307.852 190.373 307.717 190.906 307.717C191.319 307.717 191.651 307.786 191.902 307.925C192.156 308.06 192.352 308.219 192.49 308.401C192.632 308.582 192.741 308.743 192.819 308.881H192.897V305.588H194.191V314.451H192.928V313.417H192.819C192.741 313.558 192.629 313.72 192.482 313.902C192.337 314.083 192.138 314.242 191.884 314.378C191.631 314.513 191.302 314.581 190.898 314.581ZM191.183 313.477C191.556 313.477 191.87 313.379 192.127 313.183C192.387 312.984 192.583 312.708 192.715 312.356C192.851 312.004 192.919 311.595 192.919 311.127C192.919 310.666 192.853 310.262 192.72 309.915C192.587 309.569 192.392 309.299 192.136 309.106C191.879 308.913 191.561 308.816 191.183 308.816C190.794 308.816 190.469 308.917 190.21 309.119C189.95 309.321 189.754 309.597 189.621 309.946C189.491 310.295 189.426 310.689 189.426 311.127C189.426 311.572 189.493 311.971 189.625 312.326C189.758 312.681 189.954 312.962 190.214 313.17C190.476 313.375 190.8 313.477 191.183 313.477Z" fill="#0A2540"/>
<rect x="112.5" y="324.951" width="383" height="39" rx="5.5" fill="white"/>
<rect x="112.5" y="324.951" width="383" height="39" rx="5.5" stroke="#E6EBF1"/>
</g>
</g>
</g>
<g opacity="0.3">
<path d="M4 4.80078H504V334.131C504 336.34 502.209 338.131 500 338.131H8.00001C5.79087 338.131 4 336.34 4 334.131V4.80078Z" fill="url(#paint0_linear_4003_1132)"/>
</g>
</g>
<defs>
<linearGradient id="paint0_linear_4003_1132" x1="254" y1="4.80078" x2="254" y2="338.131" gradientUnits="userSpaceOnUse">
<stop stop-color="#BEC9DC" stop-opacity="0"/>
<stop offset="1" stop-color="#BEC9DC" stop-opacity="0.4"/>
</linearGradient>
<clipPath id="clip0_4003_1132">
<rect x="4" y="4.80078" width="500" height="333.33" rx="4" fill="white"/>
</clipPath>
<clipPath id="clip1_4003_1132">
<rect x="4" y="4.80078" width="500" height="333.33" rx="4" fill="white"/>
</clipPath>
<clipPath id="clip2_4003_1132">
<rect width="500" height="333.33" fill="white" transform="translate(74 71.4512)"/>
</clipPath>
<clipPath id="clip3_4003_1132">
<rect x="74" y="71.4512" width="460" height="363" rx="8" fill="white"/>
</clipPath>
</defs>
</svg>
