<svg width="20" height="21" viewBox="0 0 20 21" fill="none" xmlns="http://www.w3.org/2000/svg">
<path d="M15.77 2.13086H5.92C5.5 2.13086 5.105 2.34586 4.875 2.70086C4.76196 2.87691 4.69455 3.07835 4.67884 3.28697C4.66312 3.4956 4.69961 3.70486 4.785 3.89586L7.335 9.62586C7.485 9.94586 7.485 10.3159 7.335 10.6359L4 18.1309H15.77C16.255 18.1309 16.7 17.8409 16.9 17.3909L19.89 10.6409C20.04 10.3159 20.04 9.94586 19.89 9.62086L16.9 2.87086C16.8033 2.65148 16.6452 2.46483 16.4446 2.33349C16.2441 2.20216 16.0097 2.13177 15.77 2.13086Z" fill="#9966FF"/>
<path d="M3.61514 18.1309C3.44569 18.1307 3.27837 18.0932 3.12514 18.0209H3.14514C2.87127 17.8988 2.65223 17.6797 2.53014 17.4059L0.110135 11.8959C0.0257592 11.7057 -0.0106169 11.4978 0.00420428 11.2903C0.0190255 11.0828 0.0845902 10.8821 0.195135 10.7059C0.305 10.5304 0.457556 10.3856 0.638554 10.285C0.819551 10.1845 1.02308 10.1314 1.23014 10.1309H10.9801C11.4651 10.1309 11.9001 10.4159 12.0951 10.8609L14.4951 16.2859L14.8351 17.0509C14.8851 17.1609 14.9501 17.2609 15.0251 17.3509C15.2701 17.6709 15.6251 18.0009 16.0151 18.1059C15.9601 18.1209 15.8651 18.1309 15.7401 18.1309H3.61014H3.61514Z" fill="url(#paint0_linear_4003_1230)"/>
<path d="M10.985 10.13C11.435 10.13 11.845 10.38 12.055 10.78L12.095 10.86L14.495 16.285L14.835 17.05C15.0871 17.5107 15.4946 17.8669 15.985 18.055L16.075 18.09C15.975 18.115 15.875 18.13 15.77 18.13H4L7.335 10.63C7.41 10.47 7.445 10.3 7.445 10.125H10.985V10.13Z" fill="url(#paint1_linear_4003_1230)"/>
<defs>
<linearGradient id="paint0_linear_4003_1230" x1="8.00513" y1="17.9259" x2="8.00513" y2="10.7109" gradientUnits="userSpaceOnUse">
<stop stop-color="#21CFE0"/>
<stop offset="0.17" stop-color="#20D1E0"/>
<stop offset="0.38" stop-color="#18E2E2"/>
<stop offset="0.61" stop-color="#13ECE3"/>
<stop offset="1" stop-color="#11EFE3"/>
</linearGradient>
<linearGradient id="paint1_linear_4003_1230" x1="10.535" y1="21.63" x2="10.535" y2="7.38" gradientUnits="userSpaceOnUse">
<stop stop-color="#0048E5"/>
<stop offset="1" stop-color="#9B66FF"/>
</linearGradient>
</defs>
</svg>
