<svg width="20" height="21" viewBox="0 0 20 21" fill="none" xmlns="http://www.w3.org/2000/svg">
<path d="M6.235 0.806396C4.56266 0.9123 2.99569 1.65947 1.86066 2.89221C0.725627 4.12494 0.110087 5.74813 0.142318 7.42351C0.174549 9.09889 0.852066 10.6972 2.03367 11.8854C3.21528 13.0735 4.80982 13.7599 6.485 13.8014H11.76C12.445 13.8014 13 13.2514 13 12.5614V7.3064C13.0014 6.42984 12.8254 5.56206 12.4826 4.75533C12.1397 3.94861 11.6371 3.21963 11.005 2.61231C10.3729 2.00499 9.62447 1.5319 8.80469 1.22154C7.98492 0.911171 7.1108 0.769956 6.235 0.806396Z" fill="url(#paint0_linear_4003_911)"/>
<path d="M13.765 20.7958C15.4373 20.6899 17.0043 19.9427 18.1393 18.71C19.2744 17.4772 19.8899 15.854 19.8577 14.1787C19.8255 12.5033 19.1479 10.905 17.9663 9.7168C16.7847 8.52864 15.1902 7.84229 13.515 7.80078H8.24001C7.91114 7.80078 7.59574 7.93142 7.3632 8.16397C7.13065 8.39651 7.00001 8.71191 7.00001 9.04078V14.2958C6.99858 15.1723 7.17459 16.0401 7.51745 16.8468C7.8603 17.6536 8.36291 18.3826 8.99499 18.9899C9.62707 19.5972 10.3755 20.0703 11.1953 20.3806C12.0151 20.691 12.8892 20.8322 13.765 20.7958Z" fill="#0073E6"/>
<path d="M13 7.79992V12.5599C13 12.8888 12.8694 13.2042 12.6368 13.4367C12.4043 13.6693 12.0889 13.7999 11.76 13.7999H7V9.03992C6.99935 8.72446 7.11895 8.4206 7.33446 8.19022C7.54998 7.95985 7.84519 7.82027 8.16 7.79992L8.24 7.79492H13V7.79992Z" fill="url(#paint1_linear_4003_911)"/>
<defs>
<linearGradient id="paint0_linear_4003_911" x1="6.5" y1="1.6564" x2="6.5" y2="8.4264" gradientUnits="userSpaceOnUse">
<stop stop-color="#11EFE3"/>
<stop offset="0.33" stop-color="#15E8E2"/>
<stop offset="0.74" stop-color="#1FD3E0"/>
<stop offset="1" stop-color="#21CFE0"/>
</linearGradient>
<linearGradient id="paint1_linear_4003_911" x1="10" y1="8.65992" x2="10" y2="14.4199" gradientUnits="userSpaceOnUse">
<stop stop-color="#00299C"/>
<stop offset="1" stop-color="#0073E6"/>
</linearGradient>
</defs>
</svg>
