<svg width="20" height="19" viewBox="0 0 20 19" fill="none" xmlns="http://www.w3.org/2000/svg">
<path d="M16.9002 0.750234C18.5202 0.750234 19.8202 2.05023 19.8202 3.66023V16.7602C19.8202 17.5602 19.1702 18.2102 18.3602 18.2102H3.42018C1.27018 18.2102 0.180176 17.1602 0.180176 15.3802V6.88023C0.180176 4.43023 2.36018 3.68023 4.30018 3.68023C4.30018 2.05023 5.60018 0.740234 7.21018 0.740234H16.9102L16.9002 0.750234ZM7.83018 4.03023C7.67465 4.00912 7.5164 4.02153 7.36607 4.06664C7.21574 4.11174 7.0768 4.1885 6.95858 4.29175C6.84037 4.39499 6.74562 4.52235 6.6807 4.66524C6.61578 4.80814 6.58219 4.96328 6.58219 5.12023C6.58219 5.27719 6.61578 5.43233 6.6807 5.57522C6.74562 5.71812 6.84037 5.84547 6.95858 5.94872C7.0768 6.05197 7.21574 6.12873 7.36607 6.17383C7.5164 6.21894 7.67465 6.23135 7.83018 6.21023H13.2802C13.4357 6.23135 13.5939 6.21894 13.7443 6.17383C13.8946 6.12873 14.0336 6.05197 14.1518 5.94872C14.27 5.84547 14.3647 5.71812 14.4297 5.57522C14.4946 5.43233 14.5282 5.27719 14.5282 5.12023C14.5282 4.96328 14.4946 4.80814 14.4297 4.66524C14.3647 4.52235 14.27 4.39499 14.1518 4.29175C14.0336 4.1885 13.8946 4.11174 13.7443 4.06664C13.5939 4.02153 13.4357 4.00912 13.2802 4.03023H7.82018H7.83018ZM7.83018 8.39023C7.67465 8.36912 7.5164 8.38153 7.36607 8.42664C7.21574 8.47174 7.0768 8.5485 6.95858 8.65175C6.84037 8.75499 6.74562 8.88235 6.6807 9.02524C6.61578 9.16814 6.58219 9.32328 6.58219 9.48023C6.58219 9.63719 6.61578 9.79233 6.6807 9.93522C6.74562 10.0781 6.84037 10.2055 6.95858 10.3087C7.0768 10.412 7.21574 10.4887 7.36607 10.5338C7.5164 10.5789 7.67465 10.5913 7.83018 10.5702H16.5602C16.8239 10.5344 17.0656 10.4043 17.2407 10.2038C17.4157 10.0034 17.5122 9.74634 17.5122 9.48023C17.5122 9.21413 17.4157 8.95705 17.2407 8.75663C17.0656 8.55621 16.8239 8.42603 16.5602 8.39023H7.82018H7.83018ZM7.83018 12.7502C7.67465 12.7291 7.5164 12.7415 7.36607 12.7866C7.21574 12.8317 7.0768 12.9085 6.95858 13.0117C6.84037 13.115 6.74562 13.2423 6.6807 13.3852C6.61578 13.5281 6.58219 13.6833 6.58219 13.8402C6.58219 13.9972 6.61578 14.1523 6.6807 14.2952C6.74562 14.4381 6.84037 14.5655 6.95858 14.6687C7.0768 14.772 7.21574 14.8487 7.36607 14.8938C7.5164 14.9389 7.67465 14.9513 7.83018 14.9302H16.5602C16.7157 14.9513 16.8739 14.9389 17.0243 14.8938C17.1746 14.8487 17.3136 14.772 17.4318 14.6687C17.55 14.5655 17.6447 14.4381 17.7097 14.2952C17.7746 14.1523 17.8082 13.9972 17.8082 13.8402C17.8082 13.6833 17.7746 13.5281 17.7097 13.3852C17.6447 13.2423 17.55 13.115 17.4318 13.0117C17.3136 12.9085 17.1746 12.8317 17.0243 12.7866C16.8739 12.7415 16.7157 12.7291 16.5602 12.7502H7.82018H7.83018ZM4.00018 6.21023C3.10018 6.21023 2.36018 6.94023 2.36018 7.84023V14.9402C2.36018 15.5402 2.86018 16.0302 3.46018 16.0302H4.55018V6.21023H4.00018Z" fill="white"/>
</svg>
