<svg width="508" height="339" viewBox="0 0 508 339" fill="none" xmlns="http://www.w3.org/2000/svg">
<g clip-path="url(#clip0_4003_1384)">
<rect x="4" y="4.80078" width="500" height="333.33" rx="4" fill="#F6F9FC"/>
<g clip-path="url(#clip1_4003_1384)">
<g clip-path="url(#clip2_4003_1384)">
<path d="M108.477 68.2671V71.7811H106.86V62.7051H110.487C112.51 62.7051 113.774 63.6531 113.774 65.4861C113.774 67.2941 112.51 68.2671 110.487 68.2671H108.477ZM108.477 66.8771H110.4C111.563 66.8771 112.182 66.3711 112.182 65.4871C112.182 64.5891 111.562 64.0961 110.4 64.0961H108.478V66.8761L108.477 66.8771ZM120.44 68.4691C120.44 70.5291 119.113 71.9201 117.243 71.9201C115.372 71.9201 114.045 70.5301 114.045 68.4701C114.045 66.4091 115.372 65.0191 117.243 65.0191C119.113 65.0191 120.44 66.4091 120.44 68.4691ZM115.574 68.4691C115.574 69.8221 116.219 70.6431 117.243 70.6431C118.266 70.6431 118.911 69.8221 118.911 68.4691C118.911 67.1171 118.266 66.2951 117.243 66.2951C116.219 66.2951 115.574 67.1171 115.574 68.4691ZM124.658 65.1451H125.909L127.097 69.5441L128.273 65.1451H129.777L127.78 71.7811H126.465L125.252 67.4331L124.038 71.7811H122.724L120.727 65.1451H122.281L123.482 69.5441L124.658 65.1451ZM132.974 71.9201C131.116 71.9201 130.054 70.3531 130.054 68.4701C130.054 66.5861 131.116 65.0191 132.974 65.0191C133.834 65.0191 134.466 65.3591 134.883 65.8531V62.7051H136.4V71.7811H134.883V71.0861C134.466 71.5791 133.833 71.9201 132.974 71.9201ZM134.921 68.2801C134.921 67.0281 134.213 66.3461 133.278 66.3461C132.178 66.3461 131.584 67.2061 131.584 68.4691C131.584 69.7331 132.178 70.5931 133.278 70.5931C134.213 70.5931 134.921 69.8981 134.921 68.6721V68.2801ZM143.513 65.1451V71.7811H141.996V71.0731C141.616 71.5161 141.048 71.9201 140.188 71.9201C138.798 71.9201 137.938 70.9721 137.938 69.5441V65.1451H139.455V69.2151C139.455 70.0241 139.809 70.5421 140.631 70.5421C141.313 70.5421 141.996 70.0371 141.996 69.0891V65.1451H143.513ZM148.878 65.1321V66.6491C148.694 66.623 148.508 66.6103 148.322 66.6111C147.362 66.6111 146.628 67.2311 146.628 68.2921V71.7811H145.111V65.1451H146.628V66.1311C146.918 65.5111 147.601 65.1071 148.448 65.1071C148.625 65.1071 148.764 65.1201 148.878 65.1321Z" fill="#2E3A55"/>
<path d="M100.5 67.0312C100.5 73.7962 95.015 79.2812 88.25 79.2812C81.485 79.2812 76 73.7962 76 67.0312C76 60.2663 81.485 54.7812 88.25 54.7812C95.015 54.7812 100.5 60.2663 100.5 67.0312Z" fill="black"/>
<path d="M89.13 60.9609C88.674 60.9609 88.267 61.1069 87.905 61.4059C87.559 61.6999 87.325 62.1139 87.205 62.6409V69.5989C87.527 69.9469 87.945 70.1179 88.469 70.1179C89.323 70.1179 89.939 69.7109 90.313 68.9019C90.688 68.0769 90.873 66.8849 90.873 65.3159C90.873 63.7479 90.72 62.6289 90.414 61.9629C90.116 61.2929 89.689 60.9599 89.129 60.9599L89.13 60.9609ZM90.31 60.1309C91.006 60.1309 91.618 60.3099 92.154 60.6699C92.701 61.0299 93.128 61.5679 93.438 62.2879C93.744 63.0079 93.901 63.8879 93.901 64.9289C93.901 66.7689 93.479 68.1819 92.637 69.1689C91.807 70.1449 90.68 70.6329 89.25 70.6329C88.847 70.6329 88.469 70.5829 88.106 70.4779C87.7783 70.3846 87.4719 70.2284 87.204 70.0179V71.9449C87.204 72.5109 87.354 72.9019 87.647 73.1229C87.941 73.3389 88.397 73.4519 89.012 73.4519V73.8579L88.472 73.8379C87.5306 73.8099 86.5888 73.7909 85.647 73.7809C85.244 73.7809 84.402 73.8079 83.122 73.8579V73.4519C83.561 73.4519 83.871 73.3549 84.044 73.1619C84.229 72.9789 84.326 72.6419 84.326 72.1389V62.4969C84.326 61.9049 84.226 61.4749 84.024 61.2039C83.839 60.9339 83.508 60.7979 83.041 60.7979V60.3909C83.468 60.4299 83.883 60.4489 84.286 60.4489C85.449 60.4489 86.424 60.3599 87.213 60.1779V61.9509C87.4717 61.3848 87.8997 60.9131 88.438 60.6009C88.961 60.2909 89.589 60.1309 90.31 60.1309Z" fill="white"/>
<rect x="76" y="99.7812" width="356" height="212" rx="8" fill="white"/>
<path d="M105.355 156.053V133.339H106.81V156.053H105.355ZM109.907 140.384C109.812 139.544 109.422 138.894 108.735 138.432C108.049 137.965 107.186 137.731 106.145 137.731C105.399 137.731 104.755 137.85 104.211 138.086C103.666 138.317 103.244 138.636 102.942 139.044C102.646 139.447 102.498 139.905 102.498 140.42C102.498 140.851 102.599 141.224 102.8 141.537C103.007 141.851 103.276 142.114 103.607 142.327C103.944 142.534 104.305 142.709 104.69 142.851C105.074 142.987 105.444 143.099 105.799 143.188L107.573 143.649C108.153 143.791 108.747 143.983 109.357 144.226C109.966 144.468 110.531 144.788 111.051 145.184C111.572 145.58 111.992 146.071 112.311 146.657C112.636 147.242 112.799 147.943 112.799 148.76C112.799 149.789 112.533 150.703 112 151.501C111.474 152.3 110.708 152.93 109.703 153.391C108.703 153.852 107.493 154.083 106.074 154.083C104.713 154.083 103.536 153.867 102.543 153.435C101.549 153.003 100.771 152.391 100.209 151.599C99.6473 150.8 99.3368 149.854 99.2776 148.76H102.028C102.081 149.416 102.294 149.963 102.667 150.401C103.045 150.833 103.527 151.155 104.113 151.368C104.704 151.575 105.352 151.679 106.056 151.679C106.831 151.679 107.52 151.557 108.123 151.315C108.733 151.066 109.212 150.723 109.561 150.286C109.91 149.842 110.084 149.324 110.084 148.733C110.084 148.195 109.93 147.754 109.623 147.411C109.321 147.068 108.91 146.784 108.389 146.559C107.875 146.334 107.292 146.136 106.642 145.965L104.495 145.379C103.039 144.983 101.886 144.4 101.034 143.631C100.188 142.862 99.7656 141.845 99.7656 140.579C99.7656 139.532 100.049 138.619 100.617 137.838C101.185 137.057 101.954 136.451 102.924 136.019C103.894 135.581 104.988 135.362 106.207 135.362C107.437 135.362 108.523 135.578 109.463 136.01C110.409 136.442 111.155 137.036 111.699 137.793C112.243 138.545 112.527 139.408 112.551 140.384H109.907ZM123.12 135.611V153.781H120.37V138.361H120.264L115.916 141.2V138.574L120.45 135.611H123.12ZM128.054 150.232V148.014L135.906 135.611H137.654V138.876H136.545L130.929 147.766V147.908H141.691V150.232H128.054ZM136.669 153.781V149.558L136.687 148.547V135.611H139.286V153.781H136.669ZM144.801 150.232V148.014L152.653 135.611H154.401V138.876H153.292L147.676 147.766V147.908H158.438V150.232H144.801ZM153.416 153.781V149.558L153.434 148.547V135.611H156.034V153.781H153.416ZM163.03 153.95C162.545 153.95 162.128 153.778 161.779 153.435C161.43 153.086 161.256 152.666 161.256 152.175C161.256 151.69 161.43 151.276 161.779 150.933C162.128 150.584 162.545 150.41 163.03 150.41C163.515 150.41 163.932 150.584 164.281 150.933C164.63 151.276 164.805 151.69 164.805 152.175C164.805 152.501 164.722 152.799 164.556 153.071C164.397 153.338 164.184 153.551 163.917 153.71C163.651 153.87 163.356 153.95 163.03 153.95ZM168.871 153.781L176.803 138.095V137.962H167.629V135.611H179.642V138.042L171.737 153.781H168.871ZM188.901 154.03C187.629 154.03 186.506 153.811 185.53 153.373C184.56 152.935 183.8 152.332 183.249 151.563C182.699 150.794 182.427 149.919 182.433 148.937C182.427 148.168 182.584 147.461 182.903 146.817C183.229 146.166 183.669 145.625 184.225 145.193C184.781 144.755 185.402 144.477 186.089 144.359V144.252C185.184 144.034 184.459 143.549 183.915 142.797C183.371 142.046 183.102 141.183 183.108 140.207C183.102 139.278 183.347 138.45 183.844 137.722C184.347 136.989 185.036 136.412 185.911 135.992C186.787 135.572 187.783 135.362 188.901 135.362C190.007 135.362 190.995 135.575 191.864 136.001C192.74 136.421 193.429 136.998 193.932 137.731C194.434 138.459 194.689 139.284 194.695 140.207C194.689 141.183 194.411 142.046 193.861 142.797C193.311 143.549 192.595 144.034 191.714 144.252V144.359C192.394 144.477 193.006 144.755 193.55 145.193C194.1 145.625 194.538 146.166 194.863 146.817C195.195 147.461 195.363 148.168 195.369 148.937C195.363 149.919 195.085 150.794 194.535 151.563C193.985 152.332 193.222 152.935 192.246 153.373C191.276 153.811 190.161 154.03 188.901 154.03ZM188.901 151.785C189.652 151.785 190.303 151.661 190.853 151.412C191.403 151.158 191.829 150.806 192.131 150.357C192.432 149.901 192.586 149.369 192.592 148.76C192.586 148.127 192.42 147.568 192.095 147.083C191.776 146.598 191.341 146.216 190.791 145.938C190.241 145.66 189.611 145.521 188.901 145.521C188.185 145.521 187.55 145.66 186.994 145.938C186.438 146.216 186 146.598 185.68 147.083C185.361 147.568 185.204 148.127 185.21 148.76C185.204 149.369 185.349 149.901 185.645 150.357C185.947 150.806 186.375 151.158 186.931 151.412C187.487 151.661 188.144 151.785 188.901 151.785ZM188.901 143.33C189.504 143.33 190.04 143.208 190.507 142.966C190.974 142.723 191.341 142.386 191.607 141.954C191.879 141.523 192.018 141.017 192.024 140.437C192.018 139.869 191.882 139.373 191.616 138.947C191.356 138.521 190.992 138.193 190.525 137.962C190.057 137.725 189.516 137.607 188.901 137.607C188.274 137.607 187.724 137.725 187.251 137.962C186.784 138.193 186.42 138.521 186.16 138.947C185.899 139.373 185.772 139.869 185.778 140.437C185.772 141.017 185.902 141.523 186.168 141.954C186.435 142.386 186.801 142.723 187.269 142.966C187.742 143.208 188.286 143.33 188.901 143.33Z" fill="#0A2540"/>
<path d="M100.956 174.781H98.7491V167.963H101.026C101.694 167.963 102.268 168.1 102.747 168.373C103.227 168.643 103.594 169.033 103.849 169.541C104.107 170.047 104.236 170.654 104.236 171.362C104.236 172.072 104.106 172.683 103.846 173.193C103.589 173.704 103.216 174.097 102.727 174.372C102.239 174.645 101.649 174.781 100.956 174.781ZM99.7778 173.882H100.9C101.419 173.882 101.851 173.785 102.195 173.589C102.539 173.392 102.796 173.107 102.967 172.734C103.138 172.359 103.223 171.902 103.223 171.362C103.223 170.827 103.138 170.373 102.967 170.001C102.798 169.628 102.547 169.345 102.211 169.152C101.876 168.958 101.46 168.862 100.963 168.862H99.7778V173.882ZM108.754 172.661V169.668H109.753V174.781H108.774V173.896H108.721C108.603 174.169 108.415 174.396 108.155 174.578C107.898 174.758 107.577 174.848 107.193 174.848C106.864 174.848 106.574 174.776 106.321 174.631C106.07 174.485 105.872 174.269 105.728 173.982C105.586 173.696 105.515 173.342 105.515 172.92V169.668H106.51V172.8C106.51 173.149 106.607 173.426 106.8 173.633C106.993 173.839 107.244 173.942 107.552 173.942C107.739 173.942 107.924 173.896 108.108 173.802C108.295 173.709 108.449 173.568 108.571 173.38C108.695 173.191 108.756 172.951 108.754 172.661ZM113.374 174.884C112.871 174.884 112.437 174.777 112.073 174.562C111.711 174.344 111.431 174.039 111.234 173.646C111.038 173.251 110.941 172.788 110.941 172.258C110.941 171.734 111.038 171.272 111.234 170.873C111.431 170.473 111.706 170.161 112.059 169.937C112.414 169.713 112.83 169.601 113.304 169.601C113.593 169.601 113.873 169.649 114.143 169.744C114.414 169.84 114.657 169.989 114.873 170.194C115.088 170.398 115.258 170.663 115.382 170.989C115.506 171.313 115.568 171.707 115.568 172.171V172.524H111.503V171.778H114.593C114.593 171.516 114.54 171.284 114.433 171.083C114.327 170.878 114.177 170.717 113.984 170.6C113.793 170.482 113.569 170.423 113.311 170.423C113.031 170.423 112.787 170.492 112.579 170.63C112.372 170.765 112.213 170.943 112.099 171.162C111.988 171.38 111.933 171.616 111.933 171.872V172.454C111.933 172.796 111.993 173.087 112.113 173.326C112.235 173.566 112.404 173.749 112.622 173.876C112.84 174 113.094 174.062 113.384 174.062C113.573 174.062 113.745 174.036 113.9 173.982C114.056 173.927 114.19 173.845 114.303 173.736C114.416 173.627 114.503 173.493 114.563 173.333L115.505 173.503C115.43 173.78 115.294 174.023 115.099 174.232C114.906 174.438 114.663 174.599 114.37 174.715C114.079 174.828 113.747 174.884 113.374 174.884ZM119.394 174.781V167.963H123.622V168.849H120.422V170.926H123.319V171.808H120.422V174.781H119.394ZM126.716 174.884C126.212 174.884 125.778 174.777 125.414 174.562C125.052 174.344 124.772 174.039 124.575 173.646C124.38 173.251 124.282 172.788 124.282 172.258C124.282 171.734 124.38 171.272 124.575 170.873C124.772 170.473 125.048 170.161 125.401 169.937C125.756 169.713 126.171 169.601 126.646 169.601C126.934 169.601 127.214 169.649 127.485 169.744C127.755 169.84 127.998 169.989 128.214 170.194C128.429 170.398 128.599 170.663 128.723 170.989C128.847 171.313 128.91 171.707 128.91 172.171V172.524H124.845V171.778H127.934C127.934 171.516 127.881 171.284 127.774 171.083C127.668 170.878 127.518 170.717 127.325 170.6C127.134 170.482 126.91 170.423 126.652 170.423C126.373 170.423 126.129 170.492 125.92 170.63C125.714 170.765 125.554 170.943 125.441 171.162C125.33 171.38 125.274 171.616 125.274 171.872V172.454C125.274 172.796 125.334 173.087 125.454 173.326C125.576 173.566 125.746 173.749 125.963 173.876C126.181 174 126.435 174.062 126.726 174.062C126.914 174.062 127.086 174.036 127.242 173.982C127.397 173.927 127.531 173.845 127.644 173.736C127.758 173.627 127.844 173.493 127.904 173.333L128.846 173.503C128.771 173.78 128.635 174.023 128.44 174.232C128.247 174.438 128.004 174.599 127.711 174.715C127.42 174.828 127.088 174.884 126.716 174.884ZM130.174 174.781V167.963H131.169V170.497H131.229C131.287 170.39 131.37 170.267 131.479 170.127C131.588 169.987 131.739 169.865 131.932 169.761C132.125 169.654 132.38 169.601 132.697 169.601C133.11 169.601 133.479 169.705 133.803 169.914C134.127 170.123 134.381 170.423 134.565 170.816C134.752 171.209 134.845 171.682 134.845 172.234C134.845 172.787 134.753 173.261 134.568 173.656C134.384 174.049 134.131 174.352 133.809 174.565C133.488 174.776 133.12 174.881 132.707 174.881C132.397 174.881 132.143 174.829 131.945 174.725C131.75 174.62 131.597 174.498 131.486 174.358C131.375 174.219 131.289 174.094 131.229 173.986H131.146V174.781H130.174ZM131.149 172.224C131.149 172.584 131.202 172.899 131.306 173.17C131.41 173.441 131.561 173.653 131.759 173.806C131.956 173.957 132.198 174.032 132.484 174.032C132.782 174.032 133.03 173.953 133.23 173.796C133.43 173.636 133.581 173.42 133.683 173.147C133.787 172.874 133.839 172.566 133.839 172.224C133.839 171.887 133.788 171.584 133.686 171.316C133.586 171.047 133.435 170.835 133.233 170.68C133.034 170.524 132.784 170.447 132.484 170.447C132.196 170.447 131.952 170.521 131.752 170.67C131.554 170.818 131.405 171.026 131.302 171.292C131.2 171.559 131.149 171.869 131.149 172.224ZM141.177 167.963V174.781H140.145V168.995H140.105L138.474 170.06V169.075L140.175 167.963H141.177ZM145.369 167.87C145.673 167.872 145.972 167.928 146.267 168.036C146.563 168.145 146.829 168.323 147.067 168.569C147.306 168.815 147.497 169.148 147.639 169.568C147.783 169.985 147.857 170.504 147.859 171.126C147.859 171.723 147.799 172.254 147.679 172.72C147.559 173.184 147.387 173.576 147.163 173.896C146.941 174.215 146.671 174.458 146.354 174.625C146.037 174.791 145.679 174.874 145.282 174.874C144.876 174.874 144.515 174.795 144.2 174.635C143.885 174.475 143.629 174.254 143.431 173.972C143.233 173.688 143.11 173.362 143.061 172.993H144.077C144.143 173.286 144.279 173.524 144.483 173.706C144.689 173.886 144.956 173.976 145.282 173.976C145.781 173.976 146.171 173.758 146.451 173.323C146.73 172.886 146.871 172.275 146.873 171.492H146.82C146.705 171.683 146.56 171.847 146.387 171.985C146.216 172.122 146.024 172.229 145.811 172.304C145.598 172.38 145.371 172.418 145.129 172.418C144.736 172.418 144.379 172.321 144.057 172.128C143.735 171.935 143.479 171.67 143.288 171.332C143.097 170.995 143.002 170.61 143.002 170.177C143.002 169.746 143.099 169.356 143.295 169.005C143.492 168.654 143.767 168.377 144.12 168.173C144.475 167.966 144.891 167.865 145.369 167.87ZM145.372 168.735C145.112 168.735 144.878 168.8 144.669 168.929C144.463 169.055 144.3 169.227 144.18 169.445C144.06 169.66 144 169.9 144 170.164C144 170.428 144.058 170.667 144.173 170.883C144.291 171.096 144.451 171.266 144.653 171.392C144.857 171.516 145.09 171.579 145.352 171.579C145.547 171.579 145.729 171.541 145.898 171.465C146.067 171.39 146.214 171.286 146.341 171.152C146.467 171.017 146.566 170.864 146.637 170.693C146.708 170.522 146.744 170.342 146.744 170.154C146.744 169.903 146.684 169.67 146.564 169.455C146.446 169.239 146.284 169.066 146.078 168.935C145.871 168.802 145.636 168.735 145.372 168.735Z" fill="#727F96"/>
<mask id="mask0_4003_1384" style="mask-type:luminance" maskUnits="userSpaceOnUse" x="340" y="123" width="60" height="71">
<path d="M340 123.781H400V193.781H340V123.781Z" fill="white"/>
</mask>
<g mask="url(#mask0_4003_1384)">
<path d="M387.622 127.781H347.083C345.38 127.781 344 129.162 344 130.864V182.392C344 184.095 345.38 185.475 347.083 185.475H387.622C389.325 185.475 390.705 184.095 390.705 182.392V130.864C390.705 129.162 389.325 127.781 387.622 127.781Z" fill="white"/>
<path d="M357.738 138.769C357.738 136.493 355.893 134.648 353.617 134.648C351.341 134.648 349.496 136.493 349.496 138.769C349.496 141.045 351.341 142.89 353.617 142.89C355.893 142.89 357.738 141.045 357.738 138.769Z" fill="#E7ECF1"/>
<path d="M371.472 137.396H363.231C362.472 137.396 361.857 138.011 361.857 138.77C361.857 139.529 362.472 140.143 363.231 140.143H371.472C372.231 140.143 372.846 139.529 372.846 138.77C372.846 138.011 372.231 137.396 371.472 137.396Z" fill="#E7ECF1"/>
<path d="M356.364 149.76H350.87C350.111 149.76 349.496 150.375 349.496 151.133C349.496 151.892 350.111 152.507 350.87 152.507H356.364C357.123 152.507 357.738 151.892 357.738 151.133C357.738 150.375 357.123 149.76 356.364 149.76Z" fill="#E7ECF1"/>
<path d="M356.364 156.629H350.87C350.111 156.629 349.496 157.244 349.496 158.002C349.496 158.761 350.111 159.376 350.87 159.376H356.364C357.123 159.376 357.738 158.761 357.738 158.002C357.738 157.244 357.123 156.629 356.364 156.629Z" fill="#E7ECF1"/>
<path d="M383.837 174.486H378.343C377.584 174.486 376.969 175.101 376.969 175.86C376.969 176.618 377.584 177.233 378.343 177.233H383.837C384.596 177.233 385.211 176.618 385.211 175.86C385.211 175.101 384.596 174.486 383.837 174.486Z" fill="#E7ECF1"/>
<path d="M375.593 149.76H363.231C362.472 149.76 361.857 150.375 361.857 151.133C361.857 151.892 362.472 152.507 363.231 152.507H375.593C376.352 152.507 376.967 151.892 376.967 151.133C376.967 150.375 376.352 149.76 375.593 149.76Z" fill="#E7ECF1"/>
<path d="M375.593 156.629H363.231C362.472 156.629 361.857 157.244 361.857 158.002C361.857 158.761 362.472 159.376 363.231 159.376H375.593C376.352 159.376 376.967 158.761 376.967 158.002C376.967 157.244 376.352 156.629 375.593 156.629Z" fill="#E7ECF1"/>
<path d="M370.101 174.486H350.87C350.111 174.486 349.496 175.101 349.496 175.86C349.496 176.618 350.111 177.233 350.87 177.233H370.101C370.86 177.233 371.475 176.618 371.475 175.86C371.475 175.101 370.86 174.486 370.101 174.486Z" fill="#E7ECF1"/>
<path d="M383.837 167.619H350.87C350.111 167.619 349.496 168.234 349.496 168.993C349.496 169.751 350.111 170.366 350.87 170.366H383.837C384.596 170.366 385.211 169.751 385.211 168.993C385.211 168.234 384.596 167.619 383.837 167.619Z" fill="#E7ECF1"/>
<path d="M397.959 184.053C397.959 178.944 393.818 174.803 388.709 174.803C383.6 174.803 379.459 178.944 379.459 184.053C379.459 189.161 383.6 193.303 388.709 193.303C393.818 193.303 397.959 189.161 397.959 184.053Z" fill="white"/>
<path fill-rule="evenodd" clip-rule="evenodd" d="M389.287 186.7L391.941 184.046C391.995 183.993 392.059 183.95 392.129 183.921C392.199 183.892 392.275 183.877 392.351 183.877C392.427 183.877 392.502 183.892 392.572 183.921C392.643 183.95 392.706 183.993 392.76 184.046C392.814 184.1 392.857 184.164 392.886 184.234C392.915 184.304 392.93 184.38 392.93 184.456C392.93 184.532 392.915 184.607 392.886 184.677C392.857 184.748 392.814 184.812 392.76 184.865L389.118 188.507C389.064 188.561 389.001 188.604 388.931 188.633C388.86 188.662 388.785 188.677 388.709 188.677C388.633 188.677 388.558 188.662 388.488 188.633C388.418 188.604 388.354 188.561 388.3 188.507L384.658 184.865C384.602 184.812 384.557 184.748 384.526 184.677C384.494 184.607 384.478 184.53 384.477 184.453C384.475 184.375 384.49 184.298 384.519 184.227C384.548 184.155 384.591 184.09 384.646 184.035C384.701 183.98 384.766 183.937 384.837 183.908C384.909 183.879 384.986 183.864 385.063 183.865C385.141 183.866 385.217 183.883 385.288 183.914C385.359 183.945 385.423 183.99 385.476 184.046L388.13 186.701V180.004C388.13 179.851 388.191 179.704 388.3 179.595C388.408 179.487 388.555 179.426 388.709 179.426C388.862 179.426 389.009 179.487 389.118 179.595C389.226 179.704 389.287 179.851 389.287 180.004V186.701V186.7Z" fill="#727F96"/>
</g>
<path d="M100.399 204.046V203.19H105.5V204.046H103.443V209.781H102.452V204.046H100.399ZM107.995 209.881C107.532 209.881 107.127 209.775 106.782 209.562C106.437 209.35 106.168 209.053 105.977 208.671C105.786 208.289 105.691 207.843 105.691 207.332C105.691 206.819 105.786 206.371 105.977 205.987C106.168 205.603 106.437 205.305 106.782 205.092C107.127 204.88 107.532 204.774 107.995 204.774C108.459 204.774 108.863 204.88 109.208 205.092C109.554 205.305 109.822 205.603 110.013 205.987C110.204 206.371 110.299 206.819 110.299 207.332C110.299 207.843 110.204 208.289 110.013 208.671C109.822 209.053 109.554 209.35 109.208 209.562C108.863 209.775 108.459 209.881 107.995 209.881ZM107.998 209.073C108.299 209.073 108.548 208.994 108.745 208.835C108.942 208.676 109.088 208.465 109.183 208.201C109.279 207.937 109.328 207.646 109.328 207.329C109.328 207.014 109.279 206.724 109.183 206.46C109.088 206.194 108.942 205.981 108.745 205.82C108.548 205.659 108.299 205.578 107.998 205.578C107.696 205.578 107.445 205.659 107.245 205.82C107.048 205.981 106.901 206.194 106.804 206.46C106.71 206.724 106.663 207.014 106.663 207.329C106.663 207.646 106.71 207.937 106.804 208.201C106.901 208.465 107.048 208.676 107.245 208.835C107.445 208.994 107.696 209.073 107.998 209.073Z" fill="#727F96"/>
<path d="M153.286 203.19H154.277V207.863C154.277 208.286 154.193 208.647 154.026 208.948C153.861 209.248 153.628 209.478 153.328 209.636C153.027 209.793 152.675 209.871 152.272 209.871C151.901 209.871 151.567 209.804 151.271 209.669C150.977 209.533 150.744 209.337 150.573 209.08C150.403 208.82 150.319 208.505 150.319 208.134H151.307C151.307 208.316 151.348 208.474 151.432 208.607C151.518 208.74 151.635 208.844 151.783 208.919C151.933 208.992 152.105 209.028 152.298 209.028C152.508 209.028 152.686 208.984 152.832 208.896C152.98 208.806 153.093 208.674 153.17 208.5C153.247 208.327 153.286 208.114 153.286 207.863V203.19ZM157.858 209.881C157.371 209.881 156.951 209.777 156.599 209.569C156.25 209.359 155.979 209.064 155.788 208.684C155.6 208.302 155.505 207.855 155.505 207.342C155.505 206.836 155.6 206.389 155.788 206.003C155.979 205.617 156.245 205.315 156.586 205.099C156.93 204.882 157.331 204.774 157.79 204.774C158.069 204.774 158.339 204.82 158.601 204.912C158.863 205.004 159.098 205.149 159.306 205.347C159.514 205.544 159.678 205.8 159.798 206.116C159.918 206.429 159.978 206.81 159.978 207.258V207.599H156.049V206.878H159.035C159.035 206.625 158.984 206.401 158.881 206.206C158.778 206.008 158.633 205.853 158.447 205.739C158.262 205.625 158.045 205.569 157.796 205.569C157.526 205.569 157.29 205.635 157.088 205.768C156.889 205.899 156.734 206.071 156.625 206.283C156.518 206.493 156.464 206.722 156.464 206.969V207.532C156.464 207.862 156.522 208.143 156.638 208.375C156.756 208.607 156.92 208.784 157.13 208.906C157.341 209.026 157.586 209.086 157.867 209.086C158.05 209.086 158.216 209.06 158.366 209.009C158.516 208.955 158.646 208.876 158.756 208.771C158.865 208.666 158.949 208.536 159.007 208.381L159.917 208.545C159.844 208.814 159.713 209.049 159.525 209.25C159.338 209.45 159.103 209.605 158.82 209.717C158.539 209.826 158.218 209.881 157.858 209.881ZM162.088 206.846V209.781H161.126V204.838H162.05V205.643H162.111C162.225 205.381 162.403 205.171 162.645 205.012C162.89 204.853 163.198 204.774 163.569 204.774C163.906 204.774 164.201 204.845 164.454 204.986C164.707 205.126 164.903 205.334 165.043 205.61C165.182 205.887 165.252 206.229 165.252 206.637V209.781H164.29V206.753C164.29 206.395 164.196 206.115 164.01 205.913C163.823 205.709 163.567 205.607 163.24 205.607C163.017 205.607 162.819 205.655 162.645 205.752C162.473 205.849 162.337 205.99 162.236 206.177C162.138 206.361 162.088 206.584 162.088 206.846ZM167.585 206.846V209.781H166.622V204.838H167.546V205.643H167.607C167.721 205.381 167.899 205.171 168.141 205.012C168.386 204.853 168.694 204.774 169.065 204.774C169.402 204.774 169.697 204.845 169.95 204.986C170.203 205.126 170.399 205.334 170.539 205.61C170.678 205.887 170.748 206.229 170.748 206.637V209.781H169.786V206.753C169.786 206.395 169.693 206.115 169.506 205.913C169.319 205.709 169.063 205.607 168.737 205.607C168.514 205.607 168.315 205.655 168.141 205.752C167.97 205.849 167.833 205.99 167.733 206.177C167.634 206.361 167.585 206.584 167.585 206.846ZM172.55 211.635C172.406 211.635 172.275 211.623 172.157 211.6C172.039 211.578 171.951 211.554 171.893 211.529L172.125 210.74C172.301 210.787 172.458 210.808 172.595 210.801C172.732 210.795 172.853 210.743 172.959 210.647C173.066 210.55 173.16 210.393 173.242 210.174L173.361 209.846L171.552 204.838H172.582L173.834 208.674H173.885L175.137 204.838H176.17L174.133 210.441C174.039 210.698 173.919 210.916 173.773 211.094C173.627 211.275 173.453 211.41 173.251 211.5C173.05 211.59 172.816 211.635 172.55 211.635ZM179.71 209.781V203.19H182.06C182.57 203.19 182.994 203.278 183.331 203.454C183.67 203.63 183.923 203.874 184.09 204.185C184.258 204.494 184.341 204.851 184.341 205.256C184.341 205.66 184.257 206.015 184.087 206.322C183.92 206.626 183.667 206.863 183.328 207.033C182.991 207.202 182.567 207.287 182.056 207.287H180.277V206.431H181.966C182.288 206.431 182.55 206.385 182.751 206.293C182.955 206.2 183.104 206.066 183.199 205.89C183.293 205.714 183.34 205.503 183.34 205.256C183.34 205.008 183.292 204.792 183.196 204.61C183.101 204.427 182.952 204.288 182.748 204.191C182.547 204.093 182.282 204.043 181.953 204.043H180.705V209.781H179.71ZM182.964 206.808L184.592 209.781H183.459L181.863 206.808H182.964ZM187.574 209.881C187.111 209.881 186.706 209.775 186.361 209.562C186.016 209.35 185.747 209.053 185.557 208.671C185.366 208.289 185.27 207.843 185.27 207.332C185.27 206.819 185.366 206.371 185.557 205.987C185.747 205.603 186.016 205.305 186.361 205.092C186.706 204.88 187.111 204.774 187.574 204.774C188.038 204.774 188.442 204.88 188.788 205.092C189.133 205.305 189.401 205.603 189.592 205.987C189.783 206.371 189.879 206.819 189.879 207.332C189.879 207.843 189.783 208.289 189.592 208.671C189.401 209.053 189.133 209.35 188.788 209.562C188.442 209.775 188.038 209.881 187.574 209.881ZM187.578 209.073C187.878 209.073 188.127 208.994 188.324 208.835C188.522 208.676 188.667 208.465 188.762 208.201C188.858 207.937 188.907 207.646 188.907 207.329C188.907 207.014 188.858 206.724 188.762 206.46C188.667 206.194 188.522 205.981 188.324 205.82C188.127 205.659 187.878 205.578 187.578 205.578C187.275 205.578 187.024 205.659 186.824 205.82C186.627 205.981 186.48 206.194 186.384 206.46C186.289 206.724 186.242 207.014 186.242 207.329C186.242 207.646 186.289 207.937 186.384 208.201C186.48 208.465 186.627 208.676 186.824 208.835C187.024 208.994 187.275 209.073 187.578 209.073ZM194.737 206.045L193.865 206.199C193.828 206.088 193.77 205.982 193.691 205.881C193.614 205.78 193.509 205.697 193.376 205.633C193.242 205.569 193.076 205.536 192.877 205.536C192.604 205.536 192.377 205.598 192.194 205.72C192.012 205.84 191.921 205.996 191.921 206.187C191.921 206.352 191.982 206.485 192.104 206.586C192.227 206.686 192.424 206.769 192.696 206.833L193.482 207.014C193.937 207.119 194.276 207.281 194.499 207.5C194.722 207.718 194.833 208.003 194.833 208.352C194.833 208.648 194.748 208.912 194.576 209.144C194.406 209.374 194.169 209.554 193.865 209.685C193.562 209.816 193.211 209.881 192.812 209.881C192.259 209.881 191.807 209.763 191.457 209.527C191.108 209.289 190.893 208.951 190.814 208.513L191.744 208.372C191.802 208.614 191.921 208.798 192.101 208.922C192.281 209.044 192.516 209.105 192.806 209.105C193.121 209.105 193.373 209.04 193.562 208.909C193.751 208.776 193.845 208.614 193.845 208.423C193.845 208.269 193.787 208.139 193.672 208.034C193.558 207.929 193.383 207.849 193.147 207.796L192.31 207.612C191.849 207.507 191.508 207.34 191.287 207.11C191.068 206.881 190.959 206.59 190.959 206.238C190.959 205.946 191.04 205.691 191.203 205.472C191.366 205.253 191.592 205.083 191.879 204.96C192.167 204.836 192.496 204.774 192.867 204.774C193.401 204.774 193.822 204.89 194.129 205.121C194.435 205.351 194.638 205.659 194.737 206.045ZM198.102 209.881C197.615 209.881 197.195 209.777 196.843 209.569C196.494 209.359 196.223 209.064 196.033 208.684C195.844 208.302 195.749 207.855 195.749 207.342C195.749 206.836 195.844 206.389 196.033 206.003C196.223 205.617 196.489 205.315 196.831 205.099C197.174 204.882 197.575 204.774 198.034 204.774C198.313 204.774 198.583 204.82 198.845 204.912C199.107 205.004 199.342 205.149 199.55 205.347C199.758 205.544 199.922 205.8 200.042 206.116C200.163 206.429 200.223 206.81 200.223 207.258V207.599H196.293V206.878H199.28C199.28 206.625 199.228 206.401 199.125 206.206C199.022 206.008 198.877 205.853 198.691 205.739C198.506 205.625 198.29 205.569 198.041 205.569C197.77 205.569 197.534 205.635 197.333 205.768C197.133 205.899 196.979 206.071 196.869 206.283C196.762 206.493 196.708 206.722 196.708 206.969V207.532C196.708 207.862 196.766 208.143 196.882 208.375C197 208.607 197.164 208.784 197.374 208.906C197.585 209.026 197.83 209.086 198.111 209.086C198.294 209.086 198.46 209.06 198.61 209.009C198.76 208.955 198.89 208.876 199 208.771C199.109 208.666 199.193 208.536 199.251 208.381L200.161 208.545C200.089 208.814 199.958 209.049 199.769 209.25C199.582 209.45 199.347 209.605 199.064 209.717C198.783 209.826 198.462 209.881 198.102 209.881ZM202.333 206.846V209.781H201.37V204.838H202.294V205.643H202.355C202.469 205.381 202.647 205.171 202.889 205.012C203.134 204.853 203.442 204.774 203.813 204.774C204.15 204.774 204.445 204.845 204.698 204.986C204.951 205.126 205.147 205.334 205.287 205.61C205.426 205.887 205.496 206.229 205.496 206.637V209.781H204.534V206.753C204.534 206.395 204.44 206.115 204.254 205.913C204.067 205.709 203.811 205.607 203.485 205.607C203.262 205.607 203.063 205.655 202.889 205.752C202.718 205.849 202.581 205.99 202.481 206.177C202.382 206.361 202.333 206.584 202.333 206.846Z" fill="#0A2540"/>
<path d="M100.724 226.781V220.19H104.811V221.046H101.719V223.055H104.518V223.907H101.719V226.781H100.724ZM105.975 226.781V221.838H106.905V222.623H106.957C107.047 222.357 107.205 222.148 107.433 221.996C107.662 221.841 107.922 221.764 108.212 221.764C108.272 221.764 108.343 221.766 108.424 221.77C108.508 221.775 108.573 221.78 108.62 221.787V222.707C108.582 222.696 108.513 222.684 108.414 222.672C108.316 222.657 108.217 222.649 108.118 222.649C107.891 222.649 107.688 222.697 107.51 222.794C107.334 222.888 107.195 223.02 107.092 223.19C106.989 223.357 106.937 223.548 106.937 223.763V226.781H105.975ZM111.438 226.881C110.975 226.881 110.57 226.775 110.225 226.562C109.88 226.35 109.611 226.053 109.42 225.671C109.229 225.289 109.134 224.843 109.134 224.332C109.134 223.819 109.229 223.371 109.42 222.987C109.611 222.603 109.88 222.305 110.225 222.092C110.57 221.88 110.975 221.774 111.438 221.774C111.902 221.774 112.306 221.88 112.652 222.092C112.997 222.305 113.265 222.603 113.456 222.987C113.647 223.371 113.742 223.819 113.742 224.332C113.742 224.843 113.647 225.289 113.456 225.671C113.265 226.053 112.997 226.35 112.652 226.562C112.306 226.775 111.902 226.881 111.438 226.881ZM111.441 226.073C111.742 226.073 111.991 225.994 112.188 225.835C112.385 225.676 112.531 225.465 112.626 225.201C112.722 224.937 112.771 224.646 112.771 224.329C112.771 224.014 112.722 223.724 112.626 223.46C112.531 223.194 112.385 222.981 112.188 222.82C111.991 222.659 111.742 222.578 111.441 222.578C111.139 222.578 110.888 222.659 110.688 222.82C110.491 222.981 110.344 223.194 110.248 223.46C110.153 223.724 110.106 224.014 110.106 224.329C110.106 224.646 110.153 224.937 110.248 225.201C110.344 225.465 110.491 225.676 110.688 225.835C110.888 225.994 111.139 226.073 111.441 226.073ZM114.897 226.781V221.838H115.82V222.643H115.881C115.984 222.37 116.153 222.158 116.387 222.005C116.62 221.851 116.9 221.774 117.227 221.774C117.557 221.774 117.834 221.851 118.057 222.005C118.282 222.16 118.448 222.372 118.556 222.643H118.607C118.725 222.379 118.913 222.168 119.17 222.012C119.428 221.853 119.735 221.774 120.091 221.774C120.539 221.774 120.905 221.914 121.188 222.195C121.474 222.476 121.616 222.9 121.616 223.466V226.781H120.654V223.557C120.654 223.222 120.563 222.979 120.38 222.829C120.198 222.679 119.98 222.604 119.727 222.604C119.414 222.604 119.17 222.701 118.997 222.894C118.823 223.085 118.736 223.33 118.736 223.631V226.781H117.777V223.495C117.777 223.227 117.693 223.012 117.526 222.849C117.359 222.686 117.141 222.604 116.873 222.604C116.69 222.604 116.522 222.652 116.367 222.749C116.215 222.843 116.092 222.975 115.997 223.145C115.905 223.314 115.859 223.51 115.859 223.734V226.781H114.897Z" fill="#727F96"/>
<path d="M150.737 226.781V220.077H153.126C153.648 220.077 154.08 220.172 154.423 220.362C154.765 220.551 155.022 220.811 155.192 221.141C155.362 221.468 155.447 221.837 155.447 222.247C155.447 222.66 155.361 223.031 155.189 223.36C155.019 223.688 154.761 223.947 154.416 224.139C154.074 224.329 153.643 224.424 153.123 224.424H151.48V223.566H153.031C153.361 223.566 153.628 223.51 153.834 223.396C154.039 223.281 154.189 223.123 154.285 222.925C154.381 222.726 154.429 222.5 154.429 222.247C154.429 221.994 154.381 221.769 154.285 221.573C154.189 221.376 154.038 221.223 153.83 221.111C153.625 221 153.354 220.944 153.018 220.944H151.748V226.781H150.737ZM158.69 226.883C158.218 226.883 157.807 226.775 157.456 226.559C157.104 226.343 156.831 226.04 156.637 225.652C156.443 225.263 156.346 224.809 156.346 224.29C156.346 223.768 156.443 223.312 156.637 222.922C156.831 222.531 157.104 222.228 157.456 222.011C157.807 221.795 158.218 221.687 158.69 221.687C159.161 221.687 159.573 221.795 159.924 222.011C160.275 222.228 160.548 222.531 160.742 222.922C160.937 223.312 161.034 223.768 161.034 224.29C161.034 224.809 160.937 225.263 160.742 225.652C160.548 226.04 160.275 226.343 159.924 226.559C159.573 226.775 159.161 226.883 158.69 226.883ZM158.693 226.061C158.999 226.061 159.252 225.98 159.453 225.819C159.653 225.657 159.802 225.442 159.898 225.174C159.996 224.905 160.045 224.61 160.045 224.287C160.045 223.966 159.996 223.671 159.898 223.403C159.802 223.132 159.653 222.915 159.453 222.751C159.252 222.588 158.999 222.506 158.693 222.506C158.385 222.506 158.13 222.588 157.927 222.751C157.726 222.915 157.577 223.132 157.479 223.403C157.383 223.671 157.335 223.966 157.335 224.287C157.335 224.61 157.383 224.905 157.479 225.174C157.577 225.442 157.726 225.657 157.927 225.819C158.13 225.98 158.385 226.061 158.693 226.061ZM163.144 226.781L161.664 221.753H162.675L163.661 225.446H163.71L164.699 221.753H165.71L166.692 225.429H166.741L167.72 221.753H168.732L167.255 226.781H166.257L165.235 223.151H165.16L164.139 226.781H163.144ZM171.47 226.879C171.064 226.879 170.702 226.776 170.383 226.568C170.067 226.359 169.818 226.061 169.637 225.675C169.458 225.286 169.368 224.82 169.368 224.277C169.368 223.733 169.459 223.269 169.64 222.882C169.823 222.496 170.074 222.2 170.393 221.995C170.712 221.79 171.073 221.687 171.477 221.687C171.789 221.687 172.04 221.74 172.229 221.845C172.422 221.947 172.57 222.067 172.675 222.205C172.782 222.342 172.865 222.463 172.923 222.568H172.982V220.077H173.961V226.781H173.005V225.999H172.923C172.865 226.106 172.779 226.228 172.668 226.365C172.559 226.503 172.408 226.623 172.216 226.726C172.024 226.828 171.776 226.879 171.47 226.879ZM171.686 226.045C171.968 226.045 172.205 225.97 172.4 225.822C172.596 225.671 172.745 225.463 172.845 225.197C172.948 224.931 172.999 224.621 172.999 224.267C172.999 223.918 172.949 223.612 172.848 223.35C172.748 223.089 172.6 222.884 172.406 222.738C172.212 222.592 171.972 222.519 171.686 222.519C171.391 222.519 171.146 222.595 170.949 222.748C170.753 222.901 170.605 223.109 170.504 223.373C170.406 223.637 170.357 223.935 170.357 224.267C170.357 224.603 170.407 224.905 170.508 225.174C170.608 225.442 170.756 225.655 170.953 225.812C171.151 225.967 171.396 226.045 171.686 226.045ZM178.624 224.696V221.753H179.606V226.781H178.643V225.91H178.591C178.475 226.179 178.29 226.403 178.034 226.582C177.781 226.758 177.466 226.847 177.088 226.847C176.765 226.847 176.479 226.776 176.231 226.634C175.984 226.49 175.79 226.277 175.648 225.996C175.508 225.714 175.438 225.366 175.438 224.951V221.753H176.417V224.833C176.417 225.176 176.512 225.449 176.702 225.652C176.892 225.855 177.138 225.956 177.442 225.956C177.625 225.956 177.807 225.91 177.989 225.819C178.172 225.727 178.324 225.589 178.444 225.403C178.566 225.218 178.626 224.982 178.624 224.696ZM181.001 226.781V221.753H181.947V222.552H181.999C182.091 222.281 182.253 222.068 182.484 221.913C182.717 221.756 182.982 221.678 183.276 221.678C183.337 221.678 183.409 221.68 183.492 221.684C183.577 221.688 183.644 221.694 183.692 221.7V222.637C183.653 222.626 183.583 222.614 183.482 222.601C183.382 222.585 183.282 222.578 183.181 222.578C182.95 222.578 182.744 222.627 182.563 222.725C182.384 222.821 182.242 222.955 182.137 223.128C182.032 223.298 181.98 223.492 181.98 223.711V226.781H181.001Z" fill="#0A2540"/>
<path d="M100.762 236.849H102.031L104.238 242.238H104.319L106.526 236.849H107.795V243.781H106.8V238.765H106.736L104.691 243.771H103.865L101.821 238.762H101.757V243.781H100.762V236.849ZM111.555 243.886C111.043 243.886 110.602 243.777 110.231 243.558C109.864 243.337 109.579 243.026 109.379 242.627C109.18 242.225 109.081 241.755 109.081 241.216C109.081 240.683 109.18 240.214 109.379 239.808C109.579 239.401 109.859 239.084 110.218 238.857C110.579 238.629 111.001 238.515 111.484 238.515C111.777 238.515 112.061 238.563 112.337 238.66C112.612 238.757 112.859 238.91 113.078 239.117C113.297 239.325 113.469 239.594 113.596 239.926C113.722 240.256 113.785 240.656 113.785 241.128V241.486H109.653V240.728H112.794C112.794 240.462 112.74 240.226 112.631 240.021C112.523 239.813 112.371 239.65 112.174 239.53C111.98 239.411 111.752 239.351 111.491 239.351C111.206 239.351 110.958 239.421 110.746 239.561C110.536 239.698 110.374 239.879 110.259 240.102C110.146 240.323 110.089 240.564 110.089 240.823V241.415C110.089 241.763 110.15 242.058 110.272 242.302C110.396 242.546 110.569 242.732 110.79 242.861C111.011 242.987 111.269 243.05 111.565 243.05C111.757 243.05 111.932 243.023 112.09 242.969C112.248 242.913 112.384 242.829 112.499 242.718C112.614 242.608 112.702 242.471 112.763 242.309L113.721 242.482C113.644 242.764 113.507 243.011 113.308 243.223C113.112 243.433 112.865 243.596 112.567 243.714C112.271 243.829 111.934 243.886 111.555 243.886ZM114.988 243.781V238.582H115.96V239.429H116.024C116.132 239.142 116.309 238.919 116.555 238.758C116.801 238.596 117.096 238.515 117.439 238.515C117.786 238.515 118.077 238.596 118.312 238.758C118.549 238.921 118.724 239.144 118.837 239.429H118.891C119.015 239.151 119.212 238.93 119.483 238.765C119.754 238.598 120.077 238.515 120.451 238.515C120.923 238.515 121.307 238.662 121.605 238.958C121.905 239.254 122.055 239.699 122.055 240.295V243.781H121.043V240.39C121.043 240.038 120.948 239.783 120.756 239.625C120.564 239.467 120.335 239.388 120.069 239.388C119.739 239.388 119.483 239.489 119.3 239.693C119.118 239.893 119.026 240.152 119.026 240.468V243.781H118.018V240.325C118.018 240.043 117.93 239.817 117.754 239.645C117.578 239.474 117.349 239.388 117.066 239.388C116.875 239.388 116.698 239.439 116.535 239.54C116.375 239.64 116.245 239.778 116.146 239.957C116.049 240.135 116 240.341 116 240.576V243.781H114.988ZM125.682 243.886C125.194 243.886 124.769 243.774 124.406 243.551C124.042 243.328 123.76 243.015 123.56 242.614C123.359 242.212 123.258 241.743 123.258 241.206C123.258 240.666 123.359 240.195 123.56 239.791C123.76 239.387 124.042 239.073 124.406 238.85C124.769 238.626 125.194 238.515 125.682 238.515C126.169 238.515 126.595 238.626 126.958 238.85C127.321 239.073 127.603 239.387 127.804 239.791C128.005 240.195 128.105 240.666 128.105 241.206C128.105 241.743 128.005 242.212 127.804 242.614C127.603 243.015 127.321 243.328 126.958 243.551C126.595 243.774 126.169 243.886 125.682 243.886ZM125.685 243.037C126.001 243.037 126.263 242.953 126.47 242.786C126.678 242.619 126.831 242.397 126.931 242.119C127.032 241.842 127.083 241.536 127.083 241.202C127.083 240.87 127.032 240.566 126.931 240.288C126.831 240.008 126.678 239.784 126.47 239.615C126.263 239.445 126.001 239.361 125.685 239.361C125.367 239.361 125.103 239.445 124.893 239.615C124.686 239.784 124.531 240.008 124.429 240.288C124.33 240.566 124.281 240.87 124.281 241.202C124.281 241.536 124.33 241.842 124.429 242.119C124.531 242.397 124.686 242.619 124.893 242.786C125.103 242.953 125.367 243.037 125.685 243.037Z" fill="#727F96"/>
<path d="M156.044 237.19V243.781H155.13L151.78 238.947H151.719V243.781H150.724V237.19H151.645L154.998 242.031H155.059V237.19H156.044ZM159.579 243.881C159.116 243.881 158.712 243.775 158.366 243.562C158.021 243.35 157.752 243.053 157.562 242.671C157.371 242.289 157.275 241.843 157.275 241.332C157.275 240.819 157.371 240.371 157.562 239.987C157.752 239.603 158.021 239.305 158.366 239.092C158.712 238.88 159.116 238.774 159.579 238.774C160.043 238.774 160.447 238.88 160.793 239.092C161.138 239.305 161.406 239.603 161.597 239.987C161.788 240.371 161.884 240.819 161.884 241.332C161.884 241.843 161.788 242.289 161.597 242.671C161.406 243.053 161.138 243.35 160.793 243.562C160.447 243.775 160.043 243.881 159.579 243.881ZM159.583 243.073C159.883 243.073 160.132 242.994 160.329 242.835C160.527 242.676 160.672 242.465 160.767 242.201C160.863 241.937 160.912 241.646 160.912 241.329C160.912 241.014 160.863 240.724 160.767 240.46C160.672 240.194 160.527 239.981 160.329 239.82C160.132 239.659 159.883 239.578 159.583 239.578C159.28 239.578 159.029 239.659 158.83 239.82C158.632 239.981 158.485 240.194 158.389 240.46C158.294 240.724 158.247 241.014 158.247 241.329C158.247 241.646 158.294 241.937 158.389 242.201C158.485 242.465 158.632 242.676 158.83 242.835C159.029 242.994 159.28 243.073 159.583 243.073ZM165.345 238.838V239.61H162.645V238.838H165.345ZM163.369 237.654H164.331V242.33C164.331 242.516 164.359 242.657 164.415 242.751C164.471 242.844 164.543 242.907 164.631 242.941C164.721 242.973 164.818 242.99 164.924 242.99C165.001 242.99 165.068 242.984 165.126 242.973C165.184 242.963 165.229 242.954 165.261 242.948L165.435 243.743C165.379 243.764 165.3 243.786 165.197 243.807C165.094 243.831 164.965 243.843 164.811 243.846C164.558 243.85 164.322 243.805 164.103 243.71C163.884 243.616 163.707 243.47 163.572 243.273C163.437 243.075 163.369 242.828 163.369 242.529V237.654ZM168.567 243.881C168.08 243.881 167.66 243.777 167.309 243.569C166.959 243.359 166.689 243.064 166.498 242.684C166.309 242.302 166.214 241.855 166.214 241.342C166.214 240.836 166.309 240.389 166.498 240.003C166.689 239.617 166.955 239.315 167.296 239.099C167.639 238.882 168.04 238.774 168.499 238.774C168.778 238.774 169.049 238.82 169.31 238.912C169.572 239.004 169.807 239.149 170.015 239.347C170.223 239.544 170.387 239.8 170.508 240.116C170.628 240.429 170.688 240.81 170.688 241.258V241.599H166.758V240.878H169.745C169.745 240.625 169.693 240.401 169.59 240.206C169.487 240.008 169.343 239.853 169.156 239.739C168.971 239.625 168.755 239.569 168.506 239.569C168.235 239.569 167.999 239.635 167.798 239.768C167.598 239.899 167.444 240.071 167.334 240.283C167.227 240.493 167.173 240.722 167.173 240.969V241.532C167.173 241.862 167.231 242.143 167.347 242.375C167.465 242.607 167.629 242.784 167.84 242.906C168.05 243.026 168.296 243.086 168.577 243.086C168.759 243.086 168.925 243.06 169.075 243.009C169.226 242.955 169.355 242.876 169.465 242.771C169.574 242.666 169.658 242.536 169.716 242.381L170.627 242.545C170.554 242.814 170.423 243.049 170.234 243.25C170.047 243.45 169.812 243.605 169.529 243.717C169.248 243.826 168.927 243.881 168.567 243.881ZM176.621 238.838V239.61H173.921V238.838H176.621ZM174.645 237.654H175.607V242.33C175.607 242.516 175.635 242.657 175.691 242.751C175.747 242.844 175.819 242.907 175.907 242.941C175.997 242.973 176.095 242.99 176.2 242.99C176.277 242.99 176.344 242.984 176.402 242.973C176.46 242.963 176.505 242.954 176.538 242.948L176.711 243.743C176.656 243.764 176.576 243.786 176.473 243.807C176.37 243.831 176.241 243.843 176.087 243.846C175.834 243.85 175.598 243.805 175.379 243.71C175.16 243.616 174.983 243.47 174.848 243.273C174.713 243.075 174.645 242.828 174.645 242.529V237.654ZM178.834 240.846V243.781H177.872V237.19H178.821V239.643H178.882C178.998 239.377 179.175 239.165 179.413 239.009C179.652 238.852 179.963 238.774 180.347 238.774C180.686 238.774 180.982 238.843 181.235 238.983C181.49 239.122 181.688 239.33 181.827 239.607C181.969 239.882 182.039 240.225 182.039 240.637V243.781H181.077V240.753C181.077 240.39 180.984 240.109 180.797 239.91C180.611 239.708 180.351 239.607 180.018 239.607C179.791 239.607 179.587 239.655 179.407 239.752C179.229 239.849 179.088 239.99 178.985 240.177C178.885 240.361 178.834 240.584 178.834 240.846ZM183.404 243.781V238.838H184.366V243.781H183.404ZM183.889 238.075C183.722 238.075 183.578 238.02 183.458 237.908C183.34 237.794 183.281 237.659 183.281 237.503C183.281 237.344 183.34 237.209 183.458 237.097C183.578 236.983 183.722 236.926 183.889 236.926C184.057 236.926 184.199 236.983 184.317 237.097C184.438 237.209 184.498 237.344 184.498 237.503C184.498 237.659 184.438 237.794 184.317 237.908C184.199 238.02 184.057 238.075 183.889 238.075ZM189.444 240.045L188.572 240.199C188.536 240.088 188.478 239.982 188.399 239.881C188.321 239.78 188.216 239.697 188.083 239.633C187.95 239.569 187.784 239.536 187.584 239.536C187.312 239.536 187.084 239.598 186.902 239.72C186.72 239.84 186.629 239.996 186.629 240.187C186.629 240.352 186.69 240.485 186.812 240.586C186.934 240.686 187.132 240.769 187.404 240.833L188.189 241.014C188.644 241.119 188.983 241.281 189.206 241.5C189.429 241.718 189.541 242.003 189.541 242.352C189.541 242.648 189.455 242.912 189.284 243.144C189.114 243.374 188.877 243.554 188.572 243.685C188.27 243.816 187.919 243.881 187.52 243.881C186.966 243.881 186.515 243.763 186.165 243.527C185.815 243.289 185.601 242.951 185.521 242.513L186.452 242.372C186.509 242.614 186.629 242.798 186.809 242.922C186.989 243.044 187.224 243.105 187.514 243.105C187.829 243.105 188.081 243.04 188.27 242.909C188.459 242.776 188.553 242.614 188.553 242.423C188.553 242.269 188.495 242.139 188.379 242.034C188.266 241.929 188.091 241.849 187.855 241.796L187.018 241.612C186.557 241.507 186.216 241.34 185.995 241.11C185.776 240.881 185.666 240.59 185.666 240.238C185.666 239.946 185.748 239.691 185.911 239.472C186.074 239.253 186.299 239.083 186.587 238.96C186.874 238.836 187.204 238.774 187.575 238.774C188.109 238.774 188.529 238.89 188.836 239.121C189.143 239.351 189.346 239.659 189.444 240.045ZM193.157 243.781V238.838H194.12V243.781H193.157ZM193.643 238.075C193.476 238.075 193.332 238.02 193.212 237.908C193.094 237.794 193.035 237.659 193.035 237.503C193.035 237.344 193.094 237.209 193.212 237.097C193.332 236.983 193.476 236.926 193.643 236.926C193.811 236.926 193.953 236.983 194.071 237.097C194.191 237.209 194.252 237.344 194.252 237.503C194.252 237.659 194.191 237.794 194.071 237.908C193.953 238.02 193.811 238.075 193.643 238.075ZM196.456 240.846V243.781H195.494V238.838H196.418V239.643H196.479C196.593 239.381 196.771 239.171 197.013 239.012C197.258 238.853 197.566 238.774 197.937 238.774C198.274 238.774 198.569 238.845 198.822 238.986C199.075 239.126 199.271 239.334 199.411 239.61C199.55 239.887 199.62 240.229 199.62 240.637V243.781H198.658V240.753C198.658 240.395 198.564 240.115 198.378 239.913C198.191 239.709 197.935 239.607 197.609 239.607C197.385 239.607 197.187 239.655 197.013 239.752C196.842 239.849 196.705 239.99 196.604 240.177C196.506 240.361 196.456 240.584 196.456 240.846ZM203.073 243.881C202.594 243.881 202.182 243.773 201.837 243.556C201.494 243.337 201.23 243.036 201.045 242.652C200.861 242.268 200.768 241.828 200.768 241.332C200.768 240.83 200.863 240.387 201.052 240.003C201.24 239.617 201.506 239.315 201.85 239.099C202.193 238.882 202.597 238.774 203.063 238.774C203.438 238.774 203.773 238.843 204.067 238.983C204.361 239.12 204.598 239.313 204.778 239.562C204.961 239.811 205.069 240.102 205.103 240.434H204.167C204.115 240.203 203.997 240.003 203.813 239.836C203.63 239.668 203.386 239.585 203.079 239.585C202.811 239.585 202.576 239.655 202.374 239.797C202.175 239.937 202.019 240.136 201.908 240.396C201.796 240.653 201.74 240.958 201.74 241.31C201.74 241.67 201.795 241.981 201.904 242.243C202.014 242.505 202.168 242.707 202.368 242.851C202.569 242.995 202.807 243.067 203.079 243.067C203.261 243.067 203.427 243.034 203.575 242.967C203.725 242.898 203.85 242.801 203.951 242.674C204.054 242.548 204.126 242.395 204.167 242.217H205.103C205.069 242.537 204.965 242.822 204.791 243.073C204.617 243.324 204.385 243.522 204.093 243.665C203.803 243.809 203.463 243.881 203.073 243.881ZM207.175 237.19V243.781H206.212V237.19H207.175ZM211.68 241.731V238.838H212.646V243.781H211.7V242.925H211.648C211.535 243.189 211.352 243.409 211.101 243.585C210.852 243.759 210.542 243.846 210.171 243.846C209.854 243.846 209.572 243.776 209.328 243.636C209.085 243.495 208.895 243.286 208.755 243.009C208.618 242.732 208.549 242.39 208.549 241.982V238.838H209.511V241.866C209.511 242.203 209.605 242.471 209.791 242.671C209.978 242.87 210.22 242.97 210.519 242.97C210.699 242.97 210.878 242.925 211.056 242.835C211.236 242.745 211.385 242.609 211.503 242.426C211.624 242.244 211.683 242.012 211.68 241.731ZM215.869 243.878C215.47 243.878 215.114 243.776 214.801 243.572C214.49 243.366 214.245 243.073 214.067 242.693C213.891 242.312 213.803 241.854 213.803 241.319C213.803 240.785 213.892 240.328 214.07 239.948C214.251 239.569 214.497 239.278 214.81 239.076C215.124 238.875 215.479 238.774 215.876 238.774C216.183 238.774 216.429 238.825 216.616 238.928C216.805 239.029 216.951 239.147 217.054 239.282C217.159 239.417 217.24 239.536 217.298 239.639H217.356V237.19H218.318V243.781H217.379V243.012H217.298C217.24 243.117 217.157 243.237 217.047 243.373C216.94 243.508 216.792 243.626 216.603 243.727C216.414 243.827 216.17 243.878 215.869 243.878ZM216.082 243.057C216.358 243.057 216.592 242.984 216.783 242.838C216.976 242.69 217.122 242.485 217.221 242.224C217.322 241.962 217.372 241.657 217.372 241.31C217.372 240.966 217.323 240.666 217.224 240.409C217.125 240.151 216.981 239.95 216.79 239.807C216.599 239.663 216.363 239.591 216.082 239.591C215.792 239.591 215.551 239.666 215.358 239.816C215.164 239.967 215.019 240.171 214.92 240.431C214.823 240.691 214.775 240.984 214.775 241.31C214.775 241.64 214.824 241.937 214.923 242.201C215.022 242.465 215.168 242.674 215.361 242.829C215.556 242.981 215.796 243.057 216.082 243.057ZM221.902 243.881C221.415 243.881 220.996 243.777 220.644 243.569C220.294 243.359 220.024 243.064 219.833 242.684C219.644 242.302 219.55 241.855 219.55 241.342C219.55 240.836 219.644 240.389 219.833 240.003C220.024 239.617 220.29 239.315 220.631 239.099C220.974 238.882 221.375 238.774 221.835 238.774C222.113 238.774 222.384 238.82 222.646 238.912C222.907 239.004 223.142 239.149 223.35 239.347C223.558 239.544 223.723 239.8 223.843 240.116C223.963 240.429 224.023 240.81 224.023 241.258V241.599H220.094V240.878H223.08C223.08 240.625 223.029 240.401 222.926 240.206C222.823 240.008 222.678 239.853 222.491 239.739C222.307 239.625 222.09 239.569 221.841 239.569C221.571 239.569 221.335 239.635 221.133 239.768C220.933 239.899 220.779 240.071 220.67 240.283C220.562 240.493 220.509 240.722 220.509 240.969V241.532C220.509 241.862 220.567 242.143 220.682 242.375C220.8 242.607 220.965 242.784 221.175 242.906C221.385 243.026 221.631 243.086 221.912 243.086C222.094 243.086 222.26 243.06 222.411 243.009C222.561 242.955 222.691 242.876 222.8 242.771C222.909 242.666 222.993 242.536 223.051 242.381L223.962 242.545C223.889 242.814 223.758 243.049 223.569 243.25C223.383 243.45 223.148 243.605 222.864 243.717C222.583 243.826 222.263 243.881 221.902 243.881ZM228.875 240.045L228.003 240.199C227.966 240.088 227.908 239.982 227.829 239.881C227.752 239.78 227.647 239.697 227.513 239.633C227.38 239.569 227.214 239.536 227.015 239.536C226.742 239.536 226.515 239.598 226.332 239.72C226.15 239.84 226.059 239.996 226.059 240.187C226.059 240.352 226.12 240.485 226.242 240.586C226.365 240.686 226.562 240.769 226.834 240.833L227.62 241.014C228.075 241.119 228.414 241.281 228.637 241.5C228.86 241.718 228.971 242.003 228.971 242.352C228.971 242.648 228.886 242.912 228.714 243.144C228.544 243.374 228.307 243.554 228.003 243.685C227.7 243.816 227.349 243.881 226.95 243.881C226.397 243.881 225.945 243.763 225.595 243.527C225.246 243.289 225.031 242.951 224.952 242.513L225.882 242.372C225.94 242.614 226.059 242.798 226.239 242.922C226.419 243.044 226.654 243.105 226.944 243.105C227.259 243.105 227.511 243.04 227.7 242.909C227.889 242.776 227.983 242.614 227.983 242.423C227.983 242.269 227.925 242.139 227.81 242.034C227.696 241.929 227.521 241.849 227.285 241.796L226.448 241.612C225.987 241.507 225.646 241.34 225.425 241.11C225.206 240.881 225.097 240.59 225.097 240.238C225.097 239.946 225.178 239.691 225.341 239.472C225.504 239.253 225.73 239.083 226.017 238.96C226.305 238.836 226.634 238.774 227.005 238.774C227.539 238.774 227.96 238.89 228.267 239.121C228.573 239.351 228.776 239.659 228.875 240.045ZM233.55 240.846V243.781H232.588V238.838H233.511V239.643H233.572C233.686 239.381 233.864 239.171 234.107 239.012C234.351 238.853 234.659 238.774 235.03 238.774C235.367 238.774 235.662 238.845 235.915 238.986C236.168 239.126 236.365 239.334 236.504 239.61C236.644 239.887 236.713 240.229 236.713 240.637V243.781H235.751V240.753C235.751 240.395 235.658 240.115 235.471 239.913C235.285 239.709 235.028 239.607 234.702 239.607C234.479 239.607 234.28 239.655 234.107 239.752C233.935 239.849 233.799 239.99 233.698 240.177C233.599 240.361 233.55 240.584 233.55 240.846ZM238.084 243.781V238.838H239.046V243.781H238.084ZM238.57 238.075C238.403 238.075 238.259 238.02 238.139 237.908C238.021 237.794 237.962 237.659 237.962 237.503C237.962 237.344 238.021 237.209 238.139 237.097C238.259 236.983 238.403 236.926 238.57 236.926C238.737 236.926 238.88 236.983 238.998 237.097C239.118 237.209 239.178 237.344 239.178 237.503C239.178 237.659 239.118 237.794 238.998 237.908C238.88 238.02 238.737 238.075 238.57 238.075ZM241.383 240.846V243.781H240.421V238.838H241.344V239.643H241.406C241.519 239.381 241.697 239.171 241.94 239.012C242.184 238.853 242.492 238.774 242.863 238.774C243.2 238.774 243.495 238.845 243.748 238.986C244.002 239.126 244.198 239.334 244.337 239.61C244.477 239.887 244.546 240.229 244.546 240.637V243.781H243.584V240.753C243.584 240.395 243.491 240.115 243.304 239.913C243.118 239.709 242.861 239.607 242.535 239.607C242.312 239.607 242.114 239.655 241.94 239.752C241.768 239.849 241.632 239.99 241.531 240.177C241.432 240.361 241.383 240.584 241.383 240.846ZM248.047 243.881C247.56 243.881 247.141 243.777 246.789 243.569C246.439 243.359 246.169 243.064 245.978 242.684C245.789 242.302 245.695 241.855 245.695 241.342C245.695 240.836 245.789 240.389 245.978 240.003C246.169 239.617 246.435 239.315 246.776 239.099C247.12 238.882 247.521 238.774 247.98 238.774C248.259 238.774 248.529 238.82 248.791 238.912C249.053 239.004 249.288 239.149 249.496 239.347C249.704 239.544 249.868 239.8 249.988 240.116C250.108 240.429 250.168 240.81 250.168 241.258V241.599H246.239V240.878H249.225C249.225 240.625 249.174 240.401 249.071 240.206C248.968 240.008 248.823 239.853 248.636 239.739C248.452 239.625 248.235 239.569 247.986 239.569C247.716 239.569 247.48 239.635 247.278 239.768C247.079 239.899 246.924 240.071 246.815 240.283C246.708 240.493 246.654 240.722 246.654 240.969V241.532C246.654 241.862 246.712 242.143 246.828 242.375C246.946 242.607 247.11 242.784 247.32 242.906C247.53 243.026 247.776 243.086 248.057 243.086C248.239 243.086 248.406 243.06 248.556 243.009C248.706 242.955 248.836 242.876 248.945 242.771C249.055 242.666 249.138 242.536 249.196 242.381L250.107 242.545C250.034 242.814 249.903 243.049 249.714 243.25C249.528 243.45 249.293 243.605 249.01 243.717C248.729 243.826 248.408 243.881 248.047 243.881ZM255.925 243.881C255.438 243.881 255.018 243.777 254.666 243.569C254.317 243.359 254.046 243.064 253.855 242.684C253.667 242.302 253.572 241.855 253.572 241.342C253.572 240.836 253.667 240.389 253.855 240.003C254.046 239.617 254.312 239.315 254.654 239.099C254.997 238.882 255.398 238.774 255.857 238.774C256.136 238.774 256.406 238.82 256.668 238.912C256.93 239.004 257.165 239.149 257.373 239.347C257.581 239.544 257.745 239.8 257.865 240.116C257.985 240.429 258.046 240.81 258.046 241.258V241.599H254.116V240.878H257.103C257.103 240.625 257.051 240.401 256.948 240.206C256.845 240.008 256.7 239.853 256.514 239.739C256.329 239.625 256.112 239.569 255.864 239.569C255.593 239.569 255.357 239.635 255.156 239.768C254.956 239.899 254.802 240.071 254.692 240.283C254.585 240.493 254.531 240.722 254.531 240.969V241.532C254.531 241.862 254.589 242.143 254.705 242.375C254.823 242.607 254.987 242.784 255.197 242.906C255.408 243.026 255.653 243.086 255.934 243.086C256.117 243.086 256.283 243.06 256.433 243.009C256.583 242.955 256.713 242.876 256.823 242.771C256.932 242.666 257.016 242.536 257.074 242.381L257.984 242.545C257.911 242.814 257.781 243.049 257.592 243.25C257.405 243.45 257.17 243.605 256.887 243.717C256.606 243.826 256.285 243.881 255.925 243.881ZM261.044 243.878C260.645 243.878 260.288 243.776 259.975 243.572C259.664 243.366 259.42 243.073 259.241 242.693C259.066 242.312 258.978 241.854 258.978 241.319C258.978 240.785 259.067 240.328 259.245 239.948C259.425 239.569 259.672 239.278 259.985 239.076C260.298 238.875 260.653 238.774 261.05 238.774C261.357 238.774 261.604 238.825 261.79 238.928C261.979 239.029 262.125 239.147 262.228 239.282C262.333 239.417 262.415 239.536 262.473 239.639H262.53V237.19H263.493V243.781H262.553V243.012H262.473C262.415 243.117 262.331 243.237 262.222 243.373C262.114 243.508 261.966 243.626 261.777 243.727C261.589 243.827 261.344 243.878 261.044 243.878ZM261.256 243.057C261.533 243.057 261.767 242.984 261.958 242.838C262.151 242.69 262.297 242.485 262.395 242.224C262.496 241.962 262.547 241.657 262.547 241.31C262.547 240.966 262.497 240.666 262.399 240.409C262.3 240.151 262.155 239.95 261.964 239.807C261.773 239.663 261.537 239.591 261.256 239.591C260.966 239.591 260.725 239.666 260.532 239.816C260.339 239.967 260.193 240.171 260.094 240.431C259.998 240.691 259.949 240.984 259.949 241.31C259.949 241.64 259.999 241.937 260.098 242.201C260.196 242.465 260.342 242.674 260.535 242.829C260.73 242.981 260.971 243.057 261.256 243.057ZM264.946 243.781V238.838H265.908V243.781H264.946ZM265.432 238.075C265.265 238.075 265.121 238.02 265.001 237.908C264.883 237.794 264.824 237.659 264.824 237.503C264.824 237.344 264.883 237.209 265.001 237.097C265.121 236.983 265.265 236.926 265.432 236.926C265.599 236.926 265.742 236.983 265.86 237.097C265.98 237.209 266.04 237.344 266.04 237.503C266.04 237.659 265.98 237.794 265.86 237.908C265.742 238.02 265.599 238.075 265.432 238.075ZM269.59 238.838V239.61H266.89V238.838H269.59ZM267.614 237.654H268.577V242.33C268.577 242.516 268.604 242.657 268.66 242.751C268.716 242.844 268.788 242.907 268.876 242.941C268.966 242.973 269.064 242.99 269.169 242.99C269.246 242.99 269.314 242.984 269.372 242.973C269.429 242.963 269.474 242.954 269.507 242.948L269.68 243.743C269.625 243.764 269.545 243.786 269.442 243.807C269.339 243.831 269.211 243.843 269.056 243.846C268.803 243.85 268.567 243.805 268.348 243.71C268.129 243.616 267.952 243.47 267.817 243.273C267.682 243.075 267.614 242.828 267.614 242.529V237.654ZM272.764 243.881C272.3 243.881 271.896 243.775 271.551 243.562C271.205 243.35 270.937 243.053 270.746 242.671C270.555 242.289 270.46 241.843 270.46 241.332C270.46 240.819 270.555 240.371 270.746 239.987C270.937 239.603 271.205 239.305 271.551 239.092C271.896 238.88 272.3 238.774 272.764 238.774C273.227 238.774 273.632 238.88 273.977 239.092C274.323 239.305 274.591 239.603 274.782 239.987C274.973 240.371 275.068 240.819 275.068 241.332C275.068 241.843 274.973 242.289 274.782 242.671C274.591 243.053 274.323 243.35 273.977 243.562C273.632 243.775 273.227 243.881 272.764 243.881ZM272.767 243.073C273.067 243.073 273.316 242.994 273.514 242.835C273.711 242.676 273.857 242.465 273.951 242.201C274.048 241.937 274.096 241.646 274.096 241.329C274.096 241.014 274.048 240.724 273.951 240.46C273.857 240.194 273.711 239.981 273.514 239.82C273.316 239.659 273.067 239.578 272.767 239.578C272.465 239.578 272.214 239.659 272.014 239.82C271.817 239.981 271.67 240.194 271.573 240.46C271.479 240.724 271.432 241.014 271.432 241.329C271.432 241.646 271.479 241.937 271.573 242.201C271.67 242.465 271.817 242.676 272.014 242.835C272.214 242.994 272.465 243.073 272.767 243.073ZM276.222 243.781V238.838H277.152V239.623H277.204C277.294 239.357 277.453 239.148 277.68 238.996C277.91 238.841 278.169 238.764 278.459 238.764C278.519 238.764 278.59 238.766 278.671 238.77C278.755 238.775 278.82 238.78 278.868 238.787V239.707C278.829 239.696 278.76 239.684 278.662 239.672C278.563 239.657 278.464 239.649 278.366 239.649C278.138 239.649 277.935 239.697 277.757 239.794C277.581 239.888 277.442 240.02 277.339 240.19C277.236 240.357 277.184 240.548 277.184 240.763V243.781H276.222ZM283.484 240.045L282.612 240.199C282.576 240.088 282.518 239.982 282.439 239.881C282.361 239.78 282.256 239.697 282.123 239.633C281.99 239.569 281.824 239.536 281.624 239.536C281.352 239.536 281.124 239.598 280.942 239.72C280.76 239.84 280.668 239.996 280.668 240.187C280.668 240.352 280.73 240.485 280.852 240.586C280.974 240.686 281.172 240.769 281.444 240.833L282.229 241.014C282.684 241.119 283.023 241.281 283.246 241.5C283.469 241.718 283.581 242.003 283.581 242.352C283.581 242.648 283.495 242.912 283.324 243.144C283.154 243.374 282.917 243.554 282.612 243.685C282.31 243.816 281.959 243.881 281.56 243.881C281.006 243.881 280.555 243.763 280.205 243.527C279.855 243.289 279.641 242.951 279.561 242.513L280.491 242.372C280.549 242.614 280.668 242.798 280.849 242.922C281.029 243.044 281.264 243.105 281.553 243.105C281.869 243.105 282.121 243.04 282.31 242.909C282.499 242.776 282.593 242.614 282.593 242.423C282.593 242.269 282.535 242.139 282.419 242.034C282.305 241.929 282.131 241.849 281.895 241.796L281.058 241.612C280.597 241.507 280.255 241.34 280.034 241.11C279.816 240.881 279.706 240.59 279.706 240.238C279.706 239.946 279.788 239.691 279.951 239.472C280.114 239.253 280.339 239.083 280.627 238.96C280.914 238.836 281.243 238.774 281.615 238.774C282.149 238.774 282.569 238.89 282.876 239.121C283.183 239.351 283.386 239.659 283.484 240.045ZM288.636 243.891C288.323 243.891 288.039 243.833 287.786 243.717C287.533 243.599 287.333 243.428 287.184 243.205C287.039 242.982 286.966 242.709 286.966 242.385C286.966 242.106 287.019 241.876 287.127 241.696C287.234 241.516 287.379 241.373 287.561 241.268C287.743 241.163 287.947 241.083 288.172 241.03C288.398 240.976 288.627 240.935 288.861 240.907C289.157 240.873 289.398 240.845 289.582 240.824C289.767 240.8 289.901 240.763 289.984 240.711C290.068 240.66 290.11 240.576 290.11 240.46V240.438C290.11 240.156 290.03 239.939 289.872 239.784C289.715 239.63 289.481 239.553 289.17 239.553C288.846 239.553 288.591 239.624 288.404 239.768C288.22 239.91 288.092 240.067 288.021 240.241L287.117 240.035C287.224 239.735 287.381 239.492 287.587 239.308C287.795 239.121 288.034 238.986 288.304 238.902C288.575 238.817 288.859 238.774 289.157 238.774C289.355 238.774 289.564 238.797 289.785 238.845C290.008 238.89 290.216 238.973 290.409 239.096C290.604 239.218 290.764 239.393 290.889 239.62C291.013 239.845 291.075 240.138 291.075 240.499V243.781H290.136V243.105H290.097C290.035 243.23 289.941 243.352 289.817 243.472C289.693 243.592 289.533 243.692 289.337 243.772C289.142 243.851 288.908 243.891 288.636 243.891ZM288.845 243.118C289.111 243.118 289.339 243.066 289.527 242.961C289.718 242.855 289.863 242.718 289.962 242.549C290.063 242.377 290.113 242.194 290.113 241.998V241.361C290.079 241.395 290.012 241.428 289.914 241.458C289.817 241.486 289.706 241.51 289.582 241.532C289.458 241.551 289.336 241.569 289.218 241.586C289.1 241.601 289.002 241.614 288.922 241.625C288.736 241.649 288.565 241.688 288.411 241.744C288.258 241.8 288.136 241.88 288.044 241.985C287.954 242.088 287.909 242.226 287.909 242.397C287.909 242.636 287.997 242.816 288.172 242.938C288.348 243.058 288.573 243.118 288.845 243.118ZM293.399 240.846V243.781H292.437V238.838H293.361V239.643H293.422C293.535 239.381 293.714 239.171 293.956 239.012C294.201 238.853 294.508 238.774 294.88 238.774C295.216 238.774 295.511 238.845 295.765 238.986C296.018 239.126 296.214 239.334 296.354 239.61C296.493 239.887 296.563 240.229 296.563 240.637V243.781H295.6V240.753C295.6 240.395 295.507 240.115 295.32 239.913C295.134 239.709 294.877 239.607 294.551 239.607C294.328 239.607 294.13 239.655 293.956 239.752C293.784 239.849 293.648 239.99 293.547 240.177C293.449 240.361 293.399 240.584 293.399 240.846ZM299.784 243.878C299.385 243.878 299.028 243.776 298.715 243.572C298.404 243.366 298.16 243.073 297.981 242.693C297.806 242.312 297.718 241.854 297.718 241.319C297.718 240.785 297.807 240.328 297.985 239.948C298.165 239.569 298.412 239.278 298.725 239.076C299.038 238.875 299.393 238.774 299.79 238.774C300.097 238.774 300.344 238.825 300.53 238.928C300.719 239.029 300.865 239.147 300.968 239.282C301.073 239.417 301.155 239.536 301.213 239.639H301.27V237.19H302.233V243.781H301.293V243.012H301.213C301.155 243.117 301.071 243.237 300.962 243.373C300.854 243.508 300.706 243.626 300.517 243.727C300.329 243.827 300.084 243.878 299.784 243.878ZM299.996 243.057C300.273 243.057 300.507 242.984 300.698 242.838C300.891 242.69 301.037 242.485 301.135 242.224C301.236 241.962 301.287 241.657 301.287 241.31C301.287 240.966 301.237 240.666 301.139 240.409C301.04 240.151 300.895 239.95 300.704 239.807C300.513 239.663 300.277 239.591 299.996 239.591C299.706 239.591 299.465 239.666 299.272 239.816C299.079 239.967 298.933 240.171 298.834 240.431C298.738 240.691 298.689 240.984 298.689 241.31C298.689 241.64 298.739 241.937 298.838 242.201C298.936 242.465 299.082 242.674 299.275 242.829C299.47 242.981 299.711 243.057 299.996 243.057ZM309.296 241.731V238.838H310.261V243.781H309.315V242.925H309.264C309.15 243.189 308.968 243.409 308.717 243.585C308.468 243.759 308.158 243.846 307.786 243.846C307.469 243.846 307.188 243.776 306.943 243.636C306.701 243.495 306.51 243.286 306.37 243.009C306.233 242.732 306.165 242.39 306.165 241.982V238.838H307.127V241.866C307.127 242.203 307.22 242.471 307.407 242.671C307.593 242.87 307.836 242.97 308.134 242.97C308.314 242.97 308.493 242.925 308.671 242.835C308.852 242.745 309.001 242.609 309.119 242.426C309.239 242.244 309.298 242.012 309.296 241.731ZM312.596 240.846V243.781H311.634V238.838H312.558V239.643H312.619C312.733 239.381 312.911 239.171 313.153 239.012C313.398 238.853 313.706 238.774 314.077 238.774C314.414 238.774 314.709 238.845 314.962 238.986C315.215 239.126 315.411 239.334 315.551 239.61C315.69 239.887 315.76 240.229 315.76 240.637V243.781H314.798V240.753C314.798 240.395 314.704 240.115 314.518 239.913C314.331 239.709 314.075 239.607 313.749 239.607C313.525 239.607 313.327 239.655 313.153 239.752C312.982 239.849 312.845 239.99 312.744 240.177C312.646 240.361 312.596 240.584 312.596 240.846ZM318.093 237.19V243.781H317.13V237.19H318.093ZM319.467 243.781V238.838H320.429V243.781H319.467ZM319.953 238.075C319.786 238.075 319.642 238.02 319.522 237.908C319.404 237.794 319.345 237.659 319.345 237.503C319.345 237.344 319.404 237.209 319.522 237.097C319.642 236.983 319.786 236.926 319.953 236.926C320.121 236.926 320.263 236.983 320.381 237.097C320.501 237.209 320.561 237.344 320.561 237.503C320.561 237.659 320.501 237.794 320.381 237.908C320.263 238.02 320.121 238.075 319.953 238.075ZM321.804 243.781V238.838H322.728V239.643H322.789C322.892 239.37 323.06 239.158 323.294 239.005C323.528 238.851 323.808 238.774 324.134 238.774C324.464 238.774 324.741 238.851 324.964 239.005C325.19 239.16 325.356 239.372 325.463 239.643H325.515C325.633 239.379 325.82 239.168 326.078 239.012C326.335 238.853 326.642 238.774 326.998 238.774C327.447 238.774 327.812 238.914 328.096 239.195C328.381 239.476 328.524 239.9 328.524 240.466V243.781H327.561V240.557C327.561 240.222 327.47 239.979 327.288 239.829C327.105 239.679 326.888 239.604 326.635 239.604C326.321 239.604 326.078 239.701 325.904 239.894C325.73 240.085 325.643 240.33 325.643 240.631V243.781H324.684V240.495C324.684 240.227 324.601 240.012 324.433 239.849C324.266 239.686 324.048 239.604 323.78 239.604C323.598 239.604 323.429 239.652 323.275 239.749C323.122 239.843 322.999 239.975 322.905 240.145C322.812 240.314 322.766 240.51 322.766 240.734V243.781H321.804ZM329.893 243.781V238.838H330.856V243.781H329.893ZM330.379 238.075C330.212 238.075 330.068 238.02 329.948 237.908C329.83 237.794 329.771 237.659 329.771 237.503C329.771 237.344 329.83 237.209 329.948 237.097C330.068 236.983 330.212 236.926 330.379 236.926C330.547 236.926 330.689 236.983 330.807 237.097C330.927 237.209 330.988 237.344 330.988 237.503C330.988 237.659 330.927 237.794 330.807 237.908C330.689 238.02 330.547 238.075 330.379 238.075ZM334.538 238.838V239.61H331.838V238.838H334.538ZM332.562 237.654H333.524V242.33C333.524 242.516 333.552 242.657 333.608 242.751C333.663 242.844 333.735 242.907 333.823 242.941C333.913 242.973 334.011 242.99 334.116 242.99C334.193 242.99 334.261 242.984 334.319 242.973C334.377 242.963 334.422 242.954 334.454 242.948L334.628 243.743C334.572 243.764 334.493 243.786 334.39 243.807C334.287 243.831 334.158 243.843 334.003 243.846C333.75 243.85 333.514 243.805 333.295 243.71C333.077 243.616 332.9 243.47 332.764 243.273C332.629 243.075 332.562 242.828 332.562 242.529V237.654ZM337.759 243.881C337.272 243.881 336.853 243.777 336.501 243.569C336.151 243.359 335.881 243.064 335.69 242.684C335.501 242.302 335.407 241.855 335.407 241.342C335.407 240.836 335.501 240.389 335.69 240.003C335.881 239.617 336.147 239.315 336.488 239.099C336.831 238.882 337.233 238.774 337.692 238.774C337.971 238.774 338.241 238.82 338.503 238.912C338.765 239.004 338.999 239.149 339.208 239.347C339.416 239.544 339.58 239.8 339.7 240.116C339.82 240.429 339.88 240.81 339.88 241.258V241.599H335.951V240.878H338.937C338.937 240.625 338.886 240.401 338.783 240.206C338.68 240.008 338.535 239.853 338.348 239.739C338.164 239.625 337.947 239.569 337.698 239.569C337.428 239.569 337.192 239.635 336.99 239.768C336.791 239.899 336.636 240.071 336.527 240.283C336.42 240.493 336.366 240.722 336.366 240.969V241.532C336.366 241.862 336.424 242.143 336.54 242.375C336.658 242.607 336.822 242.784 337.032 242.906C337.242 243.026 337.488 243.086 337.769 243.086C337.951 243.086 338.118 243.06 338.268 243.009C338.418 242.955 338.548 242.876 338.657 242.771C338.767 242.666 338.85 242.536 338.908 242.381L339.819 242.545C339.746 242.814 339.615 243.049 339.426 243.25C339.24 243.45 339.005 243.605 338.722 243.717C338.441 243.826 338.12 243.881 337.759 243.881ZM342.878 243.878C342.479 243.878 342.123 243.776 341.81 243.572C341.499 243.366 341.254 243.073 341.076 242.693C340.9 242.312 340.812 241.854 340.812 241.319C340.812 240.785 340.901 240.328 341.079 239.948C341.26 239.569 341.506 239.278 341.82 239.076C342.133 238.875 342.488 238.774 342.885 238.774C343.192 238.774 343.438 238.825 343.625 238.928C343.814 239.029 343.96 239.147 344.063 239.282C344.168 239.417 344.249 239.536 344.307 239.639H344.365V237.19H345.327V243.781H344.388V243.012H344.307C344.249 243.117 344.166 243.237 344.056 243.373C343.949 243.508 343.801 243.626 343.612 243.727C343.423 243.827 343.179 243.878 342.878 243.878ZM343.091 243.057C343.367 243.057 343.601 242.984 343.792 242.838C343.985 242.69 344.131 242.485 344.23 242.224C344.331 241.962 344.381 241.657 344.381 241.31C344.381 240.966 344.332 240.666 344.233 240.409C344.134 240.151 343.99 239.95 343.799 239.807C343.608 239.663 343.372 239.591 343.091 239.591C342.801 239.591 342.56 239.666 342.367 239.816C342.174 239.967 342.028 240.171 341.929 240.431C341.832 240.691 341.784 240.984 341.784 241.31C341.784 241.64 341.833 241.937 341.932 242.201C342.031 242.465 342.177 242.674 342.37 242.829C342.565 242.981 342.805 243.057 343.091 243.057ZM150.647 262.635V255.838H151.587V256.639H151.667C151.723 256.536 151.803 256.417 151.908 256.282C152.014 256.147 152.159 256.029 152.346 255.928C152.533 255.825 152.779 255.774 153.086 255.774C153.485 255.774 153.841 255.875 154.155 256.076C154.468 256.278 154.714 256.569 154.892 256.948C155.072 257.328 155.162 257.785 155.162 258.319C155.162 258.854 155.073 259.312 154.895 259.693C154.717 260.073 154.472 260.366 154.161 260.572C153.85 260.776 153.495 260.878 153.096 260.878C152.796 260.878 152.55 260.827 152.359 260.727C152.17 260.626 152.022 260.508 151.915 260.373C151.808 260.237 151.725 260.117 151.667 260.012H151.609V262.635H150.647ZM151.59 258.31C151.59 258.657 151.64 258.962 151.741 259.224C151.842 259.485 151.988 259.69 152.179 259.838C152.37 259.984 152.604 260.057 152.88 260.057C153.168 260.057 153.408 259.981 153.601 259.829C153.794 259.674 153.94 259.465 154.039 259.201C154.14 258.937 154.19 258.64 154.19 258.31C154.19 257.984 154.141 257.691 154.042 257.431C153.946 257.171 153.8 256.967 153.604 256.816C153.411 256.666 153.17 256.591 152.88 256.591C152.601 256.591 152.365 256.663 152.172 256.807C151.981 256.95 151.837 257.151 151.738 257.409C151.639 257.666 151.59 257.966 151.59 258.31ZM156.32 260.781V255.838H157.25V256.623H157.302C157.392 256.357 157.551 256.148 157.778 255.996C158.008 255.841 158.267 255.764 158.557 255.764C158.617 255.764 158.688 255.766 158.769 255.77C158.853 255.775 158.918 255.78 158.965 255.787V256.707C158.927 256.696 158.858 256.684 158.76 256.672C158.661 256.657 158.562 256.649 158.463 256.649C158.236 256.649 158.033 256.697 157.855 256.794C157.679 256.888 157.54 257.02 157.437 257.19C157.334 257.357 157.282 257.548 157.282 257.763V260.781H156.32ZM161.783 260.881C161.32 260.881 160.916 260.775 160.57 260.562C160.225 260.35 159.957 260.053 159.766 259.671C159.575 259.289 159.479 258.843 159.479 258.332C159.479 257.819 159.575 257.371 159.766 256.987C159.957 256.603 160.225 256.305 160.57 256.092C160.916 255.88 161.32 255.774 161.783 255.774C162.247 255.774 162.651 255.88 162.997 256.092C163.342 256.305 163.61 256.603 163.801 256.987C163.992 257.371 164.088 257.819 164.088 258.332C164.088 258.843 163.992 259.289 163.801 259.671C163.61 260.053 163.342 260.35 162.997 260.562C162.651 260.775 162.247 260.881 161.783 260.881ZM161.787 260.073C162.087 260.073 162.336 259.994 162.533 259.835C162.731 259.676 162.877 259.465 162.971 259.201C163.067 258.937 163.116 258.646 163.116 258.329C163.116 258.014 163.067 257.724 162.971 257.46C162.877 257.194 162.731 256.981 162.533 256.82C162.336 256.659 162.087 256.578 161.787 256.578C161.484 256.578 161.233 256.659 161.034 256.82C160.836 256.981 160.689 257.194 160.593 257.46C160.498 257.724 160.451 258.014 160.451 258.329C160.451 258.646 160.498 258.937 160.593 259.201C160.689 259.465 160.836 259.676 161.034 259.835C161.233 259.994 161.484 260.073 161.787 260.073ZM165.242 255.838H166.204V261.103C166.204 261.433 166.144 261.712 166.024 261.94C165.906 262.167 165.73 262.34 165.496 262.458C165.264 262.576 164.978 262.635 164.637 262.635C164.602 262.635 164.57 262.635 164.54 262.635C164.508 262.635 164.475 262.634 164.44 262.632V261.805C164.47 261.805 164.497 261.805 164.521 261.805C164.542 261.805 164.567 261.805 164.595 261.805C164.822 261.805 164.986 261.743 165.087 261.621C165.19 261.501 165.242 261.326 165.242 261.097V255.838ZM165.718 255.075C165.551 255.075 165.407 255.02 165.287 254.908C165.169 254.794 165.11 254.659 165.11 254.503C165.11 254.344 165.169 254.209 165.287 254.097C165.407 253.983 165.551 253.926 165.718 253.926C165.885 253.926 166.028 253.983 166.146 254.097C166.266 254.209 166.326 254.344 166.326 254.503C166.326 254.659 166.266 254.794 166.146 254.908C166.028 255.02 165.885 255.075 165.718 255.075ZM169.709 260.881C169.222 260.881 168.802 260.777 168.451 260.569C168.101 260.359 167.831 260.064 167.64 259.684C167.451 259.302 167.356 258.855 167.356 258.342C167.356 257.836 167.451 257.389 167.64 257.003C167.831 256.617 168.097 256.315 168.438 256.099C168.781 255.882 169.182 255.774 169.641 255.774C169.92 255.774 170.191 255.82 170.452 255.912C170.714 256.004 170.949 256.149 171.157 256.347C171.365 256.544 171.529 256.8 171.65 257.116C171.77 257.429 171.83 257.81 171.83 258.258V258.599H167.9V257.878H170.887C170.887 257.625 170.835 257.401 170.732 257.206C170.629 257.008 170.485 256.853 170.298 256.739C170.113 256.625 169.897 256.569 169.648 256.569C169.377 256.569 169.141 256.635 168.94 256.768C168.74 256.899 168.586 257.071 168.476 257.283C168.369 257.493 168.315 257.722 168.315 257.969V258.532C168.315 258.862 168.373 259.143 168.489 259.375C168.607 259.607 168.771 259.784 168.982 259.906C169.192 260.026 169.438 260.086 169.719 260.086C169.901 260.086 170.067 260.06 170.217 260.009C170.368 259.955 170.497 259.876 170.607 259.771C170.716 259.666 170.8 259.536 170.858 259.381L171.769 259.545C171.696 259.814 171.565 260.049 171.376 260.25C171.189 260.45 170.954 260.605 170.671 260.717C170.39 260.826 170.069 260.881 169.709 260.881ZM175.06 260.881C174.581 260.881 174.169 260.773 173.824 260.556C173.481 260.337 173.217 260.036 173.032 259.652C172.848 259.268 172.755 258.828 172.755 258.332C172.755 257.83 172.85 257.387 173.039 257.003C173.227 256.617 173.493 256.315 173.837 256.099C174.18 255.882 174.584 255.774 175.05 255.774C175.425 255.774 175.76 255.843 176.054 255.983C176.348 256.12 176.585 256.313 176.765 256.562C176.948 256.811 177.056 257.102 177.09 257.434H176.154C176.102 257.203 175.984 257.003 175.8 256.836C175.617 256.668 175.373 256.585 175.066 256.585C174.798 256.585 174.563 256.655 174.361 256.797C174.162 256.937 174.006 257.136 173.895 257.396C173.783 257.653 173.727 257.958 173.727 258.31C173.727 258.67 173.782 258.981 173.891 259.243C174.001 259.505 174.155 259.707 174.355 259.851C174.556 259.995 174.794 260.067 175.066 260.067C175.248 260.067 175.414 260.034 175.562 259.967C175.712 259.898 175.837 259.801 175.938 259.674C176.041 259.548 176.113 259.395 176.154 259.217H177.09C177.056 259.537 176.952 259.822 176.778 260.073C176.604 260.324 176.372 260.522 176.08 260.665C175.79 260.809 175.45 260.881 175.06 260.881ZM180.507 255.838V256.61H177.807V255.838H180.507ZM178.531 254.654H179.493V259.33C179.493 259.516 179.521 259.657 179.577 259.751C179.632 259.844 179.704 259.907 179.792 259.941C179.882 259.973 179.98 259.99 180.085 259.99C180.162 259.99 180.23 259.984 180.288 259.973C180.346 259.963 180.391 259.954 180.423 259.948L180.597 260.743C180.541 260.764 180.462 260.786 180.359 260.807C180.256 260.831 180.127 260.843 179.973 260.846C179.719 260.85 179.483 260.805 179.265 260.71C179.046 260.616 178.869 260.47 178.734 260.273C178.598 260.075 178.531 259.828 178.531 259.529V254.654ZM185.276 257.045L184.404 257.199C184.367 257.088 184.309 256.982 184.23 256.881C184.153 256.78 184.047 256.697 183.914 256.633C183.781 256.569 183.615 256.536 183.416 256.536C183.143 256.536 182.916 256.598 182.733 256.72C182.551 256.84 182.46 256.996 182.46 257.187C182.46 257.352 182.521 257.485 182.643 257.586C182.766 257.686 182.963 257.769 183.235 257.833L184.021 258.014C184.475 258.119 184.814 258.281 185.038 258.5C185.261 258.718 185.372 259.003 185.372 259.352C185.372 259.648 185.286 259.912 185.115 260.144C184.945 260.374 184.708 260.554 184.404 260.685C184.101 260.816 183.75 260.881 183.351 260.881C182.798 260.881 182.346 260.763 181.996 260.527C181.647 260.289 181.432 259.951 181.353 259.513L182.283 259.372C182.341 259.614 182.46 259.798 182.64 259.922C182.82 260.044 183.055 260.105 183.345 260.105C183.66 260.105 183.912 260.04 184.101 259.909C184.29 259.776 184.384 259.614 184.384 259.423C184.384 259.269 184.326 259.139 184.21 259.034C184.097 258.929 183.922 258.849 183.686 258.796L182.849 258.612C182.388 258.507 182.047 258.34 181.826 258.11C181.607 257.881 181.498 257.59 181.498 257.238C181.498 256.946 181.579 256.691 181.742 256.472C181.905 256.253 182.13 256.083 182.418 255.96C182.705 255.836 183.035 255.774 183.406 255.774C183.94 255.774 184.361 255.89 184.667 256.121C184.974 256.351 185.177 256.659 185.276 257.045ZM187.144 260.842C186.968 260.842 186.817 260.78 186.69 260.656C186.564 260.529 186.501 260.377 186.501 260.199C186.501 260.023 186.564 259.873 186.69 259.748C186.817 259.622 186.968 259.558 187.144 259.558C187.32 259.558 187.471 259.622 187.598 259.748C187.725 259.873 187.788 260.023 187.788 260.199C187.788 260.317 187.758 260.425 187.698 260.524C187.64 260.62 187.563 260.698 187.466 260.756C187.37 260.813 187.262 260.842 187.144 260.842Z" fill="#0A2540"/>
<path d="M151.323 283.077L153.189 288.537H153.264L155.13 283.077H156.223L153.811 289.781H152.642L150.229 283.077H151.323ZM157.193 289.781V284.753H158.172V289.781H157.193ZM157.687 283.977C157.517 283.977 157.371 283.92 157.249 283.807C157.129 283.691 157.069 283.554 157.069 283.394C157.069 283.233 157.129 283.095 157.249 282.982C157.371 282.866 157.517 282.808 157.687 282.808C157.858 282.808 158.003 282.866 158.123 282.982C158.245 283.095 158.306 283.233 158.306 283.394C158.306 283.554 158.245 283.691 158.123 283.807C158.003 283.92 157.858 283.977 157.687 283.977ZM161.736 289.883C161.24 289.883 160.814 289.777 160.456 289.565C160.1 289.351 159.825 289.051 159.631 288.665C159.439 288.276 159.343 287.821 159.343 287.3C159.343 286.785 159.439 286.331 159.631 285.938C159.825 285.545 160.096 285.238 160.443 285.018C160.792 284.798 161.2 284.687 161.667 284.687C161.951 284.687 162.226 284.734 162.492 284.828C162.758 284.922 162.997 285.069 163.209 285.27C163.421 285.471 163.588 285.732 163.71 286.053C163.832 286.371 163.893 286.759 163.893 287.215V287.562H159.896V286.828H162.934C162.934 286.571 162.882 286.343 162.777 286.144C162.672 285.943 162.525 285.785 162.335 285.669C162.147 285.554 161.927 285.496 161.674 285.496C161.399 285.496 161.159 285.564 160.953 285.699C160.75 285.832 160.593 286.007 160.482 286.223C160.373 286.437 160.318 286.669 160.318 286.92V287.493C160.318 287.829 160.377 288.115 160.495 288.351C160.615 288.586 160.782 288.766 160.996 288.891C161.21 289.013 161.46 289.074 161.746 289.074C161.931 289.074 162.1 289.048 162.253 288.996C162.406 288.941 162.538 288.86 162.649 288.753C162.76 288.646 162.846 288.514 162.905 288.357L163.831 288.524C163.757 288.797 163.624 289.036 163.432 289.241C163.242 289.444 163.003 289.602 162.715 289.716C162.429 289.827 162.102 289.883 161.736 289.883ZM166.14 289.781L164.661 284.753H165.672L166.658 288.446H166.707L167.695 284.753H168.707L169.689 288.429H169.738L170.717 284.753H171.729L170.252 289.781H169.254L168.232 286.151H168.157L167.136 289.781H166.14ZM175.257 289.781V284.753H176.236V289.781H175.257ZM175.752 283.977C175.581 283.977 175.435 283.92 175.313 283.807C175.193 283.691 175.133 283.554 175.133 283.394C175.133 283.233 175.193 283.095 175.313 282.982C175.435 282.866 175.581 282.808 175.752 282.808C175.922 282.808 176.067 282.866 176.187 282.982C176.309 283.095 176.37 283.233 176.37 283.394C176.37 283.554 176.309 283.691 176.187 283.807C176.067 283.92 175.922 283.977 175.752 283.977ZM178.612 286.796V289.781H177.633V284.753H178.572V285.571H178.635C178.75 285.305 178.931 285.091 179.178 284.93C179.427 284.768 179.74 284.687 180.118 284.687C180.46 284.687 180.76 284.759 181.018 284.903C181.275 285.045 181.475 285.257 181.617 285.539C181.759 285.82 181.83 286.168 181.83 286.583V289.781H180.851V286.701C180.851 286.336 180.756 286.051 180.566 285.846C180.376 285.639 180.115 285.535 179.784 285.535C179.557 285.535 179.355 285.584 179.178 285.683C179.004 285.781 178.865 285.925 178.762 286.115C178.662 286.302 178.612 286.529 178.612 286.796ZM187.344 284.753L185.521 289.781H184.473L182.646 284.753H183.697L184.971 288.622H185.023L186.293 284.753H187.344ZM190.291 289.883C189.82 289.883 189.408 289.775 189.057 289.559C188.706 289.343 188.433 289.04 188.238 288.652C188.044 288.263 187.947 287.809 187.947 287.29C187.947 286.768 188.044 286.312 188.238 285.922C188.433 285.531 188.706 285.228 189.057 285.011C189.408 284.795 189.82 284.687 190.291 284.687C190.763 284.687 191.174 284.795 191.525 285.011C191.877 285.228 192.149 285.531 192.344 285.922C192.538 286.312 192.635 286.768 192.635 287.29C192.635 287.809 192.538 288.263 192.344 288.652C192.149 289.04 191.877 289.343 191.525 289.559C191.174 289.775 190.763 289.883 190.291 289.883ZM190.294 289.061C190.6 289.061 190.853 288.98 191.054 288.819C191.255 288.657 191.403 288.442 191.499 288.174C191.597 287.905 191.646 287.61 191.646 287.287C191.646 286.966 191.597 286.671 191.499 286.403C191.403 286.132 191.255 285.915 191.054 285.751C190.853 285.588 190.6 285.506 190.294 285.506C189.987 285.506 189.731 285.588 189.528 285.751C189.328 285.915 189.178 286.132 189.08 286.403C188.984 286.671 188.936 286.966 188.936 287.287C188.936 287.61 188.984 287.905 189.08 288.174C189.178 288.442 189.328 288.657 189.528 288.819C189.731 288.98 189.987 289.061 190.294 289.061ZM193.808 289.781V284.753H194.787V289.781H193.808ZM194.302 283.977C194.132 283.977 193.986 283.92 193.863 283.807C193.743 283.691 193.683 283.554 193.683 283.394C193.683 283.233 193.743 283.095 193.863 282.982C193.986 282.866 194.132 282.808 194.302 282.808C194.472 282.808 194.617 282.866 194.737 282.982C194.86 283.095 194.921 283.233 194.921 283.394C194.921 283.554 194.86 283.691 194.737 283.807C194.617 283.92 194.472 283.977 194.302 283.977ZM198.301 289.883C197.815 289.883 197.396 289.773 197.044 289.552C196.695 289.329 196.427 289.023 196.239 288.632C196.051 288.242 195.957 287.794 195.957 287.29C195.957 286.779 196.053 286.329 196.246 285.938C196.438 285.545 196.708 285.238 197.057 285.018C197.407 284.798 197.818 284.687 198.292 284.687C198.674 284.687 199.014 284.758 199.313 284.9C199.612 285.04 199.853 285.236 200.037 285.489C200.222 285.743 200.332 286.038 200.367 286.377H199.415C199.362 286.141 199.242 285.938 199.054 285.768C198.869 285.597 198.62 285.512 198.308 285.512C198.035 285.512 197.796 285.584 197.591 285.728C197.388 285.87 197.23 286.073 197.116 286.337C197.003 286.599 196.946 286.909 196.946 287.267C196.946 287.634 197.002 287.95 197.113 288.216C197.224 288.483 197.382 288.689 197.585 288.835C197.79 288.981 198.031 289.054 198.308 289.054C198.493 289.054 198.662 289.021 198.812 288.953C198.965 288.883 199.093 288.784 199.195 288.655C199.3 288.526 199.373 288.371 199.415 288.19H200.367C200.332 288.515 200.226 288.806 200.05 289.061C199.873 289.316 199.636 289.517 199.339 289.663C199.045 289.81 198.699 289.883 198.301 289.883ZM203.661 289.883C203.166 289.883 202.739 289.777 202.381 289.565C202.025 289.351 201.75 289.051 201.556 288.665C201.364 288.276 201.268 287.821 201.268 287.3C201.268 286.785 201.364 286.331 201.556 285.938C201.75 285.545 202.021 285.238 202.368 285.018C202.717 284.798 203.125 284.687 203.592 284.687C203.876 284.687 204.151 284.734 204.417 284.828C204.684 284.922 204.923 285.069 205.134 285.27C205.346 285.471 205.513 285.732 205.635 286.053C205.757 286.371 205.818 286.759 205.818 287.215V287.562H201.821V286.828H204.859C204.859 286.571 204.807 286.343 204.702 286.144C204.597 285.943 204.45 285.785 204.26 285.669C204.073 285.554 203.852 285.496 203.599 285.496C203.324 285.496 203.084 285.564 202.879 285.699C202.676 285.832 202.519 286.007 202.407 286.223C202.298 286.437 202.244 286.669 202.244 286.92V287.493C202.244 287.829 202.303 288.115 202.42 288.351C202.54 288.586 202.707 288.766 202.921 288.891C203.135 289.013 203.385 289.074 203.671 289.074C203.856 289.074 204.026 289.048 204.178 288.996C204.331 288.941 204.463 288.86 204.574 288.753C204.686 288.646 204.771 288.514 204.83 288.357L205.756 288.524C205.682 288.797 205.549 289.036 205.357 289.241C205.167 289.444 204.928 289.602 204.64 289.716C204.354 289.827 204.028 289.883 203.661 289.883ZM211.387 289.879C210.981 289.879 210.618 289.776 210.3 289.568C209.983 289.359 209.735 289.061 209.553 288.675C209.374 288.286 209.285 287.82 209.285 287.277C209.285 286.733 209.375 286.269 209.557 285.882C209.74 285.496 209.991 285.2 210.31 284.995C210.628 284.79 210.989 284.687 211.393 284.687C211.705 284.687 211.956 284.74 212.146 284.845C212.338 284.947 212.487 285.067 212.591 285.205C212.698 285.342 212.781 285.463 212.84 285.568H212.899V283.077H213.878V289.781H212.922V288.999H212.84C212.781 289.106 212.696 289.228 212.585 289.365C212.476 289.503 212.325 289.623 212.133 289.726C211.941 289.828 211.692 289.879 211.387 289.879ZM211.603 289.045C211.884 289.045 212.122 288.97 212.316 288.822C212.513 288.671 212.661 288.463 212.762 288.197C212.864 287.931 212.915 287.621 212.915 287.267C212.915 286.918 212.865 286.612 212.765 286.35C212.664 286.089 212.517 285.884 212.323 285.738C212.129 285.592 211.889 285.519 211.603 285.519C211.308 285.519 211.063 285.595 210.866 285.748C210.67 285.901 210.521 286.109 210.421 286.373C210.323 286.637 210.274 286.935 210.274 287.267C210.274 287.603 210.324 287.905 210.424 288.174C210.525 288.442 210.673 288.655 210.869 288.812C211.068 288.967 211.312 289.045 211.603 289.045ZM217.522 289.883C217.027 289.883 216.6 289.777 216.242 289.565C215.886 289.351 215.611 289.051 215.417 288.665C215.225 288.276 215.129 287.821 215.129 287.3C215.129 286.785 215.225 286.331 215.417 285.938C215.611 285.545 215.882 285.238 216.229 285.018C216.578 284.798 216.986 284.687 217.453 284.687C217.737 284.687 218.012 284.734 218.278 284.828C218.545 284.922 218.784 285.069 218.995 285.27C219.207 285.471 219.374 285.732 219.496 286.053C219.618 286.371 219.68 286.759 219.68 287.215V287.562H215.682V286.828H218.72C218.72 286.571 218.668 286.343 218.563 286.144C218.458 285.943 218.311 285.785 218.121 285.669C217.934 285.554 217.713 285.496 217.46 285.496C217.185 285.496 216.945 285.564 216.74 285.699C216.537 285.832 216.38 286.007 216.268 286.223C216.159 286.437 216.105 286.669 216.105 286.92V287.493C216.105 287.829 216.164 288.115 216.281 288.351C216.401 288.586 216.568 288.766 216.782 288.891C216.996 289.013 217.246 289.074 217.532 289.074C217.718 289.074 217.887 289.048 218.039 288.996C218.192 288.941 218.324 288.86 218.436 288.753C218.547 288.646 218.632 288.514 218.691 288.357L219.617 288.524C219.543 288.797 219.41 289.036 219.218 289.241C219.028 289.444 218.789 289.602 218.501 289.716C218.215 289.827 217.889 289.883 217.522 289.883ZM223.193 284.753V285.539H220.446V284.753H223.193ZM221.183 283.548H222.162V288.305C222.162 288.495 222.19 288.638 222.247 288.734C222.303 288.828 222.377 288.892 222.466 288.927C222.558 288.96 222.657 288.976 222.764 288.976C222.843 288.976 222.911 288.97 222.97 288.96C223.029 288.949 223.075 288.94 223.108 288.933L223.285 289.742C223.228 289.764 223.147 289.786 223.042 289.807C222.937 289.831 222.807 289.845 222.649 289.847C222.392 289.851 222.152 289.805 221.929 289.709C221.707 289.613 221.527 289.465 221.389 289.264C221.252 289.063 221.183 288.811 221.183 288.508V283.548ZM225.819 289.893C225.5 289.893 225.212 289.834 224.955 289.716C224.697 289.596 224.493 289.422 224.343 289.195C224.194 288.968 224.12 288.69 224.12 288.36C224.12 288.077 224.174 287.843 224.284 287.66C224.393 287.477 224.54 287.331 224.726 287.224C224.911 287.118 225.118 287.037 225.348 286.982C225.577 286.928 225.81 286.886 226.048 286.858C226.349 286.823 226.594 286.795 226.781 286.773C226.969 286.749 227.106 286.711 227.191 286.658C227.276 286.606 227.318 286.521 227.318 286.403V286.38C227.318 286.094 227.238 285.872 227.076 285.715C226.917 285.558 226.679 285.48 226.362 285.48C226.033 285.48 225.773 285.553 225.583 285.699C225.396 285.843 225.266 286.003 225.194 286.18L224.274 285.971C224.383 285.665 224.542 285.418 224.752 285.231C224.963 285.041 225.207 284.903 225.482 284.818C225.757 284.731 226.046 284.687 226.349 284.687C226.55 284.687 226.763 284.711 226.988 284.759C227.215 284.805 227.426 284.89 227.623 285.015C227.821 285.139 227.984 285.317 228.111 285.548C228.237 285.778 228.3 286.075 228.3 286.442V289.781H227.345V289.094H227.305C227.242 289.22 227.147 289.345 227.02 289.467C226.894 289.589 226.731 289.691 226.533 289.771C226.334 289.852 226.096 289.893 225.819 289.893ZM226.032 289.107C226.302 289.107 226.534 289.053 226.726 288.946C226.92 288.84 227.067 288.7 227.168 288.527C227.27 288.353 227.322 288.166 227.322 287.968V287.319C227.287 287.354 227.219 287.387 227.119 287.418C227.02 287.446 226.908 287.471 226.781 287.493C226.655 287.513 226.532 287.531 226.412 287.549C226.291 287.564 226.191 287.577 226.11 287.588C225.92 287.612 225.747 287.652 225.59 287.709C225.435 287.766 225.31 287.848 225.217 287.955C225.125 288.059 225.079 288.199 225.079 288.374C225.079 288.616 225.169 288.799 225.348 288.924C225.527 289.046 225.755 289.107 226.032 289.107ZM229.684 289.781V284.753H230.663V289.781H229.684ZM230.179 283.977C230.008 283.977 229.862 283.92 229.74 283.807C229.62 283.691 229.56 283.554 229.56 283.394C229.56 283.233 229.62 283.095 229.74 282.982C229.862 282.866 230.008 282.808 230.179 282.808C230.349 282.808 230.494 282.866 230.614 282.982C230.736 283.095 230.797 283.233 230.797 283.394C230.797 283.554 230.736 283.691 230.614 283.807C230.494 283.92 230.349 283.977 230.179 283.977ZM233.039 283.077V289.781H232.06V283.077H233.039ZM238.204 285.98L237.316 286.138C237.279 286.024 237.22 285.916 237.14 285.814C237.061 285.711 236.954 285.627 236.819 285.561C236.683 285.496 236.514 285.463 236.311 285.463C236.034 285.463 235.803 285.525 235.617 285.65C235.432 285.772 235.339 285.93 235.339 286.125C235.339 286.293 235.401 286.428 235.526 286.53C235.65 286.633 235.851 286.717 236.128 286.783L236.927 286.966C237.39 287.073 237.734 287.238 237.961 287.46C238.188 287.683 238.302 287.972 238.302 288.328C238.302 288.629 238.214 288.897 238.04 289.133C237.867 289.367 237.626 289.55 237.316 289.683C237.009 289.816 236.652 289.883 236.246 289.883C235.683 289.883 235.223 289.763 234.868 289.523C234.512 289.28 234.294 288.937 234.213 288.491L235.159 288.347C235.218 288.594 235.339 288.781 235.522 288.907C235.706 289.032 235.945 289.094 236.239 289.094C236.56 289.094 236.817 289.027 237.009 288.894C237.201 288.759 237.297 288.594 237.297 288.4C237.297 288.243 237.238 288.111 237.12 288.004C237.004 287.897 236.826 287.816 236.586 287.761L235.735 287.575C235.266 287.468 234.919 287.298 234.694 287.064C234.472 286.831 234.36 286.535 234.36 286.177C234.36 285.88 234.443 285.62 234.609 285.398C234.775 285.175 235.004 285.002 235.297 284.877C235.589 284.751 235.924 284.687 236.302 284.687C236.845 284.687 237.273 284.805 237.585 285.041C237.897 285.274 238.103 285.588 238.204 285.98Z" fill="#727F96"/>
<g clip-path="url(#clip3_4003_1384)">
<path fill-rule="evenodd" clip-rule="evenodd" d="M243.538 284.561C243.451 284.47 243.403 284.349 243.404 284.223C243.406 284.097 243.457 283.976 243.546 283.887C243.635 283.798 243.756 283.747 243.882 283.746C244.008 283.745 244.129 283.793 244.22 283.88L247.255 286.916C247.345 287.007 247.396 287.129 247.396 287.256C247.396 287.384 247.345 287.506 247.255 287.596L244.22 290.632C244.13 290.723 244.007 290.774 243.879 290.774C243.751 290.774 243.629 290.723 243.538 290.632C243.448 290.542 243.397 290.419 243.397 290.291C243.397 290.164 243.448 290.041 243.538 289.95L246.23 287.255L243.538 284.561Z" fill="#727F96"/>
</g>
</g>
</g>
<g opacity="0.3">
<path d="M4 4.80078H504V334.131C504 336.34 502.209 338.131 500 338.131H8.00001C5.79087 338.131 4 336.34 4 334.131V4.80078Z" fill="url(#paint0_linear_4003_1384)"/>
</g>
</g>
<defs>
<linearGradient id="paint0_linear_4003_1384" x1="254" y1="4.80078" x2="254" y2="338.131" gradientUnits="userSpaceOnUse">
<stop stop-color="#BEC9DC" stop-opacity="0"/>
<stop offset="1" stop-color="#BEC9DC" stop-opacity="0.4"/>
</linearGradient>
<clipPath id="clip0_4003_1384">
<rect x="4" y="4.80078" width="500" height="333.33" rx="4" fill="white"/>
</clipPath>
<clipPath id="clip1_4003_1384">
<rect x="4" y="4.80078" width="500" height="333.33" rx="4" fill="white"/>
</clipPath>
<clipPath id="clip2_4003_1384">
<rect width="500" height="333.33" fill="white" transform="translate(4 54.7812)"/>
</clipPath>
<clipPath id="clip3_4003_1384">
<rect width="5" height="8" fill="white" transform="translate(243 283.281)"/>
</clipPath>
</defs>
</svg>
