<svg width="20" height="21" viewBox="0 0 20 21" fill="none" xmlns="http://www.w3.org/2000/svg">
<path d="M6.25005 0.630859C5.5597 0.630859 5.00005 1.1905 5.00005 1.88086V18.2966C5.00005 18.8623 4.62014 19.3575 4.07373 19.504L18.0736 15.7509C18.6201 15.6045 19 15.1092 19 14.5435V1.88086C19 1.1905 18.4404 0.630859 17.75 0.630859H6.25005Z" fill="#00D924"/>
<path d="M0.62669 12.4041C0.0287879 12.7493 -0.176046 13.5137 0.169169 14.1116L2.90761 18.8548C3.19049 19.3447 3.76719 19.5836 4.31367 19.4372L17.3872 15.9341L12.2935 7.11155C11.9485 6.51365 11.1838 6.3088 10.5859 6.65405L0.62669 12.4041Z" fill="url(#paint0_linear_4003_1453)"/>
<path d="M4.20068 19.4619C4.23837 19.4555 4.276 19.4472 4.3135 19.4372L17.387 15.9341L12.2933 7.11155C11.9483 6.51365 11.1837 6.3088 10.5858 6.65405L4.99992 9.87905V18.296C4.99992 18.8167 4.67801 19.2776 4.20068 19.4619Z" fill="url(#paint1_linear_4003_1453)"/>
<defs>
<linearGradient id="paint0_linear_4003_1453" x1="8.69485" y1="10.2553" x2="8.69465" y2="19.1303" gradientUnits="userSpaceOnUse">
<stop stop-color="#FFD748"/>
<stop offset="1" stop-color="#FFC148"/>
</linearGradient>
<linearGradient id="paint1_linear_4003_1453" x1="10.7943" y1="6.48635" x2="10.7939" y2="19.4619" gradientUnits="userSpaceOnUse">
<stop stop-color="#00A600"/>
<stop offset="1" stop-color="#00D924"/>
</linearGradient>
</defs>
</svg>
