<svg width="97" height="97" viewBox="0 0 97 97" fill="none" xmlns="http://www.w3.org/2000/svg">
<path d="M44.1426 28.7012C45.2034 28.7012 46.2209 29.1226 46.971 29.8727C47.7211 30.6229 48.1426 31.6403 48.1426 32.7012V49.7012C48.1426 50.762 47.7211 51.7795 46.971 52.5296C46.2209 53.2797 45.2034 53.7012 44.1426 53.7012H20.1426C19.0817 53.7012 18.0643 53.2797 17.3142 52.5296C16.564 51.7795 16.1426 50.762 16.1426 49.7012V32.7012C16.1426 31.6403 16.564 30.6229 17.3142 29.8727C18.0643 29.1226 19.0817 28.7012 20.1426 28.7012H44.1426ZM20.9426 33.8712L20.2726 34.6212C20.1949 34.7087 20.1503 34.8206 20.1467 34.9375C20.143 35.0545 20.1805 35.169 20.2526 35.2612L20.3126 35.3212L23.6026 38.2412L20.3026 41.1612C20.2069 41.2506 20.1501 41.3741 20.1445 41.505C20.1389 41.636 20.1849 41.7638 20.2726 41.8612L20.9326 42.6212C21.1126 42.8212 21.4326 42.8412 21.6326 42.6612L26.6026 38.2412L21.6426 33.8312C21.544 33.7447 21.4153 33.7004 21.2844 33.7079C21.1535 33.7154 21.0307 33.774 20.9426 33.8712Z" fill="#00D4FF"/>
<path d="M27.7826 40.7012H34.5026C34.7226 40.7012 34.8026 40.7212 34.8826 40.7712C34.9726 40.8112 35.0326 40.8712 35.0826 40.9612C35.1226 41.0412 35.1426 41.1212 35.1426 41.3412V42.0612C35.1426 42.2812 35.1226 42.3612 35.0726 42.4412C35.0317 42.5261 34.9653 42.596 34.8826 42.6412C34.8026 42.6812 34.7226 42.7012 34.5026 42.7012H27.7826C27.5626 42.7012 27.4826 42.6812 27.4026 42.6312C27.3177 42.5903 27.2477 42.5239 27.2026 42.4412C27.1626 42.3612 27.1426 42.2812 27.1426 42.0612V41.3412C27.1426 41.1212 27.1626 41.0412 27.2126 40.9612C27.2526 40.8712 27.3126 40.8112 27.4026 40.7612C27.4826 40.7212 27.5626 40.7012 27.7826 40.7012Z" fill="#0A2540"/>
<path d="M42.6426 42.7012L43.7726 45.8312L44.4126 45.9612L46.6526 43.5012L47.5826 43.8812L47.4226 47.2112C47.6126 47.3212 47.7926 47.4412 47.9626 47.5712L50.9826 46.1512L51.6826 46.8612L50.2726 49.8812C50.4026 50.0512 50.5226 50.2312 50.6326 50.4212L53.9626 50.2612L54.3426 51.1912L51.8826 53.4312C51.9326 53.6412 51.9826 53.8512 52.0126 54.0712L55.1426 55.2012V56.2012L52.0126 57.3312C51.9726 57.5812 51.9126 57.8312 51.8626 58.0612L54.3426 60.2112L53.9626 61.1412L50.6826 60.9012C50.5426 61.1412 50.3826 61.3712 50.2126 61.6012L51.6926 64.5412L50.9826 65.2412L48.0426 63.7712C47.8126 63.9412 47.5826 64.1012 47.3426 64.2412L47.5826 67.5212L46.6526 67.9012L44.5026 65.4212C44.2326 65.4812 43.9626 65.5412 43.6826 65.5812L42.6426 68.7012H41.6426L40.6026 65.5812C40.3226 65.5412 40.0526 65.4812 39.7826 65.4212L37.6326 67.9012L36.7026 67.5212L36.9426 64.2412C36.7026 64.1012 36.4726 63.9412 36.2426 63.7712L33.3026 65.2512L32.6026 64.5412L34.0726 61.6012C33.9026 61.3712 33.7426 61.1412 33.6026 60.9012L30.3226 61.1412L29.9426 60.2112L32.4226 58.0612C32.3578 57.7902 32.3044 57.5166 32.2626 57.2412L29.1426 56.2012V55.2012L32.2626 54.1612C32.3026 53.9112 32.3426 53.6712 32.4026 53.4312L29.9426 51.1912L30.3226 50.2612L33.6526 50.4212C33.7626 50.2312 33.8826 50.0512 34.0126 49.8812L32.5926 46.8612L33.3026 46.1612L36.3226 47.5712C36.4926 47.4412 36.6726 47.3212 36.8626 47.2112L36.7026 43.8812L37.6326 43.5012L39.8726 45.9612C39.8726 45.9612 40.2926 45.8612 40.5126 45.8312L41.6426 42.7012H42.6426ZM42.1426 53.7012C41.6121 53.7012 41.1034 53.9119 40.7284 54.287C40.3533 54.662 40.1426 55.1707 40.1426 55.7012C40.1426 56.2316 40.3533 56.7403 40.7284 57.1154C41.1034 57.4905 41.6121 57.7012 42.1426 57.7012C42.673 57.7012 43.1817 57.4905 43.5568 57.1154C43.9319 56.7403 44.1426 56.2316 44.1426 55.7012C44.1426 55.1707 43.9319 54.662 43.5568 54.287C43.1817 53.9119 42.673 53.7012 42.1426 53.7012Z" fill="#7A73FF"/>
<mask id="mask0_4003_3670" style="mask-type:luminance" maskUnits="userSpaceOnUse" x="16" y="28" width="33" height="26">
<path d="M44.1426 28.7012C45.2034 28.7012 46.2209 29.1226 46.971 29.8727C47.7211 30.6229 48.1426 31.6403 48.1426 32.7012V49.7012C48.1426 50.762 47.7211 51.7795 46.971 52.5296C46.2209 53.2797 45.2034 53.7012 44.1426 53.7012H20.1426C19.0817 53.7012 18.0643 53.2797 17.3142 52.5296C16.564 51.7795 16.1426 50.762 16.1426 49.7012V32.7012C16.1426 31.6403 16.564 30.6229 17.3142 29.8727C18.0643 29.1226 19.0817 28.7012 20.1426 28.7012H44.1426ZM20.9426 33.8712L20.2726 34.6212C20.1949 34.7087 20.1503 34.8206 20.1467 34.9375C20.143 35.0545 20.1805 35.169 20.2526 35.2612L20.3126 35.3212L23.6026 38.2412L20.3026 41.1612C20.2069 41.2506 20.1501 41.3741 20.1445 41.505C20.1389 41.636 20.1849 41.7638 20.2726 41.8612L20.9326 42.6212C21.1126 42.8212 21.4326 42.8412 21.6326 42.6612L26.6026 38.2412L21.6426 33.8312C21.544 33.7447 21.4153 33.7004 21.2844 33.7079C21.1535 33.7154 21.0307 33.774 20.9426 33.8712Z" fill="white"/>
</mask>
<g mask="url(#mask0_4003_3670)">
<path d="M42.6426 42.7012L43.7726 45.8312L44.4126 45.9612L46.6526 43.5012L47.5826 43.8812L47.4226 47.2112C47.6126 47.3212 47.7926 47.4412 47.9626 47.5712L50.9826 46.1512L51.6826 46.8612L50.2726 49.8812C50.4026 50.0512 50.5226 50.2312 50.6326 50.4212L53.9626 50.2612L54.3426 51.1912L51.8826 53.4312C51.9326 53.6412 51.9826 53.8512 52.0126 54.0712L55.1426 55.2012V56.2012L52.0126 57.3312C51.9726 57.5812 51.9126 57.8312 51.8626 58.0612L54.3426 60.2112L53.9626 61.1412L50.6826 60.9012C50.5426 61.1412 50.3826 61.3712 50.2126 61.6012L51.6926 64.5412L50.9826 65.2412L48.0426 63.7712C47.8126 63.9412 47.5826 64.1012 47.3426 64.2412L47.5826 67.5212L46.6526 67.9012L44.5026 65.4212C44.2326 65.4812 43.9626 65.5412 43.6826 65.5812L42.6426 68.7012H41.6426L40.6026 65.5812C40.3226 65.5412 40.0526 65.4812 39.7826 65.4212L37.6326 67.9012L36.7026 67.5212L36.9426 64.2412C36.7026 64.1012 36.4726 63.9412 36.2426 63.7712L33.3026 65.2512L32.6026 64.5412L34.0726 61.6012C33.9026 61.3712 33.7426 61.1412 33.6026 60.9012L30.3226 61.1412L29.9426 60.2112L32.4226 58.0612C32.3578 57.7902 32.3044 57.5166 32.2626 57.2412L29.1426 56.2012V55.2012L32.2626 54.1612C32.3026 53.9112 32.3426 53.6712 32.4026 53.4312L29.9426 51.1912L30.3226 50.2612L33.6526 50.4212C33.7626 50.2312 33.8826 50.0512 34.0126 49.8812L32.5926 46.8612L33.3026 46.1612L36.3226 47.5712C36.4926 47.4412 36.6726 47.3212 36.8626 47.2112L36.7026 43.8812L37.6326 43.5012L39.8726 45.9612C39.8726 45.9612 40.2926 45.8612 40.5126 45.8312L41.6426 42.7012H42.6426ZM42.1426 53.7012C41.6121 53.7012 41.1034 53.9119 40.7284 54.287C40.3533 54.662 40.1426 55.1707 40.1426 55.7012C40.1426 56.2316 40.3533 56.7403 40.7284 57.1154C41.1034 57.4905 41.6121 57.7012 42.1426 57.7012C42.673 57.7012 43.1817 57.4905 43.5568 57.1154C43.9319 56.7403 44.1426 56.2316 44.1426 55.7012C44.1426 55.1707 43.9319 54.662 43.5568 54.287C43.1817 53.9119 42.673 53.7012 42.1426 53.7012Z" fill="#CCFFFF"/>
</g>
</svg>
