<svg width="200" height="41" viewBox="0 0 200 41" fill="none" xmlns="http://www.w3.org/2000/svg">
<path fill-rule="evenodd" clip-rule="evenodd" d="M71.5601 27.2271V13.3721H75.2761L79.9831 23.7261L84.6201 13.3711H88.1791V27.2261H85.1151V19.1661L81.5811 27.2261H78.3161L74.7361 19.2101V27.2261L71.5601 27.2271ZM100.507 21.8631L97.9441 15.9891L95.4391 21.8621L100.507 21.8631ZM93.1481 27.2271H89.5451L95.7381 13.3721H100.173L106.41 27.2271H102.854L101.627 24.4671H94.3371L93.1481 27.2271ZM107.847 27.2271V13.3721H121.176V16.1421H111.066V18.8941H119.735V21.5981H111.066V24.4561H121.201V27.2271H107.847ZM127.058 19.7341H134.062V16.1411H127.058V19.7341ZM123.793 27.2271V13.3721H134.948C136.438 13.3721 137.303 14.2271 137.303 15.6951V20.3501C137.303 21.4211 136.348 22.3891 134.495 22.3891C134.39 22.3941 134.283 22.3891 134.173 22.3891L137.42 27.2271H133.837L130.758 22.4901H127.058V27.2271H123.793ZM143.177 27.2351H142.072C140.629 27.2351 139.934 26.4081 139.934 25.2031V23.3931H143.177V24.4651H150.067V21.6291H142.164C140.902 21.6291 139.993 20.7871 139.993 19.6191V15.5051C139.993 14.2601 140.982 13.3801 142.186 13.3801H151.221C152.442 13.3801 153.286 14.2851 153.286 15.5931V17.2461H150.067V16.1511H143.177V18.8801H151.057C152.221 18.8801 153.286 19.6441 153.286 21.1141V25.0691C153.286 26.4161 152.534 27.2351 151.126 27.2351H143.177ZM156.398 27.2351V13.3781H159.708V18.9201L166.012 13.3781H170.493L162.973 19.8151L170.764 27.2351H166.124L159.708 20.9331V27.2351H156.398Z" fill="#AAB4C1"/>
<path fill-rule="evenodd" clip-rule="evenodd" d="M54.397 4.48047H31.608C30.649 4.48047 29.73 4.86047 29.053 5.53547C28.7181 5.86908 28.4526 6.26576 28.2718 6.70259C28.0911 7.13942 27.9987 7.60773 28 8.08047V32.3875C28 34.3685 29.615 35.9755 31.608 35.9755H54.398C56.393 35.9755 58.011 34.3655 58.011 32.3815V8.07447C58.011 6.08947 56.393 4.48047 54.397 4.48047ZM53.711 11.9875L47.787 19.3445L56.347 23.4235L56.341 23.4525H46.838L48.956 32.6185L48.927 32.6355L43.003 25.2785L37.079 32.6355L37.055 32.6235L39.168 23.4515H29.67L29.659 23.4235L38.219 19.3435L32.295 11.9875L32.312 11.9645L40.872 16.0435L42.985 6.87647H43.02L45.133 16.0435L53.693 11.9635L53.711 11.9875Z" fill="#AAB4C1"/>
</svg>
