<svg width="41" height="41" viewBox="0 0 41 41" fill="none" xmlns="http://www.w3.org/2000/svg">
<path fill-rule="evenodd" clip-rule="evenodd" d="M4.14258 2.70117C1.93344 2.70117 0.142578 4.49203 0.142578 6.70117V26.7012C0.142578 28.9103 1.93344 30.7012 4.14258 30.7012H32.1426C34.3517 30.7012 36.1426 28.9103 36.1426 26.7012V6.70117C36.1426 4.49203 34.3517 2.70117 32.1426 2.70117H4.14258ZM4.64258 8.70117C5.47101 8.70117 6.14258 8.0296 6.14258 7.20117C6.14258 6.37274 5.47101 5.70117 4.64258 5.70117C3.81415 5.70117 3.14258 6.37274 3.14258 7.20117C3.14258 8.0296 3.81415 8.70117 4.64258 8.70117ZM11.1426 7.20117C11.1426 8.0296 10.471 8.70117 9.64258 8.70117C8.81415 8.70117 8.14258 8.0296 8.14258 7.20117C8.14258 6.37274 8.81415 5.70117 9.64258 5.70117C10.471 5.70117 11.1426 6.37274 11.1426 7.20117ZM14.6426 8.70117C15.471 8.70117 16.1426 8.0296 16.1426 7.20117C16.1426 6.37274 15.471 5.70117 14.6426 5.70117C13.8142 5.70117 13.1426 6.37274 13.1426 7.20117C13.1426 8.0296 13.8142 8.70117 14.6426 8.70117Z" fill="#00D4FF"/>
<path fill-rule="evenodd" clip-rule="evenodd" d="M40.1426 19.2012C40.1426 16.1636 37.6802 13.7012 34.6426 13.7012H17.6426C14.605 13.7012 12.1426 16.1636 12.1426 19.2012C12.1426 22.2388 14.605 24.7012 17.6426 24.7012H34.6426C37.6802 24.7012 40.1426 22.2388 40.1426 19.2012ZM14.1426 19.2012C14.1426 21.1342 15.7096 22.7012 17.6426 22.7012C19.5756 22.7012 21.1426 21.1342 21.1426 19.2012C21.1426 17.2682 19.5756 15.7012 17.6426 15.7012C15.7096 15.7012 14.1426 17.2682 14.1426 19.2012ZM12.1426 32.2012C12.1426 29.1636 14.605 26.7012 17.6426 26.7012H34.6426C37.6802 26.7012 40.1426 29.1636 40.1426 32.2012C40.1426 35.2388 37.6802 37.7012 34.6426 37.7012H17.6426C14.605 37.7012 12.1426 35.2388 12.1426 32.2012ZM31.1426 32.2012C31.1426 34.1342 32.7096 35.7012 34.6426 35.7012C36.5756 35.7012 38.1426 34.1342 38.1426 32.2012C38.1426 30.2682 36.5756 28.7012 34.6426 28.7012C32.7096 28.7012 31.1426 30.2682 31.1426 32.2012Z" fill="#7A73FF"/>
<mask id="mask0_4003_3704" style="mask-type:luminance" maskUnits="userSpaceOnUse" x="0" y="2" width="37" height="29">
<path fill-rule="evenodd" clip-rule="evenodd" d="M4.14258 2.70117C1.93344 2.70117 0.142578 4.49203 0.142578 6.70117V26.7012C0.142578 28.9103 1.93344 30.7012 4.14258 30.7012H32.1426C34.3517 30.7012 36.1426 28.9103 36.1426 26.7012V6.70117C36.1426 4.49203 34.3517 2.70117 32.1426 2.70117H4.14258ZM4.64258 8.70117C5.47101 8.70117 6.14258 8.0296 6.14258 7.20117C6.14258 6.37274 5.47101 5.70117 4.64258 5.70117C3.81415 5.70117 3.14258 6.37274 3.14258 7.20117C3.14258 8.0296 3.81415 8.70117 4.64258 8.70117ZM11.1426 7.20117C11.1426 8.0296 10.471 8.70117 9.64258 8.70117C8.81415 8.70117 8.14258 8.0296 8.14258 7.20117C8.14258 6.37274 8.81415 5.70117 9.64258 5.70117C10.471 5.70117 11.1426 6.37274 11.1426 7.20117ZM14.6426 8.70117C15.471 8.70117 16.1426 8.0296 16.1426 7.20117C16.1426 6.37274 15.471 5.70117 14.6426 5.70117C13.8142 5.70117 13.1426 6.37274 13.1426 7.20117C13.1426 8.0296 13.8142 8.70117 14.6426 8.70117Z" fill="white"/>
</mask>
<g mask="url(#mask0_4003_3704)">
<path fill-rule="evenodd" clip-rule="evenodd" d="M40.1426 19.2012C40.1426 16.1636 37.6802 13.7012 34.6426 13.7012H17.6426C14.605 13.7012 12.1426 16.1636 12.1426 19.2012C12.1426 22.2388 14.605 24.7012 17.6426 24.7012H34.6426C37.6802 24.7012 40.1426 22.2388 40.1426 19.2012ZM14.1426 19.2012C14.1426 21.1342 15.7096 22.7012 17.6426 22.7012C19.5756 22.7012 21.1426 21.1342 21.1426 19.2012C21.1426 17.2682 19.5756 15.7012 17.6426 15.7012C15.7096 15.7012 14.1426 17.2682 14.1426 19.2012ZM12.1426 32.2012C12.1426 29.1636 14.605 26.7012 17.6426 26.7012H34.6426C37.6802 26.7012 40.1426 29.1636 40.1426 32.2012C40.1426 35.2388 37.6802 37.7012 34.6426 37.7012H17.6426C14.605 37.7012 12.1426 35.2388 12.1426 32.2012ZM31.1426 32.2012C31.1426 34.1342 32.7096 35.7012 34.6426 35.7012C36.5756 35.7012 38.1426 34.1342 38.1426 32.2012C38.1426 30.2682 36.5756 28.7012 34.6426 28.7012C32.7096 28.7012 31.1426 30.2682 31.1426 32.2012Z" fill="#CCFFFF"/>
</g>
</svg>
