<svg width="20" height="21" viewBox="0 0 20 21" fill="none" xmlns="http://www.w3.org/2000/svg">
<path d="M5.78015 8.91537C5.6158 8.49727 5.924 8.04492 6.37325 8.04492H14.2646C14.2646 8.20317 14.2351 8.36142 14.1762 8.51127L12.4224 12.9721C12.2307 13.4597 11.7602 13.7803 11.2363 13.7803H7.6454C7.6454 13.7012 7.63065 13.622 7.6012 13.5471L5.78015 8.91537Z" fill="url(#paint0_linear_4003_1369)"/>
<path d="M0.0448055 3.18098C-0.119568 2.7629 0.188644 2.31055 0.637875 2.31055H7.34975C7.359 2.31055 7.3682 2.31074 7.37735 2.31113C7.39025 2.31074 7.4032 2.31055 7.4162 2.31055H11.2363C11.7602 2.31055 12.2308 2.63115 12.4225 3.11873L14.1763 7.57955C14.2352 7.72945 14.2647 7.88765 14.2647 8.0459H6.37325C5.924 8.0459 5.6158 8.49825 5.78015 8.91635L7.6012 13.5481C7.63065 13.623 7.6454 13.7021 7.6454 13.7812H0.637875C0.188643 13.7812 -0.119568 13.3289 0.0448058 12.9108L1.86584 8.2791C1.92476 8.1292 1.92476 7.9626 1.86584 7.81275L0.0448055 3.18098Z" fill="url(#paint1_linear_4003_1369)"/>
<path fill-rule="evenodd" clip-rule="evenodd" d="M7.6454 13.7803C7.6454 13.8594 7.63065 13.9385 7.6012 14.0135L5.78015 18.6452C5.6158 19.0633 5.924 19.5156 6.37325 19.5156H16.9716C17.4955 19.5156 17.9661 19.195 18.1578 18.7075L19.9116 14.2466C20.0294 13.9469 20.0294 13.6137 19.9116 13.3139L18.1578 8.85312C17.9661 8.36552 17.4955 8.04492 16.9716 8.04492H14.2646C14.2646 8.20317 14.2351 8.36142 14.1762 8.51127L12.4224 12.9721C12.2307 13.4597 11.7602 13.7803 11.2363 13.7803H7.6454Z" fill="#9966FF"/>
<defs>
<linearGradient id="paint0_linear_4003_1369" x1="7.0311" y1="13.143" x2="14.6782" y2="7.08902" gradientUnits="userSpaceOnUse">
<stop stop-color="#0048E5"/>
<stop offset="0.63979" stop-color="#625AF5"/>
<stop offset="1" stop-color="#8A62FC"/>
</linearGradient>
<linearGradient id="paint1_linear_4003_1369" x1="7.1323" y1="3.06383" x2="7.0311" y2="13.144" gradientUnits="userSpaceOnUse">
<stop stop-color="#11EFE3"/>
<stop offset="0.33" stop-color="#15E8E2"/>
<stop offset="0.74" stop-color="#1FD3E0"/>
<stop offset="1" stop-color="#21CFE0"/>
</linearGradient>
</defs>
</svg>
