<svg width="20" height="21" viewBox="0 0 20 21" fill="none" xmlns="http://www.w3.org/2000/svg">
<path d="M17.305 6.4417C17.1626 6.20753 16.9488 6.02525 16.695 5.9217L4.27004 0.901699C4.07413 0.821844 3.86154 0.791594 3.65113 0.813633C3.44073 0.835672 3.23902 0.909319 3.06391 1.02804C2.8888 1.14675 2.74572 1.30687 2.64735 1.49416C2.54898 1.68146 2.49838 1.89015 2.50004 2.1017V8.3017C2.50004 8.8267 2.82004 9.3017 3.30504 9.5017L6.52504 10.8017L17.305 15.1617C17.435 14.9617 17.505 14.7217 17.5 14.4817V7.1217C17.5 6.8817 17.435 6.6417 17.305 6.4367V6.4417Z" fill="url(#paint0_linear_4003_903)"/>
<path d="M17.315 6.44141L6.53001 10.8014L3.30501 12.1014C3.06638 12.1982 2.86219 12.3643 2.71872 12.5781C2.57525 12.792 2.49908 13.0439 2.50001 13.3014V19.5114C2.5004 19.7221 2.55238 19.9295 2.65143 20.1155C2.75047 20.3014 2.89356 20.4603 3.06818 20.5782C3.2428 20.6961 3.44364 20.7694 3.65315 20.7918C3.86265 20.8141 4.07444 20.7848 4.27001 20.7064L16.7 15.6814C16.95 15.5764 17.165 15.3964 17.305 15.1614C17.435 14.9564 17.505 14.7214 17.5 14.4814V7.12141C17.5 6.88141 17.44 6.64641 17.315 6.44141Z" fill="#9966FF"/>
<path d="M17.3098 6.44141L17.3598 6.52641C17.4498 6.71141 17.4998 6.91141 17.4998 7.12141V7.10641V14.4814C17.4998 14.7214 17.4348 14.9564 17.3048 15.1614L6.52979 10.8014L17.3098 6.44141Z" fill="url(#paint1_linear_4003_903)"/>
<defs>
<linearGradient id="paint0_linear_4003_903" x1="10" y1="2.8667" x2="10" y2="11.3667" gradientUnits="userSpaceOnUse">
<stop stop-color="#11EFE3"/>
<stop offset="1" stop-color="#21CFE0"/>
</linearGradient>
<linearGradient id="paint1_linear_4003_903" x1="17.4998" y1="6.44141" x2="17.4998" y2="15.1614" gradientUnits="userSpaceOnUse">
<stop stop-color="#0048E5"/>
<stop offset="1" stop-color="#9B66FF"/>
</linearGradient>
</defs>
</svg>
