<svg width="540" height="25" viewBox="0 0 540 25" fill="none" xmlns="http://www.w3.org/2000/svg">
<rect width="540" height="24" transform="translate(0 0.589844)" fill="#0A2540"/>
<path d="M88.284 17.7578C87.64 17.7578 87.024 17.6505 86.436 17.4358C85.848 17.2212 85.3487 16.9738 84.938 16.6938L85.554 15.7978C85.9553 16.0778 86.3893 16.2972 86.856 16.4558C87.332 16.6145 87.8687 16.6938 88.466 16.6938C88.9887 16.6938 89.376 16.6005 89.628 16.4138C89.8893 16.2272 90.02 16.0078 90.02 15.7558C90.02 15.6345 89.992 15.5225 89.936 15.4198C89.8893 15.3172 89.796 15.2238 89.656 15.1398C89.5253 15.0465 89.3247 14.9578 89.054 14.8738C88.7927 14.7898 88.4473 14.7012 88.018 14.6078C87.1127 14.4212 86.4407 14.1645 86.002 13.8378C85.5727 13.5112 85.358 13.0912 85.358 12.5778C85.358 11.9992 85.6053 11.5232 86.1 11.1498C86.604 10.7672 87.332 10.5758 88.284 10.5758C88.8253 10.5758 89.3387 10.6692 89.824 10.8558C90.3187 11.0332 90.7387 11.2385 91.084 11.4718L90.44 12.3398C90.1133 12.1252 89.754 11.9572 89.362 11.8358C88.9793 11.7052 88.578 11.6398 88.158 11.6398C87.8127 11.6398 87.5373 11.6818 87.332 11.7658C87.1267 11.8405 86.9773 11.9432 86.884 12.0738C86.7907 12.2045 86.744 12.3492 86.744 12.5078C86.744 12.7692 86.8887 12.9745 87.178 13.1238C87.4767 13.2638 87.9573 13.4038 88.62 13.5438C89.3667 13.7025 89.9407 13.8798 90.342 14.0758C90.7527 14.2718 91.0327 14.5005 91.182 14.7618C91.3407 15.0138 91.42 15.3172 91.42 15.6718C91.42 16.0545 91.2987 16.4045 91.056 16.7218C90.8133 17.0392 90.4587 17.2912 89.992 17.4778C89.5347 17.6645 88.9653 17.7578 88.284 17.7578ZM97.0145 17.7578C96.3239 17.7578 95.6939 17.6178 95.1245 17.3378C94.5645 17.0578 94.1212 16.6472 93.7945 16.1058C93.4679 15.5645 93.3045 14.9158 93.3045 14.1598C93.3045 13.4132 93.4679 12.7738 93.7945 12.2418C94.1305 11.7098 94.5645 11.2992 95.0965 11.0098C95.6285 10.7205 96.1979 10.5758 96.8045 10.5758C97.4765 10.5758 98.0459 10.7158 98.5125 10.9958C98.9792 11.2665 99.3339 11.6445 99.5765 12.1298C99.8285 12.6058 99.9545 13.1658 99.9545 13.8098C99.9545 13.9498 99.9499 14.0898 99.9405 14.2298C99.9312 14.3605 99.9172 14.4725 99.8985 14.5658H94.2705V13.5438H99.0305L98.7225 13.8798C98.7225 13.1425 98.5545 12.5918 98.2185 12.2278C97.8825 11.8545 97.4252 11.6678 96.8465 11.6678C96.4452 11.6678 96.0765 11.7658 95.7405 11.9618C95.4139 12.1485 95.1525 12.4285 94.9565 12.8018C94.7605 13.1658 94.6625 13.6185 94.6625 14.1598C94.6625 14.7198 94.7699 15.1865 94.9845 15.5598C95.2085 15.9238 95.5072 16.1992 95.8805 16.3858C96.2632 16.5725 96.7019 16.6658 97.1965 16.6658C97.5792 16.6658 97.9292 16.6145 98.2465 16.5118C98.5639 16.3998 98.8765 16.2505 99.1845 16.0638L99.6745 16.9458C99.3292 17.1792 98.9325 17.3752 98.4845 17.5338C98.0365 17.6832 97.5465 17.7578 97.0145 17.7578ZM102.721 17.5898V10.7438H103.869L103.981 12.3398H104.023C104.378 11.7798 104.812 11.3458 105.325 11.0378C105.838 10.7298 106.398 10.5758 107.005 10.5758C107.266 10.5758 107.504 10.5992 107.719 10.6458C107.934 10.6925 108.144 10.7625 108.349 10.8558L108.041 12.0458C107.808 11.9618 107.607 11.9058 107.439 11.8778C107.271 11.8405 107.056 11.8218 106.795 11.8218C106.3 11.8218 105.824 11.9618 105.367 12.2418C104.91 12.5218 104.49 13.0072 104.107 13.6978V17.5898H102.721ZM112.628 17.5898L109.828 10.7438H111.228L112.67 14.4678C112.8 14.8038 112.926 15.1445 113.048 15.4898C113.169 15.8258 113.286 16.1618 113.398 16.4978H113.454C113.575 16.1618 113.692 15.8258 113.804 15.4898C113.916 15.1445 114.037 14.8038 114.168 14.4678L115.61 10.7438H116.94L114.196 17.5898H112.628ZM122.198 17.7578C121.507 17.7578 120.877 17.6178 120.308 17.3378C119.748 17.0578 119.305 16.6472 118.978 16.1058C118.651 15.5645 118.488 14.9158 118.488 14.1598C118.488 13.4132 118.651 12.7738 118.978 12.2418C119.314 11.7098 119.748 11.2992 120.28 11.0098C120.812 10.7205 121.381 10.5758 121.988 10.5758C122.66 10.5758 123.229 10.7158 123.696 10.9958C124.163 11.2665 124.517 11.6445 124.76 12.1298C125.012 12.6058 125.138 13.1658 125.138 13.8098C125.138 13.9498 125.133 14.0898 125.124 14.2298C125.115 14.3605 125.101 14.4725 125.082 14.5658H119.454V13.5438H124.214L123.906 13.8798C123.906 13.1425 123.738 12.5918 123.402 12.2278C123.066 11.8545 122.609 11.6678 122.03 11.6678C121.629 11.6678 121.26 11.7658 120.924 11.9618C120.597 12.1485 120.336 12.4285 120.14 12.8018C119.944 13.1658 119.846 13.6185 119.846 14.1598C119.846 14.7198 119.953 15.1865 120.168 15.5598C120.392 15.9238 120.691 16.1992 121.064 16.3858C121.447 16.5725 121.885 16.6658 122.38 16.6658C122.763 16.6658 123.113 16.6145 123.43 16.5118C123.747 16.3998 124.06 16.2505 124.368 16.0638L124.858 16.9458C124.513 17.1792 124.116 17.3752 123.668 17.5338C123.22 17.6832 122.73 17.7578 122.198 17.7578ZM127.905 17.5898V10.7438H129.053L129.165 12.3398H129.207C129.561 11.7798 129.995 11.3458 130.509 11.0378C131.022 10.7298 131.582 10.5758 132.189 10.5758C132.45 10.5758 132.688 10.5992 132.903 10.6458C133.117 10.6925 133.327 10.7625 133.533 10.8558L133.225 12.0458C132.991 11.9618 132.791 11.9058 132.623 11.8778C132.455 11.8405 132.24 11.8218 131.979 11.8218C131.484 11.8218 131.008 11.9618 130.551 12.2418C130.093 12.5218 129.673 13.0072 129.291 13.6978V17.5898H127.905ZM138.567 17.7578C138.213 17.7578 137.914 17.6365 137.671 17.3938C137.429 17.1512 137.307 16.8385 137.307 16.4558C137.307 16.0732 137.429 15.7605 137.671 15.5178C137.914 15.2752 138.213 15.1538 138.567 15.1538C138.931 15.1538 139.23 15.2752 139.463 15.5178C139.706 15.7605 139.827 16.0732 139.827 16.4558C139.827 16.8385 139.706 17.1512 139.463 17.3938C139.23 17.6365 138.931 17.7578 138.567 17.7578ZM145.478 20.5578C145.104 20.5578 144.745 20.5112 144.4 20.4178C144.064 20.3338 143.76 20.2218 143.49 20.0818L143.924 19.0738C144.176 19.1952 144.428 19.2838 144.68 19.3398C144.941 19.4052 145.193 19.4378 145.436 19.4378C145.865 19.4378 146.192 19.3678 146.416 19.2278C146.649 19.0972 146.812 18.9012 146.906 18.6398C146.999 18.3785 147.046 18.0612 147.046 17.6878V11.8638H143.98V10.7438H148.432V17.6038C148.432 18.0238 148.385 18.4112 148.292 18.7658C148.198 19.1298 148.04 19.4425 147.816 19.7038C147.592 19.9745 147.288 20.1845 146.906 20.3338C146.523 20.4832 146.047 20.5578 145.478 20.5578ZM147.62 9.41384C147.321 9.41384 147.074 9.32518 146.878 9.14784C146.682 8.96118 146.584 8.71851 146.584 8.41984C146.584 8.12118 146.682 7.88318 146.878 7.70584C147.074 7.51918 147.321 7.42584 147.62 7.42584C147.918 7.42584 148.166 7.51918 148.362 7.70584C148.558 7.88318 148.656 8.12118 148.656 8.41984C148.656 8.71851 148.558 8.96118 148.362 9.14784C148.166 9.32518 147.918 9.41384 147.62 9.41384ZM155.44 17.7578C154.796 17.7578 154.18 17.6505 153.592 17.4358C153.004 17.2212 152.505 16.9738 152.094 16.6938L152.71 15.7978C153.112 16.0778 153.546 16.2972 154.012 16.4558C154.488 16.6145 155.025 16.6938 155.622 16.6938C156.145 16.6938 156.532 16.6005 156.784 16.4138C157.046 16.2272 157.176 16.0078 157.176 15.7558C157.176 15.6345 157.148 15.5225 157.092 15.4198C157.046 15.3172 156.952 15.2238 156.812 15.1398C156.682 15.0465 156.481 14.9578 156.21 14.8738C155.949 14.7898 155.604 14.7012 155.174 14.6078C154.269 14.4212 153.597 14.1645 153.158 13.8378C152.729 13.5112 152.514 13.0912 152.514 12.5778C152.514 11.9992 152.762 11.5232 153.256 11.1498C153.76 10.7672 154.488 10.5758 155.44 10.5758C155.982 10.5758 156.495 10.6692 156.98 10.8558C157.475 11.0332 157.895 11.2385 158.24 11.4718L157.596 12.3398C157.27 12.1252 156.91 11.9572 156.518 11.8358C156.136 11.7052 155.734 11.6398 155.314 11.6398C154.969 11.6398 154.694 11.6818 154.488 11.7658C154.283 11.8405 154.134 11.9432 154.04 12.0738C153.947 12.2045 153.9 12.3492 153.9 12.5078C153.9 12.7692 154.045 12.9745 154.334 13.1238C154.633 13.2638 155.114 13.4038 155.776 13.5438C156.523 13.7025 157.097 13.8798 157.498 14.0758C157.909 14.2718 158.189 14.5005 158.338 14.7618C158.497 15.0138 158.576 15.3172 158.576 15.6718C158.576 16.0545 158.455 16.4045 158.212 16.7218C157.97 17.0392 157.615 17.2912 157.148 17.4778C156.691 17.6645 156.122 17.7578 155.44 17.7578Z" fill="#8095FF"/>
<rect width="65" height="24" transform="translate(0 0.589844)" fill="#8095FF"/>
<path d="M10.092 17.5898V8.41984H11.59L14.264 13.8658L15.118 15.7978H15.16C15.132 15.3312 15.09 14.8365 15.034 14.3138C14.9873 13.7912 14.964 13.2825 14.964 12.7878V8.41984H16.308V17.5898H14.81L12.136 12.1438L11.282 10.2118H11.24C11.268 10.6878 11.3053 11.1825 11.352 11.6958C11.408 12.1998 11.436 12.6992 11.436 13.1938V17.5898H10.092ZM21.5945 17.7578C20.8945 17.7578 20.2739 17.5712 19.7325 17.1978C19.2005 16.8152 18.7805 16.2692 18.4725 15.5598C18.1739 14.8412 18.0245 13.9778 18.0245 12.9698C18.0245 11.9712 18.1739 11.1218 18.4725 10.4218C18.7805 9.71251 19.2005 9.17584 19.7325 8.81184C20.2739 8.43851 20.8945 8.25184 21.5945 8.25184C22.2945 8.25184 22.9105 8.43851 23.4425 8.81184C23.9839 9.17584 24.4039 9.71251 24.7025 10.4218C25.0105 11.1218 25.1645 11.9712 25.1645 12.9698C25.1645 13.9778 25.0105 14.8412 24.7025 15.5598C24.4039 16.2692 23.9839 16.8152 23.4425 17.1978C22.9105 17.5712 22.2945 17.7578 21.5945 17.7578ZM21.5945 16.5398C22.0239 16.5398 22.3972 16.3998 22.7145 16.1198C23.0319 15.8305 23.2792 15.4198 23.4565 14.8878C23.6339 14.3558 23.7225 13.7165 23.7225 12.9698C23.7225 12.2232 23.6339 11.5932 23.4565 11.0798C23.2792 10.5572 23.0319 10.1605 22.7145 9.88984C22.3972 9.60984 22.0239 9.46984 21.5945 9.46984C21.1652 9.46984 20.7919 9.60984 20.4745 9.88984C20.1572 10.1605 19.9099 10.5572 19.7325 11.0798C19.5552 11.5932 19.4665 12.2232 19.4665 12.9698C19.4665 13.7165 19.5552 14.3558 19.7325 14.8878C19.9099 15.4198 20.1572 15.8305 20.4745 16.1198C20.7919 16.3998 21.1652 16.5398 21.5945 16.5398ZM27.0771 17.5898V8.41984H30.0311C30.6657 8.41984 31.2304 8.50384 31.7251 8.67184C32.2197 8.83051 32.6071 9.10584 32.8871 9.49784C33.1764 9.88984 33.3211 10.4125 33.3211 11.0658C33.3211 11.7005 33.1764 12.2232 32.8871 12.6338C32.6071 13.0445 32.2197 13.3525 31.7251 13.5578C31.2304 13.7632 30.6657 13.8658 30.0311 13.8658H28.4771V17.5898H27.0771ZM28.4771 12.7318H29.8631C30.5351 12.7318 31.0484 12.5965 31.4031 12.3258C31.7577 12.0458 31.9351 11.6258 31.9351 11.0658C31.9351 10.5058 31.7577 10.1138 31.4031 9.88984C31.0484 9.65651 30.5351 9.53984 29.8631 9.53984H28.4771V12.7318ZM29.7651 13.4878L30.8151 12.6898L33.6431 17.5898H32.0611L29.7651 13.4878ZM35.1356 17.5898V8.41984H36.7596L37.9496 12.1578L38.3556 13.5858H38.4116L38.8176 12.1578L40.0076 8.41984H41.6316V17.5898H40.3436V13.4598C40.3436 13.2265 40.3529 12.9558 40.3716 12.6478C40.3903 12.3305 40.4089 12.0038 40.4276 11.6678C40.4556 11.3318 40.4789 11.0145 40.4976 10.7158C40.5256 10.4172 40.5489 10.1605 40.5676 9.94584H40.5256L39.9516 11.9198L38.7896 15.1538H37.9216L36.7736 11.9198L36.2136 9.94584H36.1716C36.1996 10.1605 36.2229 10.4172 36.2416 10.7158C36.2696 11.0145 36.2929 11.3318 36.3116 11.6678C36.3303 12.0038 36.3489 12.3305 36.3676 12.6478C36.3863 12.9558 36.3956 13.2265 36.3956 13.4598V17.5898H35.1356ZM42.9421 17.5898L45.9661 8.41984H47.5901L50.6141 17.5898H49.1301L47.6461 12.5918C47.4968 12.0878 47.3475 11.5838 47.1981 11.0798C47.0581 10.5665 46.9181 10.0532 46.7781 9.53984H46.7221C46.5915 10.0532 46.4515 10.5665 46.3021 11.0798C46.1621 11.5838 46.0175 12.0878 45.8681 12.5918L44.3701 17.5898H42.9421ZM44.6361 14.9578V13.8518H48.8921V14.9578H44.6361ZM52.7507 17.5898V8.41984H54.1367V16.4138H58.5467V17.5898H52.7507Z" fill="#06182C"/>
<mask id="path-3-inside-1_4003_1536" fill="white">
<path d="M65 0.589844H74V24.5898H65V0.589844Z"/>
</mask>
<path d="M65 0.589844V-11.4102H56V0.589844H65ZM65 24.5898H56V36.5898H65V24.5898ZM65 12.5898H74V-11.4102H65V12.5898ZM74 12.5898H65V36.5898H74V12.5898ZM74 24.5898V0.589844H56V24.5898H74Z" fill="url(#paint0_diamond_4003_1536)" mask="url(#path-3-inside-1_4003_1536)"/>
<path d="M355.48 17.7578C355.004 17.7578 354.556 17.6692 354.136 17.4918C353.716 17.3145 353.347 17.0485 353.03 16.6938C352.713 16.3392 352.465 15.8912 352.288 15.3498C352.111 14.8085 352.022 14.1692 352.022 13.4318C352.022 12.5545 352.125 11.8032 352.33 11.1778C352.535 10.5525 352.811 10.0438 353.156 9.65184C353.511 9.25984 353.912 8.97051 354.36 8.78384C354.817 8.59718 355.289 8.50384 355.774 8.50384C356.343 8.50384 356.843 8.59718 357.272 8.78384C357.701 8.97051 358.065 9.20384 358.364 9.48384L357.608 10.3378C357.384 10.1232 357.123 9.95518 356.824 9.83384C356.525 9.70318 356.208 9.63784 355.872 9.63784C355.424 9.63784 355.004 9.75918 354.612 10.0018C354.22 10.2445 353.903 10.6412 353.66 11.1918C353.427 11.7425 353.31 12.4892 353.31 13.4318C353.31 14.1692 353.394 14.7805 353.562 15.2658C353.739 15.7418 353.991 16.0965 354.318 16.3298C354.645 16.5632 355.027 16.6798 355.466 16.6798C355.793 16.6798 356.087 16.6098 356.348 16.4698C356.619 16.3205 356.829 16.1105 356.978 15.8398C357.137 15.5598 357.216 15.2332 357.216 14.8598C357.216 14.2905 357.062 13.8612 356.754 13.5718C356.455 13.2732 356.026 13.1238 355.466 13.1238C355.139 13.1238 354.785 13.2125 354.402 13.3898C354.029 13.5672 353.66 13.8752 353.296 14.3138L353.24 13.2918C353.595 12.9185 353.991 12.6292 354.43 12.4238C354.869 12.2092 355.307 12.1018 355.746 12.1018C356.287 12.1018 356.763 12.2045 357.174 12.4098C357.594 12.6152 357.921 12.9232 358.154 13.3338C358.397 13.7352 358.518 14.2438 358.518 14.8598C358.518 15.4478 358.378 15.9565 358.098 16.3858C357.818 16.8152 357.445 17.1512 356.978 17.3938C356.521 17.6365 356.021 17.7578 355.48 17.7578ZM363.595 17.7578C362.932 17.7578 362.353 17.5758 361.859 17.2118C361.373 16.8478 360.995 16.3205 360.725 15.6298C360.463 14.9298 360.333 14.0852 360.333 13.0958C360.333 11.5932 360.627 10.4545 361.215 9.67984C361.803 8.89584 362.596 8.50384 363.595 8.50384C364.603 8.50384 365.396 8.89584 365.975 9.67984C366.563 10.4545 366.857 11.5932 366.857 13.0958C366.857 14.0852 366.721 14.9298 366.451 15.6298C366.189 16.3205 365.816 16.8478 365.331 17.2118C364.845 17.5758 364.267 17.7578 363.595 17.7578ZM363.595 16.6518C363.977 16.6518 364.318 16.5305 364.617 16.2878C364.915 16.0452 365.149 15.6625 365.317 15.1398C365.494 14.6078 365.583 13.9265 365.583 13.0958C365.583 12.2652 365.494 11.5932 365.317 11.0798C365.149 10.5572 364.915 10.1792 364.617 9.94584C364.318 9.71251 363.977 9.59584 363.595 9.59584C363.212 9.59584 362.871 9.71251 362.573 9.94584C362.274 10.1792 362.036 10.5572 361.859 11.0798C361.691 11.5932 361.607 12.2652 361.607 13.0958C361.607 13.9265 361.691 14.6078 361.859 15.1398C362.036 15.6625 362.274 16.0452 362.573 16.2878C362.871 16.5305 363.212 16.6518 363.595 16.6518ZM363.595 13.9918C363.352 13.9918 363.137 13.9078 362.951 13.7398C362.764 13.5625 362.671 13.3245 362.671 13.0258C362.671 12.7178 362.764 12.4798 362.951 12.3118C363.137 12.1438 363.352 12.0598 363.595 12.0598C363.847 12.0598 364.061 12.1438 364.239 12.3118C364.425 12.4798 364.519 12.7178 364.519 13.0258C364.519 13.3245 364.425 13.5625 364.239 13.7398C364.061 13.9078 363.847 13.9918 363.595 13.9918ZM371.989 17.7578C371.326 17.7578 370.748 17.5758 370.253 17.2118C369.768 16.8478 369.39 16.3205 369.119 15.6298C368.858 14.9298 368.727 14.0852 368.727 13.0958C368.727 11.5932 369.021 10.4545 369.609 9.67984C370.197 8.89584 370.99 8.50384 371.989 8.50384C372.997 8.50384 373.79 8.89584 374.369 9.67984C374.957 10.4545 375.251 11.5932 375.251 13.0958C375.251 14.0852 375.116 14.9298 374.845 15.6298C374.584 16.3205 374.21 16.8478 373.725 17.2118C373.24 17.5758 372.661 17.7578 371.989 17.7578ZM371.989 16.6518C372.372 16.6518 372.712 16.5305 373.011 16.2878C373.31 16.0452 373.543 15.6625 373.711 15.1398C373.888 14.6078 373.977 13.9265 373.977 13.0958C373.977 12.2652 373.888 11.5932 373.711 11.0798C373.543 10.5572 373.31 10.1792 373.011 9.94584C372.712 9.71251 372.372 9.59584 371.989 9.59584C371.606 9.59584 371.266 9.71251 370.967 9.94584C370.668 10.1792 370.43 10.5572 370.253 11.0798C370.085 11.5932 370.001 12.2652 370.001 13.0958C370.001 13.9265 370.085 14.6078 370.253 15.1398C370.43 15.6625 370.668 16.0452 370.967 16.2878C371.266 16.5305 371.606 16.6518 371.989 16.6518ZM371.989 13.9918C371.746 13.9918 371.532 13.9078 371.345 13.7398C371.158 13.5625 371.065 13.3245 371.065 13.0258C371.065 12.7178 371.158 12.4798 371.345 12.3118C371.532 12.1438 371.746 12.0598 371.989 12.0598C372.241 12.0598 372.456 12.1438 372.633 12.3118C372.82 12.4798 372.913 12.7178 372.913 13.0258C372.913 13.3245 372.82 13.5625 372.633 13.7398C372.456 13.9078 372.241 13.9918 371.989 13.9918ZM378.536 13.1378C378.153 13.1378 377.812 13.0445 377.514 12.8578C377.215 12.6712 376.977 12.4052 376.8 12.0598C376.632 11.7052 376.548 11.2852 376.548 10.7998C376.548 10.0718 376.734 9.50718 377.108 9.10584C377.49 8.70451 377.966 8.50384 378.536 8.50384C379.114 8.50384 379.59 8.70451 379.964 9.10584C380.337 9.50718 380.524 10.0718 380.524 10.7998C380.524 11.2852 380.435 11.7052 380.258 12.0598C380.09 12.4052 379.856 12.6712 379.558 12.8578C379.259 13.0445 378.918 13.1378 378.536 13.1378ZM378.536 12.3398C378.806 12.3398 379.035 12.2185 379.222 11.9758C379.418 11.7238 379.516 11.3318 379.516 10.7998C379.516 10.2585 379.418 9.87584 379.222 9.65184C379.035 9.41851 378.806 9.30184 378.536 9.30184C378.274 9.30184 378.046 9.41851 377.85 9.65184C377.654 9.87584 377.556 10.2585 377.556 10.7998C377.556 11.3318 377.654 11.7238 377.85 11.9758C378.046 12.2185 378.274 12.3398 378.536 12.3398ZM377.318 17.1558L376.534 16.4278L379.11 13.8378L379.642 14.3278L377.318 17.1558ZM381.658 12.1718L381.126 11.6818L383.45 8.85384L384.234 9.58184L381.658 12.1718ZM382.232 17.7578C381.849 17.7578 381.508 17.6645 381.21 17.4778C380.911 17.2912 380.673 17.0252 380.496 16.6798C380.328 16.3252 380.244 15.9052 380.244 15.4198C380.244 14.6918 380.43 14.1272 380.804 13.7258C381.186 13.3245 381.662 13.1238 382.232 13.1238C382.81 13.1238 383.286 13.3245 383.66 13.7258C384.033 14.1272 384.22 14.6918 384.22 15.4198C384.22 15.9052 384.131 16.3252 383.954 16.6798C383.786 17.0252 383.552 17.2912 383.254 17.4778C382.955 17.6645 382.614 17.7578 382.232 17.7578ZM382.232 16.9598C382.502 16.9598 382.731 16.8385 382.918 16.5958C383.114 16.3438 383.212 15.9518 383.212 15.4198C383.212 14.8785 383.114 14.4958 382.918 14.2718C382.731 14.0385 382.502 13.9218 382.232 13.9218C381.97 13.9218 381.742 14.0385 381.546 14.2718C381.35 14.4958 381.252 14.8785 381.252 15.4198C381.252 15.9518 381.35 16.3438 381.546 16.5958C381.742 16.8385 381.97 16.9598 382.232 16.9598Z" fill="#55718D"/>
<path d="M394.372 10.2678V8.71384H404.788V10.2678H394.372ZM394.372 13.4598V11.9058H404.788V13.4598H394.372ZM394.372 16.6518V15.0978H404.788V16.6518H394.372Z" fill="#55718D"/>
<path d="M427.48 17.7578C427.004 17.7578 426.556 17.6692 426.136 17.4918C425.716 17.3145 425.347 17.0485 425.03 16.6938C424.713 16.3392 424.465 15.8912 424.288 15.3498C424.111 14.8085 424.022 14.1692 424.022 13.4318C424.022 12.5545 424.125 11.8032 424.33 11.1778C424.535 10.5525 424.811 10.0438 425.156 9.65184C425.511 9.25984 425.912 8.97051 426.36 8.78384C426.817 8.59718 427.289 8.50384 427.774 8.50384C428.343 8.50384 428.843 8.59718 429.272 8.78384C429.701 8.97051 430.065 9.20384 430.364 9.48384L429.608 10.3378C429.384 10.1232 429.123 9.95518 428.824 9.83384C428.525 9.70318 428.208 9.63784 427.872 9.63784C427.424 9.63784 427.004 9.75918 426.612 10.0018C426.22 10.2445 425.903 10.6412 425.66 11.1918C425.427 11.7425 425.31 12.4892 425.31 13.4318C425.31 14.1692 425.394 14.7805 425.562 15.2658C425.739 15.7418 425.991 16.0965 426.318 16.3298C426.645 16.5632 427.027 16.6798 427.466 16.6798C427.793 16.6798 428.087 16.6098 428.348 16.4698C428.619 16.3205 428.829 16.1105 428.978 15.8398C429.137 15.5598 429.216 15.2332 429.216 14.8598C429.216 14.2905 429.062 13.8612 428.754 13.5718C428.455 13.2732 428.026 13.1238 427.466 13.1238C427.139 13.1238 426.785 13.2125 426.402 13.3898C426.029 13.5672 425.66 13.8752 425.296 14.3138L425.24 13.2918C425.595 12.9185 425.991 12.6292 426.43 12.4238C426.869 12.2092 427.307 12.1018 427.746 12.1018C428.287 12.1018 428.763 12.2045 429.174 12.4098C429.594 12.6152 429.921 12.9232 430.154 13.3338C430.397 13.7352 430.518 14.2438 430.518 14.8598C430.518 15.4478 430.378 15.9565 430.098 16.3858C429.818 16.8152 429.445 17.1512 428.978 17.3938C428.521 17.6365 428.021 17.7578 427.48 17.7578ZM432.697 19.8298L437.289 7.64984H438.493L433.901 19.8298H432.697ZM441.091 17.5898V16.4558H443.611V10.2398H441.623V9.37184C441.987 9.31584 442.304 9.25518 442.575 9.18984C442.855 9.12451 443.107 9.04984 443.331 8.96584C443.564 8.88184 443.779 8.78384 443.975 8.67184H444.997V16.4558H447.251V17.5898H441.091Z" fill="#55718D"/>
<path d="M462.642 17.7578C461.886 17.7578 461.307 17.5385 460.906 17.0998C460.505 16.6518 460.304 16.0172 460.304 15.1958V8.78384H458.022V7.66384H461.69V15.2798C461.69 15.7558 461.811 16.1012 462.054 16.3158C462.297 16.5212 462.6 16.6238 462.964 16.6238C463.151 16.6238 463.342 16.6005 463.538 16.5538C463.743 16.5072 463.967 16.4325 464.21 16.3298L464.546 17.3658C464.219 17.4778 463.916 17.5712 463.636 17.6458C463.365 17.7205 463.034 17.7578 462.642 17.7578ZM466.627 17.5898V10.7438H467.761L467.873 11.8498H467.929C468.274 11.4952 468.647 11.1965 469.049 10.9538C469.45 10.7018 469.917 10.5758 470.449 10.5758C471.242 10.5758 471.825 10.8185 472.199 11.3038C472.581 11.7798 472.773 12.4612 472.773 13.3478V17.5898H471.387V13.5298C471.387 12.9325 471.275 12.4938 471.051 12.2138C470.836 11.9245 470.472 11.7798 469.959 11.7798C469.595 11.7798 469.268 11.8732 468.979 12.0598C468.689 12.2372 468.367 12.5078 468.013 12.8718V17.5898H466.627Z" fill="#55718D"/>
<path d="M494.2 12.8718C493.845 12.8718 493.547 12.7505 493.304 12.5078C493.061 12.2652 492.94 11.9525 492.94 11.5698C492.94 11.1872 493.061 10.8745 493.304 10.6318C493.547 10.3892 493.845 10.2678 494.2 10.2678C494.564 10.2678 494.863 10.3892 495.096 10.6318C495.339 10.8745 495.46 11.1872 495.46 11.5698C495.46 11.9525 495.339 12.2652 495.096 12.5078C494.863 12.7505 494.564 12.8718 494.2 12.8718ZM494.2 17.7578C493.845 17.7578 493.547 17.6365 493.304 17.3938C493.061 17.1512 492.94 16.8385 492.94 16.4558C492.94 16.0732 493.061 15.7605 493.304 15.5178C493.547 15.2752 493.845 15.1538 494.2 15.1538C494.564 15.1538 494.863 15.2752 495.096 15.5178C495.339 15.7605 495.46 16.0732 495.46 16.4558C495.46 16.8385 495.339 17.1512 495.096 17.3938C494.863 17.6365 494.564 17.7578 494.2 17.7578Z" fill="#55718D"/>
<path d="M520.054 17.5898V11.6818C520.063 11.4298 520.073 11.1498 520.082 10.8418C520.101 10.5338 520.115 10.2538 520.124 10.0018H520.054C519.914 10.2258 519.76 10.4545 519.592 10.6878C519.433 10.9118 519.279 11.1358 519.13 11.3598L516.988 14.1178H522.686V15.2098H515.532V14.2718L519.802 8.65784H521.356V17.5898H520.054Z" fill="#55718D"/>
<defs>
<radialGradient id="paint0_diamond_4003_1536" cx="0" cy="0" r="1" gradientUnits="userSpaceOnUse" gradientTransform="translate(65 12.5898) scale(9 12)">
<stop offset="1" stop-color="#8095FF"/>
<stop offset="1" stop-opacity="0"/>
</radialGradient>
</defs>
</svg>
