<svg width="541" height="25" viewBox="0 0 541 25" fill="none" xmlns="http://www.w3.org/2000/svg">
<rect width="540" height="24" transform="translate(0.142578 0.701172)" fill="#0A2540"/>
<path d="M88.4266 17.8692C87.7826 17.8692 87.1666 17.7618 86.5786 17.5472C85.9906 17.3325 85.4912 17.0852 85.0806 16.8052L85.6966 15.9092C86.0979 16.1892 86.5319 16.4085 86.9986 16.5672C87.4746 16.7258 88.0112 16.8052 88.6086 16.8052C89.1312 16.8052 89.5186 16.7118 89.7706 16.5252C90.0319 16.3385 90.1626 16.1192 90.1626 15.8672C90.1626 15.7458 90.1346 15.6338 90.0786 15.5312C90.0319 15.4285 89.9386 15.3352 89.7986 15.2512C89.6679 15.1578 89.4672 15.0692 89.1966 14.9852C88.9352 14.9012 88.5899 14.8125 88.1606 14.7192C87.2552 14.5325 86.5832 14.2758 86.1446 13.9492C85.7152 13.6225 85.5006 13.2025 85.5006 12.6892C85.5006 12.1105 85.7479 11.6345 86.2426 11.2612C86.7466 10.8785 87.4746 10.6872 88.4266 10.6872C88.9679 10.6872 89.4812 10.7805 89.9666 10.9672C90.4612 11.1445 90.8812 11.3498 91.2266 11.5832L90.5826 12.4512C90.2559 12.2365 89.8966 12.0685 89.5046 11.9472C89.1219 11.8165 88.7206 11.7512 88.3006 11.7512C87.9552 11.7512 87.6799 11.7932 87.4746 11.8772C87.2692 11.9518 87.1199 12.0545 87.0266 12.1852C86.9332 12.3158 86.8866 12.4605 86.8866 12.6192C86.8866 12.8805 87.0312 13.0858 87.3206 13.2352C87.6192 13.3752 88.0999 13.5152 88.7626 13.6552C89.5092 13.8138 90.0832 13.9912 90.4846 14.1872C90.8952 14.3832 91.1752 14.6118 91.3246 14.8732C91.4832 15.1252 91.5626 15.4285 91.5626 15.7832C91.5626 16.1658 91.4412 16.5158 91.1986 16.8332C90.9559 17.1505 90.6012 17.4025 90.1346 17.5892C89.6772 17.7758 89.1079 17.8692 88.4266 17.8692ZM97.1571 17.8692C96.4664 17.8692 95.8364 17.7292 95.2671 17.4492C94.7071 17.1692 94.2638 16.7585 93.9371 16.2172C93.6104 15.6758 93.4471 15.0272 93.4471 14.2712C93.4471 13.5245 93.6104 12.8852 93.9371 12.3532C94.2731 11.8212 94.7071 11.4105 95.2391 11.1212C95.7711 10.8318 96.3404 10.6872 96.9471 10.6872C97.6191 10.6872 98.1884 10.8272 98.6551 11.1072C99.1218 11.3778 99.4764 11.7558 99.7191 12.2412C99.9711 12.7172 100.097 13.2772 100.097 13.9212C100.097 14.0612 100.092 14.2012 100.083 14.3412C100.074 14.4718 100.06 14.5838 100.041 14.6772H94.4131V13.6552H99.1731L98.8651 13.9912C98.8651 13.2538 98.6971 12.7032 98.3611 12.3392C98.0251 11.9658 97.5678 11.7792 96.9891 11.7792C96.5878 11.7792 96.2191 11.8772 95.8831 12.0732C95.5564 12.2598 95.2951 12.5398 95.0991 12.9132C94.9031 13.2772 94.8051 13.7298 94.8051 14.2712C94.8051 14.8312 94.9124 15.2978 95.1271 15.6712C95.3511 16.0352 95.6498 16.3105 96.0231 16.4972C96.4058 16.6838 96.8444 16.7772 97.3391 16.7772C97.7218 16.7772 98.0718 16.7258 98.3891 16.6232C98.7064 16.5112 99.0191 16.3618 99.3271 16.1752L99.8171 17.0572C99.4718 17.2905 99.0751 17.4865 98.6271 17.6452C98.1791 17.7945 97.6891 17.8692 97.1571 17.8692ZM102.864 17.7012V10.8552H104.012L104.124 12.4512H104.166C104.52 11.8912 104.954 11.4572 105.468 11.1492C105.981 10.8412 106.541 10.6872 107.148 10.6872C107.409 10.6872 107.647 10.7105 107.862 10.7572C108.076 10.8038 108.286 10.8738 108.492 10.9672L108.184 12.1572C107.95 12.0732 107.75 12.0172 107.582 11.9892C107.414 11.9518 107.199 11.9332 106.938 11.9332C106.443 11.9332 105.967 12.0732 105.51 12.3532C105.052 12.6332 104.632 13.1185 104.25 13.8092V17.7012H102.864ZM112.77 17.7012L109.97 10.8552H111.37L112.812 14.5792C112.943 14.9152 113.069 15.2558 113.19 15.6012C113.312 15.9372 113.428 16.2732 113.54 16.6092H113.596C113.718 16.2732 113.834 15.9372 113.946 15.6012C114.058 15.2558 114.18 14.9152 114.31 14.5792L115.752 10.8552H117.082L114.338 17.7012H112.77ZM122.341 17.8692C121.65 17.8692 121.02 17.7292 120.451 17.4492C119.891 17.1692 119.447 16.7585 119.121 16.2172C118.794 15.6758 118.631 15.0272 118.631 14.2712C118.631 13.5245 118.794 12.8852 119.121 12.3532C119.457 11.8212 119.891 11.4105 120.423 11.1212C120.955 10.8318 121.524 10.6872 122.131 10.6872C122.803 10.6872 123.372 10.8272 123.839 11.1072C124.305 11.3778 124.66 11.7558 124.903 12.2412C125.155 12.7172 125.281 13.2772 125.281 13.9212C125.281 14.0612 125.276 14.2012 125.267 14.3412C125.257 14.4718 125.243 14.5838 125.225 14.6772H119.597V13.6552H124.357L124.049 13.9912C124.049 13.2538 123.881 12.7032 123.545 12.3392C123.209 11.9658 122.751 11.7792 122.173 11.7792C121.771 11.7792 121.403 11.8772 121.067 12.0732C120.74 12.2598 120.479 12.5398 120.283 12.9132C120.087 13.2772 119.989 13.7298 119.989 14.2712C119.989 14.8312 120.096 15.2978 120.311 15.6712C120.535 16.0352 120.833 16.3105 121.207 16.4972C121.589 16.6838 122.028 16.7772 122.523 16.7772C122.905 16.7772 123.255 16.7258 123.573 16.6232C123.89 16.5112 124.203 16.3618 124.511 16.1752L125.001 17.0572C124.655 17.2905 124.259 17.4865 123.811 17.6452C123.363 17.7945 122.873 17.8692 122.341 17.8692ZM128.047 17.7012V10.8552H129.195L129.307 12.4512H129.349C129.704 11.8912 130.138 11.4572 130.651 11.1492C131.165 10.8412 131.725 10.6872 132.331 10.6872C132.593 10.6872 132.831 10.7105 133.045 10.7572C133.26 10.8038 133.47 10.8738 133.675 10.9672L133.367 12.1572C133.134 12.0732 132.933 12.0172 132.765 11.9892C132.597 11.9518 132.383 11.9332 132.121 11.9332C131.627 11.9332 131.151 12.0732 130.693 12.3532C130.236 12.6332 129.816 13.1185 129.433 13.8092V17.7012H128.047ZM138.71 17.8692C138.355 17.8692 138.056 17.7478 137.814 17.5052C137.571 17.2625 137.45 16.9498 137.45 16.5672C137.45 16.1845 137.571 15.8718 137.814 15.6292C138.056 15.3865 138.355 15.2652 138.71 15.2652C139.074 15.2652 139.372 15.3865 139.606 15.6292C139.848 15.8718 139.97 16.1845 139.97 16.5672C139.97 16.9498 139.848 17.2625 139.606 17.5052C139.372 17.7478 139.074 17.8692 138.71 17.8692ZM145.62 20.6692C145.247 20.6692 144.888 20.6225 144.542 20.5292C144.206 20.4452 143.903 20.3332 143.632 20.1932L144.066 19.1852C144.318 19.3065 144.57 19.3952 144.822 19.4512C145.084 19.5165 145.336 19.5492 145.578 19.5492C146.008 19.5492 146.334 19.4792 146.558 19.3392C146.792 19.2085 146.955 19.0125 147.048 18.7512C147.142 18.4898 147.188 18.1725 147.188 17.7992V11.9752H144.122V10.8552H148.574V17.7152C148.574 18.1352 148.528 18.5225 148.434 18.8772C148.341 19.2412 148.182 19.5538 147.958 19.8152C147.734 20.0858 147.431 20.2958 147.048 20.4452C146.666 20.5945 146.19 20.6692 145.62 20.6692ZM147.762 9.52517C147.464 9.52517 147.216 9.4365 147.02 9.25917C146.824 9.0725 146.726 8.82984 146.726 8.53117C146.726 8.2325 146.824 7.9945 147.02 7.81717C147.216 7.6305 147.464 7.53717 147.762 7.53717C148.061 7.53717 148.308 7.6305 148.504 7.81717C148.7 7.9945 148.798 8.2325 148.798 8.53117C148.798 8.82984 148.7 9.0725 148.504 9.25917C148.308 9.4365 148.061 9.52517 147.762 9.52517ZM155.583 17.8692C154.939 17.8692 154.323 17.7618 153.735 17.5472C153.147 17.3325 152.647 17.0852 152.237 16.8052L152.853 15.9092C153.254 16.1892 153.688 16.4085 154.155 16.5672C154.631 16.7258 155.167 16.8052 155.765 16.8052C156.287 16.8052 156.675 16.7118 156.927 16.5252C157.188 16.3385 157.319 16.1192 157.319 15.8672C157.319 15.7458 157.291 15.6338 157.235 15.5312C157.188 15.4285 157.095 15.3352 156.955 15.2512C156.824 15.1578 156.623 15.0692 156.353 14.9852C156.091 14.9012 155.746 14.8125 155.317 14.7192C154.411 14.5325 153.739 14.2758 153.301 13.9492C152.871 13.6225 152.657 13.2025 152.657 12.6892C152.657 12.1105 152.904 11.6345 153.399 11.2612C153.903 10.8785 154.631 10.6872 155.583 10.6872C156.124 10.6872 156.637 10.7805 157.123 10.9672C157.617 11.1445 158.037 11.3498 158.383 11.5832L157.739 12.4512C157.412 12.2365 157.053 12.0685 156.661 11.9472C156.278 11.8165 155.877 11.7512 155.457 11.7512C155.111 11.7512 154.836 11.7932 154.631 11.8772C154.425 11.9518 154.276 12.0545 154.183 12.1852C154.089 12.3158 154.043 12.4605 154.043 12.6192C154.043 12.8805 154.187 13.0858 154.477 13.2352C154.775 13.3752 155.256 13.5152 155.919 13.6552C156.665 13.8138 157.239 13.9912 157.641 14.1872C158.051 14.3832 158.331 14.6118 158.481 14.8732C158.639 15.1252 158.719 15.4285 158.719 15.7832C158.719 16.1658 158.597 16.5158 158.355 16.8332C158.112 17.1505 157.757 17.4025 157.291 17.5892C156.833 17.7758 156.264 17.8692 155.583 17.8692Z" fill="#8095FF"/>
<rect width="65" height="24" transform="translate(0.142578 0.701172)" fill="#8095FF"/>
<path d="M10.2346 17.7012V8.53117H11.7326L14.4066 13.9772L15.2606 15.9092H15.3026C15.2746 15.4425 15.2326 14.9478 15.1766 14.4252C15.1299 13.9025 15.1066 13.3938 15.1066 12.8992V8.53117H16.4506V17.7012H14.9526L12.2786 12.2552L11.4246 10.3232H11.3826C11.4106 10.7992 11.4479 11.2938 11.4946 11.8072C11.5506 12.3112 11.5786 12.8105 11.5786 13.3052V17.7012H10.2346ZM21.7371 17.8692C21.0371 17.8692 20.4164 17.6825 19.8751 17.3092C19.3431 16.9265 18.9231 16.3805 18.6151 15.6712C18.3164 14.9525 18.1671 14.0892 18.1671 13.0812C18.1671 12.0825 18.3164 11.2332 18.6151 10.5332C18.9231 9.82384 19.3431 9.28717 19.8751 8.92317C20.4164 8.54984 21.0371 8.36317 21.7371 8.36317C22.4371 8.36317 23.0531 8.54984 23.5851 8.92317C24.1264 9.28717 24.5464 9.82384 24.8451 10.5332C25.1531 11.2332 25.3071 12.0825 25.3071 13.0812C25.3071 14.0892 25.1531 14.9525 24.8451 15.6712C24.5464 16.3805 24.1264 16.9265 23.5851 17.3092C23.0531 17.6825 22.4371 17.8692 21.7371 17.8692ZM21.7371 16.6512C22.1664 16.6512 22.5398 16.5112 22.8571 16.2312C23.1744 15.9418 23.4218 15.5312 23.5991 14.9992C23.7764 14.4672 23.8651 13.8278 23.8651 13.0812C23.8651 12.3345 23.7764 11.7045 23.5991 11.1912C23.4218 10.6685 23.1744 10.2718 22.8571 10.0012C22.5398 9.72117 22.1664 9.58117 21.7371 9.58117C21.3078 9.58117 20.9344 9.72117 20.6171 10.0012C20.2998 10.2718 20.0524 10.6685 19.8751 11.1912C19.6978 11.7045 19.6091 12.3345 19.6091 13.0812C19.6091 13.8278 19.6978 14.4672 19.8751 14.9992C20.0524 15.5312 20.2998 15.9418 20.6171 16.2312C20.9344 16.5112 21.3078 16.6512 21.7371 16.6512ZM27.2196 17.7012V8.53117H30.1736C30.8083 8.53117 31.373 8.61517 31.8676 8.78317C32.3623 8.94184 32.7496 9.21717 33.0296 9.60917C33.319 10.0012 33.4636 10.5238 33.4636 11.1772C33.4636 11.8118 33.319 12.3345 33.0296 12.7452C32.7496 13.1558 32.3623 13.4638 31.8676 13.6692C31.373 13.8745 30.8083 13.9772 30.1736 13.9772H28.6196V17.7012H27.2196ZM28.6196 12.8432H30.0056C30.6776 12.8432 31.191 12.7078 31.5456 12.4372C31.9003 12.1572 32.0776 11.7372 32.0776 11.1772C32.0776 10.6172 31.9003 10.2252 31.5456 10.0012C31.191 9.76784 30.6776 9.65117 30.0056 9.65117H28.6196V12.8432ZM29.9076 13.5992L30.9576 12.8012L33.7856 17.7012H32.2036L29.9076 13.5992ZM35.2782 17.7012V8.53117H36.9022L38.0922 12.2692L38.4982 13.6972H38.5542L38.9602 12.2692L40.1502 8.53117H41.7742V17.7012H40.4862V13.5712C40.4862 13.3378 40.4955 13.0672 40.5142 12.7592C40.5328 12.4418 40.5515 12.1152 40.5702 11.7792C40.5982 11.4432 40.6215 11.1258 40.6402 10.8272C40.6682 10.5285 40.6915 10.2718 40.7102 10.0572H40.6682L40.0942 12.0312L38.9322 15.2652H38.0642L36.9162 12.0312L36.3562 10.0572H36.3142C36.3422 10.2718 36.3655 10.5285 36.3842 10.8272C36.4122 11.1258 36.4355 11.4432 36.4542 11.7792C36.4728 12.1152 36.4915 12.4418 36.5102 12.7592C36.5288 13.0672 36.5382 13.3378 36.5382 13.5712V17.7012H35.2782ZM43.0847 17.7012L46.1087 8.53117H47.7327L50.7567 17.7012H49.2727L47.7887 12.7032C47.6394 12.1992 47.49 11.6952 47.3407 11.1912C47.2007 10.6778 47.0607 10.1645 46.9207 9.65117H46.8647C46.734 10.1645 46.594 10.6778 46.4447 11.1912C46.3047 11.6952 46.16 12.1992 46.0107 12.7032L44.5127 17.7012H43.0847ZM44.7787 15.0692V13.9632H49.0347V15.0692H44.7787ZM52.8932 17.7012V8.53117H54.2792V16.5252H58.6892V17.7012H52.8932Z" fill="#06182C"/>
<mask id="path-3-inside-1_4003_3597" fill="white">
<path d="M65.1426 0.701172H74.1426V24.7012H65.1426V0.701172Z"/>
</mask>
<path d="M65.1426 0.701172V-11.2988H56.1426V0.701172H65.1426ZM65.1426 24.7012H56.1426V36.7012H65.1426V24.7012ZM65.1426 12.7012H74.1426V-11.2988H65.1426V12.7012ZM74.1426 12.7012H65.1426V36.7012H74.1426V12.7012ZM74.1426 24.7012V0.701172H56.1426V24.7012H74.1426Z" fill="url(#paint0_diamond_4003_3597)" mask="url(#path-3-inside-1_4003_3597)"/>
<path d="M355.623 17.8692C355.147 17.8692 354.699 17.7805 354.279 17.6032C353.859 17.4258 353.49 17.1598 353.173 16.8052C352.855 16.4505 352.608 16.0025 352.431 15.4612C352.253 14.9198 352.165 14.2805 352.165 13.5432C352.165 12.6658 352.267 11.9145 352.473 11.2892C352.678 10.6638 352.953 10.1552 353.299 9.76317C353.653 9.37117 354.055 9.08184 354.503 8.89517C354.96 8.7085 355.431 8.61517 355.917 8.61517C356.486 8.61517 356.985 8.7085 357.415 8.89517C357.844 9.08184 358.208 9.31517 358.507 9.59517L357.751 10.4492C357.527 10.2345 357.265 10.0665 356.967 9.94517C356.668 9.8145 356.351 9.74917 356.015 9.74917C355.567 9.74917 355.147 9.8705 354.755 10.1132C354.363 10.3558 354.045 10.7525 353.803 11.3032C353.569 11.8538 353.453 12.6005 353.453 13.5432C353.453 14.2805 353.537 14.8918 353.705 15.3772C353.882 15.8532 354.134 16.2078 354.461 16.4412C354.787 16.6745 355.17 16.7912 355.609 16.7912C355.935 16.7912 356.229 16.7212 356.491 16.5812C356.761 16.4318 356.971 16.2218 357.121 15.9512C357.279 15.6712 357.359 15.3445 357.359 14.9712C357.359 14.4018 357.205 13.9725 356.897 13.6832C356.598 13.3845 356.169 13.2352 355.609 13.2352C355.282 13.2352 354.927 13.3238 354.545 13.5012C354.171 13.6785 353.803 13.9865 353.439 14.4252L353.383 13.4032C353.737 13.0298 354.134 12.7405 354.573 12.5352C355.011 12.3205 355.45 12.2132 355.889 12.2132C356.43 12.2132 356.906 12.3158 357.317 12.5212C357.737 12.7265 358.063 13.0345 358.297 13.4452C358.539 13.8465 358.661 14.3552 358.661 14.9712C358.661 15.5592 358.521 16.0678 358.241 16.4972C357.961 16.9265 357.587 17.2625 357.121 17.5052C356.663 17.7478 356.164 17.8692 355.623 17.8692ZM363.737 17.8692C363.074 17.8692 362.496 17.6872 362.001 17.3232C361.516 16.9592 361.138 16.4318 360.867 15.7412C360.606 15.0412 360.475 14.1965 360.475 13.2072C360.475 11.7045 360.769 10.5658 361.357 9.79117C361.945 9.00717 362.738 8.61517 363.737 8.61517C364.745 8.61517 365.538 9.00717 366.117 9.79117C366.705 10.5658 366.999 11.7045 366.999 13.2072C366.999 14.1965 366.864 15.0412 366.593 15.7412C366.332 16.4318 365.958 16.9592 365.473 17.3232C364.988 17.6872 364.409 17.8692 363.737 17.8692ZM363.737 16.7632C364.12 16.7632 364.46 16.6418 364.759 16.3992C365.058 16.1565 365.291 15.7738 365.459 15.2512C365.636 14.7192 365.725 14.0378 365.725 13.2072C365.725 12.3765 365.636 11.7045 365.459 11.1912C365.291 10.6685 365.058 10.2905 364.759 10.0572C364.46 9.82384 364.12 9.70717 363.737 9.70717C363.354 9.70717 363.014 9.82384 362.715 10.0572C362.416 10.2905 362.178 10.6685 362.001 11.1912C361.833 11.7045 361.749 12.3765 361.749 13.2072C361.749 14.0378 361.833 14.7192 362.001 15.2512C362.178 15.7738 362.416 16.1565 362.715 16.3992C363.014 16.6418 363.354 16.7632 363.737 16.7632ZM363.737 14.1032C363.494 14.1032 363.28 14.0192 363.093 13.8512C362.906 13.6738 362.813 13.4358 362.813 13.1372C362.813 12.8292 362.906 12.5912 363.093 12.4232C363.28 12.2552 363.494 12.1712 363.737 12.1712C363.989 12.1712 364.204 12.2552 364.381 12.4232C364.568 12.5912 364.661 12.8292 364.661 13.1372C364.661 13.4358 364.568 13.6738 364.381 13.8512C364.204 14.0192 363.989 14.1032 363.737 14.1032ZM372.132 17.8692C371.469 17.8692 370.89 17.6872 370.396 17.3232C369.91 16.9592 369.532 16.4318 369.262 15.7412C369 15.0412 368.87 14.1965 368.87 13.2072C368.87 11.7045 369.164 10.5658 369.752 9.79117C370.34 9.00717 371.133 8.61517 372.132 8.61517C373.14 8.61517 373.933 9.00717 374.512 9.79117C375.1 10.5658 375.394 11.7045 375.394 13.2072C375.394 14.1965 375.258 15.0412 374.988 15.7412C374.726 16.4318 374.353 16.9592 373.868 17.3232C373.382 17.6872 372.804 17.8692 372.132 17.8692ZM372.132 16.7632C372.514 16.7632 372.855 16.6418 373.154 16.3992C373.452 16.1565 373.686 15.7738 373.854 15.2512C374.031 14.7192 374.12 14.0378 374.12 13.2072C374.12 12.3765 374.031 11.7045 373.854 11.1912C373.686 10.6685 373.452 10.2905 373.154 10.0572C372.855 9.82384 372.514 9.70717 372.132 9.70717C371.749 9.70717 371.408 9.82384 371.11 10.0572C370.811 10.2905 370.573 10.6685 370.396 11.1912C370.228 11.7045 370.144 12.3765 370.144 13.2072C370.144 14.0378 370.228 14.7192 370.396 15.2512C370.573 15.7738 370.811 16.1565 371.11 16.3992C371.408 16.6418 371.749 16.7632 372.132 16.7632ZM372.132 14.1032C371.889 14.1032 371.674 14.0192 371.488 13.8512C371.301 13.6738 371.208 13.4358 371.208 13.1372C371.208 12.8292 371.301 12.5912 371.488 12.4232C371.674 12.2552 371.889 12.1712 372.132 12.1712C372.384 12.1712 372.598 12.2552 372.776 12.4232C372.962 12.5912 373.056 12.8292 373.056 13.1372C373.056 13.4358 372.962 13.6738 372.776 13.8512C372.598 14.0192 372.384 14.1032 372.132 14.1032ZM378.678 13.2492C378.296 13.2492 377.955 13.1558 377.656 12.9692C377.358 12.7825 377.12 12.5165 376.942 12.1712C376.774 11.8165 376.69 11.3965 376.69 10.9112C376.69 10.1832 376.877 9.6185 377.25 9.21717C377.633 8.81584 378.109 8.61517 378.678 8.61517C379.257 8.61517 379.733 8.81584 380.106 9.21717C380.48 9.6185 380.666 10.1832 380.666 10.9112C380.666 11.3965 380.578 11.8165 380.4 12.1712C380.232 12.5165 379.999 12.7825 379.7 12.9692C379.402 13.1558 379.061 13.2492 378.678 13.2492ZM378.678 12.4512C378.949 12.4512 379.178 12.3298 379.364 12.0872C379.56 11.8352 379.658 11.4432 379.658 10.9112C379.658 10.3698 379.56 9.98717 379.364 9.76317C379.178 9.52984 378.949 9.41317 378.678 9.41317C378.417 9.41317 378.188 9.52984 377.992 9.76317C377.796 9.98717 377.698 10.3698 377.698 10.9112C377.698 11.4432 377.796 11.8352 377.992 12.0872C378.188 12.3298 378.417 12.4512 378.678 12.4512ZM377.46 17.2672L376.676 16.5392L379.252 13.9492L379.784 14.4392L377.46 17.2672ZM381.8 12.2832L381.268 11.7932L383.592 8.96517L384.376 9.69317L381.8 12.2832ZM382.374 17.8692C381.992 17.8692 381.651 17.7758 381.352 17.5892C381.054 17.4025 380.816 17.1365 380.638 16.7912C380.47 16.4365 380.386 16.0165 380.386 15.5312C380.386 14.8032 380.573 14.2385 380.946 13.8372C381.329 13.4358 381.805 13.2352 382.374 13.2352C382.953 13.2352 383.429 13.4358 383.802 13.8372C384.176 14.2385 384.362 14.8032 384.362 15.5312C384.362 16.0165 384.274 16.4365 384.096 16.7912C383.928 17.1365 383.695 17.4025 383.396 17.5892C383.098 17.7758 382.757 17.8692 382.374 17.8692ZM382.374 17.0712C382.645 17.0712 382.874 16.9498 383.06 16.7072C383.256 16.4552 383.354 16.0632 383.354 15.5312C383.354 14.9898 383.256 14.6072 383.06 14.3832C382.874 14.1498 382.645 14.0332 382.374 14.0332C382.113 14.0332 381.884 14.1498 381.688 14.3832C381.492 14.6072 381.394 14.9898 381.394 15.5312C381.394 16.0632 381.492 16.4552 381.688 16.7072C381.884 16.9498 382.113 17.0712 382.374 17.0712Z" fill="#55718D"/>
<path d="M394.515 10.3792V8.82517H404.931V10.3792H394.515ZM394.515 13.5712V12.0172H404.931V13.5712H394.515ZM394.515 16.7632V15.2092H404.931V16.7632H394.515Z" fill="#55718D"/>
<path d="M427.623 17.8692C427.147 17.8692 426.699 17.7805 426.279 17.6032C425.859 17.4258 425.49 17.1598 425.173 16.8052C424.855 16.4505 424.608 16.0025 424.431 15.4612C424.253 14.9198 424.165 14.2805 424.165 13.5432C424.165 12.6658 424.267 11.9145 424.473 11.2892C424.678 10.6638 424.953 10.1552 425.299 9.76317C425.653 9.37117 426.055 9.08184 426.503 8.89517C426.96 8.7085 427.431 8.61517 427.917 8.61517C428.486 8.61517 428.985 8.7085 429.415 8.89517C429.844 9.08184 430.208 9.31517 430.507 9.59517L429.751 10.4492C429.527 10.2345 429.265 10.0665 428.967 9.94517C428.668 9.8145 428.351 9.74917 428.015 9.74917C427.567 9.74917 427.147 9.8705 426.755 10.1132C426.363 10.3558 426.045 10.7525 425.803 11.3032C425.569 11.8538 425.453 12.6005 425.453 13.5432C425.453 14.2805 425.537 14.8918 425.705 15.3772C425.882 15.8532 426.134 16.2078 426.461 16.4412C426.787 16.6745 427.17 16.7912 427.609 16.7912C427.935 16.7912 428.229 16.7212 428.491 16.5812C428.761 16.4318 428.971 16.2218 429.121 15.9512C429.279 15.6712 429.359 15.3445 429.359 14.9712C429.359 14.4018 429.205 13.9725 428.897 13.6832C428.598 13.3845 428.169 13.2352 427.609 13.2352C427.282 13.2352 426.927 13.3238 426.545 13.5012C426.171 13.6785 425.803 13.9865 425.439 14.4252L425.383 13.4032C425.737 13.0298 426.134 12.7405 426.573 12.5352C427.011 12.3205 427.45 12.2132 427.889 12.2132C428.43 12.2132 428.906 12.3158 429.317 12.5212C429.737 12.7265 430.063 13.0345 430.297 13.4452C430.539 13.8465 430.661 14.3552 430.661 14.9712C430.661 15.5592 430.521 16.0678 430.241 16.4972C429.961 16.9265 429.587 17.2625 429.121 17.5052C428.663 17.7478 428.164 17.8692 427.623 17.8692ZM432.839 19.9412L437.431 7.76117H438.635L434.043 19.9412H432.839ZM441.234 17.7012V16.5672H443.754V10.3512H441.766V9.48317C442.13 9.42717 442.447 9.3665 442.718 9.30117C442.998 9.23584 443.25 9.16117 443.474 9.07717C443.707 8.99317 443.922 8.89517 444.118 8.78317H445.14V16.5672H447.394V17.7012H441.234Z" fill="#55718D"/>
<path d="M462.785 17.8692C462.029 17.8692 461.45 17.6498 461.049 17.2112C460.647 16.7632 460.447 16.1285 460.447 15.3072V8.89517H458.165V7.77517H461.833V15.3912C461.833 15.8672 461.954 16.2125 462.197 16.4272C462.439 16.6325 462.743 16.7352 463.107 16.7352C463.293 16.7352 463.485 16.7118 463.681 16.6652C463.886 16.6185 464.11 16.5438 464.353 16.4412L464.689 17.4772C464.362 17.5892 464.059 17.6825 463.779 17.7572C463.508 17.8318 463.177 17.8692 462.785 17.8692ZM466.769 17.7012V10.8552H467.903L468.015 11.9612H468.071C468.416 11.6065 468.79 11.3078 469.191 11.0652C469.592 10.8132 470.059 10.6872 470.591 10.6872C471.384 10.6872 471.968 10.9298 472.341 11.4152C472.724 11.8912 472.915 12.5725 472.915 13.4592V17.7012H471.529V13.6412C471.529 13.0438 471.417 12.6052 471.193 12.3252C470.978 12.0358 470.614 11.8912 470.101 11.8912C469.737 11.8912 469.41 11.9845 469.121 12.1712C468.832 12.3485 468.51 12.6192 468.155 12.9832V17.7012H466.769Z" fill="#55718D"/>
<path d="M494.343 12.9832C493.988 12.9832 493.689 12.8618 493.447 12.6192C493.204 12.3765 493.083 12.0638 493.083 11.6812C493.083 11.2985 493.204 10.9858 493.447 10.7432C493.689 10.5005 493.988 10.3792 494.343 10.3792C494.707 10.3792 495.005 10.5005 495.239 10.7432C495.481 10.9858 495.603 11.2985 495.603 11.6812C495.603 12.0638 495.481 12.3765 495.239 12.6192C495.005 12.8618 494.707 12.9832 494.343 12.9832ZM494.343 17.8692C493.988 17.8692 493.689 17.7478 493.447 17.5052C493.204 17.2625 493.083 16.9498 493.083 16.5672C493.083 16.1845 493.204 15.8718 493.447 15.6292C493.689 15.3865 493.988 15.2652 494.343 15.2652C494.707 15.2652 495.005 15.3865 495.239 15.6292C495.481 15.8718 495.603 16.1845 495.603 16.5672C495.603 16.9498 495.481 17.2625 495.239 17.5052C495.005 17.7478 494.707 17.8692 494.343 17.8692Z" fill="#55718D"/>
<path d="M520.197 17.7012V11.7932C520.206 11.5412 520.215 11.2612 520.225 10.9532C520.243 10.6452 520.257 10.3652 520.267 10.1132H520.197C520.057 10.3372 519.903 10.5658 519.735 10.7992C519.576 11.0232 519.422 11.2472 519.273 11.4712L517.131 14.2292H522.829V15.3212H515.675V14.3832L519.945 8.76917H521.499V17.7012H520.197Z" fill="#55718D"/>
<defs>
<radialGradient id="paint0_diamond_4003_3597" cx="0" cy="0" r="1" gradientUnits="userSpaceOnUse" gradientTransform="translate(65.1426 12.7012) scale(9 12)">
<stop offset="1" stop-color="#8095FF"/>
<stop offset="1" stop-opacity="0"/>
</radialGradient>
</defs>
</svg>
