<svg width="200" height="41" viewBox="0 0 200 41" fill="none" xmlns="http://www.w3.org/2000/svg">
<path d="M64.4 16.7805C64.4 18.4805 63 19.8805 61.3 19.8805C59.6 19.8805 58.2 18.4805 58.2 16.7805C58.2 15.0805 59.6 13.6805 61.3 13.6805C63 13.6805 64.4 15.0805 64.4 16.7805ZM61.3 21.0805C59.6 21.0805 58.2 22.4805 58.2 24.1805C58.2 25.8805 59.6 27.2805 61.3 27.2805C63 27.2805 64.4 25.8805 64.4 24.1805C64.4 22.4805 63 21.0805 61.3 21.0805ZM80 20.4805C80 28.7805 73.3 35.4805 65 35.4805C56.7 35.4805 50 28.7805 50 20.4805C50 12.1805 56.7 5.48047 65 5.48047C73.3 5.48047 80 12.1805 80 20.4805ZM76 20.4805C76 14.3805 71.1 9.48047 65 9.48047C58.9 9.48047 54 14.3805 54 20.4805C54 26.5805 58.9 31.4805 65 31.4805C71.1 31.4805 76 26.5805 76 20.4805ZM68.7 21.0805C67 21.0805 65.6 22.4805 65.6 24.1805C65.6 25.8805 67 27.2805 68.7 27.2805C70.4 27.2805 71.8 25.8805 71.8 24.1805C71.8 22.4805 70.4 21.0805 68.7 21.0805ZM68.7 13.6805C67 13.6805 65.6 15.0805 65.6 16.7805C65.6 18.4805 67 19.8805 68.7 19.8805C70.4 19.8805 71.8 18.4805 71.8 16.7805C71.8 15.0805 70.4 13.6805 68.7 13.6805ZM120.3 11.3805C120.4 11.3805 120.5 11.4805 120.6 11.5805V14.7805C120.6 14.9805 120.4 15.0805 120.3 15.0805H115C114.8 15.0805 114.7 14.8805 114.7 14.7805V11.6805C114.7 11.4805 114.9 11.3805 115 11.3805H120.3ZM120.2 15.8805H110C109.9 15.8805 109.7 15.9805 109.7 16.1805L108.4 21.1805L108.3 21.4805L106.7 16.1805C106.7 16.0805 106.5 15.8805 106.4 15.8805H102.4C102.3 15.8805 102.1 15.9805 102.1 16.1805L100.6 21.1805L100.5 21.4805L100.4 21.1805L99.8 18.6805L99.2 16.1805C99.2 16.0805 99 15.8805 98.9 15.8805H90.9V11.5805C90.9 11.4805 90.7 11.2805 90.5 11.3805L85.5 12.9805C85.3 12.9805 85.2 13.0805 85.2 13.2805V15.9805H83.9C83.8 15.9805 83.6 16.0805 83.6 16.2805V20.0805C83.6 20.1805 83.7 20.3805 83.9 20.3805H85.2V25.0805C85.2 28.3805 87 29.8805 90.3 29.8805C91.7 29.8805 93 29.5805 93.9 29.0805V25.0805C93.9 24.8805 93.7 24.7805 93.6 24.8805C93.1 25.0805 92.6 25.1805 92.2 25.1805C91.3 25.1805 90.8 24.7805 90.8 23.7805V20.3805H93.7C93.8 20.3805 94 20.2805 94 20.0805V16.8805L97.8 29.4805C97.8 29.5805 98 29.7805 98.1 29.7805H102.3C102.4 29.7805 102.6 29.6805 102.6 29.4805L104.4 23.8805L105.3 26.7805L106.1 29.4805C106.1 29.5805 106.3 29.7805 106.4 29.7805H110.6C110.7 29.7805 110.9 29.6805 110.9 29.4805L114.7 16.8805V29.4805C114.7 29.5805 114.8 29.7805 115 29.7805H120.1C120.2 29.7805 120.4 29.6805 120.4 29.4805V16.1805C120.4 16.0805 120.3 15.8805 120.2 15.8805ZM126.9 11.3805H121.8C121.7 11.3805 121.5 11.4805 121.5 11.6805V29.3805C121.5 29.4805 121.6 29.6805 121.8 29.6805H126.9C127 29.6805 127.2 29.5805 127.2 29.3805V11.5805C127.2 11.4805 127.1 11.3805 126.9 11.3805ZM133.7 11.3805H128.4C128.3 11.3805 128.1 11.4805 128.1 11.6805V14.7805C128.1 14.8805 128.2 15.0805 128.4 15.0805H133.7C133.8 15.0805 134 14.9805 134 14.7805V11.5805C134 11.4805 133.9 11.3805 133.7 11.3805ZM133.6 15.8805H128.5C128.4 15.8805 128.2 15.9805 128.2 16.1805V29.2805C128.2 29.3805 128.3 29.5805 128.5 29.5805H133.6C133.7 29.5805 133.9 29.4805 133.9 29.2805V16.1805C133.9 16.0805 133.8 15.8805 133.6 15.8805ZM149.7 22.6805C149.7 26.4805 146.5 29.7805 142 29.7805C137.6 29.7805 134.4 26.4805 134.4 22.6805C134.4 18.8805 137.6 15.5805 142.1 15.5805C146.5 15.5805 149.7 18.8805 149.7 22.6805ZM144.3 22.7805C144.3 21.3805 143.3 20.2805 142.1 20.3805C140.8 20.3805 139.9 21.4805 139.9 22.7805C139.9 24.0805 140.9 25.1805 142.1 25.1805C143.4 25.1805 144.3 24.0805 144.3 22.7805Z" fill="#AAB4C1"/>
</svg>
