<svg width="27" height="36" viewBox="0 0 27 36" fill="none" xmlns="http://www.w3.org/2000/svg">
<path d="M5.13 0.480469H21.87C23.66 0.480469 24.3 0.670469 24.95 1.01047C25.61 1.36047 26.12 1.87047 26.47 2.53047C26.81 3.18047 27 3.83047 27 5.61047V30.3505C27 32.1405 26.81 32.7805 26.47 33.4305C26.1284 34.079 25.5985 34.6089 24.95 34.9505C24.3 35.2905 23.65 35.4805 21.87 35.4805H5.13C3.34 35.4805 2.7 35.2905 2.05 34.9505C1.40149 34.6089 0.871589 34.079 0.530001 33.4305C0.190001 32.7805 0 32.1305 0 30.3505V5.61047C0 3.82047 0.190001 3.18047 0.530001 2.53047C0.880001 1.87047 1.39 1.36047 2.05 1.01047C2.7 0.670469 3.35 0.480469 5.13 0.480469Z" fill="#80E9FF"/>
</svg>
