<svg width="23" height="31" viewBox="0 0 23 31" fill="none" xmlns="http://www.w3.org/2000/svg">
<path d="M25.9499 1.01047C26.6099 1.36047 27.1199 1.87047 27.4699 2.53047C27.8099 3.18047 27.9999 3.83047 27.9999 5.61047V30.3505C27.9999 32.1405 27.8099 32.7805 27.4699 33.4305C27.1284 34.079 26.5985 34.6089 25.9499 34.9505C25.2999 35.2905 24.6499 35.4805 22.8699 35.4805H6.12994C4.33994 35.4805 3.69994 35.2905 3.04994 34.9505C2.40144 34.6089 1.87153 34.079 1.52995 33.4305C1.18995 32.7805 0.999946 32.1305 0.999946 30.3505V15.4805C0.999946 12.4805 -5.43594e-05 8.48047 9.99995 9.48047C9.99995 7.48047 8.99995 0.480469 14.4999 0.480469H22.9999C24.7799 0.480469 25.2999 0.670468 25.9499 1.01047Z" fill="#0048E5"/>
</svg>
