<svg width="22" height="36" viewBox="0 0 22 36" fill="none" xmlns="http://www.w3.org/2000/svg">
<path d="M12.4 0.860777L20.8 9.13078C21.1791 9.50242 21.4805 9.94582 21.6865 10.4351C21.8926 10.9244 21.9991 11.4499 22 11.9808V32.4808C22 33.2764 21.6839 34.0395 21.1213 34.6021C20.5587 35.1647 19.7956 35.4808 19 35.4808H3C2.20435 35.4808 1.44129 35.1647 0.878679 34.6021C0.31607 34.0395 0 33.2764 0 32.4808V11.9808C0.000872912 11.4499 0.107429 10.9244 0.313454 10.4351C0.519479 9.94582 0.820851 9.50242 1.2 9.13078L9.6 0.860777C9.97386 0.494323 10.4765 0.289062 11 0.289062C11.5235 0.289062 12.0261 0.494323 12.4 0.860777ZM11 6.48078C10.2044 6.48078 9.44129 6.79685 8.87868 7.35946C8.31607 7.92207 8 8.68513 8 9.48078C8 10.2764 8.31607 11.0395 8.87868 11.6021C9.44129 12.1647 10.2044 12.4808 11 12.4808C11.7956 12.4808 12.5587 12.1647 13.1213 11.6021C13.6839 11.0395 14 10.2764 14 9.48078C14 8.68513 13.6839 7.92207 13.1213 7.35946C12.5587 6.79685 11.7956 6.48078 11 6.48078Z" fill="#7A73FF"/>
</svg>
