<svg width="33" height="33" viewBox="0 0 33 33" fill="none" xmlns="http://www.w3.org/2000/svg">
<path d="M32.7921 2.23684L32.884 14.0243C32.8893 14.5552 32.7889 15.0818 32.5886 15.5735C32.3883 16.0652 32.0921 16.5121 31.7173 16.8881L17.2216 31.3838C16.659 31.9464 15.8959 32.2625 15.1003 32.2625C14.3046 32.2625 13.5416 31.9464 12.9789 31.3838L1.66524 20.0701C1.10263 19.5075 0.786552 18.7444 0.786553 17.9488C0.786554 17.1531 1.10263 16.3901 1.66524 15.8274L16.1609 1.33175C16.537 0.956952 16.9838 0.660764 17.4755 0.460452C17.9672 0.26014 18.4938 0.159711 19.0247 0.165022L30.8122 0.256943C31.3357 0.262178 31.8362 0.472456 32.2064 0.84263C32.5766 1.2128 32.7869 1.71337 32.7921 2.23684ZM27.8282 5.22084C27.2656 4.65823 26.5025 4.34216 25.7069 4.34216C24.9112 4.34216 24.1482 4.65823 23.5856 5.22084C23.0229 5.78344 22.7069 6.54651 22.7069 7.34216C22.7069 8.13781 23.0229 8.90087 23.5856 9.46348C24.1482 10.0261 24.9112 10.3422 25.7069 10.3422C26.5025 10.3422 27.2656 10.0261 27.8282 9.46348C28.3908 8.90087 28.7069 8.13781 28.7069 7.34216C28.7069 6.54651 28.3908 5.78344 27.8282 5.22084Z" fill="#80E9FF"/>
</svg>
