<svg width="332" height="221" viewBox="0 0 332 221" fill="none" xmlns="http://www.w3.org/2000/svg">
<g clip-path="url(#clip0_4003_3850)">
<rect x="0.802734" y="0.173828" width="330.67" height="220.44" rx="4" fill="#F6F9FC"/>
<g clip-path="url(#clip1_4003_3850)">
<g clip-path="url(#clip2_4003_3850)">
<g clip-path="url(#clip3_4003_3850)">
<g clip-path="url(#clip4_4003_3850)">
<mask id="mask0_4003_3850" style="mask-type:luminance" maskUnits="userSpaceOnUse" x="120" y="105" width="10" height="10">
<path d="M120.312 105.922H129.184V114.793H120.312V105.922Z" fill="white"/>
</mask>
<g mask="url(#mask0_4003_3850)">
<path d="M123.467 114.077C123.39 114.154 123.292 114.207 123.186 114.228C123.079 114.249 122.969 114.239 122.869 114.197C122.768 114.156 122.683 114.085 122.622 113.995C122.562 113.905 122.53 113.798 122.53 113.69V107.026C122.53 106.917 122.562 106.811 122.622 106.72C122.683 106.63 122.768 106.56 122.869 106.518C122.969 106.477 123.079 106.466 123.186 106.487C123.292 106.509 123.39 106.561 123.467 106.638L126.805 109.971C126.856 110.021 126.896 110.082 126.924 110.148C126.951 110.215 126.966 110.286 126.966 110.358C126.966 110.43 126.951 110.501 126.924 110.567C126.896 110.633 126.856 110.694 126.805 110.745L123.467 114.077Z" fill="#7A73FF"/>
</g>
<mask id="mask1_4003_3850" style="mask-type:luminance" maskUnits="userSpaceOnUse" x="129" y="105" width="10" height="10">
<path d="M129.184 105.922H138.055V114.793H129.184V105.922Z" fill="white"/>
</mask>
<g mask="url(#mask1_4003_3850)">
<path d="M132.337 114.077C132.26 114.154 132.162 114.207 132.056 114.228C131.949 114.249 131.839 114.239 131.739 114.197C131.638 114.156 131.553 114.085 131.492 113.995C131.432 113.905 131.4 113.798 131.4 113.69V107.026C131.4 106.917 131.432 106.811 131.492 106.72C131.553 106.63 131.638 106.56 131.739 106.518C131.839 106.477 131.949 106.466 132.056 106.487C132.162 106.509 132.26 106.561 132.337 106.638L135.675 109.971C135.726 110.021 135.766 110.082 135.794 110.148C135.821 110.215 135.836 110.286 135.836 110.358C135.836 110.43 135.821 110.501 135.794 110.567C135.766 110.633 135.726 110.694 135.675 110.745L132.337 114.077Z" fill="#7A73FF"/>
</g>
<mask id="mask2_4003_3850" style="mask-type:luminance" maskUnits="userSpaceOnUse" x="138" y="105" width="9" height="10">
<path d="M138.054 105.922H146.925V114.793H138.054V105.922Z" fill="white"/>
</mask>
<g mask="url(#mask2_4003_3850)">
<path d="M141.208 114.077C141.131 114.154 141.033 114.207 140.927 114.228C140.821 114.249 140.71 114.239 140.61 114.197C140.509 114.156 140.424 114.085 140.364 113.995C140.303 113.905 140.271 113.798 140.271 113.69V107.026C140.271 106.917 140.303 106.811 140.364 106.72C140.424 106.63 140.509 106.56 140.61 106.518C140.71 106.477 140.821 106.466 140.927 106.487C141.033 106.509 141.131 106.561 141.208 106.638L144.545 109.971C144.596 110.021 144.637 110.082 144.665 110.148C144.692 110.214 144.707 110.286 144.707 110.358C144.707 110.43 144.692 110.501 144.665 110.567C144.637 110.634 144.596 110.694 144.545 110.745L141.208 114.077Z" fill="#7A73FF"/>
</g>
<mask id="mask3_4003_3850" style="mask-type:luminance" maskUnits="userSpaceOnUse" x="146" y="105" width="10" height="10">
<path d="M146.925 105.922H155.796V114.793H146.925V105.922Z" fill="white"/>
</mask>
<g mask="url(#mask3_4003_3850)">
<path d="M150.078 114.077C150.001 114.154 149.904 114.207 149.797 114.228C149.691 114.249 149.58 114.239 149.48 114.197C149.38 114.156 149.294 114.085 149.234 113.995C149.173 113.905 149.141 113.798 149.142 113.69V107.026C149.141 106.917 149.173 106.811 149.234 106.72C149.294 106.63 149.38 106.56 149.48 106.518C149.58 106.477 149.691 106.466 149.797 106.487C149.904 106.509 150.001 106.561 150.078 106.638L153.416 109.971C153.467 110.021 153.508 110.082 153.535 110.148C153.563 110.215 153.577 110.286 153.577 110.358C153.577 110.43 153.563 110.501 153.535 110.567C153.508 110.633 153.467 110.694 153.416 110.745L150.078 114.077Z" fill="#7A73FF"/>
</g>
<mask id="mask4_4003_3850" style="mask-type:luminance" maskUnits="userSpaceOnUse" x="155" y="105" width="10" height="10">
<path d="M155.796 105.922H164.667V114.793H155.796V105.922Z" fill="white"/>
</mask>
<g mask="url(#mask4_4003_3850)">
<path d="M158.95 114.077C158.873 114.154 158.776 114.207 158.669 114.228C158.563 114.249 158.452 114.239 158.352 114.197C158.252 114.156 158.166 114.085 158.106 113.995C158.045 113.905 158.013 113.798 158.014 113.69V107.026C158.013 106.917 158.045 106.811 158.106 106.72C158.166 106.63 158.252 106.56 158.352 106.518C158.452 106.477 158.563 106.466 158.669 106.487C158.776 106.509 158.873 106.561 158.95 106.638L162.287 109.971C162.339 110.021 162.379 110.082 162.407 110.148C162.435 110.214 162.449 110.286 162.449 110.358C162.449 110.43 162.435 110.501 162.407 110.567C162.379 110.634 162.339 110.694 162.287 110.745L158.95 114.077Z" fill="#7A73FF"/>
</g>
<mask id="mask5_4003_3850" style="mask-type:luminance" maskUnits="userSpaceOnUse" x="164" y="105" width="10" height="10">
<path d="M164.667 105.922H173.538V114.793H164.667V105.922Z" fill="white"/>
</mask>
<g mask="url(#mask5_4003_3850)">
<path d="M167.82 114.077C167.743 114.154 167.646 114.207 167.539 114.228C167.433 114.249 167.322 114.239 167.222 114.197C167.122 114.156 167.036 114.085 166.976 113.995C166.916 113.905 166.884 113.798 166.884 113.69V107.026C166.884 106.917 166.916 106.811 166.976 106.72C167.036 106.63 167.122 106.56 167.222 106.518C167.322 106.477 167.433 106.466 167.539 106.487C167.646 106.509 167.743 106.561 167.82 106.638L171.159 109.971C171.209 110.021 171.25 110.082 171.277 110.148C171.305 110.215 171.319 110.286 171.319 110.358C171.319 110.43 171.305 110.501 171.277 110.567C171.25 110.633 171.209 110.694 171.159 110.745L167.82 114.077Z" fill="#7A73FF"/>
</g>
<mask id="mask6_4003_3850" style="mask-type:luminance" maskUnits="userSpaceOnUse" x="173" y="105" width="10" height="10">
<path d="M173.537 105.922H182.408V114.793H173.537V105.922Z" fill="white"/>
</mask>
<g mask="url(#mask6_4003_3850)">
<path d="M176.691 114.077C176.615 114.154 176.517 114.207 176.41 114.228C176.304 114.249 176.194 114.239 176.093 114.197C175.993 114.156 175.907 114.085 175.847 113.995C175.787 113.905 175.755 113.798 175.755 113.69V107.026C175.755 106.917 175.787 106.811 175.847 106.72C175.907 106.63 175.993 106.56 176.093 106.518C176.194 106.477 176.304 106.466 176.41 106.487C176.517 106.509 176.615 106.561 176.691 106.638L180.029 109.971C180.08 110.021 180.12 110.082 180.148 110.148C180.176 110.214 180.19 110.286 180.19 110.358C180.19 110.43 180.176 110.501 180.148 110.567C180.12 110.634 180.08 110.694 180.029 110.745L176.691 114.077Z" fill="#7A73FF"/>
</g>
<mask id="mask7_4003_3850" style="mask-type:luminance" maskUnits="userSpaceOnUse" x="182" y="105" width="10" height="10">
<path d="M182.408 105.922H191.28V114.793H182.408V105.922Z" fill="white"/>
</mask>
<g mask="url(#mask7_4003_3850)">
<path d="M185.561 114.077C185.485 114.154 185.387 114.207 185.281 114.228C185.174 114.249 185.064 114.239 184.963 114.197C184.863 114.156 184.777 114.085 184.717 113.995C184.657 113.905 184.625 113.798 184.625 113.69V107.026C184.625 106.917 184.657 106.811 184.717 106.72C184.777 106.63 184.863 106.56 184.963 106.518C185.064 106.477 185.174 106.466 185.281 106.487C185.387 106.509 185.485 106.561 185.561 106.638L188.9 109.971C188.951 110.021 188.991 110.082 189.019 110.148C189.046 110.215 189.06 110.286 189.06 110.358C189.06 110.43 189.046 110.501 189.019 110.567C188.991 110.633 188.951 110.694 188.9 110.745L185.561 114.077Z" fill="#7A73FF"/>
</g>
<mask id="mask8_4003_3850" style="mask-type:luminance" maskUnits="userSpaceOnUse" x="191" y="105" width="10" height="10">
<path d="M191.279 105.922H200.151V114.793H191.279V105.922Z" fill="white"/>
</mask>
<g mask="url(#mask8_4003_3850)">
<path d="M194.433 114.077C194.357 114.154 194.259 114.207 194.153 114.228C194.046 114.249 193.936 114.239 193.835 114.197C193.735 114.156 193.649 114.085 193.589 113.995C193.529 113.905 193.497 113.798 193.497 113.69V107.026C193.497 106.917 193.529 106.811 193.589 106.72C193.649 106.63 193.735 106.56 193.835 106.518C193.936 106.477 194.046 106.466 194.153 106.487C194.259 106.509 194.357 106.561 194.433 106.638L197.771 109.971C197.822 110.021 197.863 110.082 197.89 110.148C197.918 110.214 197.932 110.286 197.932 110.358C197.932 110.43 197.918 110.501 197.89 110.567C197.863 110.634 197.822 110.694 197.771 110.745L194.433 114.077Z" fill="#7A73FF"/>
</g>
<mask id="mask9_4003_3850" style="mask-type:luminance" maskUnits="userSpaceOnUse" x="200" y="105" width="10" height="10">
<path d="M200.15 105.922H209.022V114.793H200.15V105.922Z" fill="white"/>
</mask>
<g mask="url(#mask9_4003_3850)">
<path d="M203.303 114.077C203.227 114.154 203.129 114.207 203.023 114.228C202.916 114.249 202.806 114.239 202.706 114.197C202.605 114.156 202.519 114.085 202.459 113.995C202.399 113.905 202.367 113.798 202.367 113.69V107.026C202.367 106.917 202.399 106.811 202.459 106.72C202.519 106.63 202.605 106.56 202.706 106.518C202.806 106.477 202.916 106.466 203.023 106.487C203.129 106.509 203.227 106.561 203.303 106.638L206.642 109.971C206.693 110.021 206.733 110.082 206.761 110.148C206.788 110.215 206.802 110.286 206.802 110.358C206.802 110.43 206.788 110.501 206.761 110.567C206.733 110.633 206.693 110.694 206.642 110.745L203.303 114.077Z" fill="#7A73FF"/>
</g>
<mask id="mask10_4003_3850" style="mask-type:luminance" maskUnits="userSpaceOnUse" x="209" y="105" width="9" height="10">
<path d="M209.021 105.922H217.892V114.793H209.021V105.922Z" fill="white"/>
</mask>
<g mask="url(#mask10_4003_3850)">
<path d="M212.175 114.077C212.098 114.154 212 114.207 211.894 114.228C211.787 114.249 211.677 114.239 211.577 114.197C211.476 114.156 211.391 114.085 211.33 113.995C211.27 113.905 211.238 113.798 211.238 113.69V107.026C211.238 106.917 211.27 106.811 211.33 106.72C211.391 106.63 211.476 106.56 211.577 106.518C211.677 106.477 211.787 106.466 211.894 106.487C212 106.509 212.098 106.561 212.175 106.638L215.512 109.971C215.563 110.021 215.604 110.082 215.631 110.148C215.659 110.214 215.673 110.286 215.673 110.358C215.673 110.43 215.659 110.501 215.631 110.567C215.604 110.634 215.563 110.694 215.512 110.745L212.175 114.077Z" fill="#7A73FF"/>
</g>
<path d="M250.787 159.705C278.291 159.705 300.587 137.409 300.587 109.905C300.587 82.4016 278.291 60.1055 250.787 60.1055C223.283 60.1055 200.987 82.4016 200.987 109.905C200.987 137.409 223.283 159.705 250.787 159.705Z" fill="white"/>
<path fill-rule="evenodd" clip-rule="evenodd" d="M239.047 92.9453C237.464 92.9453 235.945 93.5743 234.825 94.6938C233.706 95.8134 233.076 97.3319 233.076 98.9153V113.356C233.076 114.94 233.705 116.459 234.825 117.578C235.945 118.698 237.464 119.327 239.047 119.327H261.025C262.608 119.327 264.127 118.698 265.247 117.578C266.367 116.459 266.996 114.94 266.996 113.356V98.9153C266.995 97.3319 266.366 95.8134 265.247 94.6938C264.127 93.5743 262.608 92.9453 261.025 92.9453H239.047ZM237.316 98.5986C237.502 98.5985 237.686 98.5619 237.857 98.4907C238.029 98.4196 238.185 98.3154 238.316 98.184C238.447 98.0526 238.551 97.8967 238.622 97.725C238.693 97.5534 238.73 97.3695 238.73 97.1838C238.73 96.998 238.693 96.8141 238.622 96.6426C238.551 96.471 238.447 96.3151 238.315 96.1838C238.184 96.0526 238.028 95.9484 237.856 95.8774C237.685 95.8064 237.501 95.7699 237.315 95.7699C236.94 95.7701 236.58 95.9192 236.315 96.1845C236.05 96.4499 235.901 96.8097 235.901 97.1848C235.901 97.5599 236.051 97.9195 236.316 98.1847C236.581 98.4498 236.941 98.5987 237.316 98.5986ZM243.44 97.1843C243.44 97.3699 243.404 97.5536 243.333 97.7251C243.262 97.8966 243.158 98.0524 243.027 98.1836C242.895 98.3149 242.739 98.419 242.568 98.49C242.397 98.561 242.213 98.5976 242.027 98.5976C241.842 98.5976 241.658 98.561 241.486 98.49C241.315 98.419 241.159 98.3149 241.028 98.1836C240.897 98.0524 240.792 97.8966 240.721 97.7251C240.65 97.5536 240.614 97.3699 240.614 97.1843C240.614 96.8094 240.763 96.4499 241.028 96.1849C241.293 95.9199 241.652 95.7709 242.027 95.7709C242.402 95.7709 242.761 95.9199 243.027 96.1849C243.292 96.4499 243.44 96.8094 243.44 97.1843ZM246.738 98.5986C247.113 98.5986 247.473 98.4497 247.738 98.1846C248.003 97.9196 248.152 97.5601 248.152 97.1853C248.152 96.8104 248.003 96.4509 247.738 96.1859C247.473 95.9208 247.113 95.7719 246.738 95.7719C246.363 95.7719 246.004 95.9208 245.739 96.1859C245.474 96.4509 245.325 96.8104 245.325 97.1853C245.325 97.5601 245.474 97.9196 245.739 98.1846C246.004 98.4497 246.363 98.5986 246.738 98.5986Z" fill="#80E9FF"/>
<path fill-rule="evenodd" clip-rule="evenodd" d="M265.932 103.309C267.613 103.309 268.221 103.484 268.836 103.813C269.45 104.141 269.931 104.623 270.26 105.237C270.589 105.851 270.764 106.461 270.764 108.14V122.033C270.764 123.713 270.589 124.322 270.26 124.937C269.939 125.543 269.443 126.04 268.836 126.361C268.221 126.69 267.613 126.864 265.932 126.864H245.445C243.765 126.864 243.155 126.69 242.541 126.361C241.934 126.039 241.438 125.543 241.116 124.937C240.788 124.322 240.613 123.713 240.613 122.033V108.14C240.613 106.461 240.788 105.851 241.116 105.237C241.445 104.623 241.927 104.141 242.541 103.813C243.155 103.484 243.765 103.309 245.445 103.309H265.932ZM255.992 108.962C252.984 108.962 250.978 110.496 250.978 113.059C250.978 117.067 256.617 116.417 256.617 118.145C256.617 118.814 256.021 119.03 255.194 119.03C253.965 119.03 252.379 118.535 251.134 117.874V121.331C252.513 121.911 253.911 122.153 255.19 122.153C258.274 122.153 260.4 120.666 260.4 118.059C260.4 113.743 254.729 114.517 254.729 112.887C254.729 112.322 255.212 112.103 255.989 112.103C257.117 112.103 258.55 112.44 259.679 113.034V109.625C258.45 109.146 257.221 108.962 255.992 108.962Z" fill="#7A73FF"/>
<path fill-rule="evenodd" clip-rule="evenodd" d="M266.995 103.341C266.641 103.318 266.287 103.307 265.932 103.309H245.445C243.765 103.309 243.155 103.484 242.541 103.813C241.927 104.141 241.445 104.623 241.116 105.237C240.788 105.852 240.613 106.461 240.613 108.14V119.326H251.134V117.874C252.379 118.536 253.965 119.031 255.194 119.031C256.021 119.031 256.617 118.814 256.617 118.145C256.617 117.46 255.73 117.149 254.661 116.773C253.032 116.201 250.978 115.479 250.978 113.06C250.978 110.496 252.984 108.962 255.992 108.962C257.221 108.962 258.45 109.146 259.679 109.625V113.035C258.55 112.44 257.117 112.103 255.989 112.103C255.212 112.103 254.729 112.323 254.729 112.887C254.729 113.508 255.55 113.78 256.568 114.116C258.223 114.665 260.4 115.385 260.4 118.059C260.4 118.518 260.334 118.94 260.209 119.326H261.024C261.808 119.326 262.585 119.172 263.309 118.872C264.034 118.572 264.692 118.132 265.246 117.578C265.801 117.024 266.241 116.366 266.541 115.641C266.841 114.917 266.995 114.14 266.995 113.356V103.341Z" fill="#0048E5"/>
<path d="M82.4647 159.705C109.968 159.705 132.264 137.409 132.264 109.905C132.264 82.4016 109.968 60.1055 82.4647 60.1055C54.9611 60.1055 32.665 82.4016 32.665 109.905C32.665 137.409 54.9611 159.705 82.4647 159.705Z" fill="white"/>
<path fill-rule="evenodd" clip-rule="evenodd" d="M82.1652 94.7656C91.8463 94.7656 99.6947 102.614 99.6947 112.295C99.6947 117.869 97.0942 122.835 93.0395 126.045C92.0674 122.417 87.5685 119.676 82.1652 119.676C76.762 119.676 72.2631 122.417 71.289 126.044C69.2127 124.404 67.5353 122.315 66.3829 119.934C65.2305 117.552 64.6331 114.941 64.6358 112.295C64.6358 102.614 72.4842 94.7656 82.1652 94.7656ZM82.1652 105.722C80.7124 105.722 79.3191 106.299 78.2917 107.326C77.2644 108.353 76.6873 109.747 76.6873 111.2C76.6873 112.652 77.2644 114.046 78.2917 115.073C79.3191 116.1 80.7124 116.677 82.1652 116.677C83.6181 116.677 85.0114 116.1 86.0388 115.073C87.0661 114.046 87.6432 112.652 87.6432 111.2C87.6432 109.747 87.0661 108.353 86.0388 107.326C85.0114 106.299 83.6181 105.722 82.1652 105.722Z" fill="#80E9FF"/>
<path fill-rule="evenodd" clip-rule="evenodd" d="M97.4441 88.5273C98.5855 89.2843 101.596 91.0651 105.085 91.4157C105.737 91.4804 106.269 92.0053 106.269 92.6607V97.5012C106.269 107.163 98.1981 111.196 96.9561 111.196C95.7151 111.196 87.6436 107.163 87.6436 97.5012V92.6607C87.6436 92.0053 88.1754 91.4804 88.8268 91.4157C92.3158 91.0651 95.3276 89.2843 96.4681 88.5273C96.6129 88.4318 96.7826 88.3809 96.9561 88.3809C97.1296 88.3809 97.2993 88.4318 97.4441 88.5273ZM95.2828 101.507L101.79 94.8788C102.447 94.2114 103.444 94.9883 102.622 95.8648C102.622 95.8648 96.3774 103.709 96.0488 104.158C95.9505 104.317 95.8134 104.448 95.6504 104.539C95.4875 104.629 95.304 104.677 95.1175 104.677C94.931 104.677 94.7475 104.629 94.5846 104.539C94.4216 104.448 94.2845 104.317 94.1862 104.158L92.1375 100.653C92.0334 100.462 92.0007 100.241 92.0453 100.029C92.0899 99.8167 92.2088 99.6274 92.3807 99.4952C92.5526 99.363 92.7661 99.2965 92.9827 99.3078C93.1992 99.3192 93.4046 99.4075 93.5618 99.5569L95.2828 101.507Z" fill="#7A73FF"/>
<path fill-rule="evenodd" clip-rule="evenodd" d="M99.5516 110.041C98.3365 110.826 97.3326 111.196 96.9571 111.196C95.7151 111.196 87.6445 107.163 87.6445 97.5012V95.6387C90.7809 96.673 93.562 98.571 95.6683 101.115L95.2828 101.507L93.5627 99.5569C93.4056 99.4075 93.2002 99.3191 92.9836 99.3078C92.7671 99.2965 92.5536 99.3629 92.3817 99.4951C92.2098 99.6274 92.0908 99.8167 92.0462 100.029C92.0016 100.241 92.0343 100.462 92.1385 100.653L94.1872 104.158C94.2855 104.317 94.4226 104.448 94.5855 104.539C94.7485 104.629 94.932 104.677 95.1185 104.677C95.305 104.677 95.4884 104.629 95.6514 104.539C95.8144 104.448 95.9515 104.317 96.0497 104.158C96.1214 104.06 96.481 103.602 96.9979 102.948C98.3568 105.098 99.2285 107.518 99.5516 110.041Z" fill="#0048E5"/>
</g>
</g>
</g>
</g>
<g opacity="0.3">
<path d="M0.802734 0.173828H331.473V216.614C331.473 218.823 329.682 220.614 327.473 220.614H4.80273C2.59359 220.614 0.802734 218.823 0.802734 216.614V0.173828Z" fill="url(#paint0_linear_4003_3850)"/>
</g>
</g>
<defs>
<linearGradient id="paint0_linear_4003_3850" x1="166.138" y1="0.173828" x2="166.138" y2="220.614" gradientUnits="userSpaceOnUse">
<stop stop-color="#BEC9DC" stop-opacity="0"/>
<stop offset="1" stop-color="#BEC9DC" stop-opacity="0.4"/>
</linearGradient>
<clipPath id="clip0_4003_3850">
<rect x="0.802734" y="0.173828" width="330.67" height="220.44" rx="4" fill="white"/>
</clipPath>
<clipPath id="clip1_4003_3850">
<rect x="0.802734" y="0.173828" width="330.67" height="220.44" rx="4" fill="white"/>
</clipPath>
<clipPath id="clip2_4003_3850">
<rect width="330.67" height="220.44" fill="white" transform="translate(0.802734 0.173828)"/>
</clipPath>
<clipPath id="clip3_4003_3850">
<rect width="330.67" height="220.11" fill="white" transform="translate(0.792969 0.34375)"/>
</clipPath>
<clipPath id="clip4_4003_3850">
<rect width="330.67" height="220.11" fill="white" transform="translate(0.792969 0.34375)"/>
</clipPath>
</defs>
</svg>
