<svg width="331" height="221" viewBox="0 0 331 221" fill="none" xmlns="http://www.w3.org/2000/svg">
<g clip-path="url(#clip0_4003_3820)">
<rect x="0.142578" y="0.173828" width="330.66" height="220.44" rx="4" fill="#F6F9FC"/>
<g clip-path="url(#clip1_4003_3820)">
<g clip-path="url(#clip2_4003_3820)">
<g clip-path="url(#clip3_4003_3820)">
<g clip-path="url(#clip4_4003_3820)">
<g clip-path="url(#clip5_4003_3820)">
<mask id="mask0_4003_3820" style="mask-type:luminance" maskUnits="userSpaceOnUse" x="0" y="3" width="359" height="251">
<path d="M358.433 3.13672H0.142578V253.841H358.433V3.13672Z" fill="white"/>
</mask>
<g mask="url(#mask0_4003_3820)">
<path d="M94.7135 253.852C121.969 253.852 144.065 231.533 144.065 204.002C144.065 176.471 121.969 154.152 94.7135 154.152C67.4576 154.152 45.3623 176.471 45.3623 204.002C45.3623 231.533 67.4576 253.852 94.7135 253.852Z" fill="#0077C5"/>
<path fill-rule="evenodd" clip-rule="evenodd" d="M114.704 209.569C114.575 209.568 114.452 209.514 114.361 209.421C114.27 209.326 114.218 209.198 114.218 209.064C114.223 208.934 114.277 208.812 114.367 208.722C114.458 208.632 114.578 208.582 114.704 208.582C114.829 208.582 114.95 208.632 115.04 208.722C115.131 208.812 115.184 208.934 115.19 209.064C115.19 209.341 114.973 209.569 114.704 209.569ZM114.704 208.467C114.385 208.467 114.126 208.733 114.126 209.064C114.126 209.396 114.385 209.656 114.704 209.656C115.024 209.656 115.282 209.395 115.282 209.064C115.282 208.733 115.024 208.467 114.704 208.467ZM114.595 209.019V208.827H114.702C114.763 208.827 114.831 208.847 114.831 208.92C114.831 209.001 114.755 209.019 114.689 209.019H114.595ZM114.948 208.922C114.948 208.778 114.828 208.725 114.707 208.725H114.48V209.397H114.595V209.117H114.679L114.831 209.398H114.973L114.798 209.104C114.889 209.083 114.948 209.02 114.948 208.922ZM111.311 200.395C111.468 200.399 111.624 200.37 111.77 200.309C111.916 200.249 112.05 200.159 112.162 200.046C112.274 199.931 112.364 199.795 112.424 199.645C112.485 199.495 112.517 199.333 112.517 199.17C112.517 199.008 112.485 198.847 112.424 198.696C112.364 198.546 112.275 198.409 112.162 198.296C112.05 198.181 111.917 198.092 111.771 198.031C111.625 197.971 111.469 197.943 111.312 197.946C111.003 197.951 110.709 198.084 110.492 198.313C110.276 198.542 110.155 198.85 110.155 199.17C110.155 199.491 110.276 199.799 110.492 200.028C110.709 200.257 111.003 200.389 111.312 200.395H111.311ZM108.144 201.453V203.251H110.334V209.57H112.289V203.251H114.479V201.453H108.144ZM91.0956 200.395C91.2507 200.395 91.4043 200.364 91.5475 200.303C91.6907 200.24 91.8209 200.151 91.9306 200.037C92.0402 199.924 92.1272 199.788 92.1865 199.639C92.2459 199.49 92.2764 199.331 92.2764 199.17C92.2764 199.01 92.2459 198.851 92.1865 198.702C92.1272 198.553 92.0402 198.418 91.9306 198.304C91.8209 198.19 91.6907 198.1 91.5475 198.038C91.4043 197.977 91.2507 197.946 91.0956 197.946C90.7867 197.951 90.4924 198.084 90.2761 198.313C90.0598 198.542 89.9386 198.85 89.9386 199.17C89.9386 199.491 90.0598 199.799 90.2761 200.028C90.4924 200.257 90.7867 200.389 91.0956 200.395ZM87.9279 203.25H90.1184V209.57H92.072V203.251H94.263V201.453H87.9284V203.251L87.9279 203.25ZM104.821 209.57H106.775V201.458H104.821V209.57ZM100.867 205.92C100.867 207.001 100.279 208.116 99.0427 208.116C97.7891 208.116 97.5775 206.917 97.5775 205.953V201.458H95.6233V206.528C95.6233 208.184 96.4699 209.806 98.5058 209.806C99.6615 209.806 100.589 209.079 100.932 208.268H100.964V209.57H102.82V201.458H100.867V205.92ZM84.0507 201.221C82.8946 201.221 81.9667 201.949 81.6247 202.759H81.5918V201.458H79.736V209.57H81.6897V205.108C81.6897 204.027 82.2762 202.911 83.5135 202.911C84.7668 202.911 84.979 204.111 84.979 205.075V209.57H86.9327V204.499C86.9327 202.844 86.0867 201.221 84.0507 201.221ZM75.7803 209.57H77.7339V201.458H75.7803V209.57Z" fill="white"/>
<path d="M172.166 132.437C199.422 132.437 221.517 110.342 221.517 83.0856C221.517 55.8297 199.422 33.7344 172.166 33.7344C144.91 33.7344 122.814 55.8297 122.814 83.0856C122.814 110.342 144.91 132.437 172.166 132.437Z" fill="black"/>
<path fill-rule="evenodd" clip-rule="evenodd" d="M142.155 80.7673C142.889 80.7673 143.579 81.0647 144.096 81.6048C145.167 82.7218 145.167 84.5393 144.096 85.6561L140.015 89.9134L139.278 89.1446L143.359 84.8871C143.681 84.552 143.858 84.1058 143.858 83.6303C143.858 83.1551 143.681 82.7089 143.359 82.3739C142.695 81.6813 141.614 81.6811 140.95 82.374L136.22 87.3084L135.483 86.5393L140.213 81.6052C140.731 81.0649 141.421 80.7675 142.155 80.7673ZM141.782 83.2393L142.515 84.0094L137.807 88.9508C137.292 89.4919 136.606 89.7896 135.876 89.7898C135.144 89.7898 134.458 89.492 133.943 88.9512L133.576 88.5661L134.309 87.796L134.676 88.181C135.338 88.8749 136.412 88.8746 137.074 88.1808L141.782 83.2393ZM157.049 80.3965C157.496 80.3965 157.905 80.4765 158.275 80.6363C158.644 80.7962 158.959 81.0197 159.219 81.3075C159.477 81.5953 159.679 81.9395 159.823 82.3405C159.966 82.7415 160.038 83.1802 160.038 83.6567C160.038 84.1509 159.962 84.5968 159.81 84.9949C159.658 85.393 159.442 85.7372 159.16 86.0277L159.955 87.0128V87.3179H158.945L158.391 86.6033C158.197 86.6962 157.99 86.7688 157.77 86.8211C157.549 86.8734 157.312 86.8995 157.058 86.8995C156.6 86.8995 156.188 86.8195 155.82 86.6599C155.453 86.5 155.141 86.2762 154.885 85.9886C154.628 85.7009 154.43 85.3582 154.289 84.9598C154.148 84.5619 154.078 84.1276 154.078 83.6567C154.078 83.1802 154.148 82.7431 154.289 82.3447C154.43 81.9468 154.63 81.6039 154.89 81.3161C155.148 81.0285 155.461 80.8034 155.828 80.6405C156.195 80.4781 156.603 80.3965 157.049 80.3965ZM162.746 80.3965V84.2317C162.746 84.8039 162.864 85.2285 163.101 85.5059C163.338 85.7832 163.667 85.9217 164.091 85.9217C164.514 85.9217 164.844 85.7832 165.081 85.5059C165.316 85.2285 165.435 84.8039 165.435 84.2317V80.3965H166.474V84.258C166.474 84.7134 166.42 85.1029 166.309 85.427C166.199 85.7509 166.043 86.0165 165.84 86.2239C165.636 86.4312 165.386 86.5829 165.088 86.6792C164.791 86.7756 164.459 86.8235 164.091 86.8235C163.717 86.8235 163.382 86.7756 163.089 86.6792C162.794 86.5829 162.545 86.4312 162.342 86.2239C162.138 86.0165 161.981 85.7509 161.872 85.427C161.761 85.1029 161.707 84.7134 161.707 84.258V80.3965H162.746ZM150.531 80.2729C151.144 80.2729 151.629 80.4261 151.989 80.7326C152.347 81.0393 152.557 81.4494 152.617 81.9631L151.624 82.0507C151.563 81.7879 151.442 81.5836 151.259 81.4377C151.078 81.2918 150.823 81.2187 150.498 81.2187C150.194 81.2187 149.956 81.2931 149.786 81.4421C149.614 81.591 149.529 81.7823 149.529 82.0157C149.529 82.15 149.554 82.2622 149.603 82.3527C149.653 82.4434 149.724 82.5222 149.819 82.5892C149.913 82.6564 150.027 82.7162 150.163 82.7686C150.298 82.8213 150.451 82.877 150.622 82.9352L151.044 83.0753C151.31 83.1629 151.548 83.2547 151.761 83.3511C151.973 83.4474 152.154 83.5628 152.303 83.6971C152.452 83.8314 152.567 83.992 152.646 84.1788C152.727 84.3656 152.766 84.5963 152.766 84.8706C152.766 85.1627 152.711 85.4298 152.602 85.6719C152.49 85.9143 152.336 86.1201 152.138 86.2893C151.938 86.4586 151.702 86.5901 151.429 86.6833C151.156 86.7767 150.854 86.8235 150.523 86.8235C149.91 86.8235 149.399 86.6718 148.991 86.3681C148.582 86.0645 148.331 85.6062 148.237 84.9931L149.248 84.8968C149.308 85.212 149.45 85.4589 149.674 85.6367C149.897 85.815 150.191 85.9039 150.556 85.9039C150.915 85.9039 151.192 85.8164 151.388 85.6412C151.584 85.4662 151.682 85.2355 151.682 84.9494C151.682 84.8092 151.656 84.6911 151.604 84.5946C151.55 84.4983 151.477 84.4167 151.384 84.3495C151.29 84.2825 151.174 84.2254 151.036 84.1788C150.898 84.132 150.743 84.0825 150.572 84.0299L150.125 83.8986C149.86 83.8227 149.623 83.7308 149.413 83.6226C149.203 83.5146 149.024 83.3876 148.875 83.2417C148.726 83.0957 148.612 82.928 148.535 82.7381C148.458 82.5484 148.42 82.3278 148.42 82.0769C148.42 81.8142 148.469 81.572 148.569 81.35C148.667 81.1284 148.809 80.9383 148.991 80.7808C149.173 80.6232 149.394 80.4992 149.653 80.4085C149.913 80.3184 150.205 80.2729 150.531 80.2729ZM206.045 80.3965C206.702 80.3965 207.253 80.5547 207.696 80.8704C208.14 81.1861 208.453 81.6055 208.638 82.1282L207.576 82.3434C207.431 82.0277 207.229 81.7791 206.969 81.5982C206.71 81.4174 206.396 81.327 206.028 81.327C205.733 81.327 205.47 81.3856 205.239 81.503C205.007 81.6203 204.812 81.7819 204.653 81.9879C204.494 82.1938 204.373 82.437 204.289 82.7175C204.206 82.9978 204.164 83.2982 204.164 83.6186C204.164 83.9447 204.207 84.2466 204.293 84.5242C204.38 84.8019 204.505 85.042 204.67 85.2452C204.834 85.4483 205.033 85.6069 205.267 85.7213C205.501 85.8359 205.77 85.8932 206.071 85.8932C206.461 85.8932 206.782 85.7955 207.036 85.6001C207.29 85.4049 207.486 85.1665 207.625 84.885L208.671 85.066C208.576 85.3074 208.452 85.5344 208.298 85.7474C208.145 85.9604 207.96 86.1469 207.743 86.3063C207.526 86.4656 207.273 86.5917 206.986 86.6844C206.699 86.7771 206.38 86.8235 206.028 86.8235C205.582 86.8235 205.177 86.743 204.812 86.5821C204.447 86.4215 204.135 86.1989 203.877 85.9147C203.619 85.6302 203.42 85.2916 203.279 84.898C203.138 84.5047 203.068 84.0782 203.068 83.6186C203.068 83.1593 203.138 82.7328 203.279 82.3393C203.42 81.946 203.62 81.6055 203.882 81.3183C204.142 81.0314 204.455 80.8056 204.82 80.6422C205.185 80.4783 205.594 80.3965 206.045 80.3965ZM188.078 80.2729C188.691 80.2729 189.177 80.4261 189.536 80.7326C189.894 81.0393 190.105 81.4494 190.165 81.9631L189.172 82.0507C189.111 81.7879 188.989 81.5836 188.808 81.4377C188.625 81.2918 188.371 81.2187 188.046 81.2187C187.742 81.2187 187.504 81.2931 187.333 81.4421C187.162 81.591 187.076 81.7823 187.076 82.0157C187.076 82.15 187.101 82.2622 187.151 82.3527C187.201 82.4434 187.273 82.5222 187.367 82.5892C187.46 82.6564 187.575 82.7162 187.71 82.7686C187.845 82.8213 187.998 82.877 188.169 82.9352L188.592 83.0753C188.857 83.1629 189.096 83.2547 189.308 83.3511C189.52 83.4474 189.702 83.5628 189.85 83.6971C189.999 83.8314 190.114 83.992 190.194 84.1788C190.274 84.3656 190.314 84.5963 190.314 84.8706C190.314 85.1627 190.259 85.4298 190.149 85.6719C190.038 85.9143 189.884 86.1201 189.685 86.2893C189.486 86.4586 189.25 86.5901 188.976 86.6833C188.703 86.7767 188.401 86.8235 188.07 86.8235C187.457 86.8235 186.947 86.6718 186.539 86.3681C186.13 86.0645 185.878 85.6062 185.784 84.9931L186.795 84.8968C186.855 85.212 186.997 85.4589 187.222 85.6367C187.445 85.815 187.739 85.9039 188.103 85.9039C188.462 85.9039 188.74 85.8164 188.936 85.6412C189.131 85.4662 189.229 85.2355 189.229 84.9494C189.229 84.8092 189.203 84.6911 189.151 84.5946C189.099 84.4983 189.025 84.4167 188.931 84.3495C188.837 84.2825 188.722 84.2254 188.584 84.1788C188.445 84.132 188.29 84.0825 188.12 84.0299L187.673 83.8986C187.408 83.8227 187.17 83.7308 186.961 83.6226C186.751 83.5146 186.571 83.3876 186.423 83.2417C186.273 83.0957 186.16 82.928 186.083 82.7381C186.006 82.5484 185.967 82.3278 185.967 82.0769C185.967 81.8142 186.016 81.572 186.116 81.35C186.216 81.1284 186.356 80.9383 186.539 80.7808C186.72 80.6232 186.941 80.4992 187.201 80.4085C187.46 80.3184 187.753 80.2729 188.078 80.2729ZM171.273 80.5202L173.388 86.3987V86.7H172.347L171.743 84.9355H169.133L168.529 86.7H167.547V86.3987L169.687 80.5202H171.273ZM176.636 80.5202C176.941 80.5202 177.23 80.5416 177.504 80.5847C177.779 80.6277 178.026 80.7267 178.248 80.8815C178.719 81.2027 178.954 81.6876 178.954 82.3357C178.954 82.6169 178.915 82.8622 178.834 83.0717C178.754 83.281 178.647 83.4588 178.514 83.6051C178.381 83.7515 178.227 83.8705 178.053 83.9621C177.878 84.0539 177.697 84.1227 177.508 84.1685L179.229 86.3985V86.7H178.223L176.403 84.2728H175.73V86.7H174.699V80.5202H176.636ZM184.415 80.5202V81.4669H181.565V83.085H184.215V84.0145H181.565V85.7531H184.474V86.7H180.54V80.5202H184.415ZM194.077 80.5202C194.489 80.5202 194.833 80.5689 195.113 80.6665C195.391 80.764 195.616 80.8987 195.789 81.0711C195.96 81.2431 196.084 81.4453 196.16 81.6779C196.236 81.9101 196.275 82.1612 196.275 82.4309C196.275 82.7524 196.222 83.0319 196.118 83.27C196.014 83.5081 195.863 83.7045 195.666 83.8596C195.469 84.0145 195.229 84.1306 194.948 84.2082C194.666 84.2857 194.348 84.3244 193.994 84.3244H192.92V86.7H191.864V80.5202H194.077ZM200.238 80.5202L202.354 86.3987V86.7H201.313L200.708 84.9355H198.099L197.494 86.7H196.512V86.3987L198.652 80.5202H200.238ZM213.931 80.4456V81.4014H211.065V83.0352H213.731V83.9737H211.065V85.7292H213.991V86.6853H210.035V80.4456H213.931ZM134.885 77.3066L135.622 78.0755L131.54 82.333C130.875 83.0259 130.875 84.1533 131.54 84.8462C132.204 85.5389 133.285 85.5388 133.949 84.8459L138.679 79.9117L139.416 80.6808L134.686 85.6149C134.168 86.155 133.479 86.4528 132.744 86.4528C132.01 86.4528 131.32 86.1551 130.803 85.6151C129.732 84.4984 129.732 82.681 130.803 81.5641L134.885 77.3066ZM157.041 81.338C156.743 81.338 156.477 81.3961 156.243 81.5121C156.008 81.6281 155.809 81.789 155.647 81.9948C155.484 82.2008 155.359 82.4446 155.274 82.7256C155.189 83.0072 155.146 83.3132 155.146 83.6436C155.146 83.9744 155.19 84.2818 155.278 84.5661C155.366 84.8503 155.492 85.0967 155.655 85.3057C155.817 85.5143 156.016 85.6782 156.251 85.7973C156.486 85.9161 156.751 85.9754 157.049 85.9754C157.347 85.9754 157.614 85.919 157.849 85.8059C158.083 85.6928 158.282 85.5348 158.445 85.3315C158.607 85.1287 158.733 84.8834 158.821 84.5965C158.909 84.3093 158.953 83.9946 158.953 83.6524C158.953 83.316 158.909 83.0056 158.821 82.7215C158.733 82.4374 158.607 82.1937 158.445 81.9906C158.282 81.7877 158.082 81.6281 157.844 81.5121C157.607 81.3961 157.339 81.338 157.041 81.338ZM170.594 81.4499H170.334L170.233 81.7424C170.199 81.84 170.162 81.9491 170.119 82.0694C170.078 82.1899 170.032 82.3276 169.981 82.4827C169.931 82.6374 169.869 82.8183 169.797 83.0248L169.452 84.006H171.441L171.114 83.0248C170.985 82.6405 170.881 82.3276 170.803 82.0868C170.725 81.8458 170.655 81.6335 170.594 81.4499ZM199.559 81.4499H199.299L199.198 81.7424C199.165 81.84 199.127 81.9491 199.085 82.0694C199.043 82.1899 198.997 82.3276 198.946 82.4827C198.896 82.6374 198.835 82.8183 198.762 83.0248L198.417 84.006H200.406L200.079 83.0248C199.95 82.6405 199.847 82.3276 199.769 82.0868C199.691 81.8458 199.621 81.6335 199.559 81.4499ZM139.024 77.4302C139.756 77.4302 140.441 77.7281 140.957 78.269L141.324 78.6539L140.59 79.4241L140.223 79.0392C139.904 78.7034 139.478 78.519 139.024 78.519C138.571 78.519 138.146 78.7036 137.825 79.0394L133.118 83.9808L132.383 83.2106L137.092 78.2693C137.607 77.7283 138.294 77.4304 139.024 77.4302ZM193.951 81.4497H192.92V83.3948H193.934C194.12 83.3948 194.291 83.3792 194.446 83.3478C194.6 83.3166 194.735 83.2641 194.85 83.1901C194.966 83.1162 195.057 83.0167 195.121 82.8914C195.186 82.7664 195.218 82.6128 195.218 82.4307C195.218 82.2431 195.186 82.0854 195.121 81.9574C195.057 81.8295 194.968 81.7285 194.855 81.6545C194.742 81.5805 194.608 81.5279 194.453 81.4967C194.299 81.4655 194.131 81.4497 193.951 81.4497ZM176.636 81.4497H175.73V83.3433H176.636C177.034 83.3433 177.349 83.2678 177.579 83.1173C177.809 82.9666 177.924 82.7207 177.924 82.3793C177.924 82.0324 177.807 81.7908 177.574 81.6543C177.342 81.518 177.03 81.4497 176.636 81.4497Z" fill="white"/>
<path d="M251.834 239.036C279.09 239.036 301.185 216.941 301.185 189.685C301.185 162.429 279.09 140.334 251.834 140.334C224.578 140.334 202.482 162.429 202.482 189.685C202.482 216.941 224.578 239.036 251.834 239.036Z" fill="white"/>
<path d="M250.801 175.535L252.182 178.046C252.458 178.565 252.458 179.2 252.182 179.719L243.952 194.639L247.846 201.68C248.454 202.777 249.586 203.47 250.801 203.47C252.016 203.47 253.148 202.777 253.756 201.68L257.65 194.639L256.628 192.734L252.209 200.728C251.933 201.247 251.381 201.565 250.828 201.565C250.248 201.565 249.724 201.247 249.448 200.728L246.05 194.639L253.701 180.787L255.082 183.298C255.358 183.817 255.358 184.452 255.082 184.972L249.752 194.639L250.801 196.544L256.601 186.039L260.411 192.936C260.992 194.004 260.992 195.303 260.411 196.37L256.545 203.383C255.966 204.451 254.115 206.846 250.801 206.846C247.486 206.846 245.664 204.451 245.056 203.383L241.19 196.37C240.61 195.303 240.61 194.004 241.19 192.936L250.801 175.535Z" fill="#ED5153"/>
<path d="M308.071 101.839C335.327 101.839 357.422 79.7439 357.422 52.488C357.422 25.232 335.327 3.13672 308.071 3.13672C280.815 3.13672 258.72 25.232 258.72 52.488C258.72 79.7439 280.815 101.839 308.071 101.839Z" fill="#FF7A59"/>
<path d="M311.51 46.8381V42.6118C312.049 42.351 312.506 41.9368 312.827 41.4175C313.148 40.8983 313.32 40.2953 313.323 39.6789V39.5803C313.321 38.7188 312.989 37.8933 312.401 37.2842C311.812 36.675 311.015 36.3318 310.182 36.3294H310.087C309.255 36.3318 308.458 36.675 307.869 37.2842C307.28 37.8933 306.949 38.7188 306.946 39.5803V39.6789C306.949 40.2953 307.121 40.8983 307.442 41.4175C307.763 41.9368 308.22 42.351 308.76 42.6118V46.8381C307.208 47.0836 305.747 47.749 304.524 48.767L293.314 39.7381C293.394 39.4402 293.436 39.1331 293.441 38.824C293.442 38.0987 293.235 37.3894 292.846 36.7858C292.457 36.1822 291.904 35.7115 291.258 35.4332C290.61 35.1548 289.899 35.0813 289.211 35.222C288.524 35.3626 287.892 35.7111 287.395 36.2233C286.9 36.7356 286.561 37.3887 286.424 38.0998C286.287 38.8111 286.356 39.5485 286.624 40.219C286.891 40.8894 287.344 41.4627 287.926 41.8664C288.509 42.27 289.193 42.486 289.894 42.4869C290.509 42.4845 291.114 42.3144 291.645 41.9937L302.667 50.8758C301.675 52.4262 301.157 54.2505 301.181 56.1104C301.206 57.9703 301.771 59.7793 302.805 61.301L299.45 64.7732C299.181 64.6845 298.901 64.6372 298.618 64.6329C298.042 64.6329 297.479 64.8097 297 65.1409C296.521 65.4721 296.148 65.9428 295.928 66.4936C295.708 67.0443 295.65 67.6504 295.762 68.235C295.875 68.8197 296.152 69.3567 296.559 69.7782C296.967 70.1998 297.486 70.4868 298.05 70.6032C298.615 70.7194 299.2 70.6597 299.732 70.4316C300.264 70.2035 300.719 69.8172 301.039 69.3215C301.359 68.8258 301.53 68.2431 301.53 67.647C301.526 67.3545 301.48 67.0642 301.394 66.7855L304.713 63.3506C305.796 64.207 307.054 64.796 308.39 65.0725C309.727 65.3489 311.107 65.3056 312.424 64.9458C313.743 64.5861 314.964 63.9193 315.994 62.9966C317.026 62.0738 317.84 60.9193 318.374 59.6213C318.908 58.3233 319.149 56.9161 319.078 55.5071C319.007 54.098 318.626 52.7245 317.964 51.4913C317.301 50.258 316.375 49.1978 315.257 48.3913C314.139 47.5849 312.857 47.0535 311.51 46.8381ZM310.135 60.7399C309.227 60.7399 308.34 60.4612 307.585 59.9389C306.83 59.4168 306.242 58.6746 305.894 57.8062C305.547 56.9378 305.456 55.9823 305.633 55.0605C305.81 54.1386 306.248 53.2918 306.889 52.6272C307.532 51.9625 308.35 51.51 309.24 51.3266C310.131 51.1432 311.053 51.2373 311.892 51.597C312.731 51.9567 313.449 52.5658 313.953 53.3473C314.458 54.1288 314.727 55.0477 314.727 55.9876C314.727 57.2479 314.242 58.4567 313.382 59.348C312.521 60.2392 311.353 60.7399 310.135 60.7399Z" fill="white"/>
</g>
</g>
</g>
</g>
</g>
</g>
<g opacity="0.3">
<path d="M0.142578 0.173828H330.803V216.614C330.803 218.823 329.012 220.614 326.803 220.614H4.14257C1.93343 220.614 0.142578 218.823 0.142578 216.614V0.173828Z" fill="url(#paint0_linear_4003_3820)"/>
</g>
</g>
<defs>
<linearGradient id="paint0_linear_4003_3820" x1="165.473" y1="0.173828" x2="165.473" y2="220.614" gradientUnits="userSpaceOnUse">
<stop stop-color="#BEC9DC" stop-opacity="0"/>
<stop offset="1" stop-color="#BEC9DC" stop-opacity="0.4"/>
</linearGradient>
<clipPath id="clip0_4003_3820">
<rect x="0.142578" y="0.173828" width="330.66" height="220.44" rx="4" fill="white"/>
</clipPath>
<clipPath id="clip1_4003_3820">
<rect x="0.142578" y="0.173828" width="330.66" height="220.44" rx="4" fill="white"/>
</clipPath>
<clipPath id="clip2_4003_3820">
<rect width="330.66" height="220.44" fill="white" transform="translate(0.142578 0.173828)"/>
</clipPath>
<clipPath id="clip3_4003_3820">
<rect width="358.29" height="256.63" fill="white" transform="translate(0.142578 0.173828)"/>
</clipPath>
<clipPath id="clip4_4003_3820">
<rect width="358.29" height="256.63" fill="white" transform="translate(0.142578 0.173828)"/>
</clipPath>
<clipPath id="clip5_4003_3820">
<rect width="358.29" height="250.704" fill="white" transform="translate(0.142578 3.13672)"/>
</clipPath>
</defs>
</svg>
